<svg width="60" height="42" viewBox="0 0 60 42" fill="none" xmlns="http://www.w3.org/2000/svg">
<g id="2030">
<g id="Group 3">
<path id="Path 99" fill-rule="evenodd" clip-rule="evenodd" d="M19.9733 27.0516C19.7188 27.1687 19.4608 27.2773 19.1993 27.3773C19.3273 27.6472 19.463 27.9128 19.6065 28.1741C19.878 28.042 20.146 27.9012 20.4105 27.752C20.258 27.5238 20.1125 27.2904 19.974 27.0516H19.9733Z" fill="#464646"/>
<path id="Path 100" fill-rule="evenodd" clip-rule="evenodd" d="M2.74875 17.8763L0.423756 15.9856C0.423756 15.9856 2.59875 12.4817 6.57375 12.8563C6.57375 12.8563 9.93151 13.0327 10.9628 15.7527C10.9628 15.7527 12.1275 19.381 9.45151 21.7798C9.45151 21.7798 5.2095 25.5273 3.5085 26.4651L5.5275 25.5959H11.4203V28.5216H0.215256V25.7557L6.43051 20.7048C7.74301 19.6381 8.715 17.4934 7.11 16.1718C6.89253 15.9937 6.63853 15.8662 6.36621 15.7984C6.0939 15.7306 5.81005 15.7243 5.53501 15.7798C4.41001 15.9811 3.36751 17.1669 2.75326 17.8726L2.74875 17.8763Z" fill="#464646"/>
<path id="Path 101" fill-rule="evenodd" clip-rule="evenodd" d="M32.0602 15.8545V13.0433H42.285V15.5545L38.439 19.3486C38.439 19.3486 41.6528 19.6736 42.435 22.7041C43.3163 26.1191 40.314 28.9928 36.726 28.735C35.6683 28.7098 34.6285 28.4553 33.6776 27.989C32.7268 27.5227 31.8873 26.8556 31.2165 26.0332L33.3465 23.9223C33.3465 23.9223 34.926 25.9947 37.203 25.6992C37.203 25.6992 39.1943 25.6992 39.294 23.9359C39.4253 21.6125 36.687 21.5236 34.926 21.7384L34.4115 19.666L39.333 14.7071L37.383 15.8545H32.0602Z" fill="#464646"/>
<path id="Path 102" fill-rule="evenodd" clip-rule="evenodd" d="M51.777 12.6822C53.358 12.688 54.9019 13.1646 56.2137 14.0517C57.5255 14.9389 58.5463 16.1968 59.1474 17.6667C59.7484 19.1366 59.9027 20.7525 59.5907 22.3104C59.2787 23.8684 58.5145 25.2985 57.3944 26.4202C56.2744 27.5419 54.8489 28.3048 53.2978 28.6127C51.7467 28.9206 50.1396 28.7597 48.6795 28.1502C47.2193 27.5407 45.9716 26.51 45.0938 25.1882C44.216 23.8664 43.7475 22.3129 43.7475 20.7237C43.7462 19.6648 43.9532 18.6162 44.3566 17.638C44.7601 16.6599 45.3519 15.7716 46.0982 15.0242C46.8444 14.2768 47.7303 13.6852 48.7049 13.2832C49.6795 12.8813 50.7236 12.6771 51.777 12.6822ZM51.777 15.7505C52.7698 15.6821 53.7601 15.9155 54.6192 16.4204C55.4782 16.9253 56.1663 17.6783 56.5939 18.5816C57.0215 19.4848 57.1688 20.4964 57.0168 21.4849C56.8647 22.4735 56.4203 23.3931 55.7413 24.1244C55.0623 24.8556 54.1801 25.3646 53.2095 25.5852C52.2388 25.8058 51.2246 25.7277 50.2987 25.3611C49.3728 24.9946 48.578 24.3565 48.0177 23.5298C47.4574 22.7032 47.1575 21.7262 47.157 20.7259C47.1161 19.451 47.5792 18.2116 48.4449 17.2789C49.3107 16.3462 50.5088 15.7961 51.777 15.7489V15.7505Z" fill="#464646"/>
<path id="Path 103" fill-rule="evenodd" clip-rule="evenodd" d="M21.9113 14.0271C22.1013 13.8402 22.299 13.6595 22.5045 13.4851C22.3145 13.2645 22.1168 13.0506 21.9113 12.8436C21.7058 13.0501 21.5083 13.264 21.3188 13.4851C21.5238 13.66 21.7213 13.8407 21.9113 14.0271Z" fill="#464646"/>
<path id="Path 104" fill-rule="evenodd" clip-rule="evenodd" d="M21.93 11.7557C22.1905 11.4884 22.4625 11.2318 22.746 10.986C22.4865 10.6649 22.2145 10.3563 21.93 10.0603C21.646 10.3563 21.374 10.6649 21.114 10.986C21.397 11.2313 21.669 11.4879 21.93 11.7557Z" fill="#464646"/>
<path id="Path 105" fill-rule="evenodd" clip-rule="evenodd" d="M23.0423 13.0562C23.2958 12.8652 23.558 12.6837 23.829 12.5119C23.6505 12.2234 23.4628 11.9419 23.2658 11.6675C22.9863 11.8776 22.7168 12.098 22.4573 12.3287C22.6608 12.5639 22.8558 12.8069 23.0423 13.0562Z" fill="#464646"/>
<path id="Path 106" fill-rule="evenodd" clip-rule="evenodd" d="M24.6337 15.6472C24.5412 15.4361 24.4437 15.2278 24.3412 15.0222C24.5807 14.9338 24.8232 14.8534 25.0687 14.781C25.1632 15.0117 25.2523 15.2454 25.3358 15.4821C25.0983 15.5288 24.8642 15.5839 24.6337 15.6472Z" fill="#464646"/>
<path id="Path 107" fill-rule="evenodd" clip-rule="evenodd" d="M23.6047 15.9887C23.4987 15.8178 23.3875 15.6487 23.271 15.4813C23.4645 15.3864 23.661 15.2959 23.8598 15.2122C23.9693 15.4002 24.0733 15.5912 24.1718 15.7852C23.9798 15.8475 23.7907 15.9153 23.6047 15.9887Z" fill="#464646"/>
<path id="Path 108" fill-rule="evenodd" clip-rule="evenodd" d="M23.9948 14.3784C23.8548 14.1342 23.7067 13.8947 23.5507 13.66C23.8112 13.5147 24.0742 13.378 24.3397 13.2499C24.4847 13.5162 24.6223 13.7876 24.7523 14.0641C24.4958 14.1605 24.2428 14.2656 23.9933 14.3792L23.9948 14.3784Z" fill="#464646"/>
<path id="Path 109" fill-rule="evenodd" clip-rule="evenodd" d="M22.872 14.9536C22.716 14.7591 22.5523 14.5697 22.3808 14.3852C22.5918 14.241 22.8053 14.1025 23.0213 13.9698C23.1848 14.1809 23.34 14.3988 23.4878 14.6197C23.2798 14.7257 23.0745 14.837 22.872 14.9536Z" fill="#464646"/>
<path id="Path 110" fill-rule="evenodd" clip-rule="evenodd" d="M20.8073 13.0743C20.9928 12.823 21.187 12.581 21.39 12.3483C21.1315 12.1171 20.863 11.8965 20.5845 11.6864C20.389 11.9603 20.2023 12.2412 20.0243 12.5292C20.2948 12.7016 20.556 12.8835 20.808 13.075L20.8073 13.0743Z" fill="#464646"/>
<path id="Path 111" fill-rule="evenodd" clip-rule="evenodd" d="M21.9113 27.3954C22.1013 27.5818 22.299 27.7625 22.5045 27.9374C22.3145 28.1575 22.1168 28.3714 21.9113 28.579C21.7058 28.3719 21.5083 28.158 21.3188 27.9374C21.5238 27.763 21.7213 27.5823 21.9113 27.3954Z" fill="#464646"/>
<path id="Path 112" fill-rule="evenodd" clip-rule="evenodd" d="M21.93 29.6675C22.1905 29.9349 22.4625 30.1915 22.746 30.4372C22.4865 30.7584 22.2145 31.0672 21.93 31.3637C21.646 31.0677 21.374 30.7589 21.114 30.4372C21.397 30.192 21.669 29.9354 21.93 29.6675Z" fill="#464646"/>
<path id="Path 113" fill-rule="evenodd" clip-rule="evenodd" d="M23.0423 28.3664C23.2958 28.5569 23.558 28.7383 23.829 28.9107C23.6505 29.1992 23.4628 29.4806 23.2658 29.755C22.9863 29.5449 22.7168 29.3246 22.4573 29.0939C22.6608 28.8582 22.8558 28.6157 23.0423 28.3664Z" fill="#464646"/>
<path id="Path 114" fill-rule="evenodd" clip-rule="evenodd" d="M20.8073 28.3483C20.9928 28.5996 21.187 28.8416 21.39 29.0742C21.1315 29.3054 20.863 29.5263 20.5845 29.7369C20.389 29.4635 20.2023 29.1825 20.0243 28.8941C20.2948 28.7217 20.5553 28.5397 20.8073 28.3483Z" fill="#464646"/>
<path id="Path 115" fill-rule="evenodd" clip-rule="evenodd" d="M25.7722 15.2318C26.0342 15.1906 26.2992 15.159 26.5672 15.1368C26.5397 14.8459 26.5018 14.5561 26.4533 14.2676C26.1668 14.3179 25.8827 14.3764 25.6012 14.4433C25.6677 14.7051 25.7247 14.9685 25.7722 15.2318Z" fill="#464646"/>
<path id="Path 116" fill-rule="evenodd" clip-rule="evenodd" d="M27.0953 13.3931C27.4618 13.3278 27.831 13.2775 28.203 13.2424C28.1765 12.8287 28.1325 12.4184 28.071 12.0113C27.671 12.0867 27.271 12.1791 26.871 12.2887C26.9605 12.6536 27.0355 13.0212 27.096 13.3916L27.0953 13.3931Z" fill="#464646"/>
<path id="Path 117" fill-rule="evenodd" clip-rule="evenodd" d="M27.2513 15.1014C27.5673 15.0944 27.8855 15.0999 28.206 15.118C28.2265 14.7782 28.2355 14.4392 28.233 14.101C27.883 14.1086 27.5365 14.1304 27.1935 14.1666C27.224 14.4767 27.2435 14.788 27.252 15.1006L27.2513 15.1014Z" fill="#464646"/>
<path id="Path 118" fill-rule="evenodd" clip-rule="evenodd" d="M27.2663 16.7343C27.2918 16.4531 27.3097 16.1719 27.3172 15.8907C27.6127 15.9249 27.9063 15.9671 28.1978 16.0173C28.1628 16.3189 28.1185 16.6204 28.065 16.922C27.801 16.8511 27.5345 16.7888 27.2655 16.735L27.2663 16.7343Z" fill="#464646"/>
<path id="Path 119" fill-rule="evenodd" clip-rule="evenodd" d="M26.0213 16.5481C26.0058 16.2968 25.9808 16.0455 25.9463 15.7942C26.2008 15.8002 26.4545 15.8123 26.7075 15.8304C26.7185 16.0983 26.7202 16.3659 26.7127 16.6332C26.4827 16.5976 26.2515 16.5682 26.019 16.545L26.0213 16.5481Z" fill="#464646"/>
<path id="Path 120" fill-rule="evenodd" clip-rule="evenodd" d="M24.9255 16.5496C24.8715 16.3551 24.8113 16.1616 24.7448 15.9691C24.957 15.9314 25.17 15.8998 25.3853 15.8749C25.4388 16.0855 25.4863 16.2978 25.5278 16.5119C25.3268 16.5179 25.1257 16.5315 24.9277 16.5496H24.9255Z" fill="#464646"/>
<path id="Path 121" fill-rule="evenodd" clip-rule="evenodd" d="M25.4198 13.8093C25.7143 13.7153 26.0118 13.6316 26.3123 13.5582C26.2348 13.2195 26.1433 12.8828 26.0378 12.548C25.7208 12.6561 25.4067 12.7757 25.0957 12.9069C25.2167 13.2054 25.3248 13.5069 25.4198 13.8115V13.8093Z" fill="#464646"/>
<path id="Path 122" fill-rule="evenodd" clip-rule="evenodd" d="M18.075 26.1199C18.1225 26.3827 18.1795 26.6453 18.246 26.9077C17.965 26.976 17.681 27.0346 17.394 27.0833C17.344 26.7948 17.306 26.5054 17.28 26.2149C17.5475 26.1928 17.8125 26.1611 18.075 26.1199Z" fill="#464646"/>
<path id="Path 123" fill-rule="evenodd" clip-rule="evenodd" d="M17.925 24.8745C17.9405 25.1258 17.9655 25.3771 18 25.6284C17.7455 25.6228 17.492 25.6108 17.2395 25.5922C17.2285 25.3248 17.2268 25.0572 17.2343 24.7893C17.4643 24.8255 17.6955 24.8549 17.928 24.8775L17.925 24.8745Z" fill="#464646"/>
<path id="Path 124" fill-rule="evenodd" clip-rule="evenodd" d="M16.7835 27.9811C16.8415 28.3515 16.9165 28.7192 17.0085 29.084C16.612 29.1941 16.212 29.2866 15.8085 29.3614C15.7478 28.9544 15.7027 28.5435 15.6765 28.1304C16.048 28.0962 16.4173 28.046 16.7843 27.9796L16.7835 27.9811Z" fill="#464646"/>
<path id="Path 125" fill-rule="evenodd" clip-rule="evenodd" d="M18.4365 27.571C18.5325 27.8726 18.6415 28.1741 18.7635 28.4757C18.452 28.6058 18.137 28.7252 17.8185 28.8338C17.712 28.4996 17.6195 28.1626 17.541 27.8228C17.842 27.749 18.1405 27.665 18.4365 27.571Z" fill="#464646"/>
<path id="Path 126" fill-rule="evenodd" clip-rule="evenodd" d="M21.2243 26.3912C21.0278 26.5096 20.8275 26.6219 20.6242 26.729C20.7687 26.9416 20.92 27.1489 21.078 27.3509C21.2875 27.2182 21.4945 27.08 21.699 26.9363C21.5335 26.7594 21.3745 26.5777 21.222 26.3912H21.2243Z" fill="#464646"/>
<path id="Path 127" fill-rule="evenodd" clip-rule="evenodd" d="M20.5822 25.5107C20.3972 25.5891 20.2092 25.6618 20.0182 25.7286C20.1212 25.9191 20.2295 26.1071 20.343 26.2925C20.5405 26.2035 20.7353 26.1088 20.9273 26.0083C20.8068 25.8455 20.6917 25.6796 20.5822 25.5107Z" fill="#464646"/>
<path id="Path 128" fill-rule="evenodd" clip-rule="evenodd" d="M19.3905 25.9269C19.151 25.9937 18.9085 26.0523 18.663 26.1025C18.7515 26.3428 18.8458 26.5802 18.9458 26.8149C19.2003 26.738 19.4518 26.6526 19.7003 26.5586C19.5913 26.3511 19.488 26.1405 19.3905 25.9269Z" fill="#464646"/>
<path id="Path 129" fill-rule="evenodd" clip-rule="evenodd" d="M19.0335 24.8835C18.8335 24.8951 18.6335 24.9009 18.4335 24.9009C18.468 25.1155 18.5083 25.3293 18.5543 25.5424C18.7695 25.5243 18.9848 25.4994 19.1985 25.467C19.1385 25.2733 19.0853 25.078 19.0373 24.882L19.0335 24.8835Z" fill="#464646"/>
<path id="Path 130" fill-rule="evenodd" clip-rule="evenodd" d="M16.6268 26.2496C16.6343 26.5601 16.653 26.8707 16.683 27.1813C16.34 27.2185 15.9943 27.2414 15.6458 27.2499C15.6458 26.9127 15.655 26.5745 15.6735 26.2352C15.9935 26.2528 16.3113 26.2576 16.6268 26.2496Z" fill="#464646"/>
<path id="Path 131" fill-rule="evenodd" clip-rule="evenodd" d="M28.2465 18.5383C28.482 18.6604 28.7145 18.7921 28.944 18.9333C29.0915 18.682 29.2302 18.4254 29.3602 18.1636C29.1002 18.0324 28.8365 17.9113 28.569 17.8002C28.4695 18.051 28.362 18.297 28.2465 18.5383Z" fill="#464646"/>
<path id="Path 132" fill-rule="evenodd" clip-rule="evenodd" d="M25.9035 17.6577C26.0985 17.7045 26.293 17.7572 26.487 17.816C26.5155 17.6009 26.538 17.3848 26.5545 17.1677C26.343 17.1225 26.13 17.0833 25.917 17.0501C25.917 17.2511 25.9128 17.4522 25.9043 17.6532L25.9035 17.6577Z" fill="#464646"/>
<path id="Path 133" fill-rule="evenodd" clip-rule="evenodd" d="M27.1087 18.0287C27.3412 18.1171 27.5715 18.2139 27.7995 18.3189C27.8685 18.0721 27.9313 17.8241 27.9878 17.5748C27.7378 17.4854 27.4845 17.4052 27.228 17.3344C27.194 17.567 27.1542 17.7985 27.1087 18.0287Z" fill="#464646"/>
<path id="Path 134" fill-rule="evenodd" clip-rule="evenodd" d="M30.3908 17.8371C30.7248 18.0015 31.0523 18.1804 31.3733 18.3739C31.5938 18.0221 31.7983 17.6645 31.9868 17.3011C31.6178 17.124 31.2412 16.9604 30.8565 16.8141C30.715 17.1619 30.5598 17.5024 30.3908 17.8371Z" fill="#464646"/>
<path id="Path 135" fill-rule="evenodd" clip-rule="evenodd" d="M29.5185 19.3095C29.778 19.4914 30.0318 19.6846 30.2798 19.8892C30.4948 19.6268 30.7 19.3582 30.8955 19.0833C30.6095 18.8823 30.3165 18.6943 30.0165 18.5194C29.8595 18.7883 29.6933 19.0514 29.5178 19.3087L29.5185 19.3095Z" fill="#464646"/>
<path id="Path 136" fill-rule="evenodd" clip-rule="evenodd" d="M28.7933 17.1798C29.0863 17.2803 29.3755 17.3894 29.661 17.507C29.7965 17.1868 29.9193 16.8602 30.0293 16.5269C29.7098 16.4264 29.3863 16.3367 29.0588 16.2578C28.9818 16.5709 28.8933 16.8782 28.7933 17.1798Z" fill="#464646"/>
<path id="Path 137" fill-rule="evenodd" clip-rule="evenodd" d="M15.6607 22.7712C15.5452 23.0119 15.4378 23.2579 15.3383 23.5092C15.0708 23.3981 14.807 23.277 14.547 23.1459C14.677 22.8835 14.8158 22.6269 14.9633 22.3762C15.1923 22.5169 15.4247 22.6488 15.6607 22.7719V22.7712Z" fill="#464646"/>
<path id="Path 138" fill-rule="evenodd" clip-rule="evenodd" d="M17.0108 20.6468C16.8823 20.8026 16.7573 20.9627 16.6358 21.127C16.4858 20.9717 16.339 20.8127 16.1955 20.6498C16.3375 20.4855 16.4843 20.3254 16.6358 20.1696C16.7548 20.3335 16.8798 20.4925 17.0108 20.6468Z" fill="#464646"/>
<path id="Path 139" fill-rule="evenodd" clip-rule="evenodd" d="M16.2675 21.6736C16.134 21.8842 16.0075 22.1008 15.888 22.3234C15.688 22.1676 15.4902 22.0073 15.2947 21.8425C15.4447 21.6193 15.5995 21.402 15.759 21.1904C15.924 21.3557 16.093 21.5168 16.2675 21.6736Z" fill="#464646"/>
<path id="Path 140" fill-rule="evenodd" clip-rule="evenodd" d="M13.5285 23.5077C13.359 23.8414 13.2037 24.1824 13.0627 24.5307C12.6782 24.384 12.3015 24.2216 11.9325 24.0437C12.1215 23.6788 12.326 23.321 12.546 22.9702C12.8665 23.1632 13.194 23.3421 13.5285 23.507V23.5077Z" fill="#464646"/>
<path id="Path 141" fill-rule="evenodd" clip-rule="evenodd" d="M15.1042 24.156C15.0042 24.4576 14.9165 24.7654 14.841 25.0795C14.513 25.0001 14.188 24.9094 13.866 24.8074C13.9755 24.4736 14.0977 24.147 14.2327 23.8273C14.5187 23.9469 14.8087 24.0568 15.1027 24.1568L15.1042 24.156Z" fill="#464646"/>
<path id="Path 142" fill-rule="evenodd" clip-rule="evenodd" d="M18.0428 23.7656C17.8478 23.7188 17.6535 23.6658 17.46 23.6065C17.4315 23.8216 17.409 24.0377 17.3925 24.2548C17.604 24.3001 17.8165 24.339 18.03 24.3717C18.03 24.1689 18.03 23.9661 18.0428 23.7686V23.7656Z" fill="#464646"/>
<path id="Path 143" fill-rule="evenodd" clip-rule="evenodd" d="M16.65 24.6483C16.376 24.5915 16.104 24.5259 15.834 24.4515C15.7795 24.746 15.7338 25.0413 15.6968 25.3373C15.9938 25.3921 16.2938 25.4376 16.5968 25.4738C16.6073 25.1986 16.626 24.9235 16.653 24.6491L16.65 24.6483Z" fill="#464646"/>
<path id="Path 144" fill-rule="evenodd" clip-rule="evenodd" d="M16.8383 23.3954C16.6058 23.3074 16.3755 23.2107 16.1475 23.1052C16.0785 23.3519 16.0158 23.5999 15.9593 23.8492C16.2093 23.9387 16.4625 24.0188 16.719 24.0897C16.753 23.858 16.7925 23.6266 16.8375 23.3954H16.8383Z" fill="#464646"/>
<path id="Path 145" fill-rule="evenodd" clip-rule="evenodd" d="M17.1585 22.3385C16.9885 22.2294 16.8225 22.1146 16.6605 21.994C16.563 22.1877 16.47 22.3837 16.3838 22.5835C16.5683 22.6971 16.756 22.8049 16.947 22.9069C17.0115 22.7149 17.082 22.5254 17.1585 22.3385Z" fill="#464646"/>
<path id="Path 146" fill-rule="evenodd" clip-rule="evenodd" d="M14.415 22.0143C14.2395 22.2706 14.0733 22.5327 13.9163 22.8006C13.6163 22.6272 13.3235 22.4405 13.038 22.2405C13.2335 21.9671 13.4387 21.6995 13.6537 21.4376C13.9037 21.6417 14.1578 21.8339 14.4158 22.0143H14.415Z" fill="#464646"/>
<path id="Path 147" fill-rule="evenodd" clip-rule="evenodd" d="M28.311 22.6845C28.43 22.9237 28.5403 23.1682 28.6418 23.418C28.9078 23.3029 29.17 23.1773 29.4285 23.0411C29.2955 22.7807 29.1535 22.5262 29.0025 22.2774C28.775 22.4206 28.5442 22.5553 28.3102 22.6815L28.311 22.6845Z" fill="#464646"/>
<path id="Path 148" fill-rule="evenodd" clip-rule="evenodd" d="M27.5708 19.6969C27.7423 19.8477 27.9095 20.0048 28.0725 20.1681C28.229 19.9671 28.379 19.7587 28.5225 19.5431C28.3335 19.3823 28.1398 19.2258 27.9413 19.0735C27.8248 19.2866 27.7015 19.4946 27.5715 19.6977L27.5708 19.6969Z" fill="#464646"/>
<path id="Path 149" fill-rule="evenodd" clip-rule="evenodd" d="M26.9347 20.5805C27.0652 20.7343 27.1902 20.8926 27.3097 21.0554C27.4597 20.8979 27.6037 20.7373 27.7425 20.5722C27.598 20.4099 27.448 20.2518 27.2925 20.098C27.1755 20.2634 27.0538 20.4242 26.9273 20.5805H26.9347Z" fill="#464646"/>
<path id="Path 150" fill-rule="evenodd" clip-rule="evenodd" d="M28.575 20.6958C28.763 20.9044 28.9445 21.119 29.1195 21.3396C29.336 21.1345 29.5458 20.9234 29.7488 20.7063C29.5408 20.4862 29.326 20.2719 29.1045 20.0633C28.9345 20.2799 28.7583 20.4907 28.5758 20.6958H28.575Z" fill="#464646"/>
<path id="Path 151" fill-rule="evenodd" clip-rule="evenodd" d="M27.69 21.5967C27.826 21.8058 27.9555 22.0206 28.0785 22.2412C28.2785 22.0829 28.4743 21.9201 28.6658 21.7527C28.5158 21.5316 28.358 21.3163 28.1925 21.1067C28.03 21.274 27.8625 21.4374 27.69 21.5967Z" fill="#464646"/>
<path id="Path 152" fill-rule="evenodd" clip-rule="evenodd" d="M30.4523 23.3946C30.6263 23.7263 30.7858 24.0653 30.9308 24.4116C31.3138 24.2608 31.6888 24.0934 32.0558 23.9095C31.8618 23.5471 31.6525 23.1921 31.428 22.8443C31.11 23.0413 30.7843 23.2247 30.4523 23.3946Z" fill="#464646"/>
<path id="Path 153" fill-rule="evenodd" clip-rule="evenodd" d="M26.742 19.1255C26.916 19.2265 27.0877 19.3329 27.2557 19.4452C27.3442 19.2472 27.427 19.0461 27.504 18.8421C27.3145 18.7375 27.1218 18.639 26.9258 18.5466C26.8718 18.7426 26.8095 18.9348 26.742 19.1255Z" fill="#464646"/>
<path id="Path 154" fill-rule="evenodd" clip-rule="evenodd" d="M28.8885 24.0641C28.992 24.3656 29.084 24.6724 29.1645 24.9845C29.4915 24.9006 29.8145 24.8056 30.1335 24.6996C30.02 24.3674 29.8935 24.0407 29.754 23.7195C29.468 23.8457 29.1795 23.9605 28.8885 24.0641Z" fill="#464646"/>
<path id="Path 155" fill-rule="evenodd" clip-rule="evenodd" d="M29.5478 21.9148C29.7268 22.1661 29.8965 22.4262 30.057 22.6951C30.354 22.5172 30.6443 22.3265 30.9278 22.1229C30.7278 21.852 30.519 21.5869 30.3015 21.3276C30.0565 21.5346 29.805 21.7301 29.547 21.9141L29.5478 21.9148Z" fill="#464646"/>
<path id="Path 156" fill-rule="evenodd" clip-rule="evenodd" d="M15.6712 18.6219C15.4372 18.7475 15.2065 18.8822 14.979 19.026C14.829 18.7772 14.687 18.5226 14.553 18.2623C14.811 18.1276 15.073 18.002 15.339 17.8854C15.439 18.1367 15.5493 18.3812 15.6698 18.6189L15.6712 18.6219Z" fill="#464646"/>
<path id="Path 157" fill-rule="evenodd" clip-rule="evenodd" d="M13.5188 17.9502C13.1863 18.1191 12.8613 18.3023 12.5438 18.4998C12.3188 18.153 12.1095 17.7979 11.916 17.4346C12.2825 17.2521 12.6575 17.0848 13.041 16.9325C13.187 17.2788 13.3468 17.6178 13.5203 17.9495L13.5188 17.9502Z" fill="#464646"/>
<path id="Path 158" fill-rule="evenodd" clip-rule="evenodd" d="M14.409 19.4105C14.152 19.5954 13.9008 19.7919 13.6553 20C13.4368 19.7402 13.2278 19.4743 13.0283 19.2024C13.3118 18.9968 13.6023 18.8051 13.8998 18.6272C14.0603 18.8941 14.23 19.1549 14.409 19.4097V19.4105Z" fill="#464646"/>
<path id="Path 159" fill-rule="evenodd" clip-rule="evenodd" d="M15.3705 20.7267C15.1825 20.5182 15.0013 20.3036 14.8268 20.0829C14.6103 20.288 14.4005 20.4991 14.1975 20.7162C14.405 20.9363 14.6197 21.1507 14.8417 21.3592C15.0112 21.1426 15.1863 20.9315 15.3668 20.726L15.3705 20.7267Z" fill="#464646"/>
<path id="Path 160" fill-rule="evenodd" clip-rule="evenodd" d="M16.2555 19.8251C16.12 19.616 15.9908 19.4012 15.8678 19.1805C15.6678 19.3389 15.472 19.5017 15.2805 19.6691C15.4305 19.8897 15.5882 20.105 15.7537 20.3151C15.9162 20.1473 16.0838 19.9839 16.2563 19.8251H16.2555Z" fill="#464646"/>
<path id="Path 161" fill-rule="evenodd" clip-rule="evenodd" d="M15.1065 17.271C14.815 17.3715 14.527 17.4843 14.2425 17.6095C14.1025 17.2913 13.9753 16.9664 13.8608 16.6347C14.1788 16.5302 14.5013 16.4362 14.8283 16.3528C14.9093 16.6649 15.0025 16.971 15.1065 17.271Z" fill="#464646"/>
<path id="Path 162" fill-rule="evenodd" clip-rule="evenodd" d="M25.9425 26.061C25.8985 26.3249 25.845 26.5882 25.782 26.8511C26.064 26.9159 26.3488 26.9707 26.6363 27.0154C26.6808 26.7259 26.7145 26.436 26.7375 26.1455C26.47 26.1269 26.2047 26.0987 25.9417 26.061H25.9425Z" fill="#464646"/>
<path id="Path 163" fill-rule="evenodd" clip-rule="evenodd" d="M27.0908 23.2069C27.1408 23.4326 27.184 23.6588 27.2205 23.8854C27.4655 23.8146 27.7085 23.7351 27.9495 23.6472C27.8905 23.4049 27.8253 23.1635 27.7538 22.9227C27.5348 23.0232 27.3135 23.118 27.09 23.2069H27.0908Z" fill="#464646"/>
<path id="Path 164" fill-rule="evenodd" clip-rule="evenodd" d="M26.0603 23.5439C26.0753 23.7449 26.0845 23.9477 26.088 24.1523C26.3002 24.1138 26.5118 24.0701 26.721 24.0196C26.6995 23.803 26.6715 23.5871 26.637 23.372C26.446 23.4358 26.2535 23.4934 26.0595 23.5446L26.0603 23.5439Z" fill="#464646"/>
<path id="Path 165" fill-rule="evenodd" clip-rule="evenodd" d="M27.3188 24.6121C27.3488 24.8921 27.3698 25.173 27.3818 25.455C27.6773 25.4173 27.9702 25.3713 28.2607 25.317C28.2217 25.0154 28.1735 24.7139 28.116 24.4124C27.8528 24.4877 27.5873 24.5518 27.3188 24.6099V24.6121Z" fill="#464646"/>
<path id="Path 166" fill-rule="evenodd" clip-rule="evenodd" d="M26.0775 24.8157C26.0655 25.067 26.0443 25.3183 26.0138 25.5695C26.2683 25.561 26.5218 25.5457 26.7743 25.5236C26.7823 25.2557 26.7808 24.9881 26.7698 24.7207C26.5403 24.7594 26.3095 24.7918 26.0775 24.8179V24.8157Z" fill="#464646"/>
<path id="Path 167" fill-rule="evenodd" clip-rule="evenodd" d="M27.2573 27.9058C27.2038 28.2767 27.1345 28.6453 27.0495 29.0117C27.4495 29.1162 27.8495 29.2034 28.2495 29.2733C28.3043 28.8654 28.344 28.4546 28.365 28.0407C27.993 28.0111 27.6233 27.9661 27.2558 27.9058H27.2573Z" fill="#464646"/>
<path id="Path 168" fill-rule="evenodd" clip-rule="evenodd" d="M26.7563 22.2548C26.8378 22.4398 26.914 22.6277 26.985 22.8187C27.172 22.7112 27.3563 22.5983 27.5378 22.4802C27.4453 22.2832 27.347 22.0892 27.243 21.8983C27.084 22.0229 26.9218 22.1425 26.7563 22.2571V22.2548Z" fill="#464646"/>
<path id="Path 169" fill-rule="evenodd" clip-rule="evenodd" d="M25.5998 27.5175C25.5073 27.8216 25.402 28.1231 25.284 28.4222C25.5975 28.5483 25.914 28.6634 26.2335 28.7674C26.3335 28.4322 26.4217 28.094 26.4982 27.7527C26.1957 27.6864 25.8963 27.608 25.5998 27.5175Z" fill="#464646"/>
<path id="Path 170" fill-rule="evenodd" clip-rule="evenodd" d="M22.797 26.3709C22.997 26.487 23.197 26.5971 23.397 26.7011C23.255 26.9152 23.1063 27.1245 22.9508 27.3291C22.7393 27.1989 22.5305 27.0635 22.3245 26.9227C22.488 26.7433 22.6448 26.5596 22.7948 26.3717L22.797 26.3709Z" fill="#464646"/>
<path id="Path 171" fill-rule="evenodd" clip-rule="evenodd" d="M23.427 25.4859C23.6135 25.5618 23.8023 25.6319 23.9933 25.6962C23.8933 25.8887 23.7875 26.0779 23.676 26.2639C23.476 26.1774 23.28 26.0852 23.088 25.9872C23.207 25.8233 23.3198 25.656 23.4263 25.4851L23.427 25.4859Z" fill="#464646"/>
<path id="Path 172" fill-rule="evenodd" clip-rule="evenodd" d="M24.0555 27.0177C24.3115 27.1313 24.571 27.2363 24.834 27.3328C24.709 27.6047 24.5768 27.8721 24.4373 28.1349C24.1643 28.0063 23.8943 27.8691 23.6273 27.7233C23.7778 27.4926 23.9205 27.2574 24.0555 27.0177Z" fill="#464646"/>
<path id="Path 173" fill-rule="evenodd" clip-rule="evenodd" d="M24.627 25.8854C24.8675 25.9492 25.111 26.0045 25.3575 26.0513C25.2725 26.293 25.1812 26.5317 25.0837 26.7674C24.8282 26.694 24.5755 26.6116 24.3255 26.5202C24.4315 26.3116 24.5315 26.0997 24.6255 25.8846L24.627 25.8854Z" fill="#464646"/>
<path id="Path 174" fill-rule="evenodd" clip-rule="evenodd" d="M21.996 25.764C22.146 25.8982 22.3005 26.0282 22.4595 26.1538C22.301 26.3011 22.1385 26.4438 21.972 26.582C21.8135 26.4312 21.6595 26.2782 21.51 26.1229C21.6765 26.0083 21.8378 25.8884 21.996 25.764Z" fill="#464646"/>
<path id="Path 175" fill-rule="evenodd" clip-rule="evenodd" d="M24.9683 24.8375C25.1683 24.8466 25.3695 24.8498 25.572 24.8473C25.5405 25.0622 25.5037 25.2763 25.4595 25.4889C25.2442 25.4738 25.0282 25.4519 24.8145 25.424C24.8722 25.2295 24.9225 25.0343 24.9645 24.8375H24.9683Z" fill="#464646"/>
<path id="Path 176" fill-rule="evenodd" clip-rule="evenodd" d="M27.3915 26.1711C27.3875 26.4822 27.3728 26.793 27.3473 27.1036C27.6908 27.1363 28.0368 27.1546 28.3853 27.1587C28.3823 26.8219 28.3685 26.484 28.344 26.1447C28.0245 26.1663 27.707 26.1749 27.3915 26.1703V26.1711Z" fill="#464646"/>
<path id="Path 177" fill-rule="evenodd" clip-rule="evenodd" d="M18.1043 15.2732C17.8418 15.2356 17.5765 15.2074 17.3085 15.1888C17.3325 14.8978 17.3663 14.6078 17.4098 14.3188C17.6968 14.3636 17.9815 14.4186 18.264 14.484C18.201 14.7468 18.1483 15.0099 18.1043 15.2732Z" fill="#464646"/>
<path id="Path 178" fill-rule="evenodd" clip-rule="evenodd" d="M21.1545 15.0335C20.9545 14.9179 20.7545 14.8079 20.5545 14.7033C20.696 14.4892 20.8448 14.2799 21.0008 14.0754C21.2128 14.2055 21.4218 14.341 21.6278 14.4817C21.4643 14.6611 21.3075 14.8448 21.1575 15.0328L21.1545 15.0335Z" fill="#464646"/>
<path id="Path 179" fill-rule="evenodd" clip-rule="evenodd" d="M20.5245 15.9216C20.3375 15.8457 20.1485 15.7756 19.9575 15.7112C20.0575 15.5188 20.1632 15.3293 20.2747 15.1428C20.4747 15.2293 20.6708 15.3215 20.8628 15.4195C20.7438 15.5833 20.631 15.7507 20.5245 15.9216Z" fill="#464646"/>
<path id="Path 180" fill-rule="evenodd" clip-rule="evenodd" d="M19.8945 14.3905C19.6385 14.2769 19.379 14.1719 19.116 14.0754C19.2405 13.8035 19.3728 13.5361 19.5128 13.2733C19.7863 13.4019 20.0563 13.5391 20.3228 13.6849C20.1728 13.915 20.03 14.1502 19.8945 14.3905Z" fill="#464646"/>
<path id="Path 181" fill-rule="evenodd" clip-rule="evenodd" d="M19.326 15.5213C19.0855 15.4575 18.8423 15.4022 18.5963 15.3555C18.6813 15.1132 18.7725 14.8745 18.87 14.6393C19.126 14.7127 19.3788 14.7951 19.6283 14.8866C19.5223 15.0951 19.4223 15.307 19.3283 15.5221L19.326 15.5213Z" fill="#464646"/>
<path id="Path 182" fill-rule="evenodd" clip-rule="evenodd" d="M16.7603 13.4527C16.3933 13.3919 16.0235 13.3469 15.651 13.3177C15.672 12.9041 15.7108 12.493 15.7673 12.0844C16.1698 12.1543 16.5698 12.2415 16.9673 12.346C16.8823 12.7124 16.813 13.0813 16.7595 13.4527H16.7603Z" fill="#464646"/>
<path id="Path 183" fill-rule="evenodd" clip-rule="evenodd" d="M21.954 15.6427C21.804 15.5085 21.6495 15.3786 21.4905 15.2529C21.649 15.1057 21.8115 14.9629 21.978 14.8247C22.1365 14.9755 22.2905 15.1285 22.44 15.2838C22.274 15.3989 22.112 15.5185 21.954 15.6427Z" fill="#464646"/>
<path id="Path 184" fill-rule="evenodd" clip-rule="evenodd" d="M16.626 15.1624C16.31 15.1589 15.992 15.1685 15.672 15.1911C15.6475 14.8518 15.6343 14.5131 15.6323 14.1749C15.9823 14.1779 16.329 14.195 16.6725 14.2261C16.6465 14.5372 16.631 14.8488 16.626 15.1609V15.1624Z" fill="#464646"/>
<path id="Path 185" fill-rule="evenodd" clip-rule="evenodd" d="M16.8608 18.1998C16.8108 17.9746 16.7675 17.7485 16.731 17.5213C16.4855 17.5927 16.2425 17.6721 16.002 17.7595C16.0615 18.0018 16.1268 18.2432 16.1978 18.484C16.4168 18.3835 16.638 18.2887 16.8615 18.1998H16.8608Z" fill="#464646"/>
<path id="Path 186" fill-rule="evenodd" clip-rule="evenodd" d="M17.8882 17.8635C17.8727 17.6625 17.8635 17.46 17.8605 17.2559C17.6485 17.2941 17.4375 17.3386 17.2275 17.3894C17.2493 17.6057 17.2785 17.8221 17.3115 18.0369C17.5028 17.9728 17.6955 17.9155 17.889 17.8643L17.8882 17.8635Z" fill="#464646"/>
<path id="Path 187" fill-rule="evenodd" clip-rule="evenodd" d="M16.6328 16.7976C16.6023 16.5172 16.5813 16.236 16.5698 15.954C16.2748 15.9917 15.9818 16.0377 15.6908 16.092C15.7298 16.3935 15.778 16.6951 15.8355 16.9966C16.0988 16.9212 16.365 16.8572 16.6328 16.7991V16.7976Z" fill="#464646"/>
<path id="Path 188" fill-rule="evenodd" clip-rule="evenodd" d="M17.874 16.594C17.886 16.3427 17.9073 16.0914 17.9378 15.8401C17.6833 15.8487 17.4297 15.864 17.1772 15.8861C17.1697 16.154 17.1713 16.4216 17.1818 16.689C17.4113 16.6518 17.642 16.6201 17.874 16.594Z" fill="#464646"/>
<path id="Path 189" fill-rule="evenodd" clip-rule="evenodd" d="M17.1945 19.1526C17.1135 18.9677 17.0373 18.7797 16.9658 18.5887C16.7788 18.6968 16.5947 18.8096 16.4137 18.9272C16.5057 19.1242 16.6038 19.3182 16.7078 19.5092C16.8663 19.3846 17.0285 19.265 17.1945 19.1504V19.1526Z" fill="#464646"/>
<path id="Path 190" fill-rule="evenodd" clip-rule="evenodd" d="M18.9697 16.5797C19.0197 16.3842 19.0775 16.1899 19.143 15.9969C18.93 15.9618 18.7163 15.9331 18.5018 15.911C18.4508 16.1221 18.4065 16.3362 18.3682 16.5495C18.5692 16.5495 18.7703 16.5639 18.9683 16.5797H18.9697Z" fill="#464646"/>
<path id="Path 191" fill-rule="evenodd" clip-rule="evenodd" d="M18.441 13.847C18.1455 13.7565 17.8468 13.6769 17.5448 13.608C17.6178 13.2678 17.705 12.9298 17.8065 12.5941C18.125 12.6981 18.4405 12.8134 18.753 12.9401C18.636 13.2416 18.5318 13.5432 18.4403 13.8447L18.441 13.847Z" fill="#464646"/>
<path id="Path 192" fill-rule="evenodd" clip-rule="evenodd" d="M0.314255 41.066V37.9465H0.724503V39.4927L2.262 37.9465H2.81701L1.51876 39.21L2.87476 41.0652H2.33326L1.23151 39.4866L0.724503 39.9842V41.0652L0.314255 41.066ZM56.223 41.066L57.4125 37.9465H57.8535L59.121 41.066H58.6538L58.2923 40.1214H56.9977L56.6587 41.066H56.223ZM57.1163 39.7844H58.1663L57.843 38.9205C57.743 38.6581 57.67 38.4425 57.624 38.2737C57.5837 38.4765 57.5278 38.6759 57.4567 38.87L57.1163 39.7844ZM55.4318 41.066V37.9465H55.8413V41.066H55.4318ZM52.4595 41.066V37.9465H53.6213C53.8151 37.9391 54.0085 37.9712 54.1898 38.0407C54.3292 38.1006 54.4466 38.2025 54.5258 38.3325C54.6045 38.4553 54.6469 38.598 54.648 38.7441C54.6483 38.8775 54.6108 39.0082 54.54 39.121C54.461 39.2454 54.3483 39.3445 54.2153 39.4067C54.3863 39.4505 54.5384 39.5496 54.648 39.6887C54.7493 39.8249 54.8021 39.9914 54.798 40.1614C54.7989 40.3024 54.7673 40.4417 54.7058 40.5684C54.6545 40.6816 54.5774 40.781 54.4808 40.8587C54.3788 40.9309 54.2635 40.9822 54.1418 41.0095C53.978 41.0471 53.8102 41.0643 53.6423 41.0607L52.4595 41.066ZM52.8698 39.2567H53.5395C53.6708 39.2619 53.8021 39.2497 53.9303 39.2205C54.0235 39.1965 54.1061 39.1418 54.165 39.0652C54.2198 38.9854 54.2477 38.89 54.2445 38.7931C54.2459 38.6968 54.2199 38.6021 54.1695 38.5202C54.1211 38.442 54.0458 38.3844 53.958 38.3581C53.8034 38.3223 53.6447 38.3076 53.4863 38.3144H52.8683V39.2605L52.8698 39.2567ZM52.8698 40.6974H53.64C53.7335 40.6999 53.827 40.6951 53.9198 40.683C54.0034 40.6696 54.0838 40.6404 54.1568 40.5971C54.2229 40.5542 54.2767 40.4947 54.3128 40.4245C54.3545 40.3432 54.3754 40.2528 54.3735 40.1614C54.3755 40.0541 54.3446 39.9488 54.285 39.8598C54.2252 39.7735 54.1383 39.7098 54.0383 39.6789C53.8916 39.6397 53.7399 39.6224 53.5883 39.6276H52.8728V40.6996L52.8698 40.6974ZM49.2518 41.066L50.4413 37.9465H50.8823L52.1498 41.066H51.6833L51.3225 40.1214H50.028L49.6883 41.066H49.2518ZM50.145 39.7844H51.195L50.8718 38.9205C50.7718 38.6581 50.6988 38.4425 50.6528 38.2737C50.6125 38.4765 50.5566 38.6759 50.4855 38.87L50.145 39.7844ZM46.4753 41.066V37.9465H47.8478C48.0608 37.9374 48.2738 37.966 48.477 38.0309C48.6219 38.0879 48.7434 38.1923 48.822 38.3272C48.9072 38.469 48.9513 38.6319 48.9495 38.7976C48.9523 38.9003 48.9349 39.0026 48.8984 39.0986C48.8618 39.1946 48.8068 39.2824 48.7365 39.357C48.5564 39.5264 48.324 39.6285 48.078 39.6465C48.1674 39.6862 48.2507 39.7385 48.3255 39.8018C48.4553 39.9254 48.5694 40.0647 48.6653 40.2164L49.2038 41.0652H48.6885L48.279 40.4162C48.159 40.2292 48.0607 40.0852 47.979 39.9872C47.9213 39.9071 47.8512 39.8368 47.7713 39.7791C47.7141 39.741 47.651 39.7127 47.5845 39.6955C47.5089 39.6837 47.4323 39.6786 47.3558 39.6804H46.8833V41.0652L46.4753 41.066ZM46.8848 39.3238H47.766C47.9145 39.3294 48.0629 39.3096 48.2048 39.265C48.3036 39.2315 48.3883 39.1657 48.4455 39.078C48.4996 38.9949 48.5283 38.8977 48.528 38.7984C48.5299 38.7297 48.5167 38.6616 48.4892 38.5987C48.4617 38.5359 48.4206 38.48 48.369 38.435C48.2238 38.3275 48.0447 38.2769 47.865 38.2925H46.8833V39.3246L46.8848 39.3238ZM43.2458 41.0698L44.4353 37.9503H44.8763L46.143 41.0698H45.6758L45.315 40.1252H44.0205L43.6808 41.0698H43.2458ZM44.139 39.7882H45.189L44.8658 38.9243C44.7658 38.6619 44.6928 38.4463 44.6468 38.2774C44.6065 38.4803 44.5506 38.6796 44.4795 38.8738L44.139 39.7882ZM41.4923 41.0698V37.9503H41.9018V41.0698H41.4923ZM38.2995 41.0698V37.9503H39.3653C39.5501 37.9455 39.7349 37.9606 39.9165 37.9955C40.0838 38.0325 40.2396 38.1102 40.3703 38.2217C40.5359 38.3647 40.6619 38.5483 40.7363 38.7546C40.821 38.9925 40.8622 39.2438 40.8578 39.4964C40.8612 39.7092 40.8334 39.9213 40.7753 40.1259C40.7305 40.2874 40.6593 40.4403 40.5645 40.5782C40.4882 40.6885 40.3926 40.784 40.2825 40.8602C40.1698 40.9341 40.0448 40.9872 39.9135 41.017C39.7504 41.0544 39.5835 41.0721 39.4163 41.0698H38.2995ZM38.709 40.7011H39.3705C39.5327 40.7068 39.6949 40.6874 39.8513 40.6438C39.9551 40.6124 40.0502 40.5569 40.1288 40.4817C40.2335 40.3699 40.3105 40.2348 40.3538 40.0875C40.4125 39.892 40.44 39.6885 40.4355 39.4844C40.4508 39.2232 40.3956 38.9627 40.2758 38.7305C40.1893 38.5729 40.0528 38.4489 39.888 38.3785C39.7161 38.3271 39.5368 38.3054 39.3578 38.3144H38.7083V40.6974L38.709 40.7011ZM37.209 37.9503H37.6193V39.7528C37.6285 40.0061 37.5927 40.2591 37.5135 40.4998C37.4402 40.6893 37.3058 40.8486 37.1318 40.9522C36.9118 41.0773 36.6612 41.1374 36.4088 41.1255C36.1625 41.1358 35.9175 41.084 35.6963 40.9748C35.5174 40.8811 35.3773 40.7267 35.301 40.539C35.2121 40.2885 35.1718 40.0231 35.1825 39.7573V37.9548H35.592V39.755C35.5824 39.9574 35.6078 40.1599 35.667 40.3536C35.7153 40.48 35.8064 40.5852 35.9243 40.6506C36.0625 40.7247 36.2177 40.7608 36.3743 40.7554C36.49 40.7669 36.6069 40.7544 36.7177 40.7188C36.8285 40.6831 36.9309 40.625 37.0185 40.5481C37.1732 40.3146 37.2412 40.0338 37.2105 39.755V37.9548L37.209 37.9503ZM31.953 41.0698L33.1425 37.9503H33.5835L34.8503 41.0698H34.383L34.0223 40.1252H32.7278L32.388 41.0698H31.953ZM32.8463 39.7882H33.8963L33.573 38.9243C33.4748 38.6619 33.4012 38.4463 33.354 38.2774C33.3137 38.4803 33.2578 38.6796 33.1868 38.8738L32.8463 39.7882ZM29.2695 40.0664L29.6558 40.0324C29.6671 40.169 29.7108 40.3008 29.7833 40.4169C29.8617 40.5261 29.9697 40.6104 30.0945 40.6597C30.2448 40.7229 30.4064 40.7542 30.5693 40.7516C30.7104 40.7542 30.8507 40.7304 30.9833 40.6815C31.0889 40.6447 31.1816 40.578 31.2503 40.4893C31.307 40.412 31.3377 40.3185 31.338 40.2224C31.3401 40.1297 31.3101 40.0391 31.2533 39.9661C31.1789 39.8804 31.0827 39.8168 30.975 39.7822C30.794 39.7222 30.61 39.6719 30.4238 39.6314C30.2171 39.5891 30.0158 39.5236 29.8238 39.4361C29.6899 39.3705 29.5757 39.2704 29.493 39.1459C29.4207 39.0296 29.3832 38.8948 29.385 38.7577C29.385 38.6007 29.4312 38.4473 29.5178 38.3166C29.6122 38.1749 29.7479 38.0659 29.9063 38.0045C30.0868 37.9321 30.2797 37.8959 30.474 37.8983C30.6819 37.8941 30.8885 37.932 31.0815 38.0098C31.2463 38.0756 31.3873 38.1902 31.4858 38.3385C31.5798 38.4853 31.6317 38.6554 31.6358 38.83L31.2435 38.8594C31.239 38.7743 31.2177 38.691 31.1809 38.6143C31.1441 38.5375 31.0924 38.4689 31.029 38.4124C30.872 38.301 30.6814 38.2477 30.4898 38.2616C30.2989 38.2457 30.1082 38.294 29.9475 38.3988C29.8953 38.4367 29.8527 38.4864 29.8231 38.5439C29.7935 38.6014 29.7778 38.665 29.7773 38.7298C29.7759 38.782 29.786 38.8338 29.8069 38.8817C29.8278 38.9295 29.8589 38.9721 29.898 39.0064C30.0864 39.1236 30.2968 39.2006 30.516 39.2326C30.7498 39.2788 30.9792 39.3454 31.2015 39.4316C31.3609 39.499 31.4989 39.609 31.6005 39.7497C31.6868 39.8813 31.7313 40.0362 31.728 40.1938C31.7278 40.3606 31.6788 40.5237 31.587 40.6627C31.4871 40.8141 31.3456 40.9333 31.1798 41.0057C30.9924 41.0893 30.7892 41.131 30.5843 41.1278C30.3436 41.1355 30.104 41.0937 29.88 41.0049C29.6977 40.9286 29.5422 40.7992 29.4338 40.6333C29.3255 40.4663 29.2667 40.2717 29.2643 40.0724L29.2695 40.0664ZM25.5833 41.0652V37.9457H27.672V38.3136H25.992V39.2801H27.4448V39.648H25.992V41.0652H25.5833ZM22.0733 39.5462C22.0469 39.1021 22.1954 38.6653 22.4865 38.3302C22.6236 38.1852 22.7898 38.0711 22.974 37.9953C23.1582 37.9196 23.3563 37.8839 23.5553 37.8907C23.8265 37.887 24.0937 37.9579 24.3278 38.0958C24.5554 38.2315 24.7381 38.4319 24.8528 38.6717C24.9764 38.9329 25.038 39.2193 25.0328 39.5085C25.0383 39.8028 24.9735 40.0942 24.8438 40.3581C24.7262 40.598 24.5383 40.7959 24.3053 40.925C24.0757 41.0525 23.8175 41.1186 23.5553 41.1172C23.28 41.122 23.009 41.0483 22.7738 40.9047C22.546 40.7667 22.3634 40.5646 22.2488 40.3234C22.1307 40.081 22.0696 39.8146 22.0703 39.5447L22.0733 39.5462ZM22.4955 39.5522C22.4772 39.8761 22.5848 40.1945 22.7955 40.4403C22.8911 40.5402 23.0054 40.6202 23.1318 40.6757C23.2582 40.7312 23.3942 40.7612 23.5321 40.7638C23.67 40.7665 23.8071 40.7418 23.9355 40.6912C24.0639 40.6406 24.1811 40.5651 24.2805 40.4689L24.312 40.4373C24.5259 40.1767 24.6332 39.8441 24.612 39.507C24.6171 39.2788 24.5736 39.0521 24.4845 38.8421C24.4061 38.6608 24.2755 38.5072 24.1095 38.4011C23.9442 38.2969 23.7526 38.2427 23.5575 38.245C23.4188 38.2427 23.2811 38.2682 23.1523 38.3199C23.0235 38.3717 22.9063 38.4488 22.8075 38.5466C22.6907 38.6843 22.6028 38.8443 22.5489 39.0169C22.4951 39.1896 22.4764 39.3714 22.494 39.5515L22.4955 39.5522ZM17.3798 41.0652V37.9457H17.997L18.729 40.1546C18.7965 40.3596 18.8468 40.5134 18.879 40.6159C18.9145 40.5024 18.9695 40.3355 19.044 40.1154L19.785 37.9457H20.3333V41.0652H19.938V38.4546L19.038 41.0652H18.6683L17.7728 38.4101V41.0652H17.3798ZM13.9043 39.5462C13.8782 39.1021 14.0266 38.6655 14.3175 38.3302C14.4546 38.1852 14.6208 38.0711 14.805 37.9953C14.9892 37.9196 15.1873 37.8839 15.3863 37.8907C15.6575 37.887 15.9247 37.9579 16.1588 38.0958C16.3861 38.2319 16.5687 38.4322 16.6838 38.6717C16.8074 38.9329 16.869 39.2193 16.8638 39.5085C16.8693 39.8028 16.8045 40.0942 16.6748 40.3581C16.557 40.5979 16.3691 40.7957 16.1363 40.925C15.9066 41.0523 15.6485 41.1185 15.3863 41.1172C15.111 41.122 14.84 41.0483 14.6048 40.9047C14.377 40.7667 14.1944 40.5646 14.0798 40.3234C13.9617 40.081 13.9007 39.8146 13.9013 39.5447L13.9043 39.5462ZM14.3265 39.5522C14.308 39.8762 14.4156 40.1946 14.6265 40.4403C14.7221 40.5403 14.8363 40.6203 14.9627 40.6759C15.089 40.7315 15.225 40.7615 15.3629 40.7642C15.5009 40.767 15.6379 40.7423 15.7664 40.6918C15.8948 40.6413 16.0121 40.5658 16.1115 40.4697L16.143 40.4373C16.3569 40.1767 16.4641 39.8441 16.443 39.507C16.448 39.2788 16.4045 39.0521 16.3155 38.8421C16.2371 38.6608 16.1065 38.5072 15.9405 38.4011C15.7752 38.2968 15.5836 38.2427 15.3885 38.245C15.2498 38.2427 15.1121 38.2682 14.9833 38.32C14.8546 38.3718 14.7373 38.4488 14.6385 38.5466C14.5217 38.6843 14.4338 38.8443 14.3799 39.0169C14.326 39.1896 14.3074 39.3714 14.325 39.5515L14.3265 39.5522ZM10.9058 41.0698V37.9503H11.9715C12.1563 37.9455 12.3411 37.9606 12.5228 37.9955C12.6901 38.0325 12.8459 38.1102 12.9765 38.2217C13.1422 38.3646 13.2683 38.5482 13.3425 38.7546C13.4272 38.9925 13.4684 39.2438 13.464 39.4964C13.4672 39.7092 13.4392 39.9214 13.3808 40.1259C13.3358 40.2875 13.2643 40.4403 13.1693 40.5782C13.0931 40.6886 12.9975 40.7842 12.8873 40.8602C12.7745 40.9341 12.6496 40.9872 12.5183 41.017C12.3552 41.0544 12.1883 41.0721 12.021 41.0698H10.9058ZM11.3153 40.7011H11.9768C12.139 40.7067 12.3011 40.6874 12.4575 40.6438C12.5614 40.6125 12.6565 40.5569 12.735 40.4817C12.8397 40.3699 12.9168 40.2348 12.96 40.0875C13.0189 39.8921 13.0464 39.6885 13.0418 39.4844C13.0571 39.2233 13.0021 38.9629 12.8828 38.7305C12.7963 38.5729 12.6598 38.449 12.495 38.3785C12.3231 38.3271 12.1438 38.3054 11.9648 38.3144H11.3138V40.6974L11.3153 40.7011ZM8.99026 39.8455V39.4806H10.3013V40.6378C10.114 40.7914 9.90396 40.9145 9.67876 41.0027C9.46847 41.0833 9.24532 41.1246 9.02026 41.1248C8.73212 41.1287 8.44748 41.0611 8.19151 40.928C7.94919 40.8028 7.75236 40.6038 7.62901 40.3596C7.50026 40.1026 7.43493 39.8181 7.43851 39.5304C7.43652 39.2363 7.50141 38.9457 7.62825 38.6808C7.74117 38.431 7.93209 38.2251 8.17201 38.0943C8.42444 37.9632 8.70545 37.8976 8.98951 37.9035C9.19693 37.9004 9.403 37.9378 9.59626 38.0136C9.76208 38.0745 9.90883 38.1785 10.0215 38.3151C10.1344 38.467 10.2146 38.6408 10.257 38.8255L9.88726 38.928C9.85218 38.7931 9.79352 38.6654 9.71401 38.5511C9.63482 38.4532 9.53133 38.3781 9.414 38.3332C9.27899 38.2772 9.13407 38.2492 8.98801 38.2511C8.82189 38.2473 8.65669 38.2768 8.50201 38.3378C8.37635 38.3874 8.26333 38.4647 8.17125 38.5639C8.08946 38.6547 8.02353 38.7586 7.97626 38.8715C7.89606 39.0707 7.85579 39.2838 7.85775 39.4987C7.84948 39.7395 7.89833 39.9788 8.00026 40.1968C8.08935 40.3779 8.23539 40.5244 8.41576 40.6137C8.59513 40.7043 8.79325 40.751 8.994 40.7501C9.17236 40.75 9.34895 40.7146 9.51376 40.6461C9.65328 40.5952 9.78314 40.5208 9.89775 40.426V39.8447L8.99026 39.8455ZM4.41526 41.069V37.9495H4.83525L6.46125 40.3988V37.9495H6.85426V41.069H6.43426L4.80826 38.6182V41.069H4.41526ZM3.29026 41.069V37.9495H3.69976V41.069H3.29026Z" fill="#464646"/>
<path id="Path 193" fill-rule="evenodd" clip-rule="evenodd" d="M21.9637 16.4297C22.089 16.6341 22.1581 16.8682 22.164 17.1082C22.164 17.1082 22.5825 16.4184 23.4503 16.9928C23.4503 16.9928 22.7123 16.8933 22.5368 17.2763C22.5368 17.2763 23.6707 16.9747 23.9145 18.0354C23.9145 18.0354 23.3895 17.4459 22.9095 17.5522C23.207 17.6554 23.4539 17.8691 23.5996 18.1494C23.7453 18.4298 23.7788 18.7555 23.6932 19.0599C23.6932 19.0599 23.6018 18.0475 22.8683 17.9254C23.0842 18.1417 23.2372 18.4131 23.311 18.7104C23.3847 19.0077 23.3764 19.3196 23.2868 19.6125C23.2907 19.3818 23.2467 19.1528 23.1576 18.9402C23.0685 18.7276 22.9362 18.536 22.7693 18.3777C22.8685 18.6498 22.9004 18.9422 22.8619 19.2294C22.8235 19.5167 22.716 19.7902 22.5487 20.0264C22.5487 20.0264 22.8488 19.0215 22.3658 18.6536C22.3658 18.6536 22.1677 18.5307 22.1752 18.8993C22.1752 18.8993 22.1183 21.0102 22.2218 22.0347C22.2218 22.0347 24.3157 20.2488 26.1082 21.4361C26.1082 21.4361 24.3337 20.5639 22.29 22.4855L23.6535 23.6917C23.6928 23.6282 23.7516 23.5794 23.821 23.5526C23.8904 23.5258 23.9667 23.5224 24.0381 23.5431C24.1096 23.5637 24.1724 23.6071 24.2171 23.6669C24.2618 23.7266 24.2859 23.7994 24.2858 23.8741C24.2858 24.3377 23.6393 24.3045 23.403 24.0249L21.9698 22.6981L21.9593 22.6664L21.9488 22.6981L20.5193 24.0316C20.283 24.3098 19.6365 24.343 19.6365 23.8809C19.6361 23.8059 19.6601 23.7329 19.7048 23.6729C19.7495 23.6129 19.8125 23.5692 19.8842 23.5486C19.9559 23.5279 20.0324 23.5314 20.1019 23.5584C20.1715 23.5855 20.2303 23.6347 20.2695 23.6984L21.633 22.4923C19.59 20.5684 17.8148 21.4429 17.8148 21.4429C19.6073 20.2555 21.7013 22.0414 21.7013 22.0414C21.8048 21.0132 21.7478 18.9061 21.7478 18.9061C21.7553 18.5382 21.5573 18.6604 21.5573 18.6604C21.078 19.029 21.3743 20.0332 21.3743 20.0332C21.207 19.797 21.0996 19.5235 21.0612 19.2362C21.0227 18.9489 21.0545 18.6566 21.1537 18.3845C20.9868 18.5428 20.8545 18.7344 20.7654 18.947C20.6763 19.1596 20.6323 19.3886 20.6363 19.6193C20.5465 19.3264 20.538 19.0145 20.6118 18.7171C20.6855 18.4198 20.8387 18.1483 21.0548 17.9321C20.3243 18.055 20.2298 19.0667 20.2298 19.0667C20.1438 18.7623 20.1771 18.4364 20.3229 18.1559C20.4687 17.8755 20.7158 17.6619 21.0135 17.559C20.5343 17.4519 20.0085 18.0422 20.0085 18.0422C20.2523 16.9868 21.3863 17.2831 21.3863 17.2831C21.2115 16.8993 20.4728 16.9996 20.4728 16.9996C21.3405 16.4244 21.759 17.1149 21.759 17.1149C21.7644 16.8751 21.833 16.641 21.9578 16.4365L21.9637 16.4297Z" fill="#464646"/>
<path id="Path 194" fill-rule="evenodd" clip-rule="evenodd" d="M3.1365 36.6649H3.53475V36.2639H3.1365V36.6649ZM2.20275 32.3106H1.8045V32.7124H2.20275V32.3106ZM3.80625 36.6649H4.2045V36.2639H3.80625V36.6649ZM1.53075 32.3106H1.1325V32.7124H1.53075V32.3106ZM6.63074 33.5047C6.53536 33.3955 6.41701 33.309 6.28425 33.2514C6.13896 33.1882 5.98115 33.1593 5.823 33.167H5.52975V33.5439H5.87625C5.96755 33.5434 6.05763 33.5651 6.13875 33.6073C6.21874 33.6451 6.2902 33.699 6.34875 33.7656C6.39948 33.8326 6.43853 33.9078 6.46424 33.988C6.48682 34.0848 6.49741 34.184 6.49575 34.2835V35.4143H4.68149V35.8048H6.88425V34.2729C6.8854 34.126 6.86415 33.9799 6.82125 33.8395C6.78419 33.714 6.71989 33.5984 6.633 33.501L6.63074 33.5047ZM21.6082 35.8085H21.9967V32.3106H21.6082V35.8085ZM20.0977 35.4173H19.458C19.275 35.4241 19.0927 35.3915 18.9233 35.3215C18.7951 35.2546 18.689 35.1517 18.618 35.0253C18.6498 34.9049 18.664 34.7804 18.66 34.6559V33.409H18.2707V34.7169C18.2816 34.9127 18.2178 35.1052 18.0923 35.2552C18.0211 35.3261 17.9355 35.3807 17.8414 35.4153C17.7473 35.45 17.6469 35.4637 17.547 35.4557C17.4397 35.4606 17.3326 35.4426 17.2327 35.403C17.1457 35.3699 17.0643 35.3236 16.9913 35.2658C16.9273 35.2008 16.8741 35.126 16.8337 35.0441C16.7922 34.9625 16.7706 34.872 16.7707 34.7803V33.4067H16.3823V34.7486C16.384 34.8533 16.3662 34.9574 16.3297 35.0554C16.2986 35.1346 16.2468 35.2039 16.1798 35.256C16.1201 35.3111 16.048 35.3509 15.9698 35.3721C15.8929 35.4024 15.8108 35.4168 15.7282 35.4143H14.973V33.406H14.5852V35.4143H12.5602L13.2315 33.7867C13.1276 33.6931 13.019 33.605 12.906 33.5228C12.7919 33.448 12.6729 33.381 12.5498 33.3223C12.4305 33.2586 12.3048 33.2081 12.1748 33.1715C11.9315 33.101 11.6733 33.101 11.43 33.1715C11.3019 33.2081 11.1765 33.254 11.055 33.3087C10.9306 33.3689 10.8114 33.4395 10.6988 33.5198C10.5841 33.5994 10.4755 33.6876 10.374 33.7837L11.0557 35.4112H9.71324V33.1602H9.0945C8.87415 33.1576 8.65475 33.1897 8.44425 33.2552C8.26123 33.3199 8.0909 33.4164 7.941 33.5402C7.79853 33.6535 7.68383 33.7982 7.60575 33.9631C7.52927 34.1284 7.48984 34.3085 7.49025 34.4908C7.48167 34.6971 7.52883 34.9018 7.62675 35.0833C7.70686 35.2442 7.82604 35.3821 7.97325 35.4844C8.12837 35.5967 8.3028 35.6793 8.48775 35.7279C8.68723 35.7749 8.89114 35.8001 9.09599 35.8033H9.32625V35.9096C9.33473 35.9916 9.32394 36.0745 9.29477 36.1516C9.26559 36.2288 9.21884 36.2979 9.15825 36.3536C9.01107 36.4462 8.83885 36.4905 8.6655 36.4802C8.55644 36.4812 8.44759 36.4706 8.34075 36.4486C8.22918 36.4192 8.12029 36.3804 8.01525 36.3325L7.89974 36.7026C8.02591 36.7546 8.15578 36.7969 8.28825 36.8293C8.40133 36.859 8.51789 36.8732 8.63475 36.8715C8.78355 36.8829 8.93312 36.8645 9.07475 36.8172C9.21639 36.77 9.34726 36.6949 9.45975 36.5963C9.63352 36.3989 9.72392 36.1412 9.71174 35.8779V35.8025H15.732C15.9079 35.8058 16.0816 35.7621 16.2352 35.6759C16.3774 35.5954 16.4993 35.4832 16.5915 35.3479C16.6776 35.5057 16.808 35.6344 16.9665 35.7181C17.1459 35.8067 17.3441 35.8502 17.544 35.8447C17.7458 35.8492 17.9462 35.8096 18.1313 35.7286C18.2941 35.6479 18.4259 35.5154 18.5063 35.3517C18.5387 35.4146 18.5813 35.4717 18.6323 35.5206C18.6828 35.5772 18.7433 35.624 18.8107 35.6585C18.8919 35.7079 18.9806 35.7436 19.0733 35.7641C19.1661 35.7861 19.2613 35.7968 19.3567 35.7957V35.8063H20.4817V32.3083H20.094V35.4158L20.0977 35.4173ZM29.4585 36.674H29.8567V36.2722H29.4585V36.674ZM33.2453 35.4271L32.6452 33.9269C32.7761 33.8067 32.9289 33.7133 33.0953 33.6517C33.2526 33.5922 33.4199 33.5635 33.588 33.5673C33.7648 33.5654 33.9399 33.6014 34.1017 33.6728C34.264 33.727 34.4137 33.8134 34.542 33.9269L33.9338 35.4271H33.2453ZM35.994 35.4271H34.344L35.0257 33.7889C34.9207 33.7038 34.8053 33.6201 34.6905 33.5356C34.5755 33.4588 34.4566 33.3881 34.3342 33.3238C34.2156 33.2688 34.093 33.2229 33.9675 33.1866C33.7206 33.1161 33.4591 33.1161 33.2122 33.1866C33.0841 33.2231 32.9587 33.2689 32.8372 33.3238C32.7127 33.384 32.5935 33.4549 32.481 33.5356C32.3655 33.6201 32.2605 33.7045 32.1555 33.7889L32.8478 35.4263H31.3957V33.1647H31.008V35.8907C31.013 35.9865 31.006 36.0825 30.987 36.1764C30.9837 36.2395 30.9657 36.301 30.9345 36.3558C30.9099 36.404 30.8689 36.4418 30.819 36.4621C30.7625 36.4856 30.7016 36.4964 30.6405 36.4938C30.6086 36.4955 30.5767 36.4919 30.546 36.4833C30.5105 36.4792 30.4754 36.4721 30.441 36.4621L30.336 36.8391C30.4396 36.8621 30.545 36.8762 30.651 36.8813C30.7742 36.8874 30.8969 36.8614 31.0073 36.8059C31.0995 36.7641 31.1792 36.6986 31.2383 36.6159C31.2963 36.5176 31.3388 36.4108 31.3643 36.2993C31.3868 36.1631 31.3974 36.0251 31.3957 35.8869V35.8025H36.378V32.3144H35.9903V35.4226L35.994 35.4271ZM28.044 36.674H28.4422V36.2722H28.044V36.674ZM25.695 35.4271H25.3065C25.1679 35.4266 25.0301 35.4053 24.8977 35.3638C24.7773 35.3238 24.6665 35.2591 24.5723 35.1738C24.4737 35.0986 24.3947 35.0006 24.342 34.8881C24.2871 34.7652 24.2585 34.6322 24.258 34.4976C24.2556 34.3612 24.2881 34.2264 24.3525 34.1063C24.4141 33.9966 24.4917 33.8967 24.5827 33.81C24.691 33.7342 24.8072 33.6705 24.9293 33.6201C25.05 33.5786 25.1767 33.5573 25.3043 33.5568H25.6927V35.4271H25.695ZM29.859 33.1655H29.4705V35.4271H28.0125V33.1655H27.624V35.4271H26.082V33.1655H25.4708C25.2459 33.1661 25.0225 33.2017 24.8085 33.271C24.6243 33.328 24.4532 33.4212 24.3053 33.5454C24.1685 33.6618 24.0578 33.8059 23.9805 33.9684C23.9044 34.1338 23.865 34.3138 23.865 34.4961C23.8643 34.7013 23.911 34.9039 24.0015 35.0879C24.0871 35.2481 24.2052 35.3886 24.348 35.5002C24.5036 35.6088 24.6778 35.6878 24.8618 35.7332C25.0601 35.786 25.2648 35.8113 25.47 35.8085H29.8545V33.17L29.859 33.1655ZM27.3735 36.674H27.7717V36.2722H27.3735V36.674ZM26.0835 32.3197H25.6852V32.7215H26.0835V32.3197ZM25.4017 32.3197H25.0035V32.7215H25.4017V32.3197ZM37.5052 35.8078H37.893V32.3197H37.5052V35.8078ZM54.8198 35.4678C54.7686 35.5905 54.6937 35.7017 54.5993 35.795C54.5074 35.8832 54.4011 35.9548 54.285 36.0068C54.1551 36.0591 54.0161 36.0847 53.8762 36.0822C53.7386 36.0869 53.602 36.058 53.478 35.9978C53.3632 35.9435 53.2573 35.872 53.1637 35.7859C53.076 35.6916 53.0083 35.5803 52.965 35.4587C52.911 35.3354 52.8825 35.2023 52.881 35.0675C52.8826 34.9293 52.9111 34.7928 52.965 34.6657C53.0085 34.5442 53.0761 34.4329 53.1637 34.3385C53.256 34.2482 53.3621 34.1733 53.478 34.1169C53.604 34.0637 53.7397 34.038 53.8762 34.0415C54.0161 34.039 54.1551 34.0646 54.285 34.1169C54.4045 34.1688 54.5145 34.2404 54.6105 34.3287C54.7052 34.4196 54.7772 34.5317 54.8205 34.6559C54.8756 34.7863 54.9041 34.9265 54.9045 35.0683C54.9042 35.2066 54.8756 35.3433 54.8205 35.4701L54.8198 35.4678ZM51.0652 35.4678C51.0143 35.5906 50.9393 35.7018 50.8448 35.795C50.7508 35.8856 50.6406 35.9575 50.52 36.0068C50.3941 36.0601 50.2583 36.0858 50.1217 36.0822C49.9841 36.0869 49.8475 36.058 49.7235 35.9978C49.6087 35.9434 49.5028 35.872 49.4093 35.7859C49.3215 35.6895 49.2505 35.5789 49.1993 35.4587C49.1531 35.3333 49.1278 35.2012 49.1242 35.0675C49.1278 34.9304 49.1531 34.7948 49.1993 34.6657C49.2507 34.5456 49.3216 34.4351 49.4093 34.3385C49.5015 34.2482 49.6076 34.1733 49.7235 34.1169C49.8495 34.0638 49.9852 34.0381 50.1217 34.0415C50.2616 34.039 50.4006 34.0646 50.5305 34.1169C50.6497 34.1688 50.7595 34.2404 50.8552 34.3287C50.9465 34.4224 51.0179 34.5337 51.0652 34.6559C51.1203 34.7863 51.1489 34.9265 51.1492 35.0683C51.1489 35.2066 51.1203 35.3433 51.0652 35.4701V35.4678ZM41.6475 35.6472H41.2725C41.1337 35.6485 40.9957 35.6271 40.8638 35.5839C40.7404 35.544 40.6263 35.4793 40.5285 35.3939C40.4329 35.3185 40.3572 35.2207 40.308 35.109C40.2482 34.9875 40.2193 34.8531 40.224 34.7177C40.2233 34.5829 40.252 34.4496 40.308 34.3272C40.37 34.2148 40.4519 34.1147 40.5495 34.0317C40.6524 33.9536 40.7651 33.8894 40.8848 33.841C41.0097 33.7988 41.1407 33.7775 41.2725 33.7776H41.6475V35.6472ZM56.4975 35.6472H55.1655C55.2503 35.4654 55.2934 35.2668 55.2915 35.066C55.2907 34.8734 55.2514 34.6829 55.176 34.5059C55.1069 34.3382 55.0075 34.1848 54.8828 34.0535C54.7541 33.9253 54.6011 33.8246 54.4328 33.7573C54.2565 33.6839 54.067 33.648 53.8762 33.6517C53.6892 33.649 53.5037 33.685 53.331 33.7573C53.1677 33.8288 53.0211 33.9339 52.9005 34.0656C52.77 34.1922 52.6697 34.3468 52.6072 34.5179C52.5316 34.6912 52.4923 34.8783 52.4918 35.0675C52.4888 35.2684 52.5319 35.4673 52.6178 35.6487H51.4118C51.4965 35.4669 51.5395 35.2683 51.5378 35.0675C51.537 34.8749 51.4977 34.6844 51.4222 34.5074C51.353 34.3396 51.2533 34.1862 51.1282 34.0551C50.9997 33.9267 50.8467 33.8259 50.6783 33.7588C50.5023 33.6853 50.313 33.6494 50.1225 33.6533C49.9354 33.6494 49.7496 33.6853 49.5773 33.7588C49.4126 33.8327 49.2633 33.937 49.137 34.0664C49.0134 34.1985 48.9141 34.3517 48.8438 34.5187C48.7767 34.6942 48.7412 34.8803 48.7388 35.0683C48.7384 35.1714 48.749 35.2742 48.7702 35.3751C48.7934 35.4682 48.8214 35.5601 48.8542 35.6502H47.6272V32.539H47.2388V35.6465H46.0118V35.0434C46.0123 34.9 45.991 34.7574 45.9488 34.6205C45.9151 34.4925 45.8542 34.3734 45.7702 34.2714C45.6692 34.1687 45.5522 34.0831 45.4238 34.0181C45.2729 33.9622 45.1126 33.9366 44.952 33.9427H43.2322L43.9665 32.5375H43.5457L42.801 33.9322C42.8112 34.0076 42.8288 34.0818 42.8535 34.1538C42.886 34.2143 42.9247 34.2711 42.969 34.3234H44.9513C45.0593 34.3222 45.1663 34.3437 45.2655 34.3868C45.3473 34.4179 45.4197 34.4699 45.4755 34.5375C45.534 34.599 45.574 34.6758 45.591 34.7592C45.6131 34.8528 45.6236 34.9487 45.6225 35.0449V35.648H42.0353V33.3864H41.427C41.2021 33.3868 40.9787 33.4224 40.7648 33.4919C40.5816 33.5513 40.4109 33.6444 40.2615 33.7663C40.1279 33.8828 40.0208 34.0268 39.9473 34.1885C39.8663 34.3522 39.8266 34.5334 39.8317 34.7162C39.8278 34.9206 39.8709 35.1231 39.9577 35.308C40.0499 35.4636 40.167 35.603 40.3043 35.7203C40.4597 35.8291 40.6339 35.9078 40.818 35.9525C41.0165 36.005 41.2211 36.0303 41.4263 36.0279H49.104C49.2304 36.1665 49.3835 36.2779 49.554 36.3551C49.7316 36.4361 49.9252 36.4758 50.1203 36.4712C50.3188 36.4769 50.516 36.4372 50.697 36.3551C50.8746 36.2847 51.0327 36.1725 51.1583 36.0279H52.8675C52.9903 36.1663 53.1402 36.2777 53.3078 36.3551C53.4854 36.4361 53.679 36.4758 53.874 36.4712C54.0725 36.4768 54.2697 36.4371 54.4508 36.3551C54.6282 36.2845 54.7863 36.1723 54.912 36.0279H56.8837V32.5398H56.4952V35.6487L56.4975 35.6472ZM58.0185 36.0241H58.4062V32.536H58.0185V36.0241ZM41.352 32.536H40.9538V32.9378H41.352V32.536ZM42.0338 32.536H41.6355V32.9378H42.0338V32.536ZM4.13625 33.1632H3.74775V35.4143H2.20575V33.1632H1.59749C1.37321 33.1606 1.14985 33.1926 0.935248 33.2582C0.752929 33.32 0.582651 33.4131 0.431994 33.5334C0.29589 33.6524 0.186917 33.7996 0.112498 33.9648C0.0380787 34.13 -3.61732e-05 34.3094 0.000746459 34.4908C-0.00439464 34.6953 0.0387863 34.8981 0.126746 35.0826C0.213513 35.2449 0.335222 35.3858 0.483001 35.4949C0.634992 35.6035 0.805975 35.6822 0.986998 35.7271C1.18527 35.7816 1.38972 35.81 1.59525 35.8116H4.13325V33.173L4.13625 33.1632ZM1.818 35.4143H1.443C1.30425 35.4154 1.16622 35.3941 1.03425 35.351C0.913093 35.3104 0.799532 35.2497 0.698252 35.1715C0.604723 35.0896 0.529562 34.9886 0.477748 34.8753C0.417116 34.7544 0.388202 34.62 0.393748 34.4848C0.394795 34.3545 0.423431 34.226 0.477748 34.1078C0.60278 33.8788 0.808508 33.7051 1.0545 33.6208C1.17895 33.5743 1.31024 33.5488 1.443 33.5454H1.818V35.4173V35.4143ZM9.32699 35.4143H8.93925C8.80049 35.4154 8.66247 35.394 8.5305 35.351C8.40755 35.3147 8.29323 35.2536 8.1945 35.1715C8.09578 35.0963 8.01655 34.9983 7.9635 34.8858C7.90762 34.7633 7.87896 34.6301 7.8795 34.4953C7.87912 34.3637 7.9116 34.2341 7.97399 34.1184C8.03025 34.0049 8.10884 33.9041 8.205 33.8221C8.30674 33.7392 8.41992 33.6717 8.541 33.6216C8.66966 33.5798 8.80402 33.5584 8.93925 33.5583H9.32699V35.418V35.4143ZM11.4668 35.4143L10.8585 33.9133C10.996 33.7966 11.1519 33.7039 11.3198 33.6389C11.4782 33.5836 11.6447 33.555 11.8125 33.5545C11.9892 33.5538 12.164 33.5897 12.3263 33.66C12.4824 33.7205 12.6278 33.8061 12.7568 33.9133L12.1568 35.4143H11.4668Z" fill="#464646"/>
<path id="Path 195" fill-rule="evenodd" clip-rule="evenodd" d="M47.8463 9.76328H48.516V10.4418H47.8463V9.76328ZM49.1865 9.76328H49.857V10.4418H49.1865V9.76328ZM35.9662 2.08368H35.2957V1.40519H35.9662V2.08368ZM52.0065 6.78175C52.2741 6.9677 52.5718 7.10569 52.8862 7.18959C53.2332 7.27562 53.5894 7.31816 53.9467 7.31624H54.114L54.351 6.83754V7.49868C54.3636 7.64073 54.3424 7.78376 54.2891 7.91592C54.2357 8.04807 54.1518 8.16553 54.0443 8.25857C53.798 8.42596 53.503 8.50559 53.2065 8.48473C53.0187 8.4893 52.831 8.47056 52.6478 8.42894C52.4517 8.38021 52.2602 8.31437 52.0755 8.23218L51.8663 8.879C52.089 8.96542 52.3176 9.03595 52.5502 9.09008C52.7473 9.13428 52.9484 9.15777 53.1503 9.16019C53.4067 9.18422 53.6653 9.15543 53.9104 9.07558C54.1554 8.99574 54.3816 8.86652 54.5753 8.69581C54.8779 8.35196 55.0334 7.90202 55.008 7.44365V2.75913H53.9467C53.5632 2.75387 53.1813 2.8109 52.8158 2.928C52.5007 3.03292 52.2073 3.19491 51.9503 3.40595C51.5797 3.72937 51.3255 4.16648 51.227 4.64968C51.1284 5.13289 51.191 5.63527 51.405 6.07914C51.5459 6.35862 51.7517 6.59988 52.005 6.78251L52.0065 6.78175ZM52.0065 4.40482C52.1008 4.20301 52.2393 4.02521 52.4115 3.88465C52.7592 3.5909 53.1993 3.43064 53.6535 3.43234H54.726L54.351 3.62909V6.63927H53.667C53.4305 6.64401 53.1948 6.61067 52.9688 6.54052C52.7576 6.47147 52.5598 6.36667 52.3838 6.23067C52.2232 6.09341 52.0905 5.92626 51.993 5.7384C51.8942 5.52637 51.8464 5.29395 51.8535 5.05993C51.8451 4.83015 51.8968 4.60217 52.0035 4.39879L52.0065 4.40482ZM37.2923 2.08368H36.636V1.40519H37.2923V2.08368ZM56.7113 9.15868C56.5277 9.15605 56.345 9.13252 56.1668 9.08857L56.334 8.44175C56.3955 8.45108 56.4562 8.46519 56.5155 8.48397H56.6828C56.7882 8.49 56.8936 8.4709 56.9903 8.42819C57.0324 8.41458 57.0715 8.39262 57.1051 8.36363C57.1387 8.33463 57.1662 8.29917 57.186 8.25933C57.2389 8.15884 57.272 8.04903 57.2835 7.93592C57.3083 7.77791 57.3176 7.61781 57.3112 7.45797V2.75988H57.981V7.45947C57.9857 7.6952 57.9671 7.9308 57.9255 8.16283C57.8912 8.36008 57.8144 8.54739 57.7005 8.71164C57.6012 8.85598 57.4666 8.97227 57.3098 9.04937C57.1193 9.12693 56.9152 9.16514 56.7098 9.16169L56.7113 9.15868ZM35.4773 9.07425H36.8595V8.56765C36.8765 8.58909 36.8906 8.61266 36.9015 8.63777C37.0063 8.78262 37.1455 8.89874 37.3065 8.9755C37.4966 9.05433 37.7009 9.09258 37.9065 9.08782H50.094V2.75536H49.4242V8.40934H37.9343C37.8257 8.41214 37.7174 8.3979 37.6132 8.36712C37.5364 8.32531 37.4734 8.26193 37.4318 8.1847C37.3735 8.08542 37.3355 7.97548 37.32 7.86129C37.3016 7.70264 37.2923 7.54306 37.2923 7.38334V2.75536H35.4923C35.0892 2.75078 34.6893 2.82612 34.3153 2.97706C33.9412 3.128 33.6005 3.35159 33.3125 3.63502C33.0246 3.91846 32.795 4.25618 32.637 4.62887C32.479 5.00157 32.3957 5.40191 32.3918 5.807C32.3918 5.84168 32.3918 5.87485 32.3918 5.90953V5.92385C32.3683 6.73558 32.6667 7.52342 33.2211 8.11408C33.7755 8.70474 34.5407 9.04984 35.3483 9.07349C35.391 9.07349 35.4338 9.07349 35.4773 9.07349V9.07425ZM33.1043 5.8937C33.0886 5.57073 33.1384 5.24793 33.2506 4.94489C33.3628 4.64184 33.5351 4.36486 33.757 4.13075C33.9789 3.89664 34.2458 3.71027 34.5415 3.58296C34.8372 3.45565 35.1556 3.39005 35.4773 3.39012H37.041L36.636 3.58687V7.38484C36.6308 7.62058 36.6494 7.85624 36.6915 8.0882C36.7137 8.20354 36.7463 8.31659 36.789 8.42593H35.4908C35.1679 8.42357 34.8488 8.35595 34.5525 8.22707C34.2562 8.0982 33.9887 7.91071 33.766 7.67578C33.5432 7.44085 33.3698 7.16328 33.256 6.85958C33.1422 6.55588 33.0903 6.23228 33.1035 5.90802L33.1043 5.8937ZM54.2625 0.658875H54.8092V1.15416H54.3082C54.2562 1.15436 54.2063 1.17523 54.1695 1.21223C54.1327 1.24923 54.1119 1.29935 54.1117 1.35167V1.54919H54.9698V2.08442H53.5552V1.37203C53.5556 1.18347 53.6302 1.00273 53.7627 0.869254C53.8953 0.735782 54.0749 0.659671 54.2625 0.658875Z" fill="#464646"/>
<path id="Path 196" fill-rule="evenodd" clip-rule="evenodd" d="M28.8997 2.71387H29.583V9.00864H29.025L24.5768 3.34637L24.9675 4.26005V9.00938H24.2843V2.71387H24.9398L29.1788 8.13717L28.8983 7.36446V2.71387H28.8997ZM2.86576 9.06441L0.174759 2.71387H0.955509L1.34626 3.65545L3.18675 8.13792L3.3675 8.57366L3.2985 7.88538L5.43225 2.71463H6.18225L3.49126 9.06517L2.86576 9.06441ZM14.8028 2.71387H15.5138V9.00864H14.8005V2.71387H14.8028ZM22.3883 5.87483C22.4031 6.20837 22.3507 6.54149 22.2341 6.85413C22.1175 7.16676 21.9392 7.45244 21.7098 7.69396C21.4805 7.93548 21.2048 8.12785 20.8996 8.25947C20.5943 8.39108 20.2657 8.45925 19.9335 8.45983C19.6002 8.45673 19.2709 8.3865 18.9651 8.25329C18.6592 8.12008 18.383 7.9266 18.1529 7.68428C17.9227 7.44195 17.7432 7.1557 17.625 6.84245C17.5067 6.5292 17.4522 6.1953 17.4645 5.86049V5.84617C17.4501 5.51157 17.5034 5.17752 17.6211 4.86419C17.7388 4.55087 17.9185 4.26479 18.1493 4.02325C18.3801 3.78171 18.6573 3.58972 18.964 3.45889C19.2707 3.32806 19.6006 3.2611 19.9338 3.26207C20.267 3.26304 20.5966 3.33191 20.9025 3.46452C21.2085 3.59714 21.4846 3.79073 21.714 4.03362C21.9434 4.2765 22.1214 4.56361 22.2373 4.87762C22.3532 5.19162 22.4046 5.52598 22.3883 5.86049V5.87483ZM19.9335 2.6008C19.5161 2.59871 19.1024 2.67929 18.7161 2.83793C18.3297 2.99658 17.9782 3.23018 17.6816 3.52539C17.3851 3.8206 17.1493 4.17164 16.9877 4.55846C16.8261 4.94529 16.742 5.36031 16.74 5.77983C16.74 5.80697 16.74 5.83336 16.74 5.86049V5.87483C16.7168 6.71064 17.0246 7.52151 17.5959 8.12933C18.1671 8.73715 18.955 9.09218 19.7865 9.11643C19.8307 9.11643 19.875 9.11643 19.9193 9.11643C20.336 9.12101 20.7495 9.04304 21.1363 8.88697C21.523 8.73089 21.8754 8.49977 22.1732 8.2068C22.4711 7.91384 22.7087 7.56476 22.8723 7.17951C23.036 6.79427 23.1225 6.38039 23.127 5.96151C23.127 5.92608 23.127 5.89141 23.127 5.85597V5.84165C23.1471 5.00261 22.835 4.18986 22.2593 3.58202C21.6835 2.97417 20.8912 2.62097 20.0565 2.60004C20.0152 2.60004 19.9748 2.60004 19.9335 2.60004V2.6008ZM13.6448 7.30792V7.32224C13.6448 8.40404 12.738 9.10663 11.4975 9.10663C10.5492 9.1142 9.63501 8.7515 8.9475 8.09495L9.38025 7.57554C9.66175 7.859 9.99662 8.08326 10.3653 8.23522C10.734 8.38717 11.1291 8.46378 11.5275 8.46057C12.378 8.46057 12.9217 8.00826 12.9217 7.3931V7.37878C12.9217 6.78926 12.615 6.45153 11.2905 6.18466C9.85426 5.86125 9.19876 5.39838 9.19876 4.35805V4.34373C9.21446 4.09276 9.28072 3.8476 9.39355 3.62316C9.50637 3.39872 9.6634 3.19967 9.85509 3.03808C10.0468 2.8765 10.2691 2.75575 10.5087 2.68317C10.7482 2.61059 10.9999 2.5877 11.2485 2.61588C12.0551 2.59101 12.8416 2.87164 13.452 3.40216L13.0478 3.95021C12.5454 3.50929 11.9019 3.26496 11.235 3.26193C10.4258 3.26193 9.89625 3.71425 9.89625 4.27287V4.30075C9.89625 4.89027 10.2173 5.22876 11.5973 5.52352C12.9915 5.83261 13.647 6.33921 13.647 7.30792H13.6448ZM7.85775 9.00788H7.14975V2.71387H7.86076L7.85775 9.00788Z" fill="#464646"/>
</g>
</g>
</svg>
