<svg width="31" height="30" viewBox="0 0 31 30" fill="none" xmlns="http://www.w3.org/2000/svg">
<g id="Icon">
<path id="Vector" d="M20.667 26.25V23.75C20.667 22.4239 20.1226 21.1521 19.1537 20.2145C18.1848 19.2768 16.8706 18.75 15.5003 18.75H6.45866C5.08837 18.75 3.77421 19.2768 2.80527 20.2145C1.83634 21.1521 1.29199 22.4239 1.29199 23.75V26.25" stroke="#008E7D" stroke-width="2" stroke-linecap="round" stroke-linejoin="round"/>
<path id="Vector_2" d="M10.9792 13.75C13.8326 13.75 16.1458 11.5114 16.1458 8.75C16.1458 5.98858 13.8326 3.75 10.9792 3.75C8.1257 3.75 5.8125 5.98858 5.8125 8.75C5.8125 11.5114 8.1257 13.75 10.9792 13.75Z" stroke="#008E7D" stroke-width="2" stroke-linecap="round" stroke-linejoin="round"/>
<path id="Vector_3" d="M25.833 10V17.5" stroke="#008E7D" stroke-width="2" stroke-linecap="round" stroke-linejoin="round"/>
<path id="Vector_4" d="M29.708 13.75H21.958" stroke="#008E7D" stroke-width="2" stroke-linecap="round" stroke-linejoin="round"/>
</g>
</svg>
