<svg width="200" height="200" viewBox="0 0 200 200" fill="none" xmlns="http://www.w3.org/2000/svg">
<g id="BG">
<rect id="BG_2" width="200" height="200" rx="10" fill="white"/>
<g id="Shapes">
<path id="Path 1343" d="M69.0225 75.7254C70.3142 75.8773 71.5805 76.1984 72.7886 76.6802L73.2166 76.8535L73.0123 77.2674C71.7784 79.6942 70.1023 81.8694 68.0702 83.6812L67.7425 83.9567L67.4626 83.6326C67.3853 83.5414 65.5534 81.3383 64.2734 76.1894L64.1512 75.6947L64.659 75.6582C66.1122 75.5379 67.5737 75.5604 69.0225 75.7254Z" fill="#D6EEF3"/>
<g id="shape" opacity="0.06">
<path id="Path 1337" d="M65.7643 192.214C67.8317 191.781 69.8337 191.08 71.7194 190.128L72.3893 189.789L72.001 189.147C69.6723 185.412 66.664 182.147 63.1321 179.52L62.5633 179.119L62.1582 179.688C62.0458 179.848 59.3896 183.664 58.0338 192.151L57.9038 192.966L58.7341 192.949C61.0958 192.932 63.4502 192.686 65.7643 192.214Z" stroke="#464646"/>
<path id="Path 1344" d="M40.3739 168.323C38.8896 167.925 37.3596 167.722 35.8227 167.719L35.2764 167.719L35.3149 168.261C35.5841 171.446 36.4507 174.551 37.8693 177.416L38.1043 177.86L38.5536 177.625C38.6787 177.559 41.6679 175.957 45.3655 170.903L45.7209 170.422L45.1786 170.159C43.641 169.391 42.0317 168.776 40.3739 168.323Z" stroke="#464646"/>
<path id="Path 1345" d="M51.7795 160.109C51.7953 159.3 51.7044 158.492 51.5091 157.706L51.4385 157.426L51.1633 157.517C49.5539 158.061 48.0604 158.901 46.7598 159.994L46.5608 160.172L46.7397 160.372C47.9894 161.539 49.4702 162.432 51.0863 162.991L51.3823 163.111L51.4497 162.801C51.6481 161.916 51.7586 161.015 51.7795 160.109Z" stroke="#464646"/>
<path id="Path 1346" d="M23.017 169.724C22.2773 169.344 21.4908 169.063 20.6777 168.888L20.3881 168.827L20.3471 169.118C20.1292 170.834 20.2362 172.576 20.6624 174.252L20.7378 174.514L21.0018 174.44C22.6386 173.823 24.1278 172.869 25.3733 171.64L25.6139 171.423L25.3524 171.227C24.6249 170.651 23.8427 170.147 23.017 169.724Z" stroke="#464646"/>
</g>
<g id="shape_2">
<path id="Union 14" d="M71.7194 186.674C69.8339 187.626 67.8319 188.327 65.7643 188.76C63.4503 189.235 61.0955 189.483 58.7334 189.502L57.9038 189.517L58.033 188.704C59.3888 180.216 62.0443 176.398 62.1582 176.241L62.5633 175.671L63.1313 176.068C66.663 178.695 69.6712 181.96 72.0002 185.695L72.3877 186.337L71.7194 186.674ZM54.1196 155.45C52.0344 155.225 50.0196 154.565 48.2046 153.514L47.9358 153.326L48.1236 153.059C49.3741 151.397 50.9251 149.984 52.6964 148.893L52.9997 148.711L53.1601 149.026C53.6105 149.91 53.9431 150.85 54.1493 151.821C54.3754 152.908 54.4933 154.014 54.5015 155.124L54.5079 155.514L54.1196 155.45ZM43.0485 162.84C39.3509 167.894 36.3625 169.498 36.2366 169.562L35.7865 169.797L35.5523 169.352C34.134 166.488 33.2677 163.382 32.9987 160.197L32.9602 159.656L33.5081 159.656C35.0447 159.658 36.5744 159.861 38.0585 160.259C39.7161 160.711 41.3254 161.325 42.8632 162.092L43.4055 162.354L43.0485 162.84ZM21.0074 165.77C20.2605 167.784 19.0986 169.618 17.597 171.153L17.3443 171.37L17.1229 171.117C15.7697 169.469 14.7383 167.58 14.0824 165.551L13.9749 165.204L14.3294 165.124C15.329 164.898 16.354 164.804 17.378 164.846C18.5221 164.893 19.6589 165.051 20.7723 165.318L21.1662 165.398L21.0074 165.77Z" stroke="#C1E6EE"/>
</g>
</g>
</g>
</svg>
