<svg width="49" height="64" viewBox="0 0 49 64" fill="none" xmlns="http://www.w3.org/2000/svg">
<g id="Shapes">
<g id="shape" opacity="0.06">
<path id="Path 1337" d="M1.32562 56.0711C1.789 58.2841 2.53945 60.4269 3.55815 62.4454L3.92146 63.1624L4.60847 62.7468C8.60635 60.2541 12.1016 57.0342 14.913 53.2537L15.3424 52.6449L14.7336 52.2112C14.5618 52.091 10.4777 49.2478 1.39334 47.7966L0.520996 47.6575L0.539026 48.5462C0.556892 51.0741 0.820336 53.5942 1.32562 56.0711Z" stroke="#464646"/>
<path id="Path 1344" d="M26.898 28.8936C27.3246 27.3049 27.5419 25.6672 27.5445 24.0222V23.4374L26.9649 23.4786C23.5557 23.7668 20.2313 24.6943 17.1654 26.2127L16.6895 26.4643L16.9412 26.9452C17.0117 27.0792 18.7264 30.2787 24.1363 34.2365L24.6516 34.617L24.9332 34.0365C25.7548 32.3906 26.413 30.6681 26.898 28.8936Z" stroke="#464646"/>
<path id="Path 1345" d="M35.6903 41.102C36.5566 41.119 37.4214 41.0217 38.2622 40.8126L38.5618 40.7371L38.4648 40.4425C37.8823 38.7199 36.983 37.1213 35.8132 35.7291L35.6224 35.5161L35.4087 35.7076C34.1593 37.0453 33.2043 38.6303 32.6058 40.3601L32.4771 40.677L32.8093 40.7491C33.7557 40.9615 34.7207 41.0797 35.6903 41.102Z" stroke="#464646"/>
<path id="Path 1346" d="M25.399 10.3154C25.8059 9.52369 26.1068 8.68178 26.2938 7.81144L26.359 7.50145L26.0472 7.45766C24.2104 7.22441 22.3461 7.33888 20.5516 7.79513L20.2715 7.87585L20.3505 8.15837C21.0115 9.91039 22.0324 11.5044 23.3474 12.8375L23.5801 13.0951L23.7898 12.8152C24.4065 12.0364 24.9455 11.1992 25.399 10.3154Z" stroke="#464646"/>
</g>
<g id="shape_2">
<path id="Union 14" d="M7.25568 62.4454C6.2365 60.4271 5.4859 58.2842 5.02303 56.0711C4.51469 53.5943 4.24867 51.0738 4.22872 48.5454L4.2124 47.6575L5.08314 47.7957C14.1683 49.2469 18.2549 52.0893 18.4232 52.2112L19.0329 52.6449L18.6079 53.2528C15.7961 57.0331 12.301 60.253 8.30331 62.7459L7.61634 63.1607L7.25568 62.4454ZM40.6768 43.6069C40.918 41.375 41.6239 39.2183 42.7488 37.2756L42.9506 36.988L43.2357 37.1889C45.015 38.5274 46.5276 40.1876 47.695 42.0836L47.8899 42.4082L47.5533 42.5799C46.6066 43.062 45.6008 43.418 44.5616 43.6387C43.3982 43.8807 42.2137 44.007 41.0254 44.0157L40.6081 44.0225L40.6768 43.6069ZM32.7672 31.7567C27.3573 27.7989 25.6398 24.6002 25.572 24.4654L25.3204 23.9836L25.7961 23.7329C28.8622 22.2148 32.1866 21.2875 35.5958 20.9996L36.1754 20.9584V21.5449C36.1729 23.1896 35.9558 24.827 35.5296 26.4155C35.0452 28.1898 34.388 29.9123 33.5675 31.5583L33.2867 32.1388L32.7672 31.7567ZM29.6303 8.16443C27.4753 7.36495 25.5124 6.12125 23.8692 4.51405L23.6365 4.24355L23.907 4.00655C25.6718 2.55808 27.6931 1.45409 29.8656 0.75203L30.2365 0.636963L30.3224 1.01651C30.5644 2.08644 30.6643 3.18359 30.6195 4.27962C30.5696 5.50421 30.4005 6.72103 30.1146 7.91283L30.0287 8.33446L29.6303 8.16443Z" stroke="#C1E6EE"/>
</g>
</g>
</svg>
