<svg width="24" height="25" viewBox="0 0 24 25" fill="none" xmlns="http://www.w3.org/2000/svg">
<path d="M19 11.0762H5C3.89543 11.0762 3 11.9716 3 13.0762V20.0762C3 21.1807 3.89543 22.0762 5 22.0762H19C20.1046 22.0762 21 21.1807 21 20.0762V13.0762C21 11.9716 20.1046 11.0762 19 11.0762Z" stroke="#008E7D" stroke-width="2" stroke-linecap="round" stroke-linejoin="round"/>
<path d="M7 11.0762V7.07617C7 5.75009 7.52678 4.47832 8.46447 3.54064C9.40215 2.60296 10.6739 2.07617 12 2.07617C13.3261 2.07617 14.5979 2.60296 15.5355 3.54064C16.4732 4.47832 17 5.75009 17 7.07617V11.0762" stroke="#008E7D" stroke-width="2" stroke-linecap="round" stroke-linejoin="round"/>
</svg>
