<svg width="12" height="14" viewBox="0 0 12 14" fill="none" xmlns="http://www.w3.org/2000/svg">
<path id="Date" d="M10.6667 1.8H10V1.15C10 0.7925 9.7 0.5 9.33333 0.5C8.96667 0.5 8.66667 0.7925 8.66667 1.15V1.8H3.33333V1.15C3.33333 0.7925 3.03333 0.5 2.66667 0.5C2.3 0.5 2 0.7925 2 1.15V1.8H1.33333C0.593333 1.8 0.00666666 2.385 0.00666666 3.1L0 12.2C0 12.915 0.593333 13.5 1.33333 13.5H10.6667C11.4 13.5 12 12.915 12 12.2V3.1C12 2.385 11.4 1.8 10.6667 1.8ZM10.6667 11.55C10.6667 11.9075 10.3667 12.2 10 12.2H2C1.63333 12.2 1.33333 11.9075 1.33333 11.55V5.05H10.6667V11.55ZM2.66667 6.35H4V7.65H2.66667V6.35ZM5.33333 6.35H6.66667V7.65H5.33333V6.35ZM8 6.35H9.33333V7.65H8V6.35Z" fill="#6C788D"/>
</svg>
