<svg width="121" height="42" viewBox="0 0 121 42" fill="none" xmlns="http://www.w3.org/2000/svg">
<g id="Gov.sa">
<g id="lYg6nJ_3_">
<g id="XMLID_498_">
<path id="XMLID_508_" d="M47.0058 12.2232C47.0538 11.8854 47.1018 11.5447 47.1655 11.2265C47.3508 10.3615 47.803 9.57729 48.4576 8.98563C49.1122 8.39398 49.9359 8.02505 50.8113 7.93141C51.9247 7.73628 53.0701 7.85312 54.1218 8.26914C54.7467 8.52734 55.297 8.93953 55.7218 9.4677C56.1466 9.99587 56.4323 10.623 56.5525 11.2914C56.5666 11.3382 56.5719 11.3873 56.5683 11.4361C56.5203 11.4361 56.488 11.452 56.4565 11.452H54.0565C54.0144 11.4589 53.9712 11.4516 53.9336 11.4313C53.8961 11.411 53.8662 11.3788 53.8488 11.3396C53.6687 10.8861 53.3372 10.5097 52.9112 10.275C52.4852 10.0403 51.9912 9.96204 51.514 10.0535C51.1081 10.0885 50.7237 10.2522 50.4163 10.5208C50.1089 10.7895 49.8942 11.1493 49.8033 11.5484C49.5571 12.3599 49.5853 13.2305 49.8835 14.0241C49.9849 14.3401 50.1744 14.6202 50.4296 14.8311C50.6847 15.0419 50.9947 15.1748 51.3228 15.2137C51.9937 15.3577 52.6941 15.2307 53.2728 14.8602C53.5146 14.7017 53.7082 14.4792 53.8322 14.2171H51.8013V12.4629H56.6148V17.3027H54.5838V16.1613C54.544 16.1779 54.5065 16.1994 54.472 16.2254C54.1454 16.6191 53.7335 16.9325 53.2678 17.1415C52.8022 17.3506 52.2952 17.4498 51.7855 17.4316C50.7691 17.4796 49.7615 17.2221 48.8913 16.6921C48.4138 16.3712 48.008 15.9539 47.6996 15.4668C47.3913 14.9797 47.1872 14.4335 47.1003 13.8628C47.0523 13.6057 47.02 13.3487 46.9885 13.0916C47.0057 12.818 47.0058 12.5126 47.0058 12.2232Z" fill="#464646"/>
<path id="XMLID_505_" d="M68.131 12.6581C68.1357 13.5034 67.9498 14.3387 67.5873 15.1014C67.3318 15.6115 66.9718 16.0615 66.5308 16.4217C66.0899 16.7819 65.578 17.0441 65.029 17.1911C63.8133 17.5664 62.512 17.5551 61.303 17.1587C60.5248 16.9268 59.832 16.4691 59.3116 15.8429C58.7912 15.2167 58.4664 14.45 58.378 13.6389C58.2257 12.7661 58.275 11.8698 58.522 11.0192C58.6998 10.3306 59.0528 9.70024 59.5463 9.19019C60.0398 8.68014 60.6568 8.30791 61.3368 8.11008C62.5807 7.70471 63.9211 7.71026 65.1618 8.12591C65.9429 8.36594 66.6359 8.83272 67.1538 9.46757C67.6717 10.1024 67.9914 10.877 68.0725 11.694C68.0988 12.0309 68.0987 12.3362 68.131 12.6581ZM60.967 12.6581V12.931C60.9843 13.4302 61.1273 13.9168 61.3825 14.3453C61.6011 14.6784 61.91 14.9417 62.2727 15.104C62.6354 15.2663 63.0367 15.3208 63.4293 15.2612C63.8061 15.2487 64.1716 15.1287 64.483 14.9151C64.7945 14.7015 65.039 14.4032 65.188 14.0551C65.504 13.3191 65.5603 12.4967 65.3477 11.7241C65.2661 11.2882 65.0457 10.8908 64.7199 10.5917C64.394 10.2926 63.9803 10.1079 63.541 10.0656C63.0883 9.98096 62.6204 10.0465 62.208 10.2524C61.7955 10.4582 61.4608 10.7933 61.2543 11.207C61.0363 11.6579 60.9374 12.1577 60.967 12.6581Z" fill="#464646"/>
<path id="XMLID_504_" d="M81.8193 14.0875H84.4578V14.4569C84.4421 14.6548 84.4983 14.8517 84.6159 15.0112C84.7335 15.1707 84.9046 15.282 85.0975 15.3246C85.5773 15.4794 86.0857 15.5234 86.5848 15.4535C86.8469 15.4269 87.1047 15.3674 87.352 15.2763C87.5323 15.1973 87.6912 15.076 87.8155 14.9228C87.8733 14.8557 87.9145 14.7758 87.9355 14.6897C87.9566 14.6035 87.957 14.5135 87.9367 14.4272C87.9164 14.3408 87.876 14.2606 87.8189 14.193C87.7617 14.1254 87.6893 14.0725 87.6077 14.0385C87.2093 13.8816 86.797 13.7632 86.3763 13.6849C85.4896 13.5764 84.6163 13.3771 83.77 13.0901C83.4337 12.9591 83.1204 12.7745 82.8423 12.5436C82.5742 12.2924 82.3634 11.986 82.2243 11.6453C82.0851 11.3045 82.021 10.9376 82.0361 10.5696C82.0513 10.2016 82.1455 9.84127 82.3122 9.51329C82.4789 9.18531 82.7142 8.89746 83.002 8.66947C83.5314 8.28531 84.1463 8.03711 84.793 7.94651C85.9213 7.73943 87.0821 7.8001 88.183 8.12367C88.5253 8.23944 88.8526 8.39584 89.158 8.58956C89.5299 8.84554 89.8223 9.20193 90.0014 9.61768C90.1806 10.0334 90.2392 10.4916 90.1705 10.9393H87.5455C87.5455 10.8753 87.5298 10.8104 87.5298 10.7622C87.5441 10.5879 87.4977 10.4139 87.3985 10.2702C87.2993 10.1265 87.1535 10.0219 86.986 9.9744C86.4182 9.76555 85.7951 9.76555 85.2273 9.9744C85.0571 10.0484 84.9084 10.1646 84.7952 10.3121C84.7415 10.3704 84.7027 10.4409 84.6821 10.5176C84.6615 10.5943 84.6597 10.6749 84.677 10.7524C84.6943 10.8299 84.7301 10.9021 84.7812 10.9626C84.8324 11.0231 84.8974 11.0703 84.9707 11.0999C85.3417 11.2565 85.7274 11.3749 86.122 11.4535C86.9652 11.5613 87.7991 11.7332 88.6165 11.9676C89.1817 12.1289 89.6876 12.4531 90.0715 12.9001C90.2961 13.2011 90.4548 13.5464 90.5373 13.9134C90.6198 14.2804 90.6242 14.6607 90.5502 15.0295C90.4762 15.3983 90.3255 15.7472 90.1079 16.0534C89.8903 16.3595 89.6109 16.616 89.2878 16.8059C88.7255 17.1347 88.0971 17.3325 87.4488 17.3849C86.3182 17.5512 85.166 17.491 84.0587 17.2077C83.6573 17.0931 83.2747 16.9198 82.9233 16.6936C82.5865 16.4824 82.3086 16.1888 82.1156 15.8401C81.9227 15.4915 81.8209 15.0993 81.82 14.7004C81.8035 14.5059 81.8193 14.3129 81.8193 14.0875Z" fill="#464646"/>
<path id="XMLID_501_" d="M101.777 17.3193H99.1383C98.9785 16.9016 98.8023 16.4998 98.6425 16.0814C98.6294 16.0252 98.596 15.9759 98.5487 15.9432C98.5014 15.9104 98.4437 15.8965 98.3868 15.9043H94.5167C94.464 15.8957 94.4099 15.9075 94.3654 15.9373C94.321 15.9671 94.2893 16.0126 94.2767 16.0648C94.1327 16.4508 93.9888 16.8187 93.8268 17.2062C93.811 17.2544 93.7307 17.3351 93.6827 17.3351H91.2077C91.192 17.3351 91.192 17.3193 91.1598 17.3193C91.1739 17.2578 91.1952 17.1984 91.2235 17.1421C92.407 14.1523 93.6062 11.179 94.7897 8.18921C94.8007 8.12751 94.8355 8.07265 94.8865 8.03653C94.9374 8.0004 95.0005 7.98592 95.062 7.99622C96.0055 8.01205 96.949 7.99622 97.912 7.99622C97.9648 7.9877 98.0188 7.9995 98.0633 8.02927C98.1078 8.05903 98.1395 8.10458 98.152 8.1568C99.352 11.179 100.552 14.1877 101.752 17.2032C101.75 17.2434 101.759 17.2834 101.777 17.3193ZM97.843 13.96C97.8272 13.896 97.8108 13.8311 97.795 13.7829L96.595 10.6001C96.5792 10.536 96.499 10.5036 96.4668 10.4395C96.4148 10.4836 96.3667 10.532 96.3228 10.5842C95.923 11.6449 95.5233 12.7222 95.1228 13.7829C95.107 13.8311 95.0905 13.8794 95.0748 13.9435C96.004 13.9593 96.9152 13.9593 97.843 13.9593V13.96Z" fill="#464646"/>
<path id="XMLID_500_" d="M78.397 7.99623C78.3648 8.09272 78.349 8.1568 78.3333 8.22239C77.3418 11.1798 76.3345 14.1538 75.343 17.1112C75.3322 17.1772 75.2958 17.2361 75.2418 17.2753C75.1879 17.3144 75.1207 17.3305 75.055 17.32C74.0313 17.3042 73.0083 17.32 71.9845 17.32C71.8563 17.32 71.8083 17.2876 71.7768 17.1594C70.7693 14.1535 69.7565 11.1476 68.7385 8.14172C68.7201 8.09431 68.7041 8.046 68.6905 7.99698H71.329L71.854 9.73087C72.3498 11.3705 72.8455 13.0102 73.354 14.6491C73.3863 14.7456 73.3863 14.8421 73.5303 14.8421C73.69 14.8421 73.6743 14.7297 73.7065 14.6332C74.362 12.4636 75.034 10.3091 75.6895 8.13946C75.7375 7.99472 75.7855 7.94647 75.9295 7.94647H78.184C78.2498 7.98071 78.323 7.99781 78.397 7.99623Z" fill="#464646"/>
<path id="XMLID_499_" d="M79.4845 17.4482C79.3172 17.4645 79.1483 17.4463 78.9882 17.3947C78.8281 17.3431 78.6802 17.2592 78.5535 17.1481C78.4268 17.0369 78.3241 16.901 78.2515 16.7485C78.179 16.5961 78.1382 16.4303 78.1316 16.2615C78.1251 16.0926 78.1529 15.9242 78.2134 15.7665C78.2739 15.6088 78.3659 15.4653 78.4836 15.3446C78.6012 15.2239 78.7422 15.1286 78.8978 15.0647C79.0534 15.0007 79.2204 14.9693 79.3885 14.9725C79.5656 14.9703 79.7421 14.9918 79.9135 15.0366C80.194 15.1068 80.4369 15.2828 80.5918 15.5281C80.7467 15.7735 80.8016 16.0693 80.7453 16.3543C80.7283 16.629 80.6143 16.8886 80.4237 17.0861C80.233 17.2837 79.9784 17.4062 79.7058 17.4316C79.6327 17.4439 79.5586 17.4495 79.4845 17.4482Z" fill="#464646"/>
</g>
</g>
<g id="Group 23397">
<path id="Path 1666" d="M48.94 28.0053C47.533 28.0053 46.99 27.3465 46.99 26.3174C46.9782 26.066 47.0198 25.815 47.1122 25.581C47.2045 25.347 47.3454 25.1355 47.5254 24.9606C47.7055 24.7857 47.9206 24.6514 48.1564 24.5666C48.3921 24.4818 48.6432 24.4485 48.8927 24.469C49.1185 24.4417 49.3475 24.4668 49.5621 24.5424C49.7767 24.6181 49.9712 24.7422 50.1305 24.9052C50.2899 25.0683 50.4099 25.2659 50.4814 25.4829C50.5529 25.6999 50.5739 25.9304 50.5427 26.1569V28.0053H48.94ZM48.22 23.1052C48.3149 23.1052 48.4077 23.1335 48.4867 23.1865C48.5656 23.2395 48.6271 23.3149 48.6635 23.4031C48.6998 23.4912 48.7093 23.5882 48.6908 23.6818C48.6723 23.7754 48.6265 23.8614 48.5594 23.9289C48.4923 23.9963 48.4068 24.0423 48.3136 24.0609C48.2205 24.0795 48.124 24.07 48.0363 24.0334C47.9486 23.9969 47.8736 23.9351 47.8209 23.8557C47.7681 23.7764 47.74 23.6831 47.74 23.5877C47.7457 23.4613 47.7983 23.3417 47.8874 23.2524C47.9766 23.1631 48.0958 23.1106 48.2215 23.1052H48.22ZM49.6112 26.2714C49.6112 25.5319 49.3233 25.2266 48.8275 25.2266C48.7033 25.2277 48.5806 25.2553 48.4678 25.3075C48.3549 25.3597 48.2544 25.4355 48.1728 25.5297C48.0912 25.6239 48.0304 25.7344 47.9945 25.8539C47.9585 25.9735 47.9482 26.0993 47.9643 26.2232C47.9643 26.9145 48.3002 27.2522 49.0517 27.2522H49.6112V26.2714ZM49.3863 23.1052C49.4812 23.1052 49.574 23.1335 49.6529 23.1865C49.7319 23.2395 49.7934 23.3149 49.8297 23.4031C49.866 23.4912 49.8755 23.5882 49.857 23.6818C49.8385 23.7754 49.7928 23.8614 49.7257 23.9289C49.6585 23.9963 49.573 24.0423 49.4799 24.0609C49.3868 24.0795 49.2903 24.07 49.2026 24.0334C49.1148 23.9969 49.0399 23.9351 48.9872 23.8557C48.9344 23.7764 48.9062 23.6831 48.9062 23.5877C48.912 23.4609 48.9649 23.341 49.0545 23.2516C49.1441 23.1623 49.2639 23.11 49.39 23.1052H49.3863Z" fill="#464646"/>
<path id="Path 1667" d="M51.244 27.256H53.4025C53.411 26.7614 53.2409 26.2805 52.9238 25.9023C52.6066 25.524 52.1639 25.2741 51.6775 25.1987L51.9175 24.3951C52.5986 24.4969 53.22 24.843 53.6669 25.3697C54.1137 25.8963 54.3558 26.5677 54.3483 27.2598H54.7638V28.0136H51.262V27.2598L51.244 27.256Z" fill="#464646"/>
<path id="Path 1668" d="M54.634 28.0076C54.49 28.0076 54.202 27.8628 54.202 27.6216C54.202 27.3954 54.49 27.2356 54.634 27.2356H57.1765C57.1923 27.0585 57.2088 26.8662 57.2088 26.6732C57.2088 25.7407 56.8248 25.259 55.7838 25.259C55.5101 25.2604 55.2372 25.2874 54.9685 25.3396V24.5858C55.2694 24.5329 55.5743 24.5059 55.8798 24.5051C57.5298 24.5051 58.1665 25.2281 58.1665 26.6431C58.1649 27.0961 58.1219 27.5481 58.0383 27.9933H54.6318L54.634 28.0076Z" fill="#464646"/>
<path id="Path 1669" d="M59.2555 29.7596L59.3193 28.9718C59.6928 29.0508 60.0731 29.0939 60.4548 29.1007C61.2048 29.1007 61.7177 28.8112 61.7177 28.1207V28.0084H61.1417C59.7347 28.0084 59.1917 27.3495 59.1917 26.3046C59.1792 26.0523 59.2211 25.8002 59.3145 25.5656C59.4079 25.331 59.5506 25.1194 59.7328 24.9454C59.9151 24.7714 60.1325 24.639 60.3704 24.5573C60.6083 24.4756 60.8609 24.4465 61.111 24.472C61.6333 24.4725 62.152 24.5594 62.6463 24.729V27.253H63.3963V28.0068H62.6463V28.0227C62.6463 29.0351 61.9907 29.8553 60.3595 29.8553C59.9897 29.8507 59.6207 29.8187 59.2555 29.7596ZM61.702 25.3555C61.4837 25.2665 61.2498 25.2227 61.0143 25.2266C60.89 25.2277 60.7674 25.2553 60.6545 25.3075C60.5417 25.3598 60.4411 25.4355 60.3595 25.5297C60.278 25.6239 60.2172 25.7344 60.1812 25.8539C60.1453 25.9735 60.135 26.0993 60.151 26.2232C60.151 26.8821 60.487 27.2522 61.2385 27.2522H61.702V25.3555Z" fill="#464646"/>
<path id="Path 1670" d="M64.4688 27.4452C64.3405 27.783 64.0533 28.0076 63.4293 28.0076H63.2695C63.1255 28.0076 62.8375 27.8629 62.8375 27.6216C62.8375 27.3955 63.1255 27.2356 63.2695 27.2356H63.3175C63.7495 27.2356 64.0375 26.9944 64.0375 26.239C64.0328 25.9924 64.0797 25.7476 64.1753 25.5204C64.271 25.2933 64.4131 25.0889 64.5926 24.9207C64.772 24.7524 64.9847 24.624 65.2167 24.5438C65.4488 24.4637 65.6951 24.4335 65.9395 24.4554C66.165 24.4295 66.3934 24.4556 66.6074 24.5317C66.8213 24.6078 67.0152 24.7319 67.1742 24.8947C67.3333 25.0574 67.4534 25.2544 67.5254 25.4708C67.5973 25.6871 67.6192 25.9171 67.5895 26.1433V27.2364H68.1655V27.9903H66.0865C65.0605 28.0076 64.7245 27.783 64.4688 27.4452ZM66.6595 26.2722C66.6595 25.5327 66.3715 25.2274 65.8758 25.2274C65.7516 25.2285 65.6291 25.256 65.5163 25.3082C65.4034 25.3604 65.3029 25.4361 65.2214 25.5302C65.1398 25.6243 65.079 25.7347 65.043 25.8542C65.007 25.9736 64.9966 26.0994 65.0125 26.2232C65.0125 26.9145 65.3485 27.2522 66.1 27.2522H66.6595V26.2722Z" fill="#464646"/>
<path id="Path 1671" d="M68.0665 28.0076C67.9225 28.0076 67.6345 27.8628 67.6345 27.6216C67.6345 27.3954 67.9225 27.2356 68.0665 27.2356H68.9298V22.8481H69.889V28.0076H68.0665Z" fill="#464646"/>
<path id="Path 1672" d="M71.0568 22.8481H72.016V28.0076H71.0568V22.8481Z" fill="#464646"/>
<path id="Path 1673" d="M76.5093 28.0053C75.1023 28.0053 74.5592 27.3465 74.5592 26.3016C74.5467 26.0492 74.5886 25.7972 74.682 25.5626C74.7754 25.328 74.9181 25.1164 75.1003 24.9424C75.2826 24.7684 75.5001 24.636 75.7379 24.5543C75.9758 24.4725 76.2284 24.4435 76.4785 24.469C77.0008 24.4695 77.5195 24.5564 78.0138 24.726V27.2515H78.7638V28.0053H76.5093ZM75.8215 23.1052C75.9164 23.1052 76.0092 23.1335 76.0882 23.1865C76.1671 23.2395 76.2286 23.3149 76.265 23.4031C76.3013 23.4912 76.3108 23.5882 76.2923 23.6818C76.2738 23.7754 76.228 23.8614 76.1609 23.9289C76.0938 23.9963 76.0083 24.0423 75.9151 24.0609C75.822 24.0795 75.7255 24.07 75.6378 24.0334C75.5501 23.9969 75.4752 23.9351 75.4224 23.8557C75.3697 23.7764 75.3415 23.6831 75.3415 23.5877C75.3472 23.4614 75.3997 23.3419 75.4887 23.2526C75.5776 23.1633 75.6967 23.1107 75.8223 23.1052H75.8215ZM77.101 25.3555C76.8827 25.2665 76.6488 25.2227 76.4133 25.2266C76.289 25.2277 76.1664 25.2553 76.0535 25.3075C75.9407 25.3597 75.8401 25.4355 75.7585 25.5297C75.677 25.6239 75.6162 25.7344 75.5802 25.8539C75.5443 25.9735 75.534 26.0993 75.55 26.2232C75.55 26.8821 75.886 27.2522 76.6375 27.2522H77.101V25.3555ZM76.9893 23.1052C77.0842 23.1052 77.177 23.1335 77.2559 23.1865C77.3349 23.2395 77.3964 23.3149 77.4327 23.4031C77.4691 23.4912 77.4785 23.5882 77.46 23.6818C77.4415 23.7754 77.3958 23.8614 77.3287 23.9289C77.2615 23.9963 77.176 24.0423 77.0829 24.0609C76.9898 24.0795 76.8933 24.07 76.8056 24.0334C76.7179 23.9969 76.6429 23.9351 76.5901 23.8557C76.5374 23.7764 76.5093 23.6831 76.5093 23.5877C76.5123 23.4606 76.564 23.3395 76.6535 23.2497C76.743 23.1598 76.8628 23.1081 76.9893 23.1052Z" fill="#464646"/>
<path id="Path 1674" d="M78.2373 27.6216C78.2373 27.3954 78.5253 27.2356 78.6693 27.2356H79.5325V24.5519H80.4918V27.2364H81.2418V27.9902H78.667C78.5629 27.9925 78.4615 27.9562 78.3823 27.8882C78.303 27.8202 78.2514 27.7254 78.2373 27.6216ZM79.4208 28.5375C79.5157 28.5375 79.6085 28.5658 79.6874 28.6189C79.7664 28.6719 79.8279 28.7472 79.8642 28.8354C79.9005 28.9236 79.9101 29.0206 79.8915 29.1141C79.873 29.2077 79.8273 29.2937 79.7602 29.3612C79.693 29.4287 79.6075 29.4746 79.5144 29.4932C79.4213 29.5118 79.3248 29.5023 79.2371 29.4658C79.1494 29.4293 79.0744 29.3674 79.0217 29.2881C78.9689 29.2087 78.9408 29.1154 78.9408 29.02C78.9397 28.9564 78.9513 28.8932 78.975 28.8342C78.9988 28.7752 79.0341 28.7216 79.0789 28.6766C79.1237 28.6317 79.1771 28.5962 79.2358 28.5725C79.2946 28.5487 79.3575 28.5371 79.4208 28.5383V28.5375ZM80.5878 28.5375C80.6827 28.5375 80.7755 28.5658 80.8544 28.6189C80.9334 28.6719 80.9949 28.7472 81.0312 28.8354C81.0675 28.9236 81.0771 29.0206 81.0585 29.1141C81.04 29.2077 80.9943 29.2937 80.9272 29.3612C80.86 29.4287 80.7745 29.4746 80.6814 29.4932C80.5883 29.5118 80.4918 29.5023 80.4041 29.4658C80.3164 29.4293 80.2414 29.3674 80.1887 29.2881C80.1359 29.2087 80.1078 29.1154 80.1078 29.02C80.1067 28.9564 80.1183 28.8932 80.142 28.8342C80.1658 28.7752 80.2011 28.7216 80.2459 28.6766C80.2907 28.6317 80.3441 28.5962 80.4028 28.5725C80.4616 28.5487 80.5245 28.5371 80.5878 28.5383V28.5375Z" fill="#464646"/>
<path id="Path 1675" d="M80.6995 27.6216C80.6995 27.3955 80.9875 27.2356 81.1315 27.2356H81.9948V24.5511H82.954V27.2356H83.704V27.9895H81.1292C81.0252 27.9918 80.9239 27.9556 80.8447 27.8878C80.7655 27.8199 80.7138 27.7252 80.6995 27.6216ZM82.4747 23.1052C82.606 23.1058 82.7318 23.1585 82.8246 23.2518C82.9175 23.3452 82.9699 23.4715 82.9705 23.6035C82.9705 23.7357 82.9183 23.8624 82.8253 23.9559C82.7323 24.0493 82.6062 24.1018 82.4747 24.1018C82.3433 24.1018 82.2172 24.0493 82.1242 23.9559C82.0312 23.8624 81.979 23.7357 81.979 23.6035C81.9796 23.4715 82.032 23.3452 82.1249 23.2518C82.2177 23.1585 82.3434 23.1058 82.4747 23.1052Z" fill="#464646"/>
<path id="Path 1676" d="M83.5945 28.0076C83.4505 28.0076 83.1625 27.8628 83.1625 27.6216C83.1625 27.3954 83.4505 27.2356 83.5945 27.2356H84.4578V22.8481H85.417V24.7607C85.4216 25.1215 85.3947 25.4819 85.3368 25.838H85.3525C85.4795 25.4462 85.7249 25.1041 86.0546 24.8592C86.3842 24.6144 86.7817 24.479 87.1915 24.472C87.4072 24.4564 87.6235 24.4897 87.8247 24.5693C88.0259 24.6489 88.2068 24.7728 88.3541 24.9319C88.5013 25.091 88.6113 25.2812 88.6758 25.4886C88.7403 25.6961 88.7577 25.9154 88.7268 26.1305C88.7268 27.1912 88.1193 28.0114 86.5038 28.0114L83.5945 28.0076ZM86.5848 27.2537C87.496 27.2537 87.736 26.7878 87.736 26.193C87.736 25.5982 87.496 25.2447 86.986 25.2447C86.2022 25.2447 85.5468 26.2247 85.4028 27.2537H86.5848Z" fill="#464646"/>
<path id="Path 1677" d="M89.5105 29.7596L89.5743 28.9718C89.9479 29.0508 90.3281 29.0939 90.7098 29.1007C91.4598 29.1007 91.9728 28.8112 91.9728 28.1207V28.0084H91.3968C89.9898 28.0084 89.4468 27.3495 89.4468 26.3046C89.4343 26.0523 89.4761 25.8002 89.5695 25.5656C89.6629 25.331 89.8056 25.1194 89.9879 24.9454C90.1701 24.7714 90.3876 24.639 90.6254 24.5573C90.8633 24.4756 91.116 24.4465 91.366 24.472C91.8883 24.4725 92.407 24.5594 92.9013 24.729V27.253H93.6513V28.0068H92.9013V28.0227C92.9013 29.0351 92.2458 29.8553 90.6145 29.8553C90.2447 29.8507 89.8757 29.8187 89.5105 29.7596ZM91.957 25.3555C91.7387 25.2665 91.5048 25.2227 91.2693 25.2266C91.145 25.2277 91.0224 25.2553 90.9096 25.3075C90.7967 25.3598 90.6962 25.4355 90.6146 25.5297C90.533 25.6239 90.4722 25.7344 90.4362 25.8539C90.4003 25.9735 90.39 26.0993 90.406 26.2232C90.406 26.8821 90.742 27.2522 91.4935 27.2522H91.957V25.3555Z" fill="#464646"/>
<path id="Path 1678" d="M93.541 28.0076C93.397 28.0076 93.109 27.8628 93.109 27.6216C93.109 27.3954 93.397 27.2356 93.541 27.2356H94.4043V22.8481H95.3635V28.0076H93.541Z" fill="#464646"/>
<path id="Path 1679" d="M96.5312 22.8481H97.4905V28.0076H96.5312V22.8481Z" fill="#464646"/>
<path id="Path 1680" d="M101.983 28.0053C100.576 28.0053 100.033 27.3465 100.033 26.3016C100.021 26.0492 100.062 25.7972 100.156 25.5626C100.249 25.328 100.392 25.1164 100.574 24.9424C100.756 24.7684 100.974 24.636 101.212 24.5543C101.45 24.4725 101.702 24.4435 101.952 24.469C102.475 24.4695 102.993 24.5564 103.488 24.726V27.2515H104.238V28.0053H101.983ZM101.295 23.1052C101.39 23.1052 101.483 23.1335 101.562 23.1865C101.641 23.2395 101.702 23.3149 101.739 23.4031C101.775 23.4912 101.785 23.5882 101.766 23.6818C101.748 23.7754 101.702 23.8614 101.635 23.9289C101.568 23.9963 101.482 24.0423 101.389 24.0609C101.296 24.0795 101.199 24.07 101.112 24.0334C101.024 23.9969 100.949 23.9351 100.896 23.8557C100.843 23.7764 100.815 23.6831 100.815 23.5877C100.815 23.4597 100.866 23.3369 100.956 23.2465C101.046 23.156 101.168 23.1052 101.295 23.1052ZM102.558 25.3555C102.34 25.2665 102.106 25.2227 101.871 25.2266C101.746 25.2278 101.624 25.2554 101.511 25.3077C101.398 25.36 101.298 25.4358 101.216 25.5299C101.135 25.6241 101.074 25.7346 101.038 25.8541C101.002 25.9736 100.992 26.0994 101.008 26.2232C101.008 26.8821 101.344 27.2522 102.096 27.2522H102.559L102.558 25.3555ZM102.462 23.1052C102.557 23.1052 102.65 23.1335 102.729 23.1865C102.808 23.2395 102.869 23.3149 102.906 23.4031C102.942 23.4912 102.952 23.5882 102.933 23.6818C102.915 23.7754 102.869 23.8614 102.802 23.9289C102.735 23.9963 102.649 24.0423 102.556 24.0609C102.463 24.0795 102.366 24.07 102.279 24.0334C102.191 23.9969 102.116 23.9351 102.063 23.8557C102.01 23.7764 101.982 23.6831 101.982 23.5877C101.983 23.4596 102.034 23.3369 102.124 23.2464C102.214 23.156 102.336 23.1052 102.464 23.1052H102.462Z" fill="#464646"/>
<path id="Path 1681" d="M104.143 28.0076C103.999 28.0076 103.711 27.8629 103.711 27.6216C103.711 27.3955 103.999 27.2356 104.143 27.2356H105.006V24.5511H105.965V24.7283C105.97 25.0891 105.943 25.4495 105.885 25.8056H105.901C106.028 25.4138 106.273 25.0716 106.603 24.8267C106.933 24.5818 107.33 24.4465 107.74 24.4396C107.956 24.424 108.172 24.4573 108.373 24.5369C108.574 24.6165 108.755 24.7404 108.903 24.8995C109.05 25.0586 109.16 25.2488 109.224 25.4563C109.289 25.6637 109.306 25.883 109.275 26.0981C109.29 26.4926 109.178 26.8814 108.956 27.207H109.739V27.9609H104.142L104.143 28.0076ZM107.118 27.2537C108.029 27.2537 108.269 26.7879 108.269 26.1931C108.269 25.5983 108.029 25.2447 107.519 25.2447C106.735 25.2447 106.08 26.2247 105.936 27.2537H107.118Z" fill="#464646"/>
<path id="Path 1682" d="M109.197 27.6216C109.197 27.3955 109.485 27.2356 109.629 27.2356H110.492V24.5511H111.451V27.2356H112.201V27.9895H109.626C109.522 27.9918 109.421 27.9556 109.342 27.8878C109.263 27.8199 109.211 27.7252 109.197 27.6216ZM110.972 23.1052C111.103 23.1058 111.229 23.1585 111.322 23.2518C111.414 23.3452 111.467 23.4715 111.468 23.6035C111.468 23.7021 111.438 23.7984 111.384 23.8804C111.33 23.9623 111.252 24.0262 111.161 24.0639C111.071 24.1016 110.971 24.1115 110.875 24.0923C110.779 24.073 110.691 24.0256 110.621 23.9559C110.552 23.8862 110.505 23.7974 110.486 23.7007C110.466 23.6041 110.476 23.5039 110.514 23.4128C110.551 23.3218 110.615 23.244 110.696 23.1892C110.778 23.1344 110.874 23.1052 110.972 23.1052Z" fill="#464646"/>
<path id="Path 1683" d="M113.291 27.4452C113.163 27.783 112.875 28.0076 112.251 28.0076H112.092C111.948 28.0076 111.66 27.8629 111.66 27.6216C111.66 27.3955 111.948 27.2356 112.092 27.2356H112.139C112.571 27.2356 112.859 26.9944 112.859 26.239C112.854 25.9924 112.901 25.7474 112.997 25.5202C113.092 25.293 113.235 25.0886 113.414 24.9203C113.594 24.7521 113.806 24.6237 114.039 24.5436C114.271 24.4635 114.517 24.4334 114.762 24.4554C114.987 24.4295 115.215 24.4556 115.429 24.5317C115.643 24.6078 115.837 24.7319 115.996 24.8947C116.155 25.0574 116.275 25.2544 116.347 25.4708C116.419 25.6871 116.441 25.9171 116.412 26.1433V27.2364H116.988V27.9903H114.909C113.866 28.0076 113.547 27.783 113.291 27.4452ZM115.466 26.2722C115.466 25.5327 115.178 25.2274 114.682 25.2274C114.558 25.2284 114.435 25.256 114.322 25.3083C114.209 25.3605 114.109 25.4362 114.027 25.5304C113.946 25.6246 113.885 25.7351 113.849 25.8547C113.813 25.9742 113.803 26.1001 113.819 26.224C113.819 26.9152 114.155 27.253 114.906 27.253H115.466V26.2722Z" fill="#464646"/>
<path id="Path 1684" d="M116.889 28.0076C116.745 28.0076 116.457 27.8628 116.457 27.6216C116.457 27.3954 116.745 27.2356 116.889 27.2356H117.752V22.8481H118.711V28.0076H116.889Z" fill="#464646"/>
<path id="Path 1685" d="M119.879 22.8481H120.838V28.0076H119.879V22.8481Z" fill="#464646"/>
</g>
<g id="Group 23398">
<path id="Path 1686" d="M48.733 37.2514C47.308 37.2514 46.99 36.4802 46.99 35.6117V32.6528H47.8533V35.5462C47.8533 36.1085 48.0453 36.5104 48.781 36.5104C49.456 36.5104 49.7245 36.2375 49.7245 35.4655V32.6528H50.59V35.4173C50.6235 35.6689 50.5982 35.9249 50.5162 36.1651C50.4342 36.4052 50.2977 36.6229 50.1175 36.8008C49.9374 36.9788 49.7185 37.1121 49.4782 37.1903C49.2379 37.2685 48.9828 37.2894 48.733 37.2514Z" fill="#464646"/>
<path id="Path 1687" d="M53.5143 37.1858V35.0644C53.5143 34.7267 53.4183 34.5179 53.0988 34.5179C52.6668 34.5179 52.3315 35.0004 52.3315 35.5952V37.2024H51.4833V33.8748H52.2827C52.282 34.0741 52.266 34.2729 52.2347 34.4696C52.34 34.2644 52.5012 34.0935 52.6994 33.9768C52.8977 33.8601 53.1249 33.8025 53.3545 33.8108C54.1045 33.8108 54.346 34.2932 54.346 34.8715V37.2024H53.5143V37.1858Z" fill="#464646"/>
<path id="Path 1688" d="M55.8145 33.3607C55.7137 33.3582 55.616 33.3259 55.5334 33.2677C55.4508 33.2096 55.3872 33.1283 55.3504 33.034C55.3136 32.9397 55.3053 32.8365 55.3265 32.7375C55.3478 32.6385 55.3976 32.5479 55.4698 32.4772C55.542 32.4065 55.6333 32.3588 55.7324 32.34C55.8314 32.3213 55.9338 32.3323 56.0266 32.3717C56.1195 32.4112 56.1987 32.4772 56.2544 32.5617C56.31 32.6462 56.3396 32.7453 56.3395 32.8466C56.3349 32.9838 56.2776 33.1139 56.1798 33.2097C56.082 33.3055 55.9511 33.3596 55.8145 33.3607ZM55.3825 37.1866V33.859H56.23V37.1866H55.3825Z" fill="#464646"/>
<path id="Path 1689" d="M59.128 33.0049C58.9941 32.9602 58.8536 32.9385 58.7125 32.9408C58.345 32.9408 58.1688 33.1338 58.1688 33.5839V33.8568H58.936V34.5156H58.186V37.1836H57.3385V34.5156H56.761V33.8568H57.337V33.5839C57.3075 33.4034 57.3209 33.2185 57.3761 33.0442C57.4313 32.87 57.5267 32.7113 57.6545 32.5812C57.7824 32.4511 57.939 32.3532 58.1117 32.2956C58.2843 32.2379 58.4681 32.2221 58.648 32.2495C58.8303 32.2496 59.0123 32.2658 59.1918 32.2978L59.128 33.0049Z" fill="#464646"/>
<path id="Path 1690" d="M59.9403 33.3607C59.8395 33.3582 59.7417 33.3259 59.6592 33.2677C59.5766 33.2096 59.5129 33.1283 59.4761 33.034C59.4393 32.9397 59.431 32.8365 59.4523 32.7375C59.4735 32.6385 59.5234 32.5479 59.5955 32.4772C59.6677 32.4065 59.7591 32.3588 59.8581 32.34C59.9572 32.3213 60.0595 32.3323 60.1524 32.3717C60.2452 32.4112 60.3245 32.4772 60.3801 32.5617C60.4358 32.6462 60.4654 32.7453 60.4653 32.8466C60.4606 32.9838 60.4034 33.1139 60.3056 33.2097C60.2077 33.3055 60.0769 33.3596 59.9403 33.3607ZM59.5083 37.1866V33.859H60.3558V37.1866H59.5083Z" fill="#464646"/>
<path id="Path 1691" d="M63.973 35.6751H61.9263C61.9263 36.2699 62.1978 36.5752 62.8375 36.5752C63.1666 36.5733 63.4923 36.5078 63.7967 36.3822L63.8927 37.0253C63.5069 37.161 63.1015 37.2315 62.6928 37.2341C62.4664 37.2613 62.2369 37.2354 62.0222 37.1583C61.8075 37.0813 61.6135 36.9553 61.4554 36.7902C61.2973 36.6251 61.1795 36.4254 61.1111 36.2068C61.0428 35.9882 61.0258 35.7567 61.0615 35.5304C61.0385 35.3094 61.0619 35.0861 61.1302 34.8748C61.1985 34.6635 61.3102 34.469 61.4581 34.3039C61.6059 34.1387 61.7866 34.0066 61.9884 33.9161C62.1902 33.8256 62.4087 33.7787 62.6297 33.7784C62.8171 33.7624 63.0057 33.7883 63.182 33.8542C63.3583 33.9201 63.5178 34.0243 63.6493 34.1595C63.7808 34.2946 63.8808 34.4574 63.9424 34.636C64.0039 34.8146 64.0254 35.0047 64.0053 35.1926C64.0045 35.3216 63.9873 35.5304 63.973 35.6751ZM62.5818 34.4214C62.4039 34.4266 62.2353 34.5021 62.1125 34.6315C61.9897 34.761 61.9228 34.9339 61.9263 35.1127H63.1578C63.1728 34.6627 62.9335 34.4214 62.5818 34.4214Z" fill="#464646"/>
<path id="Path 1692" d="M66.7075 37.1858C66.7075 37.0252 66.7233 36.8164 66.7398 36.6234H66.724C66.63 36.8181 66.4817 36.9811 66.2971 37.0925C66.1125 37.2039 65.8997 37.2588 65.6845 37.2506C64.885 37.2506 64.4845 36.64 64.4845 35.6916C64.4581 35.4484 64.484 35.2023 64.5602 34.9699C64.6365 34.7375 64.7614 34.5243 64.9266 34.3446C65.0917 34.1648 65.2933 34.0228 65.5177 33.9279C65.7422 33.8331 65.9842 33.7878 66.2275 33.7949C66.3668 33.7897 66.5062 33.8006 66.643 33.8273V32.2993H67.4905V37.1858H66.7075ZM66.6595 34.5179C66.5115 34.4866 66.3607 34.4705 66.2095 34.4696C65.7295 34.4696 65.3778 34.7749 65.3778 35.5951C65.3778 36.2224 65.5533 36.5435 65.9373 36.5435C66.3873 36.5435 66.6565 36.0294 66.6565 35.4504L66.6595 34.5179Z" fill="#464646"/>
<path id="Path 1693" d="M72.4645 37.1858L71.0733 34.6981C70.9197 34.413 70.7861 34.1175 70.6735 33.8138C70.7058 34.2156 70.7215 35.3087 70.7215 35.9676V37.1888H69.8898V32.6724H71.041L72.4 35.0999C72.5664 35.3885 72.7108 35.6894 72.832 36C72.7998 35.5477 72.784 34.441 72.784 33.7979V32.6528H73.6158V37.1692H72.4645V37.1858Z" fill="#464646"/>
<path id="Path 1694" d="M76.3022 37.1858C76.2966 36.9977 76.3074 36.8096 76.3345 36.6234C76.2401 36.8223 76.0899 36.9891 75.9024 37.1034C75.715 37.2176 75.4983 37.2743 75.2792 37.2665C75.1532 37.2745 75.0268 37.2555 74.9086 37.2107C74.7904 37.1658 74.6831 37.0962 74.5937 37.0064C74.5044 36.9166 74.4351 36.8087 74.3905 36.6899C74.3459 36.5711 74.327 36.4441 74.335 36.3174C74.335 35.5296 75.085 35.1602 76.2377 35.1602V35.0478C76.2377 34.646 76.078 34.4689 75.646 34.4689C75.3042 34.4807 74.9678 34.5574 74.6545 34.695L74.5105 34.0362C74.9102 33.8891 75.3321 33.8126 75.7578 33.81C76.7815 33.81 77.0852 34.2442 77.0852 34.9838V36.3498C77.08 36.6341 77.0908 36.9185 77.1175 37.2016H76.3022V37.1858ZM76.2385 35.7067C75.3752 35.7067 75.151 35.9155 75.151 36.205C75.1508 36.2571 75.161 36.3087 75.1812 36.3567C75.2014 36.4047 75.2311 36.4481 75.2685 36.4842C75.3059 36.5203 75.3502 36.5484 75.3987 36.5667C75.4472 36.5851 75.499 36.5934 75.5507 36.591C75.7475 36.575 75.9301 36.4817 76.0589 36.3312C76.1876 36.1808 76.2522 35.9854 76.2385 35.7874V35.7067Z" fill="#464646"/>
<path id="Path 1695" d="M79.069 37.2499C78.3333 37.2499 78.1098 36.977 78.1098 36.2051V34.5172H77.5338V33.8583H78.1098V32.8308L78.9573 32.6046V33.8583H79.7567V34.5172H78.9587V35.9797C78.9587 36.4139 79.0548 36.5262 79.3585 36.5262C79.4881 36.5281 79.6174 36.5119 79.7425 36.478L79.8063 37.1564C79.5639 37.2103 79.3171 37.2416 79.069 37.2499Z" fill="#464646"/>
<path id="Path 1696" d="M80.8727 33.3607C80.772 33.3582 80.6742 33.3259 80.5917 33.2677C80.5091 33.2096 80.4454 33.1283 80.4086 33.034C80.3718 32.9397 80.3635 32.8365 80.3848 32.7375C80.406 32.6385 80.4558 32.5479 80.528 32.4772C80.6002 32.4065 80.6916 32.3588 80.7906 32.34C80.8897 32.3213 80.992 32.3323 81.0849 32.3717C81.1777 32.4112 81.2569 32.4772 81.3126 32.5617C81.3682 32.6462 81.3979 32.7453 81.3978 32.8466C81.3931 32.9838 81.3359 33.1139 81.2381 33.2097C81.1402 33.3055 81.0093 33.3596 80.8727 33.3607ZM80.4408 37.1866V33.859H81.2883V37.1866H80.4408Z" fill="#464646"/>
<path id="Path 1697" d="M83.53 37.2499C82.5865 37.2499 81.979 36.7674 81.979 35.5786C81.9627 35.3469 81.9948 35.1143 82.0732 34.8958C82.1515 34.6773 82.2744 34.4777 82.434 34.3097C82.5936 34.1417 82.7863 34.0091 82.9999 33.9203C83.2134 33.8315 83.443 33.7886 83.674 33.7942C84.6175 33.7942 85.225 34.3083 85.225 35.4655C85.2385 35.6966 85.2046 35.9279 85.1252 36.1452C85.0459 36.3625 84.9228 36.561 84.7638 36.7284C84.6048 36.8958 84.4132 37.0285 84.2009 37.1182C83.9886 37.208 83.7602 37.2528 83.53 37.2499ZM83.6102 34.5171C83.2262 34.5171 82.8603 34.8066 82.8603 35.4972C82.8603 36.1756 83.116 36.5262 83.596 36.5262C84.0115 36.5262 84.346 36.1885 84.346 35.5137C84.346 34.8549 84.106 34.5171 83.6102 34.5171Z" fill="#464646"/>
<path id="Path 1698" d="M87.928 37.1858V35.0645C87.928 34.7267 87.832 34.5179 87.5125 34.5179C87.0805 34.5179 86.7453 35.0004 86.7453 35.5952V37.2024H85.897V33.8749H86.6965C86.6958 34.0741 86.6797 34.2729 86.6485 34.4697C86.7537 34.2645 86.9148 34.0937 87.1129 33.977C87.311 33.8604 87.538 33.8027 87.7675 33.8108C88.5175 33.8108 88.759 34.2933 88.759 34.8715V37.2024H87.9273L87.928 37.1858Z" fill="#464646"/>
<path id="Path 1699" d="M91.4785 37.1858C91.4729 36.9978 91.4837 36.8096 91.5108 36.6235C91.4163 36.8223 91.2661 36.9891 91.0787 37.1034C90.8912 37.2176 90.6746 37.2743 90.4555 37.2665C90.3296 37.2745 90.2034 37.2554 90.0853 37.2105C89.9673 37.1657 89.86 37.0961 89.7708 37.0064C89.6815 36.9167 89.6123 36.8089 89.5677 36.6903C89.5231 36.5716 89.5041 36.4447 89.512 36.3181C89.512 35.5303 90.262 35.161 91.4148 35.161V35.0486C91.4148 34.6468 91.255 34.4697 90.823 34.4697C90.4813 34.4814 90.1449 34.5582 89.8315 34.6958L89.6875 34.037C90.0872 33.8899 90.5091 33.8134 90.9347 33.8108C91.9585 33.8108 92.2623 34.245 92.2623 34.9846V36.3506C92.257 36.6349 92.2678 36.9193 92.2945 37.2024H91.4793L91.4785 37.1858ZM91.3983 35.7068C90.535 35.7068 90.3108 35.9156 90.3108 36.2051C90.3105 36.2572 90.3208 36.3088 90.341 36.3568C90.3612 36.4048 90.3909 36.4481 90.4283 36.4842C90.4657 36.5203 90.5099 36.5484 90.5585 36.5668C90.607 36.5851 90.6587 36.5934 90.7105 36.591C90.9073 36.575 91.0899 36.4817 91.2187 36.3312C91.3474 36.1808 91.412 35.9854 91.3983 35.7874V35.7068Z" fill="#464646"/>
<path id="Path 1700" d="M93.1893 37.1858V32.2993H94.0368V37.1858H93.1893Z" fill="#464646"/>
<path id="Path 1701" d="M97.603 35.6427C97.4432 35.6427 97.2835 35.6268 97.2835 35.6268V37.1858H96.4195V32.6694C96.4195 32.6694 97.0435 32.637 97.6825 32.637C98.7858 32.637 99.3933 33.1353 99.3933 34.0354C99.393 34.2631 99.3449 34.4882 99.2523 34.6959C99.1596 34.9037 99.0244 35.0895 98.8554 35.2411C98.6865 35.3928 98.4876 35.507 98.2718 35.5762C98.056 35.6453 97.8281 35.668 97.603 35.6427ZM97.6187 33.36H97.2827V34.8677C97.404 34.8894 97.5271 34.9003 97.6503 34.9001C97.7603 34.9155 97.8723 34.9056 97.978 34.8711C98.0836 34.8367 98.1801 34.7786 98.2602 34.7012C98.3402 34.6238 98.4018 34.5292 98.4402 34.4245C98.4786 34.3197 98.4929 34.2076 98.482 34.0965C98.4827 33.6336 98.2263 33.36 97.6195 33.36H97.6187Z" fill="#464646"/>
<path id="Path 1702" d="M99.9858 37.1858V32.2993H100.833V37.1858H99.9858Z" fill="#464646"/>
<path id="Path 1703" d="M103.536 37.1858C103.53 36.9978 103.541 36.8096 103.568 36.6235C103.473 36.8223 103.323 36.9891 103.136 37.1034C102.948 37.2176 102.732 37.2743 102.513 37.2665C102.387 37.2745 102.26 37.2554 102.142 37.2105C102.024 37.1657 101.917 37.0961 101.828 37.0064C101.739 36.9167 101.669 36.8089 101.625 36.6903C101.58 36.5716 101.561 36.4447 101.569 36.3181C101.569 35.5303 102.319 35.161 103.472 35.161V35.0486C103.472 34.6468 103.312 34.4697 102.88 34.4697C102.538 34.4814 102.202 34.5582 101.889 34.6958L101.745 34.037C102.144 33.8899 102.566 33.8133 102.992 33.8108C104.016 33.8108 104.319 34.245 104.319 34.9846V36.3506C104.314 36.6349 104.325 36.9193 104.352 37.2024H103.536L103.536 37.1858ZM103.472 35.7068C102.609 35.7068 102.384 35.9156 102.384 36.2051C102.384 36.2572 102.394 36.3088 102.414 36.3568C102.435 36.4048 102.464 36.4481 102.502 36.4842C102.539 36.5203 102.583 36.5484 102.632 36.5668C102.68 36.5851 102.732 36.5934 102.784 36.591C102.981 36.575 103.163 36.4817 103.292 36.3312C103.421 36.1808 103.485 35.9854 103.472 35.7874V35.7068Z" fill="#464646"/>
<path id="Path 1704" d="M106.302 37.2499C105.566 37.2499 105.343 36.977 105.343 36.2051V34.5172H104.767V33.8583H105.343V32.8308L106.191 32.6046V33.8583H106.99V34.5172H106.192V35.9797C106.192 36.4139 106.288 36.5262 106.592 36.5262C106.721 36.5281 106.851 36.5118 106.976 36.478L107.04 37.1564C106.797 37.2113 106.55 37.2426 106.302 37.2499Z" fill="#464646"/>
<path id="Path 1705" d="M109.66 33.0049C109.526 32.9602 109.386 32.9385 109.244 32.9408C108.877 32.9408 108.701 33.1338 108.701 33.5839V33.8568H109.468V34.5156H108.702V37.1836H107.855V34.5156H107.277V33.8568H107.853V33.5839C107.824 33.4034 107.837 33.2185 107.892 33.0442C107.947 32.87 108.043 32.7113 108.171 32.5812C108.299 32.4511 108.455 32.3532 108.628 32.2956C108.801 32.2379 108.984 32.2221 109.164 32.2495C109.347 32.2496 109.529 32.2658 109.708 32.2978L109.66 33.0049Z" fill="#464646"/>
<path id="Path 1706" d="M111.259 37.2499C110.316 37.2499 109.708 36.7674 109.708 35.5786C109.692 35.3469 109.724 35.1143 109.802 34.8958C109.881 34.6773 110.003 34.4777 110.163 34.3097C110.323 34.1417 110.515 34.0091 110.729 33.9203C110.942 33.8315 111.172 33.7886 111.403 33.7942C112.347 33.7942 112.954 34.3083 112.954 35.4655C112.965 35.6959 112.929 35.9261 112.849 36.1422C112.768 36.3582 112.645 36.5556 112.487 36.7225C112.328 36.8893 112.138 37.0221 111.927 37.1127C111.716 37.2034 111.488 37.2501 111.259 37.2499ZM111.339 34.5171C110.955 34.5171 110.589 34.8066 110.589 35.4972C110.589 36.1756 110.845 36.5262 111.325 36.5262C111.741 36.5262 112.075 36.1885 112.075 35.5137C112.059 34.8549 111.835 34.5171 111.339 34.5171Z" fill="#464646"/>
<path id="Path 1707" d="M115.385 34.6303C114.777 34.5179 114.474 34.9031 114.474 35.8364V37.1866H113.626V33.859H114.426C114.425 34.0867 114.403 34.3138 114.362 34.5375H114.378C114.44 34.3099 114.58 34.1114 114.772 33.9764C114.965 33.8413 115.199 33.7782 115.433 33.798L115.385 34.6303Z" fill="#464646"/>
<path id="Path 1708" d="M119.975 37.1851V35.0795C119.975 34.726 119.895 34.5006 119.575 34.5006C119.208 34.5006 118.825 34.9348 118.825 35.5778V37.1692H117.993V35.0637C117.993 34.7425 117.929 34.5013 117.593 34.5013C117.194 34.5013 116.843 34.9672 116.843 35.5786V37.17H115.993V33.8424H116.792C116.792 34.003 116.777 34.2442 116.76 34.4372C116.858 34.2312 117.012 34.0576 117.205 33.9373C117.398 33.817 117.621 33.755 117.848 33.7587C118.054 33.7371 118.26 33.7923 118.428 33.9138C118.596 34.0353 118.714 34.2146 118.759 34.4176C118.857 34.2169 119.01 34.0484 119.2 33.9317C119.389 33.815 119.608 33.755 119.831 33.7587C120.471 33.7587 120.822 34.1123 120.822 34.8677V37.1541H119.975V37.1851Z" fill="#464646"/>
</g>
<g id="XMLID_509_">
<g id="XMLID_510_">
<path id="Union 13" d="M25.1298 40.7705C25.0885 40.661 25.0693 40.5443 25.0735 40.4273C25.0776 40.3103 25.1049 40.1953 25.1538 40.089C25.2027 39.9827 25.2722 39.8873 25.3582 39.8083C25.4442 39.7294 25.545 39.6684 25.6548 39.6291C25.8752 39.5481 26.1187 39.5585 26.3316 39.658C26.5445 39.7575 26.7093 39.9378 26.7899 40.1595C26.8704 40.3811 26.8601 40.6258 26.7612 40.8398C26.6622 41.0538 26.4827 41.2195 26.2623 41.3004C26.1641 41.3321 26.0616 41.3484 25.9585 41.3487C25.7781 41.3493 25.6018 41.2941 25.4536 41.1907C25.3053 41.0873 25.1923 40.9406 25.1298 40.7705ZM8.467 38.7931C8.32626 38.6898 8.21915 38.5468 8.15923 38.3823C8.09932 38.2178 8.08927 38.0391 8.13038 37.8689C8.17148 37.6986 8.26188 37.5445 8.39015 37.4259C8.51843 37.3073 8.67881 37.2295 8.85102 37.2026C9.02322 37.1756 9.19953 37.2005 9.35763 37.2742C9.51573 37.348 9.64854 37.4672 9.73925 37.6167C9.82996 37.7663 9.87451 37.9396 9.86726 38.1146C9.86 38.2897 9.80128 38.4586 9.6985 38.6001C9.63163 38.6958 9.54625 38.777 9.44747 38.8387C9.34868 38.9005 9.23852 38.9417 9.12356 38.9597C9.0086 38.9777 8.89121 38.9722 8.7784 38.9436C8.66559 38.915 8.55968 38.8638 8.467 38.7931ZM18.9895 38.8413C18.7545 38.8296 18.5335 38.725 18.3748 38.5504C18.2161 38.3757 18.1324 38.1452 18.142 37.9088C18.1464 37.7914 18.174 37.676 18.2232 37.5693C18.2724 37.4627 18.3422 37.367 18.4285 37.2877C18.5148 37.2084 18.616 37.1472 18.7261 37.1076C18.8362 37.068 18.953 37.0508 19.0698 37.0569C19.3049 37.0685 19.5259 37.173 19.6847 37.3477C19.8434 37.5224 19.927 37.7531 19.9173 37.9895C19.9087 38.2183 19.8123 38.4348 19.6482 38.5937C19.4842 38.7525 19.2653 38.8413 19.0375 38.8413H18.9895ZM21.6603 37.8613C21.6271 37.6881 21.6458 37.509 21.7139 37.3464C21.7821 37.1839 21.8966 37.0454 22.0431 36.9483C22.1896 36.8512 22.3614 36.7999 22.5368 36.801C22.7123 36.802 22.8835 36.8554 23.0288 36.9542C23.1741 37.0531 23.287 37.193 23.3532 37.3563C23.4194 37.5196 23.4359 37.699 23.4007 37.8718C23.3655 38.0446 23.2801 38.203 23.1553 38.327C23.0306 38.451 22.872 38.535 22.6998 38.5684C22.642 38.5817 22.5827 38.587 22.5235 38.5843C22.321 38.5744 22.1272 38.4985 21.9715 38.3681C21.8157 38.2376 21.7065 38.0597 21.6603 37.8613ZM15.3115 38.2149C15.1104 38.1434 14.9436 37.9983 14.8443 37.8086C14.745 37.6189 14.7206 37.3985 14.776 37.1914C14.8314 36.9844 14.9624 36.806 15.143 36.6919C15.3236 36.5778 15.5403 36.5364 15.7499 36.5759C15.9595 36.6155 16.1466 36.7331 16.2737 36.9052C16.4008 37.0774 16.4586 37.2914 16.4355 37.5045C16.4124 37.7176 16.3102 37.9141 16.1492 38.0548C15.9883 38.1954 15.7804 38.2698 15.5673 38.2631C15.4798 38.2627 15.3932 38.2463 15.3115 38.2149ZM25.066 36.9612C24.9934 36.8023 24.9692 36.6253 24.9967 36.4526C25.0241 36.2799 25.1019 36.1193 25.2201 35.991C25.3384 35.8627 25.4918 35.7726 25.661 35.7319C25.8303 35.6913 26.0077 35.702 26.1708 35.7627C26.334 35.8235 26.4756 35.9314 26.5777 36.073C26.6798 36.2146 26.7379 36.3835 26.7445 36.5582C26.7512 36.733 26.7061 36.9058 26.6151 37.0548C26.524 37.2038 26.3911 37.3224 26.233 37.3954C26.1186 37.4511 25.9926 37.4787 25.8655 37.4761C25.698 37.4724 25.5348 37.4224 25.3938 37.3316C25.2527 37.2407 25.1393 37.1126 25.066 36.9612ZM11.8893 36.735C11.7373 36.6461 11.6151 36.5139 11.5379 36.3551C11.4608 36.1963 11.4322 36.0181 11.4558 35.843C11.4795 35.6679 11.5542 35.5038 11.6707 35.3714C11.7871 35.239 11.94 35.1443 12.11 35.0993C12.28 35.0542 12.4595 35.0609 12.6257 35.1184C12.7919 35.1759 12.9375 35.2816 13.0439 35.4223C13.1503 35.5629 13.2129 35.7321 13.2236 35.9085C13.2344 36.0849 13.1928 36.2605 13.1043 36.4131C13.0265 36.5476 12.9144 36.6586 12.7794 36.7346C12.6444 36.8106 12.4917 36.8487 12.337 36.8451C12.181 36.847 12.027 36.8087 11.8893 36.735ZM5.6845 36.2827C5.55124 36.134 5.47272 35.9438 5.46204 35.744C5.45136 35.5441 5.50916 35.3466 5.62581 35.1843C5.74245 35.0221 5.9109 34.905 6.10306 34.8524C6.29522 34.7999 6.49948 34.8152 6.6818 34.8957C6.86411 34.9762 7.01346 35.1171 7.10495 35.2949C7.19644 35.4727 7.22454 35.6766 7.18456 35.8727C7.14459 36.0688 7.03895 36.2452 6.88526 36.3725C6.73158 36.4998 6.53913 36.5703 6.34 36.5722C6.21692 36.5729 6.09505 36.5478 5.98217 36.4985C5.8693 36.4492 5.76791 36.3767 5.6845 36.2857V36.2827ZM28.1718 35.2733C28.0983 35.1825 28.0433 35.0781 28.01 34.9659C27.9767 34.8538 27.9657 34.7362 27.9776 34.6198C27.9895 34.5033 28.0241 34.3904 28.0794 34.2875C28.1347 34.1845 28.2097 34.0935 28.3 34.0196C28.3903 33.9458 28.4942 33.8905 28.6058 33.857C28.7173 33.8235 28.8344 33.8125 28.9502 33.8244C29.066 33.8364 29.1783 33.8712 29.2808 33.9268C29.3832 33.9824 29.4738 34.0578 29.5473 34.1485C29.6207 34.2393 29.6757 34.3438 29.709 34.4559C29.7424 34.568 29.7534 34.6857 29.7415 34.8021C29.7296 34.9185 29.695 35.0314 29.6396 35.1344C29.5843 35.2374 29.5093 35.3284 29.419 35.4022C29.259 35.5272 29.0622 35.5951 28.8595 35.5952H28.8085C28.6844 35.5971 28.5617 35.5689 28.4508 35.5128C28.3399 35.4568 28.2442 35.3746 28.1718 35.2733ZM18.2718 35.1444C18.0701 35.0983 17.8942 34.975 17.7814 34.8008C17.6686 34.6265 17.6277 34.4149 17.6674 34.2109C17.7071 34.0069 17.8243 33.8264 17.9941 33.7077C18.1639 33.5891 18.3731 33.5415 18.5772 33.5752C18.7813 33.6088 18.9643 33.7211 19.0875 33.8881C19.2107 34.055 19.2644 34.2637 19.2372 34.4698C19.2099 34.6759 19.1039 34.8632 18.9417 34.9921C18.7794 35.121 18.5735 35.1813 18.3678 35.1602C18.3363 35.1522 18.3041 35.1469 18.2718 35.1444ZM20.9425 34.3084C20.9093 34.1352 20.928 33.956 20.9962 33.7935C21.0643 33.631 21.1789 33.4924 21.3253 33.3953C21.4718 33.2982 21.6436 33.247 21.8191 33.248C21.9945 33.2491 22.1657 33.3024 22.3111 33.4013C22.4564 33.5001 22.5692 33.64 22.6354 33.8034C22.7016 33.9667 22.7182 34.1461 22.683 34.3188C22.6477 34.4916 22.5624 34.65 22.4376 34.774C22.3128 34.898 22.1543 34.982 21.982 35.0155C21.9242 35.0287 21.8649 35.0341 21.8058 35.0313C21.5999 35.0328 21.4002 34.9611 21.2419 34.829C21.0835 34.6969 20.9767 34.5127 20.9403 34.3091L20.9425 34.3084ZM34.2633 34.4848C34.0955 34.3226 33.9969 34.1014 33.9879 33.8676C33.979 33.6339 34.0604 33.4057 34.2153 33.2311C34.3151 33.1243 34.4397 33.044 34.578 32.9975C34.7162 32.9509 34.8638 32.9395 35.0075 32.9642C35.1512 32.989 35.2866 33.0491 35.4016 33.1393C35.5165 33.2294 35.6074 33.3468 35.6662 33.4809C35.725 33.615 35.7499 33.7617 35.7385 33.9078C35.7272 34.0539 35.68 34.1949 35.6012 34.3182C35.5224 34.4416 35.4145 34.5433 35.287 34.6145C35.1596 34.6856 35.0165 34.724 34.8708 34.726C34.6439 34.73 34.4247 34.6435 34.261 34.4855L34.2633 34.4848ZM8.93275 34.4689C8.76527 34.3048 8.66952 34.0805 8.66656 33.8454C8.66361 33.6103 8.7537 33.3836 8.917 33.2153C9.08031 33.0469 9.30346 32.9507 9.53737 32.9477C9.77127 32.9447 9.99677 33.0353 10.1643 33.1994C10.3314 33.3638 10.4269 33.588 10.4298 33.823C10.4328 34.058 10.3429 34.2846 10.18 34.4531C10.0967 34.5389 9.99722 34.6073 9.88739 34.6541C9.77756 34.701 9.65956 34.7254 9.54025 34.726C9.31372 34.7136 9.09838 34.6231 8.9305 34.4697L8.93275 34.4689ZM14.7078 34.1312C14.51 34.0401 14.3527 33.8787 14.2662 33.6781C14.1796 33.4775 14.1699 33.2518 14.2388 33.0444C14.3077 32.837 14.4505 32.6625 14.6396 32.5545C14.8288 32.4465 15.051 32.4125 15.2635 32.4592C15.476 32.5058 15.6639 32.6298 15.7911 32.8072C15.9182 32.9847 15.9756 33.2031 15.9522 33.4205C15.9289 33.6379 15.8264 33.8389 15.6646 33.985C15.5027 34.1311 15.2928 34.2119 15.0753 34.2119C14.9475 34.2071 14.8216 34.1798 14.7033 34.1312H14.7078ZM24.271 33.3917C24.1858 33.2391 24.1474 33.0645 24.1609 32.8901C24.1743 32.7156 24.2389 32.549 24.3465 32.4115C24.454 32.2739 24.5998 32.1714 24.7652 32.1171C24.9307 32.0627 25.1085 32.0589 25.2762 32.1061C25.4438 32.1533 25.5938 32.2493 25.7071 32.3822C25.8204 32.515 25.8921 32.6786 25.9129 32.8523C25.9338 33.0261 25.9029 33.2021 25.8243 33.3582C25.7456 33.5143 25.6227 33.6435 25.471 33.7294C25.3391 33.8039 25.1903 33.8426 25.039 33.8417C24.8817 33.8449 24.7265 33.8047 24.5903 33.7255C24.4541 33.6463 24.3421 33.5311 24.2665 33.3924L24.271 33.3917ZM30.7638 32.8934C30.6261 32.7868 30.523 32.6416 30.4675 32.4762C30.4119 32.3108 30.4064 32.1325 30.4517 31.9639C30.497 31.7953 30.5909 31.644 30.7218 31.5291C30.8526 31.4143 31.0143 31.341 31.1866 31.3185C31.3589 31.296 31.5339 31.3254 31.6896 31.403C31.8452 31.4805 31.9745 31.6027 32.0611 31.7541C32.1476 31.9055 32.1876 32.0792 32.1759 32.2535C32.1641 32.4277 32.1013 32.5945 31.9953 32.7328C31.9126 32.8417 31.8062 32.9302 31.6843 32.9915C31.5623 33.0528 31.4281 33.0852 31.2918 33.0863C31.1008 33.0693 30.9174 33.0031 30.7593 32.8941L30.7638 32.8934ZM11.6388 32.0573C11.4924 31.9173 11.399 31.7304 11.3747 31.5288C11.3503 31.3272 11.3965 31.1233 11.5053 30.9522C11.6141 30.781 11.7787 30.6532 11.9709 30.5906C12.1632 30.5281 12.3711 30.5347 12.559 30.6093C12.747 30.684 12.9032 30.822 13.001 30.9997C13.0988 31.1774 13.1321 31.3838 13.0951 31.5835C13.0582 31.7832 12.9533 31.9637 12.7984 32.0942C12.6435 32.2246 12.4483 32.2969 12.2463 32.2986C12.0213 32.2882 11.8059 32.2037 11.6335 32.0581L11.6388 32.0573ZM6.58 31.5605C6.45784 31.3615 6.41786 31.1223 6.46857 30.894C6.51929 30.6658 6.65669 30.4664 6.8515 30.3385C7.04972 30.2315 7.28109 30.2045 7.49843 30.263C7.71576 30.3216 7.90267 30.4613 8.02103 30.6537C8.13939 30.846 8.18028 31.0765 8.13535 31.2981C8.09042 31.5197 7.96306 31.7158 7.77925 31.8462C7.64114 31.935 7.47963 31.98 7.31575 31.9751C7.16857 31.9726 7.02432 31.9333 6.89592 31.861C6.76752 31.7886 6.65898 31.6854 6.58 31.5605ZM27.13 31.4799C26.9623 31.3177 26.8636 31.0965 26.8547 30.8627C26.8457 30.629 26.9272 30.4008 27.082 30.2262C27.1817 30.1189 27.3063 30.0381 27.4446 29.991C27.583 29.944 27.7308 29.9322 27.8748 29.9568C28.0188 29.9813 28.1545 30.0413 28.2698 30.1315C28.385 30.2217 28.4762 30.3393 28.5351 30.4736C28.594 30.608 28.6188 30.7549 28.6074 30.9012C28.5959 31.0476 28.5485 31.1888 28.4694 31.3122C28.3903 31.4356 28.2819 31.5374 28.1541 31.6083C28.0262 31.6793 27.8828 31.7173 27.7368 31.7188C27.5128 31.7123 27.2989 31.6278 27.13 31.4799ZM1.79875 29.9209C1.75748 29.8114 1.73835 29.6947 1.74248 29.5777C1.74661 29.4607 1.77391 29.3457 1.8228 29.2394C1.87169 29.1331 1.94117 29.0377 2.02719 28.9587C2.11321 28.8798 2.21403 28.8188 2.32375 28.7795C2.43293 28.7394 2.5489 28.7213 2.66503 28.7263C2.78116 28.7312 2.89518 28.7591 3.00059 28.8084C3.106 28.8576 3.20072 28.9273 3.27935 29.0133C3.35799 29.0994 3.41899 29.2001 3.45888 29.3099C3.49877 29.4196 3.51676 29.5362 3.51183 29.6529C3.50691 29.7696 3.47915 29.8842 3.43016 29.9902C3.38116 30.0961 3.31189 30.1913 3.22628 30.2704C3.14068 30.3494 3.04043 30.4107 2.93125 30.4508C2.83307 30.4825 2.73062 30.4988 2.6275 30.4991C2.44812 30.4953 2.27383 30.4384 2.12643 30.3355C1.97903 30.2327 1.86506 30.0885 1.79875 29.9209ZM32.7258 29.9533C32.5645 29.8834 32.4275 29.7669 32.332 29.6187C32.2366 29.4705 32.187 29.2972 32.1895 29.1207C32.1921 28.9442 32.2467 28.7724 32.3464 28.627C32.4461 28.4817 32.5864 28.3693 32.7497 28.3042C32.9129 28.239 33.0917 28.2239 33.2634 28.2609C33.4352 28.2979 33.5922 28.3852 33.7145 28.5119C33.8369 28.6385 33.9191 28.7988 33.9508 28.9725C33.9826 29.1461 33.9624 29.3253 33.8928 29.4874C33.8242 29.6467 33.7101 29.7819 33.565 29.8759C33.4198 29.9698 33.2501 30.0183 33.0775 30.0151C32.9572 30.0192 32.8374 29.9979 32.7258 29.9525V29.9533ZM9.33025 29.1173C9.24502 28.9647 9.20669 28.7901 9.22012 28.6157C9.23355 28.4412 9.29814 28.2746 9.40571 28.1371C9.51328 27.9995 9.65902 27.897 9.82449 27.8427C9.98997 27.7883 10.1678 27.7845 10.3354 27.8317C10.5031 27.8789 10.653 27.9749 10.7664 28.1078C10.8797 28.2406 10.9513 28.4042 10.9722 28.5779C10.993 28.7516 10.9622 28.9277 10.8835 29.0838C10.8049 29.2399 10.6819 29.3691 10.5303 29.455C10.3992 29.5314 10.2498 29.5702 10.0983 29.5673H10.06C9.91018 29.5615 9.76438 29.517 9.63659 29.4382C9.50879 29.3594 9.40331 29.2489 9.33025 29.1173ZM29.2713 28.7637C29.0735 28.6726 28.9162 28.5112 28.8297 28.3106C28.7431 28.11 28.7334 27.8843 28.8023 27.6769C28.8712 27.4695 29.014 27.295 29.2031 27.187C29.3923 27.079 29.6145 27.045 29.827 27.0917C30.0395 27.1383 30.2274 27.2623 30.3546 27.4397C30.4817 27.6172 30.5391 27.8356 30.5157 28.053C30.4924 28.2704 30.3899 28.4714 30.2281 28.6175C30.0662 28.7636 29.8563 28.8444 29.6388 28.8444C29.5118 28.8466 29.3862 28.8187 29.272 28.7629L29.2713 28.7637ZM4.99675 28.1689C4.94138 28.002 4.93649 27.8223 4.98269 27.6527C5.02889 27.483 5.12411 27.3309 5.25631 27.2156C5.38852 27.1003 5.55176 27.027 5.72541 27.0049C5.89905 26.9829 6.0753 27.0131 6.23187 27.0917C6.38844 27.1704 6.5183 27.2939 6.60502 27.4467C6.69175 27.5995 6.73144 27.7747 6.7191 27.9502C6.70675 28.1257 6.64291 28.2936 6.53565 28.4326C6.42839 28.5716 6.28253 28.6756 6.1165 28.7313C6.02939 28.7628 5.93757 28.7791 5.845 28.7795C5.65832 28.7777 5.47673 28.7181 5.32494 28.6088C5.17316 28.4996 5.05856 28.346 4.99675 28.1689ZM21.8515 28.4742C21.0198 28.04 19.9645 27.3811 19.9488 27.3811L19.885 27.3487L19.8213 27.3811C19.8055 27.3811 18.7495 28.04 17.9185 28.4742C17.6794 28.6103 17.4095 28.6822 17.1348 28.683C16.6098 28.683 16.2393 28.3935 16.2393 28.1365V28.0558C16.2727 28.0616 16.3051 28.0726 16.3353 28.0882L16.3833 28.1041C16.4567 28.1239 16.5322 28.1348 16.6083 28.1365C16.7558 28.1345 16.9019 28.1073 17.0403 28.0558C17.6881 27.7196 18.318 27.3494 18.9273 26.9469L19.0713 26.8504L18.9273 26.7539C17.4959 25.7076 15.8598 24.9789 14.1273 24.6159C14.4411 24.4664 14.7879 24.3999 15.1345 24.4229C16.5693 24.5492 17.9417 25.0709 19.1005 25.9307L19.2445 26.0272L19.2768 25.85C19.4208 24.6928 19.5168 22.4908 19.5325 20.8511C19.0682 21.1433 18.6768 21.5387 18.3884 22.0069C18.1 22.475 17.9223 23.0035 17.869 23.5515C17.7406 23.1794 17.6757 22.7881 17.677 22.3943C17.6756 21.8884 17.7803 21.3879 17.9843 20.9253C18.1882 20.4628 18.4867 20.0486 18.8605 19.7098L18.9565 19.6133H18.7165C18.1041 19.6227 17.5112 19.8314 17.0268 20.2082C16.5424 20.585 16.1927 21.1095 16.03 21.703C16.0168 21.6127 16.0115 21.5214 16.0143 21.4301C16.0082 20.7309 16.2624 20.0547 16.727 19.5343C17.1916 19.0138 17.833 18.6868 18.5253 18.6174L18.637 18.6016L18.5568 18.5209C18.2143 18.1357 17.7406 17.8936 17.2293 17.8425C17.4953 17.702 17.792 17.6302 18.0925 17.6336C18.5327 17.6319 18.9606 17.779 19.3075 18.0513L19.3713 18.0995L19.387 18.0355C19.4803 17.7364 19.6387 17.4619 19.8505 17.2318C20.0591 17.4643 20.217 17.738 20.314 18.0355L20.3298 18.0995L20.3935 18.0513C20.7416 17.7813 21.1688 17.6345 21.6085 17.6336C21.9085 17.6396 22.2034 17.7128 22.4718 17.8477C21.9624 17.906 21.4911 18.1469 21.1443 18.5262L21.064 18.6069L21.1758 18.6227C21.87 18.6871 22.5144 19.0126 22.98 19.5341C23.4456 20.0557 23.698 20.7347 23.6868 21.4354C23.6895 21.5266 23.6842 21.618 23.671 21.7083C23.5083 21.1147 23.1586 20.5902 22.6742 20.2135C22.1898 19.8367 21.5969 19.6279 20.9845 19.6186H20.7468L20.8428 19.7151C21.2165 20.0539 21.5151 20.4681 21.719 20.9306C21.9229 21.3931 22.0276 21.8937 22.0263 22.3996C22.0275 22.7934 21.9626 23.1846 21.8343 23.5568C21.781 23.0087 21.6033 22.4803 21.3149 22.0122C21.0265 21.544 20.6351 21.1486 20.1708 20.8564C20.203 22.4795 20.2825 24.7011 20.4423 25.8553L20.4745 26.0324L20.6185 25.9359C21.7737 25.0695 23.148 24.5471 24.5845 24.4282C24.931 24.4075 25.2772 24.4738 25.5918 24.6212C23.8592 24.9841 22.2231 25.7129 20.7918 26.7592L20.6478 26.8557L20.7918 26.9522C21.5755 27.4346 22.423 27.9646 22.6788 28.0611C22.8175 28.1111 22.9634 28.1384 23.1108 28.1418C23.1868 28.1401 23.2623 28.1292 23.3358 28.1093L23.3838 28.0935C23.4286 28.0716 23.4779 28.0604 23.5278 28.0611V28.1418C23.5278 28.3988 23.1603 28.6883 22.6323 28.6883C22.3594 28.6786 22.0924 28.6064 21.8515 28.4772V28.4742ZM0.871753 26.291C0.844906 26.1178 0.869774 25.9404 0.943212 25.7814C1.01665 25.6223 1.13536 25.4887 1.28433 25.3975C1.4333 25.3063 1.60584 25.2615 1.78013 25.2688C1.95442 25.2761 2.12263 25.3353 2.26349 25.4387C2.40436 25.5421 2.51155 25.6852 2.57151 25.8499C2.63147 26.0145 2.6415 26.1933 2.60035 26.3637C2.55919 26.5341 2.46869 26.6884 2.3403 26.8071C2.2119 26.9258 2.05137 27.0036 1.879 27.0306C1.83187 27.0433 1.78296 27.0482 1.73425 27.0449C1.52528 27.0411 1.32431 26.9635 1.1666 26.8256C1.00888 26.6878 0.904497 26.4985 0.871753 26.291ZM33.9258 26.6287C33.7066 26.5862 33.5122 26.4604 33.383 26.2775C33.2537 26.0946 33.1996 25.8687 33.2317 25.6467C33.2639 25.4247 33.3799 25.2237 33.5557 25.0854C33.7314 24.9472 33.9534 24.8823 34.1755 24.9044C34.3977 24.9264 34.6028 25.0336 34.7483 25.2036C34.8938 25.3737 34.9686 25.5936 34.957 25.8177C34.9454 26.0417 34.8484 26.2526 34.6861 26.4066C34.5238 26.5606 34.3087 26.6458 34.0855 26.6446C34.0313 26.6472 33.9771 26.6408 33.925 26.6257L33.9258 26.6287ZM8.05075 25.6321C8.0176 25.459 8.03627 25.2798 8.10442 25.1173C8.17256 24.9547 8.28711 24.8162 8.43358 24.7191C8.58006 24.622 8.75189 24.5708 8.92734 24.5718C9.10279 24.5729 9.274 24.6262 9.4193 24.725C9.56461 24.8239 9.6775 24.9638 9.7437 25.1271C9.80989 25.2905 9.82643 25.4699 9.79121 25.6426C9.75599 25.8154 9.6706 25.9738 9.54584 26.0978C9.42107 26.2218 9.26253 26.3058 9.09025 26.3393C9.03273 26.3525 8.97369 26.3578 8.91475 26.3551C8.71189 26.3449 8.51786 26.2685 8.36207 26.1375C8.20629 26.0065 8.09726 25.828 8.0515 25.6291L8.05075 25.6321ZM30.487 25.5356C30.3714 25.521 30.2599 25.4836 30.1587 25.4256C30.0576 25.3676 29.9688 25.29 29.8975 25.1974C29.8263 25.1049 29.7739 24.999 29.7434 24.8861C29.7128 24.7731 29.7048 24.6551 29.7198 24.539V24.5066C29.7473 24.2743 29.8655 24.0625 30.0485 23.9178C30.2314 23.7731 30.464 23.7074 30.6951 23.735C30.9263 23.7627 31.137 23.8816 31.2809 24.0654C31.4249 24.2493 31.4903 24.4831 31.4628 24.7154V24.7637C31.4375 24.9791 31.3334 25.1773 31.1708 25.3198C31.0082 25.4623 30.7987 25.539 30.583 25.5349L30.487 25.5356ZM5.1565 25.311C4.92603 25.3148 4.70327 25.2276 4.53605 25.0681C4.36882 24.9087 4.27048 24.6897 4.26213 24.4581C4.25379 24.2266 4.3361 24.001 4.49141 23.8298C4.64671 23.6586 4.86261 23.5554 5.09275 23.5424C5.20855 23.5324 5.32519 23.5457 5.43577 23.5817C5.54636 23.6177 5.64864 23.6756 5.73659 23.752C5.82454 23.8284 5.89637 23.9217 5.94784 24.0264C5.99931 24.1312 6.02937 24.2453 6.03625 24.3619C6.04514 24.478 6.0311 24.5948 5.99491 24.7055C5.95873 24.8162 5.90114 24.9185 5.82544 25.0067C5.74973 25.095 5.65743 25.1673 5.55382 25.2195C5.45022 25.2717 5.33736 25.3028 5.22175 25.311H5.1565ZM36.9633 24.0415V23.9932C36.9738 23.7595 37.0752 23.5393 37.2456 23.38C37.416 23.2207 37.6419 23.135 37.8745 23.1414C37.9901 23.1453 38.1038 23.1721 38.209 23.2203C38.3142 23.2685 38.409 23.3371 38.4877 23.4222C38.5665 23.5073 38.6277 23.6073 38.6679 23.7163C38.7081 23.8253 38.7265 23.9412 38.722 24.0573V24.0897C38.7114 24.3164 38.6148 24.5303 38.4519 24.6874C38.2891 24.8445 38.0725 24.9328 37.8468 24.9341C37.831 24.9499 37.831 24.9499 37.8145 24.9499C37.6989 24.9465 37.5852 24.9202 37.4797 24.8724C37.3743 24.8247 37.2793 24.7564 37.2002 24.6717C37.1211 24.5869 37.0595 24.4873 37.0188 24.3785C36.9781 24.2697 36.9593 24.1539 36.9633 24.0377V24.0415ZM0.646753 22.527C0.655207 22.2903 0.756832 22.0668 0.929271 21.9055C1.01465 21.8256 1.11485 21.7634 1.22415 21.7225C1.33344 21.6815 1.44969 21.6626 1.56625 21.6668C1.68282 21.671 1.79742 21.6983 1.90351 21.747C2.0096 21.7957 2.1051 21.865 2.18456 21.9508C2.26403 22.0366 2.32589 22.1373 2.36663 22.2472C2.40737 22.357 2.42619 22.4739 2.422 22.5911C2.41328 22.8198 2.3168 23.0363 2.1528 23.1951C1.98879 23.3539 1.76998 23.4427 1.54225 23.4429C1.53594 23.449 1.52835 23.4536 1.52004 23.4563C1.51173 23.4591 1.50292 23.4599 1.49425 23.4588C1.25934 23.447 1.03854 23.3426 0.879837 23.1681C0.721136 22.9936 0.637371 22.7632 0.646753 22.527ZM34.2288 23.1059C34.0054 23.1082 33.7896 23.0245 33.6256 22.872C33.4616 22.7195 33.3619 22.5098 33.3468 22.2857V22.2533C33.3367 22.1369 33.35 22.0197 33.3858 21.9085C33.4216 21.7974 33.4792 21.6946 33.5552 21.6062C33.6312 21.5178 33.7241 21.4456 33.8283 21.3938C33.9325 21.3421 34.046 21.3119 34.162 21.305C34.2776 21.2961 34.3937 21.3104 34.5038 21.3468C34.6138 21.3833 34.7156 21.4413 34.8033 21.5174C34.891 21.5936 34.9629 21.6864 35.0147 21.7906C35.0666 21.8948 35.0974 22.0082 35.1055 22.1244V22.1568C35.1204 22.3908 35.0434 22.6213 34.8909 22.7986C34.7384 22.976 34.5227 23.0861 34.2903 23.1052L34.2288 23.1059ZM8.6905 22.8798C8.48843 22.8336 8.3122 22.7101 8.19916 22.5355C8.08611 22.361 8.04513 22.149 8.08491 21.9446C8.12468 21.7402 8.24209 21.5593 8.41224 21.4404C8.58239 21.3215 8.79191 21.2739 8.99641 21.3076C9.20091 21.3413 9.3843 21.4538 9.50774 21.6211C9.63117 21.7884 9.68493 21.9974 9.65764 22.2039C9.63035 22.4104 9.52414 22.5981 9.36152 22.7272C9.19891 22.8563 8.99267 22.9167 8.7865 22.8956C8.75381 22.8973 8.72114 22.8914 8.6905 22.8798ZM29.5915 21.3366C29.556 21.1643 29.5724 20.9853 29.6385 20.8223C29.7047 20.6594 29.8176 20.52 29.9629 20.4218C30.1082 20.3237 30.2793 20.2712 30.4544 20.2712C30.6294 20.2712 30.8005 20.3236 30.9459 20.4217C31.0912 20.5199 31.2041 20.6593 31.2703 20.8222C31.3365 20.9851 31.3529 21.1641 31.3174 21.3365C31.2819 21.5088 31.1962 21.6666 31.0712 21.7897C30.9461 21.9129 30.7874 21.9958 30.6153 22.0279C30.5575 22.0412 30.4982 22.0465 30.439 22.0437C30.2384 22.0423 30.0444 21.9712 29.89 21.8425C29.7355 21.7137 29.6301 21.5353 29.5915 21.3374V21.3366ZM5.173 21.7678C4.95387 21.7253 4.75948 21.5995 4.63023 21.4166C4.50098 21.2337 4.4468 21.0078 4.47896 20.7858C4.51112 20.5638 4.62713 20.3628 4.80291 20.2245C4.97868 20.0863 5.20068 20.0214 5.42279 20.0434C5.6449 20.0655 5.85003 20.1726 5.99556 20.3427C6.14109 20.5128 6.21582 20.7327 6.20423 20.9568C6.19264 21.1808 6.09562 21.3917 5.93332 21.5457C5.77102 21.6997 5.55594 21.7849 5.33275 21.7837C5.279 21.7872 5.22503 21.7819 5.173 21.7678ZM36.772 20.5948C36.7452 20.4216 36.77 20.2442 36.8435 20.0852C36.9169 19.9261 37.0356 19.7925 37.1846 19.7013C37.3335 19.6101 37.5061 19.5653 37.6804 19.5726C37.8547 19.5799 38.0229 19.6391 38.1637 19.7425C38.3046 19.8459 38.4118 19.989 38.4718 20.1537C38.5317 20.3183 38.5418 20.4972 38.5006 20.6675C38.4594 20.8379 38.3689 20.9922 38.2405 21.1109C38.1121 21.2296 37.9516 21.3074 37.7793 21.3344C37.7313 21.3344 37.6833 21.3502 37.6353 21.3502C37.4263 21.3468 37.2253 21.2695 37.0674 21.1319C36.9095 20.9943 36.805 20.8052 36.772 20.5978V20.5948ZM1.8145 19.8907C1.58007 19.846 1.37155 19.7128 1.23177 19.5184C1.09199 19.324 1.03154 19.0832 1.06284 18.8455C1.09415 18.6077 1.21482 18.391 1.4001 18.2399C1.58537 18.0887 1.82118 18.0146 2.05911 18.0327C2.29704 18.0509 2.51904 18.1599 2.67953 18.3373C2.84001 18.5148 2.92681 18.7474 2.92209 18.9872C2.91737 19.2269 2.8215 19.4558 2.65416 19.6268C2.48682 19.7978 2.26071 19.8979 2.02225 19.9065C2.00385 19.9111 1.98496 19.9134 1.966 19.9133C1.9149 19.9106 1.86417 19.9031 1.8145 19.8907ZM32.6935 19.0064C32.6372 18.8302 32.6376 18.6407 32.6947 18.4648C32.7517 18.2888 32.8625 18.1354 33.0113 18.0265C33.1601 17.9175 33.3393 17.8584 33.5234 17.8577C33.7075 17.8569 33.8871 17.9146 34.0368 18.0224C34.1864 18.1302 34.2984 18.2827 34.3568 18.4582C34.4153 18.6336 34.4172 18.8232 34.3622 18.9998C34.3073 19.1764 34.1984 19.3312 34.051 19.442C33.9035 19.5528 33.7251 19.6141 33.541 19.6171C33.3539 19.6173 33.1715 19.5585 33.0194 19.4489C32.8674 19.3394 32.7534 19.1846 32.6935 19.0064ZM9.36175 19.4889C9.1642 19.3978 9.0071 19.2366 8.92065 19.0361C8.83419 18.8357 8.82448 18.6102 8.89337 18.403C8.96226 18.1958 9.1049 18.0215 9.29388 17.9136C9.48285 17.8057 9.70484 17.7718 9.91718 17.8184C10.1295 17.865 10.3172 17.9888 10.4443 18.1661C10.5713 18.3434 10.6287 18.5616 10.6053 18.7788C10.582 18.996 10.4797 19.1969 10.318 19.3428C10.1563 19.4888 9.9466 19.5695 9.72925 19.5696C9.60209 19.5754 9.47564 19.5475 9.3625 19.4889H9.36175ZM28.5033 18.3634C28.3888 18.1588 28.3599 17.9168 28.4229 17.6907C28.4859 17.4647 28.6357 17.273 28.8393 17.158C29.0428 17.0429 29.2836 17.0138 29.5085 17.0772C29.7334 17.1405 29.924 17.2911 30.0385 17.4957C30.152 17.7007 30.1804 17.9424 30.1175 18.1683C30.0546 18.3942 29.9054 18.586 29.7025 18.7019C29.5714 18.7782 29.422 18.817 29.2705 18.8142C29.1144 18.8142 28.9612 18.7725 28.8264 18.6932C28.6917 18.614 28.5804 18.5002 28.504 18.3634H28.5033ZM5.95675 18.3317C5.79548 18.2618 5.65845 18.1454 5.56301 17.9972C5.46756 17.849 5.41798 17.6757 5.42054 17.4991C5.4231 17.3226 5.47769 17.1508 5.57739 17.0055C5.67709 16.8601 5.81743 16.7478 5.98067 16.6826C6.1439 16.6174 6.3227 16.6024 6.49444 16.6394C6.66618 16.6763 6.82316 16.7637 6.94552 16.8903C7.06787 17.017 7.15012 17.1773 7.18184 17.3509C7.21357 17.5245 7.19335 17.7037 7.12375 17.8658C7.05522 18.0251 6.94113 18.1603 6.79597 18.2543C6.65081 18.3483 6.48113 18.3967 6.3085 18.3935C6.18834 18.3965 6.06879 18.3755 5.95675 18.3317ZM35.9245 17.3027C35.864 17.1376 35.8536 16.9581 35.8946 16.787C35.9356 16.6159 36.0262 16.4609 36.1548 16.3416C36.2835 16.2223 36.4445 16.144 36.6174 16.1166C36.7904 16.0892 36.9675 16.1141 37.1264 16.1879C37.2853 16.2618 37.4189 16.3813 37.5102 16.5315C37.6014 16.6816 37.6464 16.8556 37.6393 17.0315C37.6322 17.2073 37.5733 17.3771 37.4702 17.5193C37.3671 17.6615 37.2243 17.7698 37.06 17.8304C36.9618 17.862 36.8594 17.8783 36.7563 17.8787C36.5756 17.88 36.3988 17.8255 36.25 17.7225C36.1013 17.6194 35.9876 17.4729 35.9245 17.3027ZM11.0418 16.4667C10.8954 16.3266 10.802 16.1398 10.7777 15.9382C10.7533 15.7365 10.7995 15.5327 10.9083 15.3615C11.0171 15.1903 11.1817 15.0625 11.3739 15C11.5662 14.9374 11.7741 14.9441 11.962 15.0187C12.15 15.0933 12.3062 15.2313 12.404 15.409C12.5018 15.5868 12.5351 15.7932 12.4981 15.9928C12.4612 16.1925 12.3563 16.3731 12.2014 16.5035C12.0465 16.634 11.8513 16.7062 11.6493 16.7079C11.4235 16.7084 11.2062 16.6221 11.0418 16.4667ZM2.82175 16.4508C2.624 16.3597 2.46673 16.1983 2.38017 15.9977C2.29361 15.7971 2.28386 15.5714 2.35279 15.364C2.42173 15.1566 2.56449 14.9822 2.75363 14.8741C2.94278 14.7661 3.16497 14.7322 3.37751 14.7788C3.59004 14.8255 3.77793 14.9494 3.90506 15.1269C4.03219 15.3043 4.0896 15.5227 4.06625 15.7401C4.04289 15.9575 3.94043 16.1586 3.77855 16.3047C3.61667 16.4507 3.4068 16.5315 3.18925 16.5315C3.06214 16.5341 2.93621 16.5065 2.82175 16.4508ZM31.2865 15.9985C31.2246 15.9004 31.1824 15.7909 31.1626 15.6764C31.1427 15.5619 31.1455 15.4445 31.1707 15.3311C31.196 15.2177 31.2432 15.1103 31.3097 15.0152C31.3762 14.9201 31.4607 14.8392 31.5584 14.7769C31.656 14.7146 31.7649 14.6723 31.8789 14.6523C31.9928 14.6323 32.1095 14.6351 32.2224 14.6605C32.3352 14.6859 32.442 14.7334 32.5366 14.8002C32.6312 14.8671 32.7118 14.952 32.7738 15.0502C32.8359 15.1482 32.8782 15.2577 32.8982 15.3722C32.9182 15.4868 32.9155 15.6042 32.8902 15.7177C32.8649 15.8311 32.8175 15.9385 32.7508 16.0335C32.6841 16.1285 32.5994 16.2094 32.5015 16.2714C32.3634 16.3603 32.2019 16.4052 32.038 16.4003H31.9945C31.8527 16.3985 31.7135 16.361 31.5899 16.2912C31.4662 16.2214 31.3619 16.1216 31.2865 16.0008V15.9985ZM26.5368 15.8696C26.3654 15.7095 26.2641 15.4877 26.2551 15.2527C26.2461 15.0178 26.3301 14.7888 26.4888 14.6159C26.5666 14.5289 26.661 14.4585 26.7663 14.4089C26.8717 14.3592 26.9859 14.3313 27.1022 14.3268C27.2185 14.3223 27.3345 14.3413 27.4434 14.3827C27.5523 14.4241 27.6518 14.487 27.736 14.5677C27.8652 14.6891 27.9553 14.8465 27.9948 15.0197C28.0344 15.1929 28.0215 15.374 27.9579 15.5399C27.8944 15.7057 27.7829 15.8487 27.6379 15.9504C27.493 16.0521 27.321 16.108 27.1443 16.1108C26.9206 16.104 26.7062 16.0196 26.5375 15.8719L26.5368 15.8696ZM7.53925 15.1647C7.44687 15.0949 7.36906 15.0075 7.31028 14.9075C7.2515 14.8075 7.2129 14.6968 7.19667 14.5818C7.18044 14.4668 7.18691 14.3497 7.21571 14.2372C7.24451 14.1247 7.29507 14.019 7.3645 13.9261C7.43394 13.8333 7.52089 13.7551 7.6204 13.696C7.7199 13.6369 7.83001 13.5981 7.94444 13.5818C8.05886 13.5655 8.17536 13.572 8.28729 13.6009C8.39921 13.6299 8.50437 13.6807 8.59675 13.7505C8.689 13.8206 8.76643 13.9084 8.82452 14.0089C8.88261 14.1094 8.92019 14.2205 8.93506 14.3357C8.94993 14.451 8.9418 14.568 8.91115 14.6801C8.88049 14.7922 8.82792 14.8969 8.7565 14.9883C8.67382 15.0973 8.56745 15.1858 8.44551 15.2471C8.32358 15.3083 8.18932 15.3408 8.053 15.3419C8.037 15.3419 8.0205 15.3419 8.0035 15.3419C7.83351 15.3362 7.67022 15.2738 7.53925 15.1647ZM34.4373 14.2292C34.3455 14.0797 34.2999 13.9062 34.3062 13.7307C34.3125 13.5552 34.3705 13.3855 34.4728 13.2431C34.5751 13.1007 34.7171 12.9919 34.8808 12.9306C35.0446 12.8694 35.2228 12.8583 35.3928 12.8987C35.5628 12.9392 35.7171 13.0295 35.8361 13.1581C35.9551 13.2867 36.0335 13.4479 36.0613 13.6213C36.0892 13.7947 36.0653 13.9725 35.9926 14.1323C35.9199 14.292 35.8017 14.4265 35.653 14.5187C35.5149 14.6075 35.3534 14.6524 35.1895 14.6476H35.1468C35.0024 14.6463 34.8609 14.607 34.7364 14.5336C34.6119 14.4602 34.5088 14.3552 34.4373 14.2292ZM13.5685 14.1169C13.4833 13.9643 13.4449 13.7897 13.4584 13.6153C13.4718 13.4408 13.5364 13.2743 13.644 13.1367C13.7515 12.9991 13.8973 12.8967 14.0627 12.8423C14.2282 12.7879 14.406 12.7841 14.5737 12.8313C14.7413 12.8785 14.8913 12.9746 15.0046 13.1074C15.1179 13.2402 15.1896 13.4038 15.2104 13.5775C15.2313 13.7513 15.2004 13.9273 15.1218 14.0834C15.0431 14.2395 14.9202 14.3687 14.7685 14.4546C14.6374 14.5309 14.488 14.5698 14.3365 14.5669C14.1806 14.5675 14.0273 14.5264 13.8923 14.4479C13.7574 14.3693 13.6456 14.2561 13.5685 14.1199V14.1169ZM23.9185 14.101C23.7208 14.0099 23.5635 13.8485 23.4769 13.6479C23.3904 13.4473 23.3806 13.2216 23.4495 13.0142C23.5185 12.8068 23.6612 12.6324 23.8504 12.5243C24.0395 12.4163 24.2617 12.3824 24.4743 12.429C24.6868 12.4757 24.8747 12.5996 25.0018 12.7771C25.1289 12.9545 25.1863 13.1729 25.163 13.3903C25.1396 13.6077 25.0372 13.8088 24.8753 13.9549C24.7134 14.1009 24.5035 14.1817 24.286 14.1817C24.1587 14.1778 24.0331 14.1515 23.9148 14.1041L23.9185 14.101ZM29.2278 13.4226C29.1029 13.3002 29.0169 13.1433 28.9807 12.9717C28.9445 12.8002 28.9597 12.6218 29.0244 12.4589C29.0892 12.2961 29.2005 12.1562 29.3443 12.057C29.4881 11.9577 29.6579 11.9036 29.8324 11.9014C30.0068 11.8991 30.178 11.949 30.3242 12.0445C30.4705 12.1401 30.5853 12.2771 30.654 12.4382C30.7228 12.5994 30.7425 12.7774 30.7107 12.9498C30.6788 13.1222 30.5968 13.2812 30.475 13.4067C30.3917 13.4926 30.2922 13.5609 30.1824 13.6078C30.0726 13.6546 29.9546 13.679 29.8353 13.6796C29.6074 13.6728 29.3896 13.5836 29.2218 13.4286L29.2278 13.4226ZM16.6863 12.6574C16.6531 12.4842 16.6718 12.305 16.7399 12.1425C16.8081 11.98 16.9226 11.8414 17.0691 11.7444C17.2156 11.6473 17.3874 11.596 17.5628 11.5971C17.7383 11.5981 17.9095 11.6515 18.0548 11.7503C18.2001 11.8491 18.313 11.9891 18.3792 12.1524C18.4454 12.3157 18.4619 12.4951 18.4267 12.6679C18.3915 12.8407 18.3061 12.9991 18.1813 13.1231C18.0566 13.247 17.898 13.3311 17.7258 13.3645C17.6682 13.3777 17.6092 13.383 17.5503 13.3803C17.346 13.3763 17.1492 13.3025 16.9921 13.1711C16.8351 13.0398 16.7272 12.8586 16.6863 12.6574ZM20.8758 13.2364C20.6737 13.1902 20.4975 13.0667 20.3844 12.8921C20.2714 12.7175 20.2304 12.5056 20.2702 12.3012C20.3099 12.0967 20.4273 11.9159 20.5975 11.797C20.7676 11.6781 20.9772 11.6305 21.1817 11.6642C21.3862 11.6979 21.5696 11.8103 21.693 11.9777C21.8164 12.145 21.8702 12.354 21.8429 12.5605C21.8156 12.767 21.7094 12.9547 21.5468 13.0838C21.3842 13.2129 21.1779 13.2733 20.9718 13.2522C20.9393 13.2525 20.9064 13.2471 20.8758 13.2364ZM37.9383 11.9503C37.8131 11.752 37.7715 11.512 37.8225 11.2829C37.8735 11.0538 38.0129 10.8544 38.2101 10.7286C38.4073 10.6029 38.6462 10.561 38.8741 10.6123C39.1021 10.6635 39.3004 10.8037 39.4255 11.0019C39.4877 11.0999 39.5301 11.2093 39.5501 11.3239C39.5701 11.4384 39.5675 11.5558 39.5422 11.6692C39.517 11.7827 39.4697 11.8901 39.4031 11.9851C39.3365 12.0802 39.2518 12.1611 39.154 12.2232C39.0159 12.312 38.8544 12.3569 38.6905 12.3521H38.647C38.505 12.3501 38.3657 12.3122 38.242 12.242C38.1183 12.1718 38.0134 12.0715 37.9383 11.9503ZM32.3883 11.5326C32.2548 11.3838 32.1761 11.1935 32.1654 10.9934C32.1546 10.7933 32.2125 10.5956 32.3292 10.4332C32.4459 10.2708 32.6145 10.1535 32.8069 10.1009C32.9992 10.0483 33.2037 10.0636 33.3862 10.1442C33.5687 10.2248 33.7182 10.3658 33.8097 10.5438C33.9013 10.7218 33.9294 10.9259 33.8893 11.1222C33.8493 11.3185 33.7435 11.495 33.5896 11.6224C33.4358 11.7497 33.2431 11.8202 33.0438 11.8221C32.7982 11.8074 32.566 11.7044 32.3898 11.5319L32.3883 11.5326ZM26.5833 11.4203C26.4313 11.3314 26.3091 11.1992 26.2319 11.0404C26.1548 10.8816 26.1262 10.7034 26.1498 10.5283C26.1735 10.3532 26.2482 10.189 26.3647 10.0567C26.4811 9.92426 26.634 9.82956 26.804 9.78452C26.974 9.73949 27.1535 9.74613 27.3197 9.80363C27.4859 9.86113 27.6315 9.96689 27.7379 10.1075C27.8443 10.2482 27.9069 10.4174 27.9176 10.5938C27.9284 10.7701 27.8868 10.9458 27.7983 11.0984C27.7208 11.2333 27.6088 11.3447 27.4738 11.4211C27.3388 11.4975 27.1859 11.536 27.031 11.5326C27.0105 11.5337 26.99 11.5337 26.9695 11.5326C26.834 11.5287 26.7017 11.4897 26.5855 11.4195L26.5833 11.4203ZM12.7045 10.4229C12.6317 10.2639 12.6075 10.0868 12.6349 9.91389C12.6623 9.74101 12.74 9.58018 12.8584 9.45174C12.9767 9.3233 13.1302 9.23301 13.2996 9.1923C13.469 9.15158 13.6466 9.16227 13.8099 9.223C13.9733 9.28374 14.115 9.3918 14.2172 9.53351C14.3195 9.67522 14.3776 9.84423 14.3843 10.0192C14.3909 10.1941 14.3459 10.3671 14.2547 10.5162C14.1636 10.6654 14.0305 10.784 13.8723 10.8572C13.7578 10.9127 13.6319 10.9404 13.5048 10.9378C13.3362 10.9385 13.1711 10.8902 13.0291 10.7989C12.8872 10.7076 12.7745 10.577 12.7045 10.4229ZM6.72175 10.5036C6.58804 10.3544 6.50945 10.1634 6.49918 9.96286C6.48891 9.76229 6.54758 9.56426 6.66535 9.40202C6.78312 9.23977 6.95283 9.12317 7.14599 9.07178C7.33915 9.02039 7.54402 9.03734 7.72622 9.11979C7.90842 9.20223 8.05687 9.34516 8.14666 9.52458C8.23645 9.704 8.26212 9.909 8.21936 10.1052C8.17659 10.3014 8.068 10.4768 7.91181 10.6021C7.75561 10.7273 7.56131 10.7948 7.3615 10.7931C7.12094 10.7755 6.89431 10.673 6.72175 10.5036ZM23.545 10.1018C23.3439 10.0303 23.1771 9.88525 23.0778 9.69552C22.9785 9.50578 22.9541 9.28538 23.0095 9.07836C23.0649 8.87133 23.1959 8.69294 23.3765 8.57883C23.557 8.46472 23.7738 8.4233 23.9834 8.46284C24.193 8.50238 24.3801 8.61998 24.5072 8.79213C24.6343 8.96428 24.6921 9.1783 24.669 9.39142C24.6459 9.60454 24.5437 9.80105 24.3827 9.9417C24.2218 10.0823 24.0139 10.1567 23.8008 10.15C23.7139 10.1481 23.628 10.1318 23.5465 10.1018H23.545ZM20.299 9.57409C20.064 9.56236 19.843 9.45779 19.6843 9.28315C19.5256 9.1085 19.4419 8.87791 19.4515 8.64156C19.4591 8.46704 19.5175 8.2986 19.6194 8.15708C19.7213 8.01556 19.8622 7.90718 20.0247 7.84533C20.1873 7.78348 20.3643 7.77089 20.5339 7.80912C20.7034 7.84734 20.8582 7.9347 20.9789 8.06039C21.0996 8.18607 21.1809 8.34457 21.2129 8.51627C21.2449 8.68797 21.2262 8.86534 21.1589 9.02642C21.0917 9.1875 20.9789 9.32524 20.8346 9.42258C20.6903 9.51992 20.5208 9.5726 20.347 9.57409H20.299ZM29.8623 9.26878C29.7218 9.16547 29.6148 9.02264 29.555 8.85833C29.4952 8.69401 29.4851 8.51556 29.526 8.34549C29.567 8.17542 29.6571 8.02135 29.7851 7.90272C29.9131 7.78409 30.0731 7.70621 30.2451 7.67891C30.417 7.65161 30.5932 7.67611 30.7513 7.74932C30.9094 7.82253 31.0424 7.94117 31.1335 8.09027C31.2246 8.23938 31.2697 8.41226 31.2632 8.58711C31.2566 8.76197 31.1987 8.93096 31.0968 9.07277C31.0141 9.18676 30.906 9.27959 30.781 9.34377C30.656 9.40794 30.5178 9.44165 30.3775 9.44216C30.1937 9.43032 30.0164 9.36943 29.8638 9.26576L29.8623 9.26878ZM26.9373 7.53489C26.7395 7.44376 26.5822 7.28238 26.4957 7.08177C26.4091 6.88116 26.3994 6.65548 26.4683 6.44808C26.5372 6.24069 26.68 6.06621 26.8691 5.95819C27.0583 5.85017 27.2805 5.81623 27.493 5.86288C27.7055 5.90953 27.8934 6.03348 28.0206 6.21092C28.1477 6.38836 28.2051 6.60677 28.1817 6.82417C28.1584 7.04157 28.0559 7.24263 27.8941 7.38871C27.7322 7.53478 27.5223 7.61558 27.3048 7.61555C27.177 7.6181 27.0507 7.58856 26.9373 7.52961V7.53489ZM2.23075 7.28913C2.08541 7.10448 2.01743 6.87014 2.04124 6.63591C2.06504 6.40167 2.17877 6.186 2.35825 6.0347C2.54191 5.88885 2.77488 5.82065 3.00773 5.84457C3.24058 5.8685 3.455 5.98267 3.6055 6.16286C3.75372 6.34627 3.82347 6.58131 3.79942 6.81637C3.77537 7.05142 3.6595 7.26728 3.47725 7.41653C3.29307 7.5612 3.06032 7.62858 2.8278 7.60455C2.59528 7.58052 2.38104 7.46694 2.23 7.28762L2.23075 7.28913ZM11.362 6.76143C11.2824 6.54002 11.2929 6.296 11.3912 6.08231C11.4895 5.86863 11.6676 5.70253 11.887 5.62008C11.9959 5.5787 12.112 5.55955 12.2284 5.56375C12.3448 5.56795 12.4592 5.59541 12.5649 5.64454C12.6706 5.69367 12.7655 5.76347 12.8441 5.84987C12.9226 5.93628 12.9833 6.03755 13.0225 6.14778C13.1021 6.36918 13.0916 6.61321 12.9933 6.8269C12.8951 7.04058 12.7169 7.20668 12.4975 7.28913C12.3993 7.32077 12.2969 7.33704 12.1938 7.33738C12.0126 7.33868 11.8354 7.28379 11.6864 7.18018C11.5375 7.07656 11.4239 6.92928 11.3613 6.75841L11.362 6.76143ZM24.091 6.4237C23.8566 6.379 23.6481 6.24578 23.5083 6.0514C23.3685 5.85702 23.308 5.61622 23.3393 5.37845C23.3706 5.14068 23.4913 4.92398 23.6766 4.77283C23.8619 4.62169 24.0977 4.54757 24.3356 4.5657C24.5735 4.58384 24.7955 4.69284 24.956 4.87033C25.1165 5.04782 25.2033 5.28033 25.1986 5.52013C25.1939 5.75993 25.098 5.98881 24.9307 6.15979C24.7633 6.33077 24.5372 6.43086 24.2988 6.43953C24.2287 6.44197 24.1587 6.43564 24.0903 6.42068L24.091 6.4237ZM15.9828 5.409C15.9559 5.23574 15.9808 5.05838 16.0542 4.89933C16.1277 4.74029 16.2464 4.6067 16.3953 4.51547C16.5443 4.42424 16.7168 4.37946 16.8911 4.38679C17.0654 4.39412 17.2336 4.45324 17.3745 4.55666C17.5154 4.66009 17.6225 4.80317 17.6825 4.96783C17.7425 5.13249 17.7525 5.31132 17.7113 5.48171C17.6702 5.6521 17.5797 5.8064 17.4513 5.9251C17.3229 6.04379 17.1624 6.12155 16.99 6.14854C16.942 6.14854 16.894 6.16437 16.846 6.16437C16.6373 6.15866 16.437 6.08018 16.2795 5.94238C16.122 5.80457 16.0171 5.61601 15.9828 5.409ZM24.442 2.40259C24.2409 2.33114 24.0741 2.18605 23.9748 1.99631C23.8755 1.80658 23.8511 1.58617 23.9065 1.37915C23.9619 1.17212 24.0929 0.993731 24.2735 0.87962C24.4541 0.76551 24.6708 0.724087 24.8804 0.763631C25.09 0.803176 25.2771 0.920774 25.4042 1.09292C25.5313 1.26507 25.5891 1.47909 25.566 1.69221C25.5429 1.90533 25.4407 2.10185 25.2797 2.24249C25.1188 2.38313 24.9109 2.45753 24.6978 2.45083C24.6025 2.43425 24.5223 2.41842 24.442 2.40259Z" fill="#464646"/>
</g>
</g>
</g>
</svg>
