<svg width="40" height="40" viewBox="0 0 40 40" fill="none" xmlns="http://www.w3.org/2000/svg">
<g id="Icon">
<path id="Icon_2" d="M31.6667 33.3333H8.33333C6.49238 33.3333 5 31.8409 5 30L5 9.99996C5 8.15901 6.49239 6.66663 8.33333 6.66663L25 6.66663C26.841 6.66663 28.3333 8.15901 28.3333 9.99996V11.6666M31.6667 33.3333C29.8257 33.3333 28.3333 31.8409 28.3333 30L28.3333 11.6666M31.6667 33.3333C33.5076 33.3333 35 31.8409 35 30V15C35 13.159 33.5076 11.6666 31.6667 11.6666L28.3333 11.6666M21.6667 6.66663L15 6.66663M11.6667 26.6666H21.6667M11.6667 13.3333H21.6667V20H11.6667V13.3333Z" stroke="#008E7D" stroke-width="2" stroke-linecap="round" stroke-linejoin="round"/>
</g>
</svg>
