<svg width="298" height="274" viewBox="0 0 298 274" fill="none" xmlns="http://www.w3.org/2000/svg">
<path d="M244.163 8.59348C214.976 -13.3166 152.3 12.4464 101.26 22.082C50.2192 31.7154 -22.3303 85.4963 25.0241 174.218C72.3784 262.939 110.061 274.394 194.451 258.155C278.84 241.916 317.228 174.581 288.281 131.924C259.334 89.2669 272.4 29.79 244.163 8.59348Z" fill="#EEF1F4"/>
<path d="M151.77 246.852C153.394 245.35 154.851 243.617 156.088 241.66C157.325 239.703 158.266 237.642 158.925 235.533L152.773 233.619C153.286 231.978 153.569 230.3 153.634 228.621L160.072 228.879C160.249 224.348 159.231 219.834 157.128 215.819L151.424 218.815C150.645 217.328 149.667 215.933 148.502 214.67L153.235 210.3C151.736 208.677 150.001 207.22 148.044 205.983C146.087 204.746 144.026 203.804 141.917 203.147L140.002 209.297C138.364 208.787 136.684 208.501 135.005 208.438L135.263 202.001C130.732 201.824 126.216 202.841 122.201 204.946L125.197 210.651C123.71 211.43 122.315 212.407 121.052 213.573L116.682 208.837C115.058 210.338 113.602 212.072 112.365 214.029C111.127 215.986 110.186 218.046 109.527 220.155L115.679 222.07C115.166 223.711 114.883 225.389 114.818 227.067L108.381 226.81C108.203 231.338 109.221 235.854 111.324 239.87L117.028 236.874C117.807 238.36 118.785 239.756 119.95 241.016L115.217 245.386C116.716 247.01 118.451 248.467 120.408 249.704C122.365 250.941 124.426 251.883 126.535 252.539L128.452 246.389C130.09 246.9 131.771 247.185 133.447 247.251L133.19 253.688C137.72 253.863 142.236 252.845 146.249 250.74L143.254 245.038C144.74 244.259 146.135 243.281 147.398 242.116L151.768 246.852H151.77ZM139.865 233.954C139.325 234.452 138.727 234.873 138.092 235.204C137.446 235.542 136.762 235.793 136.054 235.954C135.349 236.112 134.621 236.179 133.893 236.152C133.175 236.125 132.457 236.002 131.754 235.782C131.076 235.571 130.413 235.269 129.784 234.87C129.155 234.474 128.598 234.003 128.116 233.483C127.618 232.945 127.2 232.345 126.866 231.71C126.527 231.064 126.277 230.378 126.117 229.673C125.959 228.965 125.889 228.239 125.919 227.511C125.946 226.793 126.066 226.073 126.288 225.372C126.499 224.692 126.801 224.032 127.2 223.402C127.597 222.773 128.066 222.216 128.587 221.735C129.128 221.234 129.725 220.816 130.361 220.483C131.004 220.145 131.691 219.894 132.398 219.735C133.105 219.575 133.831 219.507 134.56 219.537C135.278 219.566 135.997 219.687 136.698 219.906C137.376 220.117 138.039 220.421 138.668 220.818C139.297 221.215 139.855 221.684 140.338 222.205C140.836 222.746 141.256 223.343 141.588 223.979C141.926 224.625 142.177 225.311 142.335 226.016C142.494 226.721 142.563 227.45 142.534 228.178C142.506 228.896 142.386 229.616 142.164 230.317C141.953 230.994 141.651 231.657 141.252 232.286C140.855 232.915 140.387 233.473 139.865 233.954Z" fill="#008E7D"/>
<path d="M134.197 254.023C133.857 254.023 133.519 254.017 133.179 254.004L132.862 253.992L133.12 247.55C131.606 247.466 130.111 247.208 128.663 246.782L126.746 252.934L126.444 252.839C124.272 252.161 122.184 251.196 120.242 249.968C118.299 248.741 116.532 247.27 114.987 245.597L114.771 245.365L119.507 240.995C118.5 239.87 117.624 238.628 116.9 237.298L111.191 240.294L111.043 240.013C108.915 235.947 107.883 231.376 108.064 226.793L108.077 226.476L114.516 226.734C114.598 225.222 114.858 223.725 115.284 222.275L109.13 220.358L109.225 220.056C109.903 217.882 110.87 215.796 112.097 213.853C113.323 211.913 114.793 210.144 116.467 208.599L116.699 208.383L121.071 213.121C122.199 212.112 123.44 211.236 124.768 210.513L121.772 204.807L122.053 204.659C126.115 202.529 130.686 201.501 135.273 201.678L135.59 201.691L135.332 208.132C136.842 208.214 138.339 208.472 139.791 208.898L141.706 202.746L142.008 202.841C144.181 203.519 146.269 204.484 148.211 205.713C150.153 206.941 151.92 208.411 153.466 210.083L153.681 210.315L148.946 214.685C149.955 215.813 150.829 217.054 151.553 218.384L157.259 215.388L157.407 215.669C159.537 219.733 160.568 224.304 160.388 228.889L160.376 229.206L153.936 228.949C153.854 230.458 153.594 231.955 153.168 233.407L159.322 235.324L159.227 235.626C158.547 237.801 157.582 239.887 156.356 241.827C155.129 243.767 153.66 245.536 151.986 247.082L151.753 247.297L147.381 242.559C146.254 243.569 145.012 244.443 143.684 245.167L146.68 250.871L146.399 251.019C142.637 252.991 138.44 254.021 134.197 254.021V254.023ZM133.519 253.382C137.779 253.498 142.023 252.537 145.821 250.605L142.827 244.903L143.108 244.755C144.588 243.98 145.958 243.013 147.183 241.882L147.415 241.666L151.785 246.4C153.322 244.943 154.677 243.292 155.817 241.487C156.958 239.682 157.867 237.75 158.524 235.736L152.374 233.821L152.469 233.519C152.967 231.925 153.252 230.272 153.316 228.604L153.328 228.288L159.763 228.545C159.877 224.283 158.921 220.043 156.989 216.243L151.287 219.237L151.139 218.956C150.366 217.478 149.399 216.106 148.266 214.879L148.05 214.647L152.782 210.279C151.327 208.742 149.676 207.387 147.871 206.247C146.066 205.105 144.132 204.197 142.12 203.542L140.205 209.69L139.903 209.595C138.309 209.099 136.656 208.814 134.988 208.748L134.672 208.736L134.929 202.299C130.667 202.183 126.425 203.141 122.625 205.073L125.619 210.775L125.338 210.923C123.86 211.696 122.488 212.663 121.263 213.796L121.031 214.012L116.661 209.278C115.124 210.735 113.769 212.386 112.629 214.191C111.488 215.996 110.579 217.93 109.922 219.942L116.072 221.857L115.977 222.159C115.479 223.753 115.194 225.406 115.13 227.074L115.118 227.39L108.683 227.133C108.569 231.393 109.525 235.633 111.457 239.435L117.161 236.441L117.309 236.722C118.084 238.202 119.051 239.574 120.182 240.797L120.398 241.029L115.664 245.397C117.119 246.934 118.77 248.289 120.575 249.429C122.38 250.571 124.314 251.479 126.326 252.136L128.241 245.986L128.543 246.081C130.133 246.577 131.786 246.862 133.456 246.928L133.772 246.94L133.515 253.375L133.519 253.382ZM134.22 236.473C134.108 236.473 133.994 236.471 133.882 236.467C133.128 236.437 132.381 236.308 131.661 236.084C130.943 235.859 130.255 235.542 129.615 235.139C128.976 234.735 128.393 234.25 127.882 233.699C127.373 233.15 126.936 232.529 126.584 231.858C126.235 231.193 125.973 230.481 125.807 229.742C125.64 229.001 125.572 228.245 125.602 227.498C125.631 226.744 125.758 225.997 125.984 225.277C126.206 224.561 126.525 223.873 126.93 223.233C127.335 222.592 127.821 222.009 128.372 221.5C128.925 220.989 129.544 220.552 130.215 220.202C130.88 219.853 131.591 219.592 132.328 219.425C133.063 219.258 133.817 219.191 134.572 219.218C135.328 219.248 136.076 219.376 136.793 219.6C137.509 219.824 138.197 220.143 138.837 220.548C139.477 220.953 140.059 221.437 140.57 221.988C141.081 222.541 141.518 223.162 141.869 223.829C142.219 224.498 142.481 225.21 142.646 225.944C142.812 226.681 142.882 227.437 142.85 228.188C142.821 228.944 142.692 229.692 142.468 230.409C142.247 231.123 141.928 231.811 141.523 232.453C141.117 233.095 140.634 233.678 140.083 234.186C139.525 234.702 138.907 235.136 138.24 235.485C137.575 235.833 136.863 236.095 136.126 236.262C135.501 236.403 134.862 236.473 134.222 236.473H134.22ZM134.235 219.845C133.639 219.845 133.046 219.91 132.468 220.043C131.784 220.198 131.125 220.44 130.508 220.763C129.888 221.088 129.313 221.494 128.802 221.967C128.292 222.438 127.842 222.978 127.466 223.573C127.09 224.169 126.795 224.804 126.59 225.467C126.381 226.134 126.263 226.825 126.235 227.523C126.208 228.216 126.271 228.917 126.425 229.603C126.579 230.287 126.822 230.946 127.145 231.562C127.472 232.185 127.878 232.759 128.349 233.268C128.822 233.781 129.362 234.229 129.955 234.604C130.546 234.978 131.184 235.274 131.851 235.483C132.516 235.69 133.209 235.81 133.907 235.837C134.606 235.865 135.305 235.801 135.987 235.647C136.671 235.493 137.33 235.25 137.946 234.927C138.563 234.607 139.137 234.201 139.652 233.724C140.163 233.253 140.613 232.713 140.986 232.117C141.362 231.522 141.658 230.885 141.862 230.224C142.071 229.559 142.19 228.866 142.217 228.167C142.245 227.471 142.181 226.772 142.027 226.088C141.875 225.406 141.632 224.747 141.307 224.127C140.982 223.508 140.579 222.934 140.104 222.421C139.631 221.91 139.093 221.462 138.497 221.086C137.904 220.711 137.266 220.415 136.603 220.208C135.938 220.001 135.246 219.881 134.547 219.853C134.444 219.849 134.338 219.847 134.235 219.847V219.845Z" fill="#464646"/>
<path d="M189.014 263.6C189.859 262.215 190.538 260.697 191.018 259.067C191.497 257.437 191.748 255.795 191.788 254.171L187.061 254.055C187.093 252.795 186.956 251.551 186.664 250.354L191.26 249.241C190.475 246.007 188.849 243.026 186.557 240.613L183.132 243.875C182.284 242.982 181.312 242.192 180.238 241.536L182.702 237.501C181.317 236.657 179.801 235.977 178.169 235.497C176.539 235.018 174.896 234.767 173.273 234.727L173.157 239.454C171.896 239.422 170.655 239.559 169.458 239.851L168.345 235.255C165.111 236.04 162.128 237.666 159.717 239.958L162.977 243.383C162.084 244.232 161.294 245.203 160.639 246.277L156.603 243.814C155.758 245.198 155.079 246.716 154.599 248.346C154.12 249.976 153.869 251.619 153.829 253.242L158.556 253.358C158.524 254.619 158.661 255.862 158.953 257.059L154.357 258.172C155.142 261.404 156.768 264.387 159.06 266.8L162.487 263.539C163.335 264.432 164.307 265.221 165.381 265.876L162.917 269.912C164.302 270.757 165.818 271.437 167.45 271.916C169.08 272.395 170.723 272.646 172.346 272.686L172.462 267.959C173.723 267.991 174.964 267.854 176.161 267.562L177.274 272.159C180.508 271.373 183.489 269.748 185.902 267.455L182.642 264.03C183.536 263.182 184.325 262.211 184.98 261.134L189.016 263.598L189.014 263.6ZM178.019 256.888C177.738 257.348 177.4 257.764 177.018 258.127C176.63 258.497 176.197 258.809 175.73 259.065C175.264 259.318 174.766 259.512 174.244 259.639C173.733 259.764 173.199 259.823 172.661 259.808C172.139 259.795 171.611 259.715 171.088 259.561C170.564 259.407 170.077 259.187 169.631 258.917C169.171 258.636 168.755 258.298 168.392 257.916C168.022 257.53 167.708 257.095 167.454 256.629C167.201 256.162 167.007 255.662 166.88 255.142C166.756 254.629 166.697 254.097 166.711 253.559C166.724 253.037 166.804 252.51 166.958 251.986C167.112 251.462 167.332 250.975 167.602 250.529C167.883 250.069 168.221 249.653 168.603 249.29C168.989 248.923 169.424 248.608 169.891 248.353C170.357 248.097 170.858 247.905 171.377 247.778C171.89 247.654 172.422 247.595 172.96 247.609C173.482 247.622 174.01 247.704 174.533 247.859C175.057 248.013 175.545 248.232 175.99 248.503C176.45 248.783 176.866 249.121 177.229 249.503C177.599 249.892 177.913 250.324 178.167 250.791C178.42 251.258 178.614 251.758 178.741 252.277C178.866 252.79 178.925 253.322 178.91 253.861C178.897 254.382 178.817 254.91 178.663 255.434C178.509 255.957 178.291 256.445 178.019 256.89V256.888Z" fill="#008E7D"/>
<path d="M172.654 273.011L172.338 273.003C170.659 272.961 168.985 272.697 167.362 272.22C165.736 271.741 164.186 271.057 162.755 270.182L162.485 270.018L164.951 265.979C164.06 265.409 163.23 264.74 162.481 263.984L159.052 267.248L158.834 267.018C156.504 264.565 154.851 261.531 154.055 258.246L153.981 257.937L158.579 256.825C158.351 255.788 158.237 254.728 158.241 253.669L153.51 253.553L153.518 253.236C153.561 251.557 153.825 249.883 154.304 248.26C154.781 246.636 155.467 245.084 156.341 243.651L156.506 243.381L160.545 245.847C161.117 244.951 161.786 244.124 162.54 243.376L159.278 239.95L159.508 239.733C161.959 237.404 164.991 235.749 168.28 234.951L168.588 234.877L169.701 239.477C170.735 239.249 171.795 239.137 172.857 239.137L172.973 234.408L173.29 234.417C174.968 234.459 176.642 234.723 178.266 235.2C179.892 235.679 181.441 236.365 182.873 237.237L183.143 237.402L180.679 241.441C181.574 242.015 182.402 242.684 183.149 243.436L186.576 240.172L186.793 240.402C189.124 242.853 190.777 245.887 191.575 249.174L191.649 249.482L187.049 250.595C187.277 251.631 187.391 252.691 187.386 253.751L192.118 253.867L192.109 254.184C192.067 255.862 191.803 257.536 191.324 259.16C190.847 260.783 190.161 262.335 189.287 263.769L189.122 264.039L185.083 261.573C184.511 262.466 183.842 263.296 183.088 264.043L186.35 267.47L186.12 267.687C183.669 270.016 180.637 271.671 177.348 272.469L177.039 272.543L175.927 267.942C174.888 268.17 173.837 268.291 172.771 268.28L172.654 273.011ZM163.355 269.802C164.664 270.571 166.07 271.179 167.539 271.612C169.008 272.045 170.52 272.296 172.036 272.359L172.152 267.634L172.469 267.643C173.683 267.674 174.901 267.543 176.085 267.256L176.393 267.182L177.504 271.776C180.464 271.004 183.198 269.513 185.448 267.444L182.189 264.022L182.419 263.802C183.301 262.964 184.072 262.012 184.703 260.971L184.868 260.701L188.902 263.163C189.671 261.854 190.279 260.446 190.709 258.978C191.142 257.509 191.393 255.997 191.457 254.481L186.732 254.365L186.74 254.049C186.772 252.83 186.641 251.614 186.354 250.432L186.28 250.124L190.874 249.013C190.101 246.056 188.611 243.32 186.544 241.067L183.122 244.327L182.902 244.096C182.066 243.214 181.114 242.445 180.073 241.81L179.803 241.645L182.265 237.613C180.956 236.844 179.55 236.236 178.08 235.804C176.611 235.371 175.099 235.12 173.583 235.056L173.467 239.779L173.151 239.771C171.932 239.741 170.714 239.872 169.534 240.159L169.226 240.233L168.115 235.639C165.155 236.412 162.421 237.902 160.169 239.971L163.428 243.393L163.198 243.611C162.316 244.449 161.547 245.401 160.912 246.442L160.747 246.712L156.713 244.251C155.944 245.559 155.336 246.968 154.906 248.435C154.473 249.904 154.221 251.414 154.158 252.932L158.883 253.048L158.875 253.365C158.843 254.581 158.974 255.799 159.261 256.981L159.335 257.289L154.741 258.4C155.511 261.358 157.004 264.092 159.071 266.344L162.495 263.087L162.713 263.317C163.553 264.201 164.505 264.97 165.542 265.603L165.812 265.768L163.35 269.802H163.355ZM172.813 260.127C172.76 260.127 172.707 260.127 172.652 260.127C172.093 260.112 171.535 260.025 170.997 259.867C170.459 259.709 169.942 259.481 169.464 259.189C168.989 258.9 168.55 258.546 168.16 258.136C167.773 257.731 167.442 257.275 167.174 256.781C166.904 256.284 166.701 255.759 166.57 255.218C166.437 254.671 166.376 254.112 166.39 253.553C166.403 252.995 166.492 252.44 166.65 251.897C166.811 251.355 167.039 250.84 167.328 250.365C167.619 249.887 167.974 249.448 168.381 249.06C168.787 248.676 169.243 248.344 169.735 248.074C170.227 247.806 170.752 247.601 171.297 247.47C171.844 247.337 172.403 247.278 172.963 247.291C173.52 247.305 174.075 247.392 174.618 247.552C175.158 247.711 175.673 247.939 176.151 248.23C176.628 248.522 177.067 248.876 177.455 249.284C177.842 249.691 178.175 250.147 178.441 250.639C178.709 251.133 178.914 251.659 179.045 252.201C179.178 252.748 179.237 253.31 179.225 253.869C179.212 254.424 179.123 254.982 178.965 255.524C178.806 256.065 178.578 256.582 178.287 257.057C177.994 257.538 177.639 257.978 177.234 258.362C176.828 258.748 176.372 259.08 175.88 259.348C175.386 259.616 174.861 259.819 174.318 259.952C173.824 260.072 173.317 260.133 172.811 260.133L172.813 260.127ZM172.811 247.92C172.355 247.92 171.897 247.975 171.451 248.082C170.959 248.203 170.486 248.386 170.043 248.627C169.597 248.87 169.188 249.168 168.823 249.516C168.455 249.864 168.136 250.261 167.875 250.692C167.613 251.12 167.408 251.585 167.262 252.073C167.119 252.56 167.041 253.063 167.028 253.565C167.015 254.07 167.068 254.574 167.189 255.066C167.307 255.554 167.49 256.029 167.733 256.477C167.976 256.922 168.276 257.332 168.622 257.697C168.972 258.066 169.367 258.385 169.796 258.645C170.227 258.907 170.691 259.113 171.179 259.257C171.664 259.401 172.167 259.479 172.671 259.491C173.176 259.504 173.68 259.451 174.172 259.331C174.664 259.213 175.137 259.029 175.583 258.786C176.026 258.543 176.438 258.244 176.803 257.897C177.168 257.551 177.487 257.156 177.751 256.724C178.013 256.295 178.217 255.831 178.361 255.341C178.505 254.851 178.585 254.351 178.595 253.85C178.608 253.346 178.555 252.841 178.435 252.349C178.317 251.859 178.133 251.386 177.89 250.939C177.65 250.495 177.35 250.084 177.001 249.716C176.653 249.349 176.258 249.03 175.828 248.769C175.399 248.507 174.935 248.302 174.447 248.158C173.959 248.015 173.457 247.935 172.954 247.924C172.908 247.924 172.859 247.924 172.813 247.924L172.811 247.92Z" fill="#464646"/>
<path d="M220.011 226.582C222.43 224.346 224.601 221.762 226.444 218.844C228.287 215.927 229.691 212.857 230.672 209.713L221.503 206.859C222.268 204.416 222.69 201.912 222.787 199.413L232.38 199.797C232.646 193.045 231.128 186.317 227.993 180.332L219.491 184.797C218.332 182.58 216.874 180.501 215.138 178.622L222.192 172.111C219.956 169.691 217.372 167.521 214.454 165.676C211.536 163.833 208.467 162.429 205.323 161.449L202.469 170.616C200.026 169.854 197.522 169.431 195.023 169.334L195.407 159.739C188.655 159.475 181.927 160.991 175.941 164.128L180.405 172.628C178.188 173.787 176.108 175.246 174.229 176.983L167.716 169.928C165.297 172.163 163.126 174.748 161.283 177.665C159.44 180.583 158.036 183.653 157.055 186.796L166.224 189.651C165.459 192.093 165.037 194.597 164.94 197.097L155.347 196.712C155.083 203.462 156.599 210.19 159.734 216.178L168.236 211.715C169.397 213.929 170.853 216.011 172.589 217.89L165.533 224.403C167.769 226.823 170.353 228.993 173.271 230.838C176.189 232.681 179.258 234.085 182.402 235.065L185.258 225.898C187.701 226.66 190.205 227.082 192.704 227.181L192.32 236.777C199.074 237.039 205.8 235.523 211.786 232.386L207.322 223.886C209.539 222.727 211.619 221.268 213.498 219.53L220.011 226.586V226.582ZM202.268 207.361C201.462 208.105 200.573 208.729 199.625 209.226C198.662 209.73 197.643 210.104 196.589 210.342C195.538 210.579 194.455 210.68 193.367 210.638C192.299 210.596 191.227 210.414 190.179 210.089C189.17 209.775 188.182 209.323 187.243 208.729C186.305 208.136 185.474 207.437 184.756 206.661C184.013 205.856 183.39 204.965 182.892 204.017C182.387 203.057 182.013 202.033 181.775 200.981C181.538 199.928 181.437 198.845 181.479 197.76C181.519 196.689 181.701 195.619 182.028 194.572C182.343 193.56 182.794 192.575 183.388 191.635C183.981 190.698 184.678 189.866 185.457 189.148C186.261 188.403 187.152 187.78 188.102 187.284C189.063 186.779 190.084 186.406 191.138 186.169C192.191 185.931 193.274 185.831 194.36 185.874C195.43 185.916 196.503 186.097 197.548 186.422C198.557 186.737 199.545 187.189 200.482 187.782C201.42 188.375 202.251 189.072 202.969 189.849C203.712 190.655 204.337 191.544 204.833 192.492C205.338 193.455 205.712 194.477 205.948 195.53C206.185 196.582 206.286 197.667 206.244 198.752C206.201 199.822 206.022 200.893 205.695 201.94C205.38 202.951 204.928 203.937 204.335 204.877C203.742 205.814 203.045 206.646 202.266 207.364L202.268 207.361Z" fill="#008E7D"/>
<path d="M193.821 237.117C193.317 237.117 192.814 237.106 192.31 237.087L191.993 237.075L192.377 227.479C190.032 227.361 187.711 226.962 185.469 226.288L182.613 235.457L182.311 235.362C179.085 234.355 175.988 232.922 173.104 231.1C170.222 229.278 167.598 227.095 165.303 224.612L165.088 224.38L172.146 217.867C170.577 216.131 169.219 214.206 168.107 212.139L159.603 216.604L159.455 216.324C156.295 210.29 154.766 203.502 155.032 196.7L155.045 196.383L164.64 196.767C164.756 194.426 165.157 192.104 165.831 189.86L156.66 187.003L156.755 186.701C157.762 183.475 159.195 180.378 161.017 177.494C162.839 174.612 165.022 171.988 167.503 169.693L167.735 169.478L174.25 176.536C175.99 174.963 177.913 173.605 179.98 172.495L175.517 163.993L175.798 163.845C181.828 160.685 188.613 159.154 195.422 159.42L195.738 159.433L195.354 169.028C197.693 169.144 200.013 169.543 202.262 170.217L205.116 161.05L205.418 161.145C208.644 162.152 211.741 163.586 214.625 165.408C217.509 167.23 220.133 169.413 222.426 171.895L222.641 172.128L215.586 178.641C217.159 180.382 218.516 182.306 219.624 184.37L228.126 179.905L228.274 180.186C231.435 186.22 232.965 193.005 232.697 199.81L232.684 200.126L223.089 199.742C222.973 202.083 222.572 204.406 221.898 206.65L231.069 209.506L230.974 209.808C229.967 213.036 228.534 216.134 226.712 219.013C224.89 221.895 222.709 224.519 220.226 226.814L219.994 227.029L213.479 219.972C211.741 221.545 209.816 222.902 207.749 224.013L212.214 232.512L211.933 232.66C206.349 235.586 200.117 237.117 193.821 237.117ZM192.65 236.467C199.139 236.667 205.589 235.21 211.357 232.246L206.894 223.749L207.175 223.601C209.391 222.44 211.446 220.991 213.282 219.294L213.515 219.079L220.028 226.134C222.373 223.928 224.442 221.422 226.176 218.678C227.911 215.933 229.287 212.99 230.273 209.924L221.107 207.07L221.201 206.768C221.947 204.38 222.373 201.904 222.47 199.404L222.483 199.088L232.076 199.472C232.277 192.99 230.822 186.537 227.86 180.764L219.361 185.228L219.213 184.947C218.054 182.734 216.605 180.678 214.908 178.839L214.693 178.607L221.746 172.096C219.542 169.75 217.036 167.683 214.289 165.946C211.545 164.21 208.6 162.832 205.534 161.85L202.682 171.015L202.38 170.92C199.99 170.175 197.512 169.748 195.016 169.651L194.7 169.638L195.084 160.045C188.6 159.847 182.144 161.301 176.376 164.263L180.839 172.763L180.559 172.911C178.342 174.07 176.288 175.52 174.451 177.218L174.219 177.433L167.706 170.377C165.36 172.581 163.293 175.09 161.558 177.834C159.822 180.579 158.444 183.524 157.46 186.589L166.627 189.444L166.532 189.746C165.787 192.133 165.358 194.61 165.263 197.109L165.25 197.426L155.659 197.042C155.459 203.523 156.913 209.977 159.875 215.749L168.377 211.286L168.525 211.567C169.688 213.786 171.136 215.84 172.832 217.673L173.047 217.905L165.991 224.416C168.195 226.763 170.704 228.83 173.448 230.566C176.195 232.301 179.138 233.68 182.203 234.664L185.058 225.499L185.36 225.594C187.743 226.337 190.22 226.763 192.723 226.863L193.04 226.875L192.656 236.469L192.65 236.467ZM193.853 210.961C193.686 210.961 193.521 210.957 193.355 210.951C192.244 210.906 191.144 210.718 190.084 210.387C189.027 210.055 188.013 209.587 187.074 208.993C186.132 208.398 185.273 207.684 184.524 206.872C183.774 206.063 183.132 205.151 182.611 204.161C182.096 203.181 181.711 202.134 181.466 201.047C181.222 199.955 181.12 198.845 181.165 197.743C181.207 196.632 181.397 195.532 181.728 194.473C182.056 193.419 182.524 192.406 183.122 191.462C183.719 190.516 184.433 189.657 185.243 188.912C186.056 188.158 186.968 187.514 187.956 186.999C188.936 186.486 189.983 186.102 191.068 185.857C192.149 185.612 193.258 185.508 194.372 185.553C195.485 185.597 196.585 185.787 197.643 186.116C198.696 186.446 199.709 186.914 200.653 187.512C201.597 188.107 202.454 188.821 203.206 189.632C203.959 190.446 204.601 191.359 205.118 192.342C205.633 193.326 206.02 194.375 206.263 195.456C206.507 196.542 206.609 197.654 206.565 198.76C206.522 199.873 206.332 200.973 206.001 202.031C205.674 203.082 205.205 204.095 204.607 205.041C204.01 205.985 203.296 206.844 202.486 207.592C201.667 208.347 200.754 208.991 199.773 209.504C198.793 210.017 197.746 210.402 196.659 210.649C195.738 210.855 194.797 210.961 193.853 210.961ZM193.876 186.178C192.979 186.178 192.084 186.277 191.21 186.475C190.177 186.708 189.183 187.073 188.252 187.56C187.315 188.05 186.449 188.662 185.676 189.378C184.906 190.088 184.228 190.903 183.66 191.802C183.092 192.699 182.647 193.662 182.336 194.663C182.022 195.667 181.84 196.713 181.8 197.768C181.758 198.815 181.855 199.871 182.087 200.908C182.319 201.94 182.687 202.934 183.174 203.865C183.668 204.807 184.279 205.672 184.99 206.441C185.704 207.214 186.519 207.891 187.414 208.457C188.307 209.021 189.27 209.466 190.274 209.781C191.281 210.095 192.324 210.275 193.38 210.315C194.434 210.357 195.491 210.26 196.519 210.028C197.552 209.794 198.546 209.428 199.479 208.941C200.41 208.455 201.276 207.843 202.055 207.125C202.826 206.414 203.503 205.599 204.071 204.701C204.639 203.802 205.085 202.839 205.395 201.841C205.709 200.838 205.889 199.793 205.931 198.735C205.973 197.684 205.876 196.628 205.644 195.596C205.414 194.568 205.047 193.571 204.557 192.636C204.067 191.701 203.457 190.835 202.741 190.06C202.028 189.29 201.213 188.612 200.317 188.046C199.42 187.478 198.457 187.033 197.457 186.72C196.452 186.408 195.407 186.228 194.351 186.186C194.195 186.18 194.037 186.178 193.878 186.178H193.876Z" fill="#464646"/>
<path d="M277.385 40.857H270.559C280.368 40.857 288.321 48.8099 288.321 58.627V178.525C288.321 188.333 280.368 196.295 270.559 196.295H277.385C287.194 196.295 295.147 188.331 295.147 178.525V58.627C295.147 48.8099 287.194 40.857 277.385 40.857Z" fill="#464646"/>
<path d="M277.385 196.613H270.559V195.98C280.178 195.98 288.004 188.149 288.004 178.527V58.6291C288.004 49.0041 280.178 41.1757 270.559 41.1757V40.5424H277.385C287.354 40.5424 295.463 48.6557 295.463 58.6291V178.527C295.463 188.5 287.354 196.613 277.385 196.613ZM275.31 195.98H277.385C287.004 195.98 294.83 188.149 294.83 178.527V58.6291C294.83 49.0041 287.004 41.1757 277.385 41.1757H275.31C282.982 43.2679 288.638 50.3004 288.638 58.6291V178.527C288.638 186.855 282.98 193.888 275.31 195.98Z" fill="#464646"/>
<path d="M78.0597 40.536H270.517C280.326 40.536 288.279 48.489 288.279 58.3061V178.204C288.279 188.012 280.326 195.974 270.517 195.974H78.0597C68.251 195.974 60.2981 188.01 60.2981 178.204V58.3061C60.2981 48.489 68.251 40.536 78.0597 40.536ZM78.0681 175.67H270.517C277.351 175.67 282.904 170.107 282.904 163.273V58.3061C282.904 51.4721 277.351 45.9091 270.517 45.9091H78.0681C71.2341 45.9091 65.6711 51.4721 65.6711 58.3061V163.273C65.6711 170.107 71.2341 175.67 78.0681 175.67Z" fill="white"/>
<path d="M270.517 196.292H78.0596C68.0905 196.292 59.9813 188.179 59.9813 178.206V58.3082C59.9813 48.3348 68.0905 40.2215 78.0596 40.2215H270.517C280.486 40.2215 288.595 48.3348 288.595 58.3082V178.206C288.595 188.179 280.486 196.292 270.517 196.292ZM78.0596 40.8527C68.4409 40.8527 60.6147 48.6832 60.6147 58.306V178.204C60.6147 187.829 68.4409 195.657 78.0596 195.657H270.517C280.136 195.657 287.962 187.826 287.962 178.204V58.306C287.962 48.6811 280.136 40.8527 270.517 40.8527H78.0596ZM270.517 175.987H78.068C71.0588 175.987 65.3543 170.284 65.3543 163.273V58.306C65.3543 51.2968 71.0567 45.5924 78.068 45.5924H270.517C277.522 45.5924 283.22 51.2947 283.22 58.306V163.273C283.22 170.282 277.522 175.987 270.517 175.987ZM78.068 46.2257C71.4072 46.2257 65.9877 51.6452 65.9877 58.306V163.273C65.9877 169.934 71.4072 175.353 78.068 175.353H270.517C277.174 175.353 282.587 169.934 282.587 163.273V58.306C282.587 51.6452 277.172 46.2257 270.517 46.2257H78.068Z" fill="#464646"/>
<path d="M282.946 58.6249V163.59C282.946 168.545 280.035 172.826 275.825 174.805C274.22 175.567 272.438 175.989 270.557 175.989H78.1082C71.2742 175.989 65.7112 170.428 65.7112 163.592V58.627C65.7112 52.4749 70.2207 47.351 76.1089 46.3925C76.7612 46.2849 77.4284 46.23 78.1103 46.23H270.559C271.241 46.23 271.911 46.2849 272.561 46.3925C278.447 47.351 282.948 52.4749 282.948 58.627L282.946 58.6249Z" fill="#EEF1F4"/>
<path d="M270.557 176.306H78.1082C71.0969 176.306 65.3945 170.601 65.3945 163.592V58.627C65.3945 52.363 69.8787 47.085 76.0582 46.0801C76.7317 45.9703 77.4221 45.9133 78.1103 45.9133H270.559C271.248 45.9133 271.938 45.9703 272.612 46.0801C278.785 47.0871 283.265 52.363 283.265 58.627V163.592C283.265 168.494 280.398 173.008 275.962 175.094C274.267 175.898 272.449 176.308 270.559 176.308L270.557 176.306ZM78.1082 46.5445C77.4558 46.5445 76.7993 46.5973 76.1596 46.7029C70.2883 47.6593 66.0279 52.6734 66.0279 58.6249V163.59C66.0279 170.251 71.4474 175.67 78.1082 175.67H270.557C272.352 175.67 274.079 175.282 275.69 174.517C279.906 172.537 282.629 168.247 282.629 163.59V58.6249C282.629 52.6713 278.373 47.6572 272.508 46.7029C271.868 46.5973 271.214 46.5445 270.557 46.5445H78.1082Z" fill="#464646"/>
<path d="M282.946 58.6248V61.1097H65.7112V58.6248C65.7112 52.4728 70.2207 47.3489 76.1089 46.3904H272.559C278.445 47.3489 282.946 52.4728 282.946 58.6248Z" fill="#008E7D"/>
<path d="M283.263 61.4264H65.3945V58.6249C65.3945 52.3609 69.8787 47.0829 76.0582 46.078L76.1089 46.0737H272.584L272.609 46.078C278.783 47.085 283.263 52.3609 283.263 58.6249V61.4264ZM66.0279 60.7931H282.629V58.6249C282.629 52.6797 278.386 47.6719 272.533 46.7071H76.1342C70.2756 47.674 66.0279 52.6818 66.0279 58.6249V60.7931Z" fill="#464646"/>
<path d="M78.3278 56.5728C79.8867 56.5728 81.1505 55.309 81.1505 53.7501C81.1505 52.1912 79.8867 50.9274 78.3278 50.9274C76.7689 50.9274 75.5051 52.1912 75.5051 53.7501C75.5051 55.309 76.7689 56.5728 78.3278 56.5728Z" fill="white"/>
<path d="M78.3277 56.8895C76.5965 56.8895 75.1884 55.4813 75.1884 53.7501C75.1884 52.0189 76.5965 50.6107 78.3277 50.6107C80.0589 50.6107 81.4671 52.0189 81.4671 53.7501C81.4671 55.4813 80.0589 56.8895 78.3277 56.8895ZM78.3277 51.2441C76.9449 51.2441 75.8217 52.3694 75.8217 53.7501C75.8217 55.1308 76.947 56.2561 78.3277 56.2561C79.7085 56.2561 80.8337 55.1308 80.8337 53.7501C80.8337 52.3694 79.7085 51.2441 78.3277 51.2441Z" fill="#464646"/>
<path d="M92.9141 56.5728C94.473 56.5728 95.7368 55.309 95.7368 53.7501C95.7368 52.1912 94.473 50.9274 92.9141 50.9274C91.3552 50.9274 90.0914 52.1912 90.0914 53.7501C90.0914 55.309 91.3552 56.5728 92.9141 56.5728Z" fill="white"/>
<path d="M92.9141 56.8895C91.183 56.8895 89.7748 55.4813 89.7748 53.7501C89.7748 52.0189 91.183 50.6107 92.9141 50.6107C94.6453 50.6107 96.0535 52.0189 96.0535 53.7501C96.0535 55.4813 94.6453 56.8895 92.9141 56.8895ZM92.9141 51.2441C91.5313 51.2441 90.4081 52.3694 90.4081 53.7501C90.4081 55.1308 91.5334 56.2561 92.9141 56.2561C94.2949 56.2561 95.4201 55.1308 95.4201 53.7501C95.4201 52.3694 94.2949 51.2441 92.9141 51.2441Z" fill="#464646"/>
<path d="M106.755 56.5728C108.314 56.5728 109.578 55.309 109.578 53.7501C109.578 52.1912 108.314 50.9274 106.755 50.9274C105.196 50.9274 103.932 52.1912 103.932 53.7501C103.932 55.309 105.196 56.5728 106.755 56.5728Z" fill="white"/>
<path d="M106.755 56.8895C105.024 56.8895 103.616 55.4813 103.616 53.7501C103.616 52.0189 105.024 50.6107 106.755 50.6107C108.486 50.6107 109.895 52.0189 109.895 53.7501C109.895 55.4813 108.486 56.8895 106.755 56.8895ZM106.755 51.2441C105.372 51.2441 104.249 52.3694 104.249 53.7501C104.249 55.1308 105.374 56.2561 106.755 56.2561C108.136 56.2561 109.261 55.1308 109.261 53.7501C109.261 52.3694 108.136 51.2441 106.755 51.2441Z" fill="#464646"/>
<path d="M199.363 92.9657C199.363 99.0608 196.785 104.554 192.662 108.416C188.879 111.958 183.793 114.128 178.2 114.128C172.12 114.128 166.637 111.563 162.778 107.457C159.219 103.672 157.038 98.5731 157.038 92.9657C157.038 81.2781 166.513 71.803 178.2 71.803C189.888 71.803 199.363 81.2781 199.363 92.9657Z" fill="#008E7D"/>
<path d="M178.2 114.445C172.211 114.445 166.65 112.04 162.546 107.675C158.788 103.678 156.719 98.4549 156.719 92.9678C156.719 81.124 166.354 71.4884 178.198 71.4884C190.042 71.4884 199.678 81.124 199.678 92.9678C199.678 98.8855 197.199 104.603 192.875 108.65C188.883 112.389 183.671 114.447 178.196 114.447L178.2 114.445ZM178.2 72.1176C166.705 72.1176 157.354 81.4702 157.354 92.9636C157.354 98.2902 159.362 103.359 163.008 107.237C166.992 111.475 172.388 113.81 178.2 113.81C183.512 113.81 188.571 111.81 192.447 108.183C196.642 104.256 199.049 98.7082 199.049 92.9636C199.049 81.4681 189.696 72.1176 178.203 72.1176H178.2Z" fill="#464646"/>
<path d="M177.521 96.6012C181.989 96.6012 185.611 92.9791 185.611 88.5111C185.611 84.043 181.989 80.4209 177.521 80.4209C173.053 80.4209 169.43 84.043 169.43 88.5111C169.43 92.9791 173.053 96.6012 177.521 96.6012Z" fill="white"/>
<path d="M177.521 96.9179C172.884 96.9179 169.114 93.1473 169.114 88.5111C169.114 83.8749 172.884 80.1043 177.521 80.1043C182.157 80.1043 185.927 83.8749 185.927 88.5111C185.927 93.1473 182.157 96.9179 177.521 96.9179ZM177.521 80.7376C173.235 80.7376 169.747 84.2253 169.747 88.5111C169.747 92.7968 173.235 96.2845 177.521 96.2845C181.806 96.2845 185.294 92.7968 185.294 88.5111C185.294 84.2253 181.806 80.7376 177.521 80.7376Z" fill="#464646"/>
<path d="M192.662 108.416C188.879 111.958 183.793 114.128 178.2 114.128C172.12 114.128 166.637 111.563 162.778 107.457C165.32 101.852 170.965 97.9503 177.523 97.9503C184.447 97.9503 190.355 102.299 192.664 108.418L192.662 108.416Z" fill="white"/>
<path d="M178.2 114.445C172.211 114.445 166.65 112.04 162.546 107.675L162.4 107.52L162.487 107.328C165.155 101.44 171.056 97.6357 177.518 97.6357C184.344 97.6357 190.547 101.924 192.956 108.308L193.03 108.506L192.875 108.652C188.883 112.391 183.671 114.449 178.196 114.449L178.2 114.445ZM163.154 107.394C167.123 111.534 172.458 113.812 178.2 113.812C183.44 113.812 188.436 111.867 192.291 108.329C189.922 102.301 184.015 98.2649 177.523 98.2649C171.379 98.2649 165.763 101.841 163.156 107.394H163.154Z" fill="#464646"/>
<path d="M242.932 123.181V128.377C242.932 130.898 240.869 132.96 238.351 132.96H117.087C114.567 132.96 112.506 130.898 112.506 128.377V123.181C112.506 120.661 114.569 118.6 117.087 118.6H238.351C240.872 118.6 242.932 120.663 242.932 123.181Z" fill="white"/>
<path d="M238.351 133.279H117.087C114.387 133.279 112.189 131.081 112.189 128.379V123.183C112.189 120.483 114.387 118.285 117.087 118.285H238.351C241.053 118.285 243.249 120.483 243.249 123.183V128.379C243.249 131.081 241.051 133.279 238.351 133.279ZM117.087 118.917C114.735 118.917 112.823 120.829 112.823 123.181V128.377C112.823 130.729 114.735 132.644 117.087 132.644H238.351C240.703 132.644 242.615 130.729 242.615 128.377V123.181C242.615 120.829 240.703 118.917 238.351 118.917H117.087Z" fill="#464646"/>
<path d="M238.353 138.823H117.087C114.557 138.823 112.506 140.874 112.506 143.405V148.604C112.506 151.135 114.557 153.186 117.087 153.186H238.353C240.883 153.186 242.934 151.135 242.934 148.604V143.405C242.934 140.874 240.883 138.823 238.353 138.823Z" fill="white"/>
<path d="M238.351 153.5H117.087C114.387 153.5 112.189 151.303 112.189 148.602V143.405C112.189 140.704 114.387 138.507 117.087 138.507H238.351C241.053 138.507 243.249 140.704 243.249 143.405V148.602C243.249 151.305 241.051 153.5 238.351 153.5ZM117.087 139.14C114.735 139.14 112.823 141.053 112.823 143.405V148.602C112.823 150.954 114.735 152.867 117.087 152.867H238.351C240.703 152.867 242.615 150.954 242.615 148.602V143.405C242.615 141.053 240.703 139.14 238.351 139.14H117.087Z" fill="#464646"/>
<path d="M149.222 118.6V132.963H117.087C114.567 132.963 112.506 130.9 112.506 128.379V123.183C112.506 120.663 114.569 118.602 117.087 118.602H149.222V118.6Z" fill="#008E7D"/>
<path d="M149.539 133.279H117.087C114.387 133.279 112.189 131.081 112.189 128.379V123.183C112.189 120.483 114.387 118.285 117.087 118.285H149.539V133.281V133.279ZM117.087 118.917C114.735 118.917 112.823 120.829 112.823 123.181V128.377C112.823 130.729 114.735 132.644 117.087 132.644H148.905V118.915H117.087V118.917Z" fill="#464646"/>
<path d="M117.087 138.823H149.222V153.186H117.087C114.567 153.186 112.506 151.123 112.506 148.604V143.407C112.506 140.886 114.569 138.825 117.087 138.825V138.823Z" fill="#008E7D"/>
<path d="M149.539 153.5H117.087C114.387 153.5 112.189 151.303 112.189 148.602V143.405C112.189 140.704 114.387 138.507 117.087 138.507H149.539V153.502V153.5ZM117.087 139.14C114.735 139.14 112.823 141.053 112.823 143.405V148.602C112.823 150.954 114.735 152.867 117.087 152.867H148.905V139.138H117.087V139.14Z" fill="#464646"/>
<path d="M229.969 122.409H158.159C156.136 122.409 154.496 124.049 154.496 126.072V126.074C154.496 128.097 156.136 129.737 158.159 129.737H229.969C231.992 129.737 233.632 128.097 233.632 126.074V126.072C233.632 124.049 231.992 122.409 229.969 122.409Z" fill="#EEF1F4"/>
<path d="M163.747 145.208L164.841 145.799L164.349 146.62L163.247 145.968L163.266 147.182H162.324L162.335 145.959L161.233 146.62L160.751 145.799L161.845 145.208L160.751 144.606L161.233 143.785L162.335 144.445L162.324 143.223H163.266L163.247 144.445L164.349 143.785L164.841 144.606L163.747 145.208Z" fill="#464646"/>
<path d="M168.299 145.208L169.393 145.799L168.901 146.62L167.799 145.968L167.818 147.182H166.876L166.887 145.959L165.784 146.62L165.303 145.799L166.397 145.208L165.303 144.606L165.784 143.785L166.887 144.445L166.876 143.223H167.818L167.799 144.445L168.901 143.785L169.393 144.606L168.299 145.208Z" fill="#464646"/>
<path d="M172.851 145.208L173.944 145.799L173.452 146.62L172.35 145.968L172.369 147.182H171.428L171.438 145.959L170.336 146.62L169.855 145.799L170.948 145.208L169.855 144.606L170.336 143.785L171.438 144.445L171.428 143.223H172.369L172.35 144.445L173.452 143.785L173.944 144.606L172.851 145.208Z" fill="#464646"/>
<path d="M177.405 145.208L178.498 145.799L178.006 146.62L176.904 145.968L176.923 147.182H175.982L175.992 145.959L174.89 146.62L174.409 145.799L175.502 145.208L174.409 144.606L174.89 143.785L175.992 144.445L175.982 143.223H176.923L176.904 144.445L178.006 143.785L178.498 144.606L177.405 145.208Z" fill="#464646"/>
<path d="M181.956 145.208L183.05 145.799L182.558 146.62L181.456 145.968L181.475 147.182H180.533L180.544 145.959L179.442 146.62L178.96 145.799L180.054 145.208L178.96 144.606L179.442 143.785L180.544 144.445L180.533 143.223H181.475L181.456 144.445L182.558 143.785L183.05 144.606L181.956 145.208Z" fill="#464646"/>
<path d="M186.508 145.208L187.602 145.799L187.11 146.62L186.008 145.968L186.027 147.182H185.085L185.096 145.959L183.994 146.62L183.512 145.799L184.606 145.208L183.512 144.606L183.994 143.785L185.096 144.445L185.085 143.223H186.027L186.008 144.445L187.11 143.785L187.602 144.606L186.508 145.208Z" fill="#464646"/>
<path d="M191.06 145.208L192.153 145.799L191.661 146.62L190.559 145.968L190.578 147.182H189.637L189.647 145.959L188.545 146.62L188.064 145.799L189.158 145.208L188.064 144.606L188.545 143.785L189.647 144.445L189.637 143.223H190.578L190.559 144.445L191.661 143.785L192.153 144.606L191.06 145.208Z" fill="#464646"/>
<path d="M195.612 145.208L196.705 145.799L196.213 146.62L195.111 145.968L195.13 147.182H194.189L194.199 145.959L193.097 146.62L192.616 145.799L193.709 145.208L192.616 144.606L193.097 143.785L194.199 144.445L194.189 143.223H195.13L195.111 144.445L196.213 143.785L196.705 144.606L195.612 145.208Z" fill="#464646"/>
<path d="M200.163 145.208L201.257 145.799L200.765 146.62L199.663 145.968L199.682 147.182H198.74L198.751 145.959L197.649 146.62L197.167 145.799L198.261 145.208L197.167 144.606L197.649 143.785L198.751 144.445L198.74 143.223H199.682L199.663 144.445L200.765 143.785L201.257 144.606L200.163 145.208Z" fill="#464646"/>
<path d="M204.717 145.208L205.811 145.799L205.319 146.62L204.217 145.968L204.236 147.182H203.294L203.305 145.959L202.203 146.62L201.721 145.799L202.815 145.208L201.721 144.606L202.203 143.785L203.305 144.445L203.294 143.223H204.236L204.217 144.445L205.319 143.785L205.811 144.606L204.717 145.208Z" fill="#464646"/>
<path d="M209.269 145.208L210.363 145.799L209.871 146.62L208.769 145.968L208.788 147.182H207.846L207.857 145.959L206.755 146.62L206.273 145.799L207.367 145.208L206.273 144.606L206.755 143.785L207.857 144.445L207.846 143.223H208.788L208.769 144.445L209.871 143.785L210.363 144.606L209.269 145.208Z" fill="#464646"/>
<path d="M213.821 145.208L214.914 145.799L214.422 146.62L213.32 145.968L213.339 147.182H212.398L212.408 145.959L211.306 146.62L210.825 145.799L211.918 145.208L210.825 144.606L211.306 143.785L212.408 144.445L212.398 143.223H213.339L213.32 144.445L214.422 143.785L214.914 144.606L213.821 145.208Z" fill="#464646"/>
<path d="M218.372 145.208L219.466 145.799L218.974 146.62L217.872 145.968L217.891 147.182H216.949L216.96 145.959L215.858 146.62L215.377 145.799L216.47 145.208L215.377 144.606L215.858 143.785L216.96 144.445L216.949 143.223H217.891L217.872 144.445L218.974 143.785L219.466 144.606L218.372 145.208Z" fill="#464646"/>
<path d="M222.924 145.208L224.018 145.799L223.526 146.62L222.424 145.968L222.443 147.182H221.501L221.512 145.959L220.41 146.62L219.928 145.799L221.022 145.208L219.928 144.606L220.41 143.785L221.512 144.445L221.501 143.223H222.443L222.424 144.445L223.526 143.785L224.018 144.606L222.924 145.208Z" fill="#464646"/>
<path d="M227.478 145.208L228.572 145.799L228.08 146.62L226.978 145.968L226.997 147.182H226.055L226.066 145.959L224.964 146.62L224.482 145.799L225.576 145.208L224.482 144.606L224.964 143.785L226.066 144.445L226.055 143.223H226.997L226.978 144.445L228.08 143.785L228.572 144.606L227.478 145.208Z" fill="#464646"/>
<g style="mix-blend-mode:soft-light">
<path d="M157.612 175.989H120.556L78.7627 46.2279H115.819L157.612 175.989Z" fill="white"/>
<path d="M178.697 175.989H167.634L125.84 46.2279H136.893L178.697 175.989Z" fill="white"/>
<path d="M266.187 175.989H229.133L187.34 46.2279H224.394L266.187 175.989Z" fill="white"/>
<path d="M282.946 162.581V163.592C282.946 168.545 280.035 172.826 275.825 174.807L234.418 46.23H245.47L282.946 162.581Z" fill="white"/>
</g>
<path d="M23.8649 91.1206L28.915 91.5998C29.2527 91.6315 29.58 91.4626 29.7489 91.1691L30.2197 90.35L22.8157 89.6469L23.1239 90.54C23.2358 90.8609 23.5229 91.0889 23.8628 91.1206H23.8649Z" fill="#008E7D"/>
<path d="M28.9974 91.9207C28.9594 91.9207 28.9235 91.9207 28.8855 91.9165L23.8355 91.4372C23.3752 91.3929 22.9783 91.0826 22.8284 90.6434L22.3597 89.2838L30.7433 90.0818L30.0255 91.3275C29.8144 91.6969 29.4175 91.9207 28.9974 91.9207ZM23.2781 90.008L23.4259 90.4365C23.4956 90.6392 23.6814 90.7849 23.8946 90.806L28.9446 91.2852C29.1557 91.3063 29.3668 91.1987 29.4745 91.0108L29.7004 90.6181L23.276 90.008H23.2781Z" fill="#464646"/>
<path d="M19.271 76.8615L36.1142 78.4639L35.4407 85.5554C35.3774 86.2226 35.0776 86.8433 34.5941 87.3077L32.2444 89.5646C31.6575 90.1283 30.8531 90.4091 30.0403 90.3331L22.9973 89.6638C22.1866 89.5857 21.4477 89.1593 20.979 88.4942L19.0979 85.8341C18.7115 85.2873 18.5342 84.6202 18.5975 83.953L19.271 76.8615Z" fill="#008E7D"/>
<path d="M30.3084 90.6624C30.2092 90.6624 30.112 90.6582 30.0128 90.6476L22.9698 89.9784C22.0662 89.8918 21.2471 89.4189 20.7214 88.6758L18.8403 86.0157C18.4096 85.4076 18.2112 84.6645 18.2829 83.9235L18.9881 76.5152L36.4625 78.1767L35.7574 85.585C35.6877 86.326 35.352 87.0185 34.8158 87.5357L32.466 89.7926C31.8833 90.3521 31.1106 90.6624 30.3084 90.6624ZM19.5581 77.2056L18.9142 83.9826C18.8572 84.5737 19.0155 85.1648 19.3575 85.6504L21.2386 88.3105C21.6567 88.9017 22.309 89.2796 23.0289 89.3471L30.0719 90.0164C30.7897 90.0861 31.5033 89.8369 32.0269 89.3345L34.3767 87.0776C34.8052 86.6659 35.0713 86.1149 35.1261 85.5238L35.7701 78.7468L19.556 77.2056H19.5581Z" fill="#464646"/>
<path d="M12.1203 60.8311C4.46298 46.933 17.4342 28.8505 33.0529 31.6521C43.2142 33.1088 50.6604 41.9759 50.3881 52.1941C50.2867 56.5052 48.7645 60.7677 46.0918 64.1541C41.6202 69.9029 38.7131 69.8776 37.421 77.1591C37.2796 77.953 36.5533 78.504 35.7511 78.428C30.302 78.6644 24.9121 78.1472 19.5792 76.891C18.777 76.815 18.1689 76.1352 18.1795 75.3308C18.2829 67.9437 15.5257 67.4603 12.1816 60.9451C12.1626 60.9071 12.1436 60.8691 12.1224 60.8311H12.1203Z" fill="white"/>
<path d="M33.2176 78.7995C28.6299 78.7995 24.0338 78.2654 19.5243 77.2035C18.5763 77.1021 17.848 76.2809 17.8606 75.3245C17.9282 70.3927 16.71 68.6193 14.8648 65.9338C13.9781 64.6439 12.9732 63.1829 11.8986 61.0886L11.8416 60.9788C8.242 54.4426 8.91547 46.325 13.6023 39.7929C18.2892 33.2608 25.7629 30.0222 33.1078 31.3417C43.4126 32.8196 50.9812 41.7901 50.7026 52.2047C50.5991 56.6044 49.0474 60.9176 46.3366 64.3526C44.8799 66.2252 43.5984 67.4792 42.4668 68.5876C40.1297 70.8762 38.5842 72.3878 37.7271 77.2161C37.5603 78.1577 36.6905 78.8249 35.7383 78.7468C34.8981 78.7826 34.0557 78.8016 33.2133 78.8016L33.2176 78.7995ZM29.8607 31.6859C23.8185 31.6859 17.9894 34.764 14.1154 40.1623C9.57205 46.4939 8.91335 54.356 12.3968 60.6769L12.4602 60.7994C13.5179 62.8578 14.5102 64.3019 15.3842 65.5749C17.2294 68.2604 18.5637 70.2006 18.4919 75.3329C18.4835 75.9684 18.9711 76.5152 19.6045 76.5743L19.6467 76.5807C24.9416 77.8284 30.3527 78.3435 35.7341 78.1092H35.7552H35.7763C36.4097 78.1683 36.9924 77.727 37.1043 77.1C37.9973 72.0711 39.6863 70.418 42.0234 68.1295C43.1402 67.0359 44.407 65.7966 45.8384 63.9556C48.4668 60.6263 49.9679 56.4461 50.0692 52.1836C50.3394 42.0899 43.003 33.3959 33.0064 31.9624C31.9572 31.7745 30.9058 31.6816 29.8607 31.6816V31.6859Z" fill="#464646"/>
<path d="M30.7666 78.4998L30.1354 78.4385C30.1945 77.8199 31.3071 66.4786 33.3592 60.0351C31.9425 60.1006 30.129 59.9613 27.8088 59.4799C27.091 59.3321 26.4407 59.1674 25.8517 58.9943C25.9995 59.8937 26.0776 60.9472 26.0565 62.1738C25.8433 75.3182 25.5477 77.9234 25.535 78.0269L24.9059 77.953C24.908 77.9276 25.2099 75.2401 25.4231 62.1632C25.4442 60.8184 25.3471 59.7016 25.1698 58.779C21.9312 57.6875 20.8608 56.2582 21.0086 55.2258C21.1057 54.5502 21.7116 54.1196 22.4886 54.1808C23.5083 54.261 25.0347 55.2786 25.7145 58.2871C26.3626 58.4919 27.1015 58.684 27.9376 58.8571C30.2578 59.3384 32.1199 59.4778 33.5745 59.3849C34.1403 57.7572 34.7716 56.5179 35.4704 55.9669C36.4901 55.1583 37.3895 55.2934 37.8919 55.6903C38.4873 56.1611 38.6414 57.0077 38.274 57.7952C38.0165 58.3483 37.0791 59.6805 34.02 59.9845C31.9615 66.3118 30.7835 78.3435 30.7687 78.4955L30.7666 78.4998ZM36.9545 56.007C36.6252 56.007 36.2473 56.1632 35.8652 56.4651C35.2804 56.9275 34.7399 57.9556 34.2459 59.3258C36.2198 59.0809 37.3134 58.361 37.6998 57.5313C37.9405 57.014 37.8603 56.4757 37.4992 56.1907C37.3451 56.0682 37.1593 56.007 36.9524 56.007H36.9545ZM22.3471 54.812C21.9629 54.812 21.6821 55.0084 21.6377 55.3187C21.5427 55.9838 22.4337 57.1069 25.0051 58.0506C24.376 55.6861 23.1831 54.8775 22.44 54.8184C22.4083 54.8163 22.3767 54.8141 22.3471 54.8141V54.812Z" fill="#464646"/>
<path d="M36.6737 82.6441C36.6505 82.6441 36.6272 82.6419 36.604 82.6356L18.1478 78.5251C17.9768 78.4871 17.8692 78.3182 17.9072 78.1472C17.9452 77.9762 18.1162 77.8706 18.2851 77.9065L36.7412 82.017C36.9122 82.055 37.0199 82.2239 36.9819 82.3949C36.9481 82.5427 36.8172 82.6419 36.6737 82.6419V82.6441Z" fill="white"/>
<path d="M36.492 84.5695C36.4688 84.5695 36.4456 84.5674 36.4224 84.561L17.9662 80.4505C17.7952 80.4125 17.6875 80.2436 17.7255 80.0726C17.7635 79.9016 17.9324 79.796 18.1034 79.8319L36.5596 83.9424C36.7306 83.9804 36.8383 84.1493 36.8003 84.3204C36.7665 84.4681 36.6356 84.5674 36.492 84.5674V84.5695Z" fill="white"/>
<path d="M36.3084 86.4928C36.2852 86.4928 36.262 86.4907 36.2388 86.4843L17.7826 82.3738C17.6116 82.3358 17.5039 82.1669 17.5419 81.9959C17.5799 81.8249 17.7509 81.7193 17.9198 81.7552L36.376 85.8658C36.547 85.9038 36.6547 86.0727 36.6167 86.2437C36.5829 86.3914 36.452 86.4907 36.3084 86.4907V86.4928Z" fill="white"/>
<path d="M35.257 88.2219C35.2338 88.2219 35.2106 88.2198 35.1874 88.2134L17.5989 84.2971C17.4279 84.2591 17.3202 84.0902 17.3582 83.9192C17.3962 83.7482 17.5672 83.6426 17.7361 83.6785L35.3246 87.5948C35.4956 87.6328 35.6033 87.8017 35.5653 87.9727C35.5315 88.1205 35.4006 88.2197 35.257 88.2197V88.2219Z" fill="white"/>
<path d="M53.8311 53.6044L53.7711 54.2349L60.2634 54.852L60.3233 54.2215L53.8311 53.6044Z" fill="#464646"/>
<path d="M57.5648 38.7912L51.6343 41.5039L51.8977 42.0799L57.8283 39.3672L57.5648 38.7912Z" fill="#464646"/>
<path d="M47.4535 26.8267L43.6738 32.1412L44.19 32.5083L47.9696 27.1937L47.4535 26.8267Z" fill="#464646"/>
<path d="M32.7212 21.522L32.1029 28.0142L32.7334 28.0742L33.3517 21.5821L32.7212 21.522Z" fill="#464646"/>
<path d="M17.8698 24.0112L17.2938 24.2746L20.0055 30.2056L20.5815 29.9423L17.8698 24.0112Z" fill="#464646"/>
<path d="M5.68296 33.8658L5.3158 34.3818L10.6297 38.1624L10.9968 37.6463L5.68296 33.8658Z" fill="#464646"/>
<path d="M0.0599348 48.4923L0 49.1228L6.49224 49.74L6.55218 49.1095L0.0599348 48.4923Z" fill="#464646"/>
<mask id="mask0_21_210" style="mask-type:luminance" maskUnits="userSpaceOnUse" x="9" y="0" width="289" height="265">
<path d="M244.163 8.59348C214.976 -13.3166 152.3 12.4464 101.26 22.082C50.2192 31.7154 -22.3303 85.4963 25.0241 174.218C72.3784 262.939 110.061 274.394 194.451 258.155C278.84 241.916 317.228 174.581 288.281 131.924C259.334 89.2669 272.4 29.79 244.163 8.59348Z" fill="white"/>
</mask>
<g mask="url(#mask0_21_210)">
<path d="M74.3481 132.922C74.5634 132.973 74.7767 133.028 74.9815 133.083C75.1905 133.142 75.3974 133.203 75.6 133.273C76.1152 133.444 76.5965 133.644 77.0441 133.879C77.1138 133.913 77.1856 133.951 77.2552 133.993C77.3397 134.041 77.4262 134.088 77.5086 134.141C77.5867 134.189 77.6648 134.236 77.7387 134.286C77.7429 134.286 77.745 134.291 77.7492 134.293C77.8253 134.343 77.9013 134.396 77.9773 134.447C78.4312 134.776 78.8323 135.154 79.1764 135.58C79.2292 135.644 79.282 135.707 79.3284 135.773C79.6515 136.21 79.9217 136.699 80.1265 137.248C80.1476 137.303 80.1666 137.356 80.1856 137.409C80.2088 137.47 80.2299 137.533 80.2489 137.599C80.2764 137.679 80.3017 137.761 80.3249 137.846C80.3714 138.019 80.4178 138.196 80.4558 138.384C80.4748 138.466 80.4896 138.549 80.5023 138.631C80.5192 138.713 80.5297 138.796 80.5424 138.882C80.5551 138.967 80.5677 139.053 80.5783 139.142C80.99 142.596 83.6459 144.257 84.4988 147.659C84.5748 147.946 84.636 148.243 84.6782 148.56C85.4129 153.806 83.9288 154.685 82.586 159.051C82.1216 160.562 83.6437 165.872 85.5058 171.376C86.1983 171.515 86.895 171.636 87.56 171.712C88.9999 171.893 90.389 171.957 91.717 171.933C94.394 171.904 94.7297 159.435 92.9499 158.981C92.0527 158.761 91.2272 158.487 90.4798 158.2C90.2983 158.124 90.104 158.061 89.9415 157.978C89.7747 157.896 89.61 157.82 89.4411 157.748L88.9999 157.503C88.8458 157.431 88.7465 157.334 88.6199 157.258C88.1512 156.933 87.9084 155.821 87.9084 155.821L87.7458 155.246L87.6635 154.961C87.6381 154.86 87.6191 154.748 87.5938 154.643L87.4545 154.003L87.3025 153.369L87.1758 152.685C87.0977 152.223 86.9985 151.79 86.9288 151.309C86.8232 150.707 86.6522 149.151 86.4369 146.981C86.3144 145.748 86.1772 144.321 86.0294 142.75C85.5924 138.108 82.2145 134.533 76.8562 133.364C76.8562 133.364 75.8428 133.15 74.3439 132.92L74.3481 132.922Z" fill="#008E7D"/>
<path d="M91.2231 172.258C89.9774 172.258 88.7339 172.182 87.5242 172.03C86.9183 171.961 86.2364 171.849 85.4468 171.691L85.2673 171.655L85.2082 171.482C82.8205 164.424 81.8641 160.328 82.2863 158.962C82.6685 157.721 83.0632 156.756 83.4095 155.903C84.2983 153.73 84.8831 152.293 84.368 148.607C84.3257 148.307 84.2687 148.024 84.1948 147.741C83.8127 146.215 83.0421 145.028 82.2948 143.882C81.4102 142.52 80.496 141.114 80.2659 139.182C80.2575 139.096 80.2448 139.013 80.2321 138.931C80.2194 138.851 80.2089 138.773 80.1941 138.694C80.1814 138.608 80.1667 138.534 80.1498 138.458C80.1118 138.27 80.0695 138.099 80.0231 137.932C80.002 137.852 79.9809 137.78 79.9555 137.709C79.9323 137.63 79.9133 137.573 79.8922 137.521C79.8732 137.468 79.8563 137.419 79.8352 137.371C79.641 136.856 79.3876 136.385 79.0752 135.963C79.0308 135.899 78.9844 135.842 78.9358 135.787C78.6107 135.384 78.2265 135.021 77.7894 134.704L77.5614 134.55C77.4897 134.502 77.4179 134.457 77.344 134.413C77.2574 134.356 77.1793 134.314 77.1012 134.269C77.0315 134.227 76.964 134.193 76.9006 134.162C76.4721 133.936 76.0139 133.746 75.4988 133.575C75.2982 133.505 75.0977 133.448 74.8929 133.389C74.6944 133.334 74.4854 133.281 74.2743 133.231L74.3946 132.61C75.883 132.84 76.9133 133.053 76.9217 133.055C82.3665 134.242 85.888 137.856 86.3462 142.723C86.494 144.293 86.6312 145.721 86.7536 146.951C86.9859 149.299 87.1463 150.709 87.2413 151.258C87.2835 151.554 87.3363 151.824 87.387 152.092C87.4208 152.272 87.4567 152.451 87.4883 152.637L87.615 153.317L87.9042 154.579C87.9148 154.626 87.9253 154.678 87.9359 154.729C87.9465 154.784 87.957 154.837 87.9718 154.89L88.2125 155.738C88.3075 156.167 88.5503 156.826 88.8015 157.001C88.8395 157.024 88.8923 157.06 88.9451 157.098C89.0105 157.144 89.0675 157.187 89.1372 157.218L89.5953 157.472C89.741 157.533 89.9099 157.611 90.0809 157.695C90.178 157.744 90.2836 157.784 90.3912 157.826C90.463 157.854 90.5348 157.881 90.6045 157.911C91.4342 158.232 92.2301 158.483 93.026 158.677C94.5187 159.057 94.5186 164.365 94.1893 167.124C93.9613 169.033 93.3364 172.237 91.7234 172.254C91.5566 172.256 91.3898 172.258 91.2209 172.258H91.2231ZM85.7487 171.106C86.4454 171.243 87.0534 171.34 87.5981 171.401C88.9451 171.57 90.3279 171.644 91.715 171.621C92.5046 171.612 93.2287 169.818 93.5602 167.048C94.0457 162.986 93.4926 159.45 92.874 159.291C92.0549 159.091 91.2336 158.831 90.368 158.498C90.2962 158.468 90.2308 158.443 90.1653 158.417C90.0366 158.369 89.912 158.318 89.8001 158.263C89.6418 158.185 89.4813 158.111 89.3166 158.039L88.8501 157.782C88.7466 157.733 88.6558 157.67 88.5777 157.611C88.5397 157.583 88.5017 157.556 88.4616 157.531C87.8895 157.134 87.6298 156.015 87.6023 155.89L87.3638 155.052C87.3469 154.982 87.3321 154.919 87.3194 154.856C87.311 154.809 87.3004 154.763 87.2899 154.719L86.9985 153.448L86.8676 152.747C86.836 152.563 86.8022 152.388 86.7684 152.21C86.7156 151.932 86.6607 151.653 86.6185 151.355C86.5214 150.8 86.361 149.375 86.1266 147.013C86.0042 145.78 85.8669 144.352 85.717 142.782C85.3138 138.492 82.3581 135.234 77.743 133.915C77.7726 133.934 77.8021 133.951 77.8317 133.972H77.8676L77.9457 134.048L78.1484 134.187C78.6382 134.544 79.0625 134.945 79.4193 135.386C79.4742 135.45 79.5291 135.521 79.5819 135.595C79.926 136.06 80.2068 136.581 80.4179 137.143C80.439 137.193 80.4601 137.25 80.4812 137.31C80.5045 137.373 80.5298 137.445 80.5509 137.519C80.5762 137.586 80.6037 137.679 80.629 137.774C80.6776 137.951 80.724 138.135 80.762 138.329C80.781 138.412 80.7979 138.5 80.8127 138.591C80.8275 138.665 80.8401 138.754 80.8549 138.842C80.8676 138.931 80.8824 139.022 80.8908 139.115C81.1019 140.894 81.938 142.18 82.8226 143.54C83.5974 144.73 84.3975 145.963 84.805 147.587C84.8852 147.891 84.9464 148.197 84.9908 148.522C85.5312 152.377 84.8852 153.958 83.9922 156.146C83.6502 156.986 83.2617 157.936 82.888 159.152C82.6326 159.984 82.9218 162.737 85.7466 171.11L85.7487 171.106Z" fill="#464646"/>
<path d="M44.5738 155.873L44.6202 156.663L45.4436 169.911L45.7962 188.703L90.881 185.901C90.881 185.901 87.9105 178.48 85.508 171.384C83.6459 165.88 82.1237 160.571 82.5882 159.059C83.9309 154.691 85.4172 153.815 84.6804 148.569C84.6361 148.252 84.5769 147.954 84.5009 147.667C83.6501 144.266 80.9921 142.607 80.5804 139.15C80.1497 135.53 77.8654 133.737 74.3334 132.925C72.5346 132.513 70.4129 132.35 68.0462 132.336C67.8963 132.331 67.7443 132.331 67.5923 132.331C67.4888 132.331 67.3854 132.331 67.2819 132.333C66.6465 132.336 65.9962 132.346 65.3291 132.365C65.3291 132.365 65.2383 132.371 65.0588 132.384C64.6408 132.422 63.7604 132.511 62.5592 132.713C62.5381 132.718 62.5127 132.72 62.4895 132.726C44.3943 132.823 43.8687 144.614 44.5717 155.875L44.5738 155.873Z" fill="#008E7D"/>
<path d="M45.4858 189.036L45.129 169.913L44.2592 155.892C43.8475 149.312 43.7757 141.901 48.1375 137.231C51.1333 134.027 55.818 132.447 62.4578 132.407C62.4768 132.403 62.4937 132.401 62.5127 132.399C63.3909 132.251 64.2396 132.139 65.0335 132.067L65.31 132.048C65.9666 132.029 66.6274 132.019 67.284 132.015C67.5352 132.01 67.8034 132.01 68.0567 132.015C70.6472 132.031 72.7267 132.228 74.4072 132.612C78.4185 133.537 80.4812 135.599 80.8992 139.108C81.1124 140.892 81.9463 142.176 82.8309 143.538C83.6057 144.728 84.4059 145.961 84.8133 147.585C84.8936 147.889 84.9548 148.195 84.9991 148.52C85.5396 152.375 84.8936 153.956 84.0005 156.144C83.6585 156.984 83.2701 157.934 82.8964 159.15C82.6388 159.988 82.9344 162.773 85.8141 171.281C88.187 178.288 91.1533 185.707 91.1828 185.781L91.3454 186.188L45.4921 189.038L45.4858 189.036ZM67.5922 132.644C67.4909 132.644 67.3874 132.644 67.2861 132.646C66.6316 132.648 65.9751 132.661 65.3375 132.678L65.082 132.697C64.3114 132.766 63.4775 132.876 62.614 133.022L62.4937 133.039C56.0186 133.074 51.4753 134.586 48.5998 137.662C44.4091 142.146 44.4872 149.402 44.8904 155.85L44.9369 156.64L45.7602 169.885L46.1065 188.361L90.427 185.605C89.7747 183.954 87.2687 177.562 85.2081 171.479C82.8204 164.422 81.864 160.326 82.2862 158.96C82.6684 157.719 83.0631 156.752 83.4094 155.901C84.2982 153.728 84.883 152.291 84.3679 148.604C84.3257 148.305 84.2687 148.022 84.1948 147.739C83.8126 146.212 83.042 145.026 82.2947 143.88C81.4101 142.518 80.4959 141.112 80.2658 139.18C79.8837 135.973 77.9773 134.081 74.2615 133.226C72.6275 132.853 70.5944 132.663 68.044 132.646C67.892 132.642 67.7421 132.642 67.5922 132.642V132.644Z" fill="#464646"/>
<path d="M61.5585 123.122L73.2208 125.128L71.6733 129.547L71.6691 129.561L71.2405 130.78L70.833 131.949L70.7465 132.192L70.2693 133.254C70.2693 133.254 69.8154 135.082 66.1419 135.082C62.4684 135.082 61.1637 133.286 61.1637 133.286L61.5543 123.124L61.5585 123.122Z" fill="white"/>
<path d="M66.1461 135.395C62.3564 135.395 60.9694 133.547 60.9124 133.467L60.8469 133.378L61.2544 122.746L73.643 124.877L71.0462 132.293L70.569 133.359C70.4825 133.636 69.7942 135.395 66.1439 135.395H66.1461ZM61.4909 133.172C61.7885 133.499 63.1355 134.761 66.1482 134.761C69.4881 134.761 69.9504 133.235 69.9694 133.169L69.9863 133.121L70.4635 132.059L72.8027 125.375L61.8645 123.494L61.493 133.172H61.4909Z" fill="#464646"/>
<path d="M61.1847 119.552C60.9271 125.031 63.9419 129.555 69.1988 131.124C73.2228 132.325 76.3305 130.638 81.0279 120.483C83.3313 115.505 77.0525 110.354 71.5718 110.096C66.0933 109.838 61.4423 114.071 61.1847 119.552Z" fill="white"/>
<path d="M71.2932 131.784C70.5796 131.784 69.8554 131.651 69.1059 131.428C63.754 129.832 60.5978 125.276 60.8659 119.537C61.1298 113.892 65.937 109.52 71.5845 109.779C75.201 109.948 79.1025 112.173 80.859 115.07C81.9801 116.915 82.1363 118.834 81.3129 120.614C77.3185 129.251 74.4009 131.782 71.2932 131.782V131.784ZM61.4993 119.567C61.2438 124.999 64.2291 129.31 69.2875 130.82C72.9652 131.917 76.018 130.556 80.7387 120.35C81.6634 118.353 81.0195 116.556 80.3186 115.399C78.6634 112.67 74.9772 110.573 71.555 110.413C66.2579 110.162 61.7484 114.27 61.4993 119.567Z" fill="#464646"/>
<path d="M69.8745 133.898C69.8745 133.898 70.1342 133.682 70.2735 133.25C70.4255 132.779 71.099 131.447 71.099 131.447C71.099 131.447 64.8013 130.706 63.334 126.498C63.334 126.498 62.2129 131.681 69.8724 133.9L69.8745 133.898Z" fill="#464646"/>
<path d="M61.0221 117.219C61.0221 117.219 73.3959 121.336 80.0335 114.698C80.0335 114.698 75.8132 119.491 72.8934 118.98C72.8934 118.98 77.0335 120.264 80.0335 115.554C80.0335 115.554 80.8654 119.886 83.0188 120.77C83.0188 120.77 84.9864 108.703 74.5887 107.204C64.1911 105.705 61.5246 112.456 61.02 117.217L61.0221 117.219Z" fill="#464646"/>
<path d="M83.1476 119.377C83.1476 119.377 82.681 124.801 80.4453 126.498C78.2095 128.193 77.9562 129.101 77.9562 129.101C77.9562 129.101 77.8126 128.058 79.3284 123.916C80.8464 119.774 79.7021 116.451 80.0336 114.701C80.365 112.95 83.4791 117.242 83.1476 119.379V119.377Z" fill="#464646"/>
<path d="M73.2228 118.127C73.2228 118.127 72.3382 118.568 69.1271 118.969C65.916 119.371 66.1967 121.699 66.2559 122.582C66.3171 123.464 65.1517 121.218 66.2559 118.889C67.36 116.561 67.189 115.678 67.189 115.678L73.2228 118.127Z" fill="#464646"/>
<path d="M67.1868 118.087C67.1868 118.087 63.6696 119.248 63.6675 123.485C63.6653 127.723 66.4986 135.91 63.2748 137.597C63.2748 137.597 65.652 135.027 62.9327 130.853C60.2114 126.68 59.654 118.313 62.1263 112.864C64.5964 107.415 67.1868 118.089 67.1868 118.089V118.087Z" fill="#464646"/>
<path d="M67.1869 107.801C67.1869 107.801 68.2404 103.556 61.9786 102.834C55.7168 102.111 56.519 117.445 52.1045 118.087C52.1045 118.087 52.5267 120.614 56.6014 116.964C60.6739 113.311 61.5796 106.526 65.1919 108.694C68.8041 110.862 67.1891 107.801 67.1891 107.801H67.1869Z" fill="#464646"/>
<path d="M59.3944 151.571C59.3944 151.571 60.5472 163.82 72.2812 169.043C72.2812 169.043 63.0996 167.555 60.4986 162.025C57.8976 156.496 59.3965 151.573 59.3965 151.573L59.3944 151.571Z" fill="#464646"/>
<path d="M71.1834 177.123L70.9026 177.106C70.1679 177.064 52.8222 175.955 47.768 166.06C42.7476 156.232 44.6477 144.498 44.6667 144.38L45.2916 144.486C45.2726 144.602 43.4084 156.135 48.3317 165.773C52.8814 174.678 68.3776 176.268 70.6598 176.453L71.9139 169.315C70.4487 169.106 64.6893 168.025 61.2206 163.653C59.0587 160.93 58.2333 157.465 58.7632 153.35L59.3923 153.431C58.8856 157.366 59.6668 160.672 61.7146 163.254C65.4599 167.977 72.2496 168.72 72.3171 168.726L72.6549 168.76L71.1855 177.121L71.1834 177.123Z" fill="#464646"/>
<path d="M70.9195 176.789C70.9195 176.789 47.236 180.159 44.996 166.985C44.996 166.985 44.2212 151.972 44.5991 152.134C44.8968 152.261 44.8482 166.801 53.7808 171.792C62.7133 176.783 70.9195 176.789 70.9195 176.789Z" fill="#464646"/>
<path d="M88.5417 176.802L70.9195 176.789C71.2889 176.789 71.6267 176.916 71.8716 177.123C72.1165 177.325 72.2664 177.608 72.2664 177.921C72.2664 178.544 71.6584 179.054 70.9174 179.054L107.156 179.078C107.897 179.078 108.503 178.569 108.505 177.944C108.505 177.631 108.351 177.349 108.11 177.146C107.866 176.939 107.532 176.812 107.158 176.812L88.5417 176.8V176.802Z" fill="white"/>
<path d="M107.159 179.394L70.9198 179.371V178.738C71.2027 178.738 71.4687 178.647 71.6672 178.48C71.8508 178.326 71.9501 178.128 71.9501 177.923C71.9501 177.716 71.8508 177.52 71.6693 177.37C71.4708 177.201 71.2048 177.11 70.9219 177.11V176.477L107.161 176.5C107.594 176.5 108.005 176.646 108.316 176.907C108.643 177.184 108.822 177.553 108.822 177.948C108.822 178.345 108.641 178.715 108.313 178.991C108.001 179.253 107.591 179.399 107.159 179.399V179.394ZM72.2942 178.738L107.157 178.761C107.439 178.761 107.705 178.67 107.904 178.503C108.088 178.349 108.187 178.151 108.187 177.944C108.187 177.739 108.088 177.543 107.904 177.389C107.705 177.222 107.442 177.131 107.157 177.129L72.2963 177.106C72.4821 177.342 72.5813 177.623 72.5813 177.921C72.5813 178.216 72.48 178.499 72.2921 178.738H72.2942Z" fill="#464646"/>
<path d="M51.165 176.776C50.5422 176.776 50.0312 177.283 50.0312 177.906C50.0312 178.218 50.1558 178.501 50.3627 178.708C50.5696 178.911 50.8525 179.042 51.1629 179.042L71.1475 179.054C71.7703 179.054 72.2813 178.546 72.2813 177.921C72.2813 177.608 72.1567 177.325 71.9498 177.123C71.7429 176.916 71.46 176.789 71.1497 176.789L51.5851 176.776H51.165Z" fill="white"/>
<path d="M71.1475 179.371L51.1628 179.358C50.7807 179.358 50.4175 179.206 50.1389 178.934C49.8623 178.657 49.7124 178.294 49.7124 177.908C49.7124 177.522 49.8644 177.159 50.1389 176.884C50.4133 176.612 50.7764 176.46 51.1628 176.46L71.1475 176.472C71.5338 176.472 71.8991 176.624 72.1714 176.899C72.4459 177.169 72.5958 177.532 72.5958 177.921C72.5958 178.307 72.4438 178.67 72.1693 178.945C71.8948 179.219 71.5317 179.369 71.1454 179.369L71.1475 179.371ZM51.1649 177.093C50.9475 177.093 50.7427 177.178 50.5886 177.332C50.4344 177.486 50.3479 177.691 50.3479 177.906C50.3479 178.123 50.4323 178.328 50.5864 178.482C50.7427 178.636 50.9475 178.723 51.1628 178.723L71.1475 178.736C71.3649 178.736 71.5697 178.651 71.7238 178.495C71.878 178.341 71.9645 178.136 71.9645 177.919C71.9645 177.701 71.8801 177.496 71.726 177.346C71.5697 177.19 71.3649 177.104 71.1475 177.104L51.1628 177.091L51.1649 177.093Z" fill="#464646"/>
<path d="M69.9526 176.196C70.2587 176.57 70.7084 176.787 71.1919 176.789H72.6212C72.1377 176.789 71.688 176.572 71.3819 176.198C71.0758 175.82 70.9597 175.337 71.061 174.862L75.8091 152.238C75.9674 151.501 76.6261 150.967 77.3798 150.967H75.9506C75.199 150.967 74.5382 151.501 74.3798 152.236L69.6317 174.859C69.5304 175.334 69.6465 175.818 69.9526 176.196Z" fill="#008E7D"/>
<path d="M72.6212 177.106H71.1919C70.6156 177.106 70.0751 176.846 69.7077 176.396C69.3425 175.945 69.2032 175.36 69.3235 174.794L74.0716 152.17C74.2595 151.288 75.0512 150.648 75.9506 150.648H77.3799V151.281C76.7761 151.281 76.2462 151.71 76.1195 152.301L71.3714 174.923C71.2912 175.303 71.384 175.693 71.6289 175.995C71.8738 176.297 72.237 176.47 72.6212 176.47V177.104V177.106ZM70.1997 175.997C70.4467 176.299 70.8077 176.472 71.194 176.472H71.2025C71.1814 176.447 71.1581 176.424 71.1391 176.398C70.7739 175.947 70.6325 175.362 70.7528 174.796L75.5009 152.172C75.5727 151.832 75.7352 151.528 75.959 151.281H75.9506C75.3468 151.281 74.8169 151.71 74.6902 152.301L69.9421 174.923C69.8619 175.303 69.9548 175.691 70.1997 175.995V175.997Z" fill="#464646"/>
<path d="M71.3818 176.198C71.688 176.572 72.1376 176.789 72.6211 176.791L107.013 176.814C107.764 176.814 108.425 176.28 108.583 175.543L113.331 152.92C113.429 152.445 113.312 151.961 113.006 151.583C112.704 151.21 112.251 150.992 111.767 150.99L77.3798 150.967C76.6282 150.967 75.9674 151.501 75.809 152.238L71.0609 174.862C70.9596 175.337 71.0757 175.82 71.3818 176.198Z" fill="white"/>
<path d="M107.013 177.129L72.6211 177.106C72.0448 177.106 71.5043 176.846 71.1369 176.396C70.7717 175.945 70.6324 175.36 70.7527 174.794L75.5008 152.17C75.6887 151.288 76.4804 150.648 77.3798 150.648L111.767 150.671C112.348 150.671 112.89 150.931 113.253 151.381C113.617 151.83 113.758 152.413 113.642 152.979L108.894 175.605C108.706 176.487 107.914 177.127 107.015 177.127L107.013 177.129ZM71.6267 175.997C71.8737 176.299 72.2348 176.472 72.619 176.472L107.011 176.496C107.614 176.496 108.144 176.067 108.271 175.476L113.019 152.854C113.097 152.474 113.002 152.084 112.757 151.782C112.514 151.48 112.153 151.307 111.765 151.307L77.3777 151.284C76.7739 151.284 76.2439 151.712 76.1173 152.303L71.3692 174.925C71.2889 175.305 71.3818 175.695 71.6267 175.997Z" fill="#464646"/>
<path d="M90.33 163.887C90.33 164.918 91.1639 165.754 92.1942 165.754C93.2244 165.754 94.0605 164.92 94.0605 163.89C94.0605 162.859 93.2265 162.023 92.1963 162.023C91.166 162.023 90.33 162.857 90.33 163.887Z" fill="#008E7D"/>
<path d="M92.1942 166.07C91.6115 166.07 91.0626 165.842 90.6509 165.431C90.2392 165.019 90.0133 164.47 90.0133 163.887C90.0133 163.305 90.2413 162.758 90.653 162.344C91.0647 161.933 91.6136 161.707 92.1942 161.707C92.7769 161.707 93.3258 161.935 93.7375 162.346C94.1492 162.758 94.3751 163.307 94.3751 163.89C94.3751 165.093 93.3955 166.07 92.1921 166.07H92.1942ZM92.1942 162.34C91.3413 162.34 90.6467 163.035 90.6446 163.887C90.6446 164.74 91.3391 165.437 92.1921 165.437C93.045 165.437 93.7396 164.743 93.7417 163.89C93.7417 163.037 93.0471 162.34 92.1942 162.34Z" fill="#464646"/>
<path d="M109.7 238.09C109.7 238.09 110.439 242.521 111.809 242.629H96.8557L96.6552 238.09H109.702H109.7Z" fill="white"/>
<path d="M111.809 242.946H96.5516L96.3215 237.773H109.966L110.011 238.037C110.3 239.777 111.058 242.251 111.833 242.312L111.807 242.946H111.809ZM97.1597 242.312H110.823C110.034 241.278 109.595 239.264 109.436 238.407H96.9866L97.1597 242.312Z" fill="#464646"/>
<path d="M116.355 243.778L112.753 242.866C111.997 242.673 111.345 242.201 110.929 241.544L110.084 239.783L104.082 242.568L96.7438 240.066L96.7987 241.327L100.711 242.568H96.8071C96.1547 242.568 95.627 243.096 95.627 243.748V245.545C95.627 246.239 96.1906 246.803 96.8852 246.803H101.355L102.448 245.144L104.566 246.803H118.618C118.895 246.803 119.091 246.535 119.006 246.271C118.614 245.038 117.611 244.094 116.355 243.778Z" fill="#008E7D"/>
<path d="M118.616 247.122H104.454L102.522 245.608L101.523 247.122H96.8831C96.0154 247.122 95.3081 246.415 95.3081 245.547V243.75C95.3081 242.925 95.9795 242.253 96.8049 242.253H98.6649L96.4904 241.563L96.4038 239.619L104.061 242.228L110.23 239.365L111.203 241.39C111.579 241.975 112.156 242.388 112.829 242.559L116.431 243.472C117.801 243.818 118.875 244.829 119.306 246.176C119.378 246.4 119.34 246.636 119.201 246.824C119.063 247.014 118.85 247.122 118.616 247.122ZM104.673 246.488H118.616C118.656 246.488 118.679 246.465 118.69 246.45C118.7 246.436 118.715 246.408 118.702 246.368C118.339 245.232 117.431 244.377 116.277 244.086L112.675 243.174C111.839 242.963 111.123 242.443 110.661 241.713L110.644 241.681L109.935 240.201L104.101 242.91L97.0815 240.518L97.1068 241.092L102.756 242.885H96.8092C96.332 242.885 95.9457 243.273 95.9457 243.748V245.545C95.9457 246.064 96.3679 246.486 96.8873 246.486H101.186L102.376 244.683L104.678 246.486L104.673 246.488Z" fill="#464646"/>
<path d="M103.455 203.808L110.735 238.09H95.9605L83.9921 201.864C83.9921 201.864 88.282 199.907 94.337 197.337C100.392 194.768 101.916 200.002 103.455 203.808Z" fill="white"/>
<path d="M111.125 238.407H95.7304L83.6016 201.693L83.8591 201.575C83.9013 201.556 88.223 199.586 94.2125 197.046C96.121 196.237 97.7065 196.119 99.064 196.689C101.369 197.656 102.461 200.426 103.424 202.871C103.533 203.15 103.641 203.424 103.749 203.69L103.766 203.743L111.127 238.407H111.125ZM96.1886 237.773H110.344L103.151 203.901C103.046 203.641 102.94 203.373 102.835 203.101C101.918 200.774 100.88 198.135 98.8191 197.272C97.6284 196.772 96.2034 196.888 94.4616 197.629C89.3124 199.814 85.3982 201.575 84.3827 202.035L96.1886 237.773Z" fill="#464646"/>
<path d="M111.094 235.35H95.1076C94.3539 235.35 93.7374 235.966 93.7374 236.72C93.7374 237.474 94.3539 238.09 95.1076 238.09H111.094C111.847 238.09 112.464 237.474 112.464 236.72C112.464 235.966 111.847 235.35 111.094 235.35Z" fill="#008E7D"/>
<path d="M111.094 238.407H95.1076C94.1766 238.407 93.4208 237.651 93.4208 236.72C93.4208 235.789 94.1766 235.033 95.1076 235.033H111.094C112.025 235.033 112.781 235.789 112.781 236.72C112.781 237.651 112.025 238.407 111.094 238.407ZM95.1076 235.666C94.527 235.666 94.0541 236.139 94.0541 236.72C94.0541 237.3 94.527 237.773 95.1076 237.773H111.094C111.674 237.773 112.147 237.3 112.147 236.72C112.147 236.139 111.674 235.666 111.094 235.666H95.1076Z" fill="#464646"/>
<path d="M92.7747 197.937L106.783 219.484L104.507 208.763L92.7747 197.937Z" fill="#464646"/>
<path d="M73.5649 213.704H0.569946L36.3127 200.633H109.308L73.5649 213.704Z" fill="#008E7D"/>
<path d="M73.6219 214.02H-1.21826L36.2556 200.316H111.096L73.6219 214.02ZM2.35812 213.387H73.51L107.522 200.95H36.3697L2.35812 213.387Z" fill="#464646"/>
<path d="M72.3847 213.703H0.569946V280.958H72.3847V213.703Z" fill="white"/>
<path d="M72.7013 281.275H0.253174V213.387H72.7013V281.275ZM0.886536 280.641H72.068V214.02H0.886536V280.641Z" fill="#464646"/>
<path d="M109.308 200.633V267.888L72.3848 280.958V213.703L109.308 200.633Z" fill="#EEF1F4"/>
<path d="M72.068 281.406V213.478L72.2791 213.404L109.624 200.183V268.109L109.413 268.183L72.068 281.404V281.406ZM72.7014 213.927V280.51L108.991 267.664V201.081L72.7014 213.927Z" fill="#464646"/>
<path d="M134.416 217.525C134.416 217.525 137.708 220.97 138.913 220.305L126.421 228.524L123.759 224.842L134.418 217.523L134.416 217.525Z" fill="white"/>
<path d="M126.341 228.957L123.309 224.768L134.458 217.113L134.644 217.307C135.905 218.625 138.083 220.404 138.759 220.031L139.086 220.573L126.341 228.959V228.957ZM124.204 224.922L126.499 228.096L137.923 220.58C136.633 220.132 135.022 218.593 134.376 217.939L124.204 224.922Z" fill="#464646"/>
<path d="M143.34 218.768L139.831 219.986C139.095 220.242 138.29 220.206 137.581 219.885L135.907 218.878L132.423 224.504L124.918 226.449L125.657 227.471L129.607 226.358L126.345 228.503C125.8 228.862 125.648 229.595 126.007 230.139L126.995 231.64C127.377 232.221 128.156 232.381 128.737 231.999L132.47 229.544V227.557L135.153 227.779L146.893 220.056C147.124 219.904 147.14 219.571 146.925 219.397C145.918 218.582 144.563 218.346 143.34 218.77V218.768Z" fill="#008E7D"/>
<path d="M128.049 232.523C127.536 232.523 127.033 232.274 126.731 231.813L125.743 230.312C125.524 229.979 125.448 229.578 125.528 229.187C125.608 228.794 125.838 228.459 126.172 228.239L127.726 227.217L125.53 227.836L124.39 226.259L132.223 224.23L135.803 218.447L137.729 219.604C138.364 219.885 139.073 219.917 139.73 219.689L143.239 218.471C144.573 218.006 146.028 218.262 147.128 219.15C147.309 219.298 147.408 219.516 147.396 219.75C147.385 219.984 147.265 220.191 147.071 220.32L135.239 228.104L132.793 227.901V229.715L128.914 232.265C128.648 232.44 128.349 232.525 128.051 232.525L128.049 232.523ZM131.488 225.499L126.52 228.767C126.328 228.894 126.195 229.088 126.149 229.314C126.102 229.54 126.147 229.77 126.273 229.964L127.261 231.465C127.546 231.898 128.131 232.018 128.564 231.733L132.155 229.371V227.211L135.071 227.452L146.718 219.788C146.752 219.765 146.758 219.733 146.76 219.716C146.76 219.699 146.758 219.666 146.727 219.64C145.798 218.891 144.571 218.675 143.444 219.066L139.935 220.284C139.12 220.567 138.235 220.529 137.45 220.172L137.416 220.155L136.01 219.311L132.626 224.779L125.446 226.639L125.783 227.105L131.488 225.499Z" fill="#464646"/>
<path d="M46.2269 194.62H46.229C47.994 204.817 53.0778 207.311 66.5367 205.755C83.4095 203.804 92.7727 197.935 92.7727 197.935L122.068 224.969L134.596 216.093C134.596 216.093 127.023 206.462 117.128 194.565C106.656 181.978 104.416 174.954 84.6678 179.686C72.4798 182.605 63.106 182.772 54.2791 184.786H54.2769C49.1847 185.947 45.925 186.76 45.925 186.76C45.6843 189.37 45.7793 192.038 46.2248 194.62H46.2269Z" fill="white"/>
<path d="M122.042 225.378L121.854 225.205L92.7325 198.332C91.2483 199.195 81.959 204.294 66.5725 206.071C64.1784 206.348 62.0461 206.494 60.1502 206.494C51.1628 206.494 47.4577 203.207 45.9629 194.937L45.9144 194.675C45.4647 192.083 45.3634 189.41 45.6104 186.733L45.6315 186.509L45.8489 186.454C45.8806 186.446 49.1699 185.629 54.2051 184.48L54.2431 184.472C58.1826 183.574 62.2593 183.04 66.5746 182.475C71.8632 181.78 77.8569 180.995 84.5938 179.379C102.081 175.189 105.997 180.121 113.8 189.942C114.917 191.348 116.07 192.8 117.37 194.365C127.158 206.128 134.769 215.804 134.845 215.899L135.05 216.161L122.04 225.376L122.042 225.378ZM92.8106 197.54L92.988 197.705L122.095 224.566L134.142 216.032C132.86 214.409 125.769 205.453 116.885 194.772C115.58 193.204 114.423 191.747 113.304 190.339C105.67 180.726 101.838 175.902 84.7416 179.998C77.973 181.619 71.9603 182.409 66.657 183.104C62.3438 183.669 58.2713 184.204 54.3508 185.099L54.3128 185.107C50.0376 186.083 47.0333 186.817 46.2226 187.018C46.0136 189.473 46.1065 191.924 46.495 194.308L46.5414 194.57C48.2536 204.473 52.9173 207.013 66.5008 205.444C83.097 203.525 92.5129 197.73 92.6058 197.671L92.8106 197.542V197.54Z" fill="#464646"/>
<path d="M46.2269 194.62H46.229C56.6753 195.285 54.2791 184.786 54.2791 184.786H54.2769C49.1847 185.947 45.925 186.76 45.925 186.76C45.6843 189.37 45.7793 192.038 46.2248 194.62H46.2269Z" fill="white"/>
<path d="M47.1558 194.969C46.8496 194.969 46.533 194.958 46.21 194.937L45.9608 194.922L45.9144 194.675C45.4647 192.083 45.3634 189.41 45.6104 186.733L45.6315 186.509L45.8489 186.454C45.8806 186.446 49.1699 185.629 54.2051 184.48L54.2748 184.472H54.5281L54.5872 184.719C54.6337 184.919 55.6787 189.661 53.1326 192.655C51.8236 194.192 49.8159 194.969 47.1537 194.969H47.1558ZM46.4971 194.318C49.3029 194.449 51.3676 193.751 52.6491 192.245C54.6358 189.912 54.2093 186.251 54.0299 185.168C49.9067 186.112 47.0143 186.817 46.2226 187.014C46.0136 189.475 46.1065 191.931 46.4992 194.318H46.4971Z" fill="#464646"/>
<path d="M133.618 214.723L120.643 224.061C120.03 224.502 119.891 225.362 120.33 225.974C120.769 226.586 121.631 226.725 122.243 226.286L135.218 216.948C135.831 216.507 135.97 215.648 135.531 215.036C135.09 214.423 134.23 214.284 133.618 214.723Z" fill="#008E7D"/>
<path d="M121.449 226.861C121.358 226.861 121.265 226.852 121.172 226.837C120.727 226.766 120.336 226.525 120.075 226.16C119.813 225.794 119.707 225.349 119.781 224.903C119.853 224.458 120.096 224.067 120.459 223.806L133.434 214.468C134.19 213.925 135.246 214.096 135.788 214.852C136.331 215.606 136.16 216.663 135.404 217.206L122.429 226.544C122.139 226.751 121.8 226.861 121.449 226.861ZM133.804 214.981L120.828 224.319C120.6 224.481 120.45 224.726 120.406 225.005C120.36 225.283 120.425 225.562 120.59 225.79C120.752 226.018 120.997 226.168 121.276 226.212C121.555 226.259 121.833 226.193 122.061 226.029L135.037 216.691C135.508 216.351 135.615 215.692 135.277 215.219C134.938 214.746 134.279 214.639 133.806 214.979L133.804 214.981Z" fill="#464646"/>
</g>
</svg>
