<svg width="151" height="42" viewBox="0 0 151 42" fill="none" xmlns="http://www.w3.org/2000/svg">
<g id="Logo">
<g id="Logo_2">
<g id="Saudi Standard">
<path id="Path 1289" d="M0 37.0941L0.225795 35.7297C1.00277 36.109 1.85522 36.3086 2.71987 36.3135C3.20155 36.3336 3.68029 36.2294 4.11006 36.011C4.27348 35.9231 4.41275 35.7963 4.51561 35.6419C4.61846 35.4874 4.68175 35.31 4.69988 35.1254C4.718 34.9407 4.69042 34.7544 4.61957 34.5829C4.54871 34.4114 4.43675 34.26 4.29355 34.1419C3.80812 33.7711 3.27954 33.4605 2.71938 33.2167C2.04692 32.923 1.41422 32.5455 0.836279 32.0933C0.608125 31.9048 0.424141 31.6685 0.297319 31.4012C0.170497 31.1338 0.103931 30.8418 0.102321 30.5459C0.0742097 30.1491 0.149758 29.7518 0.321552 29.393C0.493346 29.0342 0.755484 28.7262 1.08224 28.4992C1.77405 28.0742 2.57916 27.8705 3.38988 27.9154C4.20193 27.912 5.00453 28.0896 5.73933 28.4353L5.51354 29.7397C4.83907 29.4036 4.10185 29.2119 3.34905 29.177C2.16383 29.177 1.57122 29.5722 1.57122 30.3624C1.57412 30.5022 1.60977 30.6393 1.6753 30.7627C1.74083 30.8861 1.83441 30.9925 1.94853 31.0732C2.40477 31.402 2.8951 31.6806 3.41103 31.9044C4.10494 32.1988 4.75723 32.583 5.3512 33.047C5.59807 33.2451 5.79775 33.4957 5.93576 33.7805C6.07377 34.0653 6.14665 34.3773 6.14911 34.6938C6.17129 35.1366 6.07945 35.5776 5.88238 35.9747C5.68531 36.3718 5.38961 36.7117 5.02358 36.9618C4.33654 37.4005 3.53139 37.6177 2.71692 37.584C1.78691 37.6135 0.861143 37.4465 0 37.0941Z" fill="white"/>
<path id="Path 1290" d="M13.4606 36.5698L13.6224 37.3327C13.2828 37.4866 12.913 37.5624 12.5402 37.5545C12.2448 37.5702 11.9538 37.4777 11.7216 37.2943C11.6205 37.208 11.5404 37.0998 11.4872 36.9779C11.434 36.8561 11.4092 36.7238 11.4147 36.5909C11.2085 36.9169 10.9162 37.1794 10.57 37.3495C10.2238 37.5196 9.83736 37.5905 9.45335 37.5545C8.00806 37.5545 7.28656 36.9051 7.28886 35.6062C7.26492 35.2277 7.35026 34.8504 7.53471 34.519C7.71917 34.1876 7.99497 33.9162 8.32929 33.7371C8.94363 33.4306 9.62584 33.2854 10.3118 33.3151C10.6812 33.3195 11.05 33.3466 11.4161 33.3963V32.7755C11.4319 32.6247 11.407 32.4724 11.3441 32.3345C11.2811 32.1965 11.1823 32.0779 11.058 31.991C10.6586 31.8104 10.2199 31.7341 9.78294 31.7692C9.09859 31.7691 8.41978 31.8919 7.77882 32.1317L8.00462 31.0274C8.69798 30.7757 9.43154 30.6528 10.1691 30.6649C11.1369 30.6649 11.8105 30.8596 12.1899 31.2488C12.6226 31.7781 12.8279 32.4572 12.7611 33.1376V36.2496C12.7611 36.4881 12.8762 36.6121 13.1054 36.6121C13.2253 36.618 13.3454 36.6037 13.4606 36.5698ZM11.4181 35.0052V34.3446C10.9705 34.3062 10.6423 34.2851 10.4377 34.2851C9.98333 34.2504 9.52866 34.3481 9.12867 34.5664C8.98888 34.6698 8.87781 34.8071 8.80601 34.9654C8.7342 35.1237 8.70405 35.2977 8.7184 35.471C8.7184 36.1276 9.11933 36.4547 9.92511 36.4547C10.1207 36.4602 10.3155 36.4265 10.4978 36.3554C10.6802 36.2844 10.8464 36.1775 10.9867 36.041C11.1277 35.9086 11.2391 35.7479 11.3135 35.5693C11.388 35.3908 11.4233 35.1985 11.4181 35.0052Z" fill="white"/>
<path id="Path 1291" d="M21.1437 36.5698L21.2888 37.3327C20.9521 37.4954 20.5801 37.5716 20.2065 37.5545C19.909 37.57 19.6166 37.4725 19.388 37.2815C19.2871 37.1932 19.2072 37.0834 19.1541 36.9603C19.101 36.8372 19.076 36.7038 19.081 36.5698C18.7478 36.8677 18.3674 37.1082 17.9555 37.2815C17.5896 37.4492 17.1939 37.542 16.7916 37.5545C16.2296 37.6129 15.6665 37.4546 15.2174 37.1118C14.8546 36.6133 14.6878 35.9989 14.7486 35.3854V30.7889H16.1171V35.2437C16.0876 35.5431 16.1484 35.8444 16.2918 36.1089C16.3817 36.1944 16.4897 36.2587 16.6078 36.2971C16.7258 36.3355 16.851 36.347 16.9741 36.3307C17.3818 36.3143 17.782 36.2158 18.1508 36.041C18.5116 35.9064 18.8321 35.6819 19.082 35.3888V30.7889H20.4294V36.2486C20.4294 36.4872 20.5445 36.6111 20.7737 36.6111C20.8984 36.6154 21.023 36.6014 21.1437 36.5698Z" fill="white"/>
<path id="Path 1292" d="M29.292 36.5698L29.4755 37.3327C29.1269 37.4829 28.7507 37.5585 28.3711 37.5545C28.0727 37.5741 27.7777 37.4819 27.5437 37.2958C27.4441 37.2043 27.3659 37.0919 27.3149 36.9666C27.2639 36.8413 27.2412 36.7063 27.2485 36.5713C26.9501 37.2271 26.201 37.555 25.0014 37.555C24.6403 37.5708 24.2803 37.505 23.9482 37.3625C23.616 37.22 23.3203 37.0046 23.0828 36.7321C22.5258 35.9879 22.2576 35.0669 22.3282 34.14C22.2702 33.2044 22.562 32.2805 23.1468 31.5479C23.4233 31.2481 23.7629 31.0134 24.1411 30.8608C24.5194 30.7082 24.9268 30.6415 25.3339 30.6654C25.9831 30.6505 26.6306 30.7383 27.2524 30.9256V28.0728H28.6013V36.2457C28.6013 36.4842 28.7164 36.6082 28.9457 36.6082C29.0624 36.6149 29.1795 36.6019 29.292 36.5698ZM27.2495 34.6643V32.0328C26.7327 31.8718 26.1958 31.7842 25.6547 31.7726C25.3895 31.7455 25.1217 31.7782 24.8708 31.8681C24.6199 31.9581 24.3924 32.1031 24.2049 32.2925C23.8706 32.8172 23.7192 33.4377 23.7745 34.0574C23.7178 34.6921 23.853 35.3292 24.1626 35.8861C24.3138 36.0713 24.5087 36.2158 24.7298 36.3066C24.9509 36.3974 25.1912 36.4315 25.4289 36.406C25.6931 36.423 25.9577 36.3792 26.2023 36.278C26.447 36.1768 26.6652 36.0208 26.8402 35.8222C27.115 35.5 27.2608 35.0876 27.2495 34.6643Z" fill="white"/>
<path id="Path 1293" d="M32.2763 28.6188C32.2786 28.7321 32.2584 28.8447 32.2166 28.9501C32.1749 29.0555 32.1126 29.1516 32.0333 29.2326C31.954 29.3148 31.8585 29.3796 31.7528 29.4229C31.6471 29.4661 31.5336 29.4869 31.4194 29.484C31.1898 29.4836 30.9694 29.3933 30.8055 29.2326C30.7231 29.1619 30.6569 29.0743 30.6113 28.9758C30.5657 28.8773 30.5419 28.7701 30.5413 28.6616C30.5403 28.5453 30.5632 28.43 30.6087 28.323C30.6541 28.216 30.7211 28.1194 30.8055 28.0393C30.8846 27.9563 30.9799 27.8904 31.0855 27.8456C31.191 27.8009 31.3047 27.7782 31.4194 27.7791C31.5335 27.7765 31.6469 27.7975 31.7526 27.8408C31.8582 27.884 31.9538 27.9486 32.0333 28.0305C32.1112 28.1072 32.1729 28.1989 32.2146 28.2999C32.2564 28.401 32.2774 28.5094 32.2763 28.6188ZM32.7683 36.5698L32.9517 37.3327C32.6005 37.4978 32.2139 37.574 31.8262 37.5545C31.5316 37.5726 31.2415 37.4748 31.018 37.282C30.9202 37.1918 30.8432 37.0814 30.7923 36.9585C30.7413 36.8357 30.7176 36.7032 30.7228 36.5703V30.7889H32.0914V36.2486C32.0914 36.4872 32.202 36.6111 32.4195 36.6111C32.5365 36.6144 32.6533 36.6005 32.7663 36.5698H32.7683Z" fill="white"/>
<path id="Path 1294" d="M39.2009 37.0941L39.4267 35.7297C40.2037 36.1091 41.0561 36.3086 41.9208 36.3136C42.4025 36.3336 42.8812 36.2294 43.311 36.0111C43.4744 35.9231 43.6137 35.7963 43.7165 35.6419C43.8194 35.4874 43.8827 35.3101 43.9008 35.1254C43.9189 34.9407 43.8913 34.7544 43.8205 34.5829C43.7496 34.4114 43.6377 34.26 43.4945 34.142C43.009 33.7711 42.4805 33.4605 41.9203 33.2168C41.2482 32.9233 40.6163 32.5451 40.0402 32.0914C39.8121 31.9028 39.6282 31.6665 39.5015 31.3991C39.3747 31.1318 39.3082 30.8398 39.3067 30.544C39.2787 30.1472 39.3544 29.7499 39.5263 29.3912C39.6981 29.0325 39.9603 28.7246 40.2871 28.4978C40.9786 28.073 41.7834 27.8693 42.5938 27.9139C43.4058 27.9106 44.2084 28.0882 44.9432 28.4338L44.7174 29.7383C44.0429 29.4021 43.3057 29.2105 42.5529 29.1756C41.3677 29.1756 40.7751 29.5707 40.7751 30.361C40.7779 30.5011 40.8137 30.6386 40.8795 30.7623C40.9453 30.886 41.0393 30.9925 41.1539 31.0732C41.6101 31.402 42.1005 31.6807 42.6164 31.9045C43.3103 32.1989 43.9626 32.583 44.5566 33.0471C44.8032 33.2451 45.0027 33.4955 45.1406 33.7802C45.2786 34.0648 45.3514 34.3766 45.354 34.6929C45.3761 35.1356 45.2843 35.5766 45.0872 35.9737C44.8902 36.3708 44.5945 36.7107 44.2284 36.9608C43.5414 37.3995 42.7362 37.6167 41.9218 37.5831C40.9905 37.6131 40.0634 37.4465 39.2009 37.0941Z" fill="white"/>
<path id="Path 1295" d="M49.9879 36.2869L50.1926 37.2889C49.7063 37.4603 49.1945 37.5483 48.6789 37.5491C48.4806 37.5679 48.2806 37.5424 48.0934 37.4743C47.9062 37.4062 47.7365 37.2974 47.5966 37.1556C47.3426 36.7672 47.227 36.3045 47.2685 35.8423V31.8503H46.1863L46.4121 30.7844H47.269V28.998L48.6164 28.5553V30.7849H50.0278V31.8503H48.6149V35.6829C48.591 35.8965 48.6374 36.1121 48.7473 36.2968C48.8266 36.3574 48.9172 36.4016 49.0138 36.427C49.1105 36.4523 49.2111 36.4582 49.31 36.4443C49.5455 36.4486 49.7784 36.3946 49.9879 36.2869Z" fill="white"/>
<path id="Path 1296" d="M57.3598 36.5698L57.5216 37.3327C57.182 37.4866 56.8122 37.5624 56.4394 37.5545C56.144 37.5701 55.853 37.4776 55.6208 37.2943C55.5197 37.208 55.4396 37.0998 55.3864 36.9779C55.3332 36.8561 55.3084 36.7238 55.3138 36.5909C55.1077 36.9169 54.8153 37.1794 54.4692 37.3495C54.123 37.5196 53.7365 37.5905 53.3525 37.5545C51.9072 37.5545 51.1857 36.9051 51.188 35.6062C51.1641 35.2277 51.2494 34.8504 51.4339 34.519C51.6183 34.1876 51.8941 33.9162 52.2285 33.7371C52.8428 33.4306 53.525 33.2854 54.2109 33.3151C54.5804 33.3195 54.9492 33.3466 55.3153 33.3963V32.7755C55.3311 32.6247 55.3062 32.4724 55.2432 32.3345C55.1802 32.1965 55.0815 32.0779 54.9572 31.991C54.5578 31.8104 54.1191 31.7341 53.6821 31.7692C52.9978 31.7691 52.319 31.8919 51.678 32.1317L51.9038 31.0274C52.5972 30.7757 53.3307 30.6528 54.0683 30.6649C55.0361 30.6649 55.7097 30.8596 56.0891 31.2488C56.5218 31.7781 56.7271 32.4572 56.6602 33.1376V36.2496C56.6602 36.4881 56.7754 36.6121 57.0046 36.6121C57.1245 36.618 57.2446 36.6037 57.3598 36.5698ZM55.3173 35.0052V34.3446C54.8696 34.3062 54.5415 34.2851 54.3364 34.2851C53.882 34.2504 53.4273 34.3481 53.0273 34.5664C52.8879 34.6698 52.7771 34.807 52.7055 34.9651C52.6339 35.1232 52.6038 35.297 52.6181 35.47C52.6181 36.1266 53.019 36.4537 53.8248 36.4537C54.0204 36.4593 54.2151 36.4255 54.3975 36.3545C54.5798 36.2834 54.7461 36.1765 54.8863 36.0401C55.0264 35.9071 55.1371 35.7464 55.2114 35.5682C55.2857 35.39 55.3219 35.1982 55.3178 35.0052H55.3173Z" fill="white"/>
<path id="Path 1297" d="M65.1417 36.5698L65.3036 37.3327C64.9594 37.4967 64.58 37.573 64.1992 37.5545C63.9038 37.5702 63.6128 37.4777 63.3806 37.2943C63.2778 37.2048 63.1967 37.093 63.1436 36.9675C63.0904 36.8419 63.0665 36.7059 63.0737 36.5698V32.9546C63.1041 32.6609 63.0398 32.3651 62.8902 32.1105C62.801 32.0265 62.6945 31.9631 62.5781 31.9247C62.4617 31.8864 62.3384 31.8741 62.2167 31.8887C61.8266 31.907 61.444 32.0026 61.0912 32.1701C60.6936 32.333 60.3274 32.5639 60.0089 32.8523V37.4478H58.6394V30.7889H60.0079V31.6713C60.3521 31.3689 60.7458 31.1282 61.1719 30.9596C61.5635 30.7812 61.9868 30.6827 62.4169 30.6699C62.9723 30.6087 63.5295 30.7677 63.969 31.1126C64.3311 31.6114 64.4979 32.2256 64.4378 32.839V36.254C64.4378 36.4926 64.5485 36.6165 64.7659 36.6165C64.8927 36.6178 65.0191 36.6021 65.1417 36.5698Z" fill="white"/>
<path id="Path 1298" d="M73.3152 36.5698L73.4987 37.3326C73.1501 37.4829 72.7738 37.5584 72.3943 37.5545C72.0959 37.5735 71.801 37.4808 71.5673 37.2943C71.4677 37.2028 71.3896 37.0903 71.3386 36.9651C71.2876 36.8398 71.2649 36.7048 71.2722 36.5698C70.9737 37.2256 70.2247 37.5535 69.025 37.5535C68.6639 37.5697 68.3038 37.5041 67.9716 37.3616C67.6394 37.2191 67.3437 37.0034 67.1065 36.7306C66.5495 35.9864 66.2813 35.0654 66.3519 34.1385C66.2939 33.2028 66.5856 32.279 67.1705 31.5463C67.447 31.2465 67.7866 31.0119 68.1648 30.8593C68.543 30.7067 68.9504 30.6399 69.3576 30.6639C70.0068 30.649 70.6543 30.7368 71.2761 30.9241V28.0713H72.6235V36.2456C72.6235 36.4842 72.7386 36.6081 72.9679 36.6081C73.0849 36.6147 73.2023 36.6017 73.3152 36.5698ZM71.2727 34.6643V32.0328C70.7559 31.8717 70.219 31.7842 69.6778 31.7726C69.4127 31.7455 69.1449 31.7782 68.894 31.8681C68.6431 31.9581 68.4156 32.1031 68.2281 32.2925C67.8937 32.8171 67.7424 33.4377 67.7977 34.0573C67.741 34.692 67.8762 35.3291 68.1858 35.8861C68.337 36.0712 68.5319 36.2157 68.753 36.3065C68.9741 36.3973 69.2144 36.4315 69.452 36.406C69.7163 36.4229 69.9809 36.3792 70.2255 36.2779C70.4702 36.1767 70.6884 36.0208 70.8634 35.8221C71.1382 35.5 71.284 35.0875 71.2727 34.6643Z" fill="white"/>
<path id="Path 1299" d="M80.546 36.5698L80.7079 37.3327C80.3683 37.4866 79.9984 37.5624 79.6256 37.5545C79.3302 37.5702 79.0392 37.4777 78.8071 37.2943C78.706 37.208 78.6258 37.0998 78.5727 36.9779C78.5195 36.8561 78.4947 36.7238 78.5001 36.5909C78.294 36.9169 78.0016 37.1794 77.6555 37.3495C77.3093 37.5196 76.9228 37.5905 76.5388 37.5545C75.0935 37.5545 74.372 36.9051 74.3743 35.6062C74.3504 35.2277 74.4357 34.8504 74.6202 34.519C74.8046 34.1876 75.0804 33.9162 75.4147 33.7371C76.0291 33.4306 76.7113 33.2854 77.3972 33.3151C77.7666 33.3195 78.1355 33.3466 78.5016 33.3963V32.7755C78.5174 32.6247 78.4925 32.4724 78.4295 32.3345C78.3665 32.1965 78.2678 32.0779 78.1435 31.991C77.7441 31.8104 77.3053 31.734 76.8684 31.7692C76.184 31.7691 75.5052 31.8919 74.8643 32.1317L75.0901 31.0274C75.7834 30.7757 76.517 30.6528 77.2545 30.6649C78.2223 30.6649 78.896 30.8596 79.2754 31.2488C79.708 31.7781 79.9134 32.4572 79.8465 33.1376V36.2496C79.8465 36.4881 79.9616 36.6121 80.1909 36.6121C80.3108 36.618 80.4309 36.6037 80.546 36.5698ZM78.5036 35.0052V34.3446C78.0559 34.3062 77.7273 34.2851 77.5231 34.2851C77.0688 34.2504 76.6141 34.3481 76.2141 34.5664C76.0747 34.6698 75.9639 34.807 75.8922 34.9651C75.8206 35.1232 75.7905 35.297 75.8048 35.47C75.8048 36.1266 76.2058 36.4537 77.0115 36.4537C77.2072 36.4592 77.4019 36.4255 77.5842 36.3544C77.7666 36.2834 77.9328 36.1765 78.0731 36.0401C78.213 35.9071 78.3236 35.7463 78.3978 35.5681C78.472 35.3899 78.5077 35.1982 78.5036 35.0052Z" fill="white"/>
<path id="Path 1300" d="M83.2023 37.4566H81.8337V30.7889H83.2023V31.6541C83.3152 31.3724 83.5021 31.1265 83.7434 30.9424C83.9485 30.7745 84.2031 30.6786 84.468 30.6694C84.9143 30.679 85.3505 30.8039 85.7342 31.0319L85.4883 32.1361C85.1258 32.0114 84.746 31.9439 84.3627 31.9359C83.9151 31.9359 83.5271 32.2301 83.1988 32.8183V37.4566H83.2023Z" fill="white"/>
<path id="Path 1301" d="M93.4936 36.5698L93.6771 37.3326C93.3285 37.4829 92.9523 37.5584 92.5727 37.5545C92.2743 37.5735 91.9795 37.4808 91.7458 37.2943C91.6462 37.2028 91.5681 37.0903 91.517 36.9651C91.466 36.8398 91.4433 36.7048 91.4506 36.5698C91.1522 37.2256 90.4031 37.5535 89.2035 37.5535C88.8424 37.5697 88.4823 37.5041 88.1501 37.3616C87.8178 37.2191 87.5221 37.0034 87.285 36.7306C86.7279 35.9864 86.4598 35.0654 86.5304 34.1385C86.4724 33.2028 86.7641 32.279 87.3489 31.5463C87.6254 31.2465 87.965 31.0119 88.3433 30.8593C88.7215 30.7067 89.1289 30.6399 89.536 30.6639C90.1853 30.649 90.8328 30.7368 91.4546 30.9241V28.0713H92.8049V36.2456C92.8049 36.4842 92.92 36.6081 93.1493 36.6081C93.2654 36.6146 93.3818 36.6017 93.4936 36.5698ZM91.4511 34.6643V32.0328C90.9343 31.8717 90.3975 31.7841 89.8563 31.7726C89.5911 31.7455 89.3233 31.7781 89.0724 31.8681C88.8216 31.958 88.594 32.1031 88.4066 32.2925C88.0722 32.8171 87.9208 33.4377 87.9761 34.0573C87.9194 34.692 88.0546 35.3291 88.3643 35.8861C88.5154 36.0712 88.7104 36.2157 88.9315 36.3065C89.1526 36.3973 89.3928 36.4315 89.6305 36.406C89.8947 36.4229 90.1593 36.3792 90.404 36.2779C90.6486 36.1767 90.8668 36.0208 91.0418 35.8221C91.3173 35.5003 91.4639 35.0878 91.4531 34.6643H91.4511Z" fill="white"/>
<path id="Path 1302" d="M94.6421 37.2515L94.949 36.0878C95.2338 36.2115 95.5305 36.3058 95.8345 36.3691C96.1246 36.4402 96.4214 36.4803 96.72 36.4886C97.8072 36.4886 98.3532 36.1689 98.3532 35.5251C98.3532 35.4196 98.3271 35.3158 98.2772 35.2228C98.2274 35.1299 98.1553 35.0507 98.0674 34.9924C97.7148 34.776 97.3367 34.6042 96.9419 34.4808C96.41 34.3098 95.9069 34.0598 95.4493 33.7391C95.2566 33.5991 95.1002 33.4149 94.9934 33.2019C94.8866 32.989 94.8324 32.7536 94.8354 32.5153C94.824 32.2473 94.882 31.9809 95.0038 31.7419C95.1256 31.5028 95.307 31.2993 95.5305 31.1509C96.128 30.7951 96.8188 30.6273 97.513 30.6694C98.1689 30.6526 98.8215 30.7685 99.4315 31.0102L99.2057 32.0923C98.6864 31.855 98.1223 31.7314 97.5514 31.7298C96.639 31.7298 96.1828 31.9643 96.1828 32.4332C96.1851 32.5225 96.2097 32.6098 96.2544 32.6871C96.299 32.7644 96.3624 32.8293 96.4386 32.8759C96.7579 33.0652 97.0967 33.2196 97.449 33.3363C98.0163 33.518 98.5537 33.7824 99.0439 34.1208C99.2677 34.3067 99.4433 34.5439 99.5559 34.8122C99.6685 35.0805 99.7146 35.372 99.6905 35.6619C99.6664 35.9519 99.5726 36.2317 99.4172 36.4777C99.2618 36.7237 99.0494 36.9286 98.7979 37.0749C98.2444 37.4089 97.6062 37.5761 96.9601 37.5565C96.1765 37.5716 95.3951 37.4688 94.6421 37.2515Z" fill="white"/>
</g>
<g id="&#216;&#167;&#217;&#132;&#217;&#133;&#217;&#136;&#216;&#167;&#216;&#181;&#217;&#129;&#216;&#167;&#216;&#170; &#216;&#167;&#217;&#132;&#216;&#179;&#216;&#185;&#217;&#136;&#216;&#175;&#217;&#138;&#216;&#169;">
<path id="Path 1304" d="M3.61953 13.6434C3.72601 13.6443 3.83151 13.6229 3.92921 13.5806C4.0269 13.5382 4.11463 13.4758 4.18672 13.3975C4.26257 13.323 4.32275 13.2341 4.36373 13.136C4.4047 13.038 4.42564 12.9327 4.42531 12.8264C4.42637 12.7219 4.40572 12.6183 4.36465 12.5222C4.32358 12.4261 4.26299 12.3396 4.18672 12.2681C4.0362 12.1179 3.83221 12.0335 3.61953 12.0335C3.40684 12.0335 3.20285 12.1179 3.05233 12.2681C2.97621 12.34 2.91574 12.4268 2.87469 12.5231C2.83364 12.6194 2.81289 12.7232 2.81375 12.8279C2.81402 12.9339 2.83524 13.0387 2.87618 13.1365C2.91713 13.2342 2.97699 13.3229 3.05233 13.3975C3.12442 13.4758 3.21215 13.5382 3.30984 13.5806C3.40754 13.6229 3.51304 13.6443 3.61953 13.6434Z" fill="white"/>
<path id="Path 1305" d="M1.59382 13.6434C1.7003 13.6443 1.8058 13.6229 1.9035 13.5806C2.0012 13.5382 2.08892 13.4758 2.16101 13.3975C2.23686 13.323 2.29704 13.2341 2.33802 13.136C2.37899 13.038 2.39993 12.9327 2.3996 12.8264C2.40066 12.7219 2.38001 12.6183 2.33894 12.5222C2.29787 12.4261 2.23728 12.3396 2.16101 12.2681C2.08739 12.1925 1.99911 12.1327 1.90159 12.0924C1.80407 12.0521 1.69935 12.032 1.59382 12.0335C1.48643 12.0324 1.37988 12.0525 1.28032 12.0928C1.18077 12.133 1.09019 12.1926 1.01383 12.2681C0.935394 12.3383 0.872865 12.4244 0.830442 12.5207C0.78802 12.617 0.766685 12.7212 0.767869 12.8264C0.767338 12.9333 0.788813 13.0392 0.830959 13.1374C0.873104 13.2357 0.935019 13.3242 1.01285 13.3975C1.08808 13.4755 1.17833 13.5376 1.27818 13.5799C1.37802 13.6221 1.48539 13.6437 1.59382 13.6434Z" fill="white"/>
<path id="Path 1306" d="M8.01102 21.5502C8.28401 21.3387 8.50044 21.063 8.64103 20.7476C8.78162 20.4322 8.84201 20.0869 8.8168 19.7426V15.2494H7.49548V19.8026C7.49548 20.3994 7.17146 20.6978 6.52343 20.6978H5.06486V15.2494H2.43845C1.87513 15.2267 1.32112 15.3983 0.869199 15.7353C0.611174 15.9573 0.408031 16.2361 0.275666 16.5496C0.143301 16.8632 0.085306 17.2032 0.106218 17.5429V19.6958C0.0737173 20.2805 0.265883 20.8555 0.643404 21.3033C0.900754 21.5483 1.20694 21.7364 1.54195 21.855C1.87696 21.9737 2.23324 22.0203 2.58751 21.9919H3.08239L3.72189 21.1395V21.9919H6.42062C6.98451 22.0199 7.54237 21.865 8.01102 21.5502ZM3.72189 20.6978H2.48125C2.19743 20.7252 1.91348 20.6469 1.68383 20.4779C1.59548 20.3755 1.52879 20.2562 1.48779 20.1273C1.44678 19.9983 1.43231 19.8625 1.44525 19.7278V17.509C1.42649 17.3798 1.43802 17.248 1.47894 17.1241C1.51986 17.0001 1.58904 16.8873 1.68102 16.7947C1.77301 16.7021 1.88528 16.6321 2.00896 16.5903C2.13264 16.5484 2.26435 16.536 2.39369 16.5538H3.71747V20.6978H3.72189Z" fill="white"/>
<path id="Path 1307" d="M5.6705 23.9677C5.56522 23.9663 5.46077 23.9865 5.36363 24.0271C5.2665 24.0678 5.17873 24.1279 5.10576 24.2038C5.02983 24.2755 4.96946 24.3621 4.92841 24.4581C4.88737 24.5541 4.86652 24.6576 4.86718 24.762C4.86461 24.8675 4.88328 24.9724 4.92207 25.0705C4.96086 25.1686 5.01898 25.2579 5.09297 25.3331C5.1698 25.4071 5.26074 25.4649 5.36039 25.503C5.46003 25.5411 5.56634 25.5588 5.67296 25.5549C5.77854 25.5568 5.88339 25.537 5.98097 25.4966C6.07855 25.4563 6.16677 25.3962 6.24015 25.3203C6.31561 25.2482 6.37567 25.1615 6.41671 25.0655C6.45774 24.9695 6.4789 24.8662 6.4789 24.7618C6.4789 24.6574 6.45774 24.5541 6.41671 24.4581C6.37567 24.3621 6.31561 24.2754 6.24015 24.2033C6.16622 24.1273 6.07756 24.0673 5.97961 24.0268C5.88167 23.9862 5.77648 23.9661 5.6705 23.9677Z" fill="white"/>
<path id="Path 1308" d="M7.73812 23.9677C7.6289 23.9642 7.52013 23.9833 7.41857 24.0236C7.31702 24.064 7.22486 24.1248 7.14781 24.2023C7.07194 24.2757 7.0116 24.3636 6.9704 24.4608C6.92919 24.5579 6.90796 24.6624 6.90796 24.7679C6.90796 24.8735 6.92919 24.978 6.9704 25.0751C7.0116 25.1723 7.07194 25.2602 7.14781 25.3336C7.22674 25.4076 7.31953 25.4653 7.42083 25.5034C7.52214 25.5415 7.62996 25.5592 7.73812 25.5554C7.84244 25.5577 7.94606 25.5379 8.04226 25.4975C8.13845 25.4571 8.22506 25.3969 8.29646 25.3208C8.36987 25.2478 8.42773 25.1607 8.46654 25.0648C8.50535 24.9688 8.5243 24.866 8.52226 24.7625C8.51831 24.5549 8.43463 24.3568 8.28856 24.2092C8.14249 24.0616 7.94522 23.9758 7.73763 23.9696L7.73812 23.9677Z" fill="white"/>
<path id="Path 1309" d="M11.9509 15.2493H10.9788V16.5498H11.8643C13.1604 16.5498 13.8084 17.2007 13.8084 18.5025V19.7814C13.8084 20.3908 13.4842 20.6977 12.8363 20.6977H9.81885V21.9977H12.7311C13.0625 22.0216 13.3954 21.976 13.7081 21.8636C14.0209 21.7513 14.3067 21.5748 14.5473 21.3455C14.9248 20.9372 15.1256 20.3961 15.1056 19.8404V18.3574C15.1212 17.9479 15.052 17.5396 14.9024 17.1582C14.7527 16.7767 14.5258 16.4302 14.2359 16.1406C13.9354 15.8448 13.5779 15.6132 13.185 15.46C12.7922 15.3068 12.3723 15.2351 11.9509 15.2493Z" fill="white"/>
<path id="Path 1310" d="M42.603 19.7002C42.6171 19.8383 42.6033 19.9778 42.5623 20.1104C42.5213 20.243 42.454 20.366 42.3644 20.472C42.1297 20.6437 41.8397 20.7227 41.5503 20.6938H40.5605V15.2493H39.2387V20.6977H36.9449V15.2493H35.6245V20.6977H33.308V15.2493H32.0074V20.6977H27.8417C28.5163 19.962 29.2492 19.282 30.0333 18.6644V18.5025C30.0527 18.0714 29.9858 17.6408 29.8365 17.236C29.6871 16.8311 29.4583 16.4602 29.1635 16.145C28.8439 15.8203 28.4601 15.5658 28.0366 15.3977C27.6131 15.2296 27.1592 15.1516 26.7039 15.1687C25.9027 15.1454 25.119 15.405 24.4902 15.902C24.1215 16.215 23.8306 16.6094 23.6404 17.054C23.4502 17.4986 23.3659 17.9814 23.3942 18.4642V18.6688C24.171 19.2878 24.8969 19.9681 25.5651 20.7031H21.5357V15.2493H18.9137C18.3128 15.2188 17.7223 15.415 17.2593 15.7992C17.0245 16.0228 16.8416 16.2953 16.7237 16.5974C16.6058 16.8995 16.5558 17.2238 16.577 17.5473V19.7002C16.5576 20.0043 16.6008 20.3091 16.7041 20.5958C16.8073 20.8824 16.9683 21.1448 17.1772 21.3667C17.433 21.5914 17.731 21.763 18.0538 21.8713C18.3766 21.9797 18.7177 22.0226 19.0573 21.9977H20.1957V22.4025C20.1957 23.7158 19.2748 24.3764 17.4286 24.3764H17.2195L18.105 25.5569C19.0124 25.5582 19.8961 25.2667 20.6246 24.7256C21.2302 24.1846 21.5327 23.3272 21.5327 22.1635V21.9972H25.5621C25.9777 21.988 26.3807 21.8527 26.7177 21.6092C27.0519 21.8451 27.4471 21.9799 27.856 21.9972H41.5882C42.202 22.0369 42.8076 21.8401 43.2809 21.4473C43.5012 21.2363 43.6726 20.9796 43.7831 20.6953C43.8935 20.411 43.9404 20.1059 43.9204 19.8015V12.5037H42.5986V19.7002H42.603ZM20.1883 20.6977H19.1552C18.8108 20.7338 18.4637 20.6623 18.1615 20.4931C18.0659 20.3864 17.9944 20.2604 17.952 20.1235C17.9095 19.9867 17.8971 19.8423 17.9156 19.7002V17.5473C17.8909 17.2749 17.9684 17.003 18.133 16.7844C18.2324 16.6967 18.3489 16.6306 18.4751 16.5902C18.6014 16.5498 18.7346 16.5361 18.8665 16.5498H20.1883V20.6977ZM26.7162 20.0027C26.1069 19.2824 25.4363 18.6163 24.7121 18.0116C24.7375 17.7996 24.8054 17.5948 24.9116 17.4095C25.0179 17.2242 25.1603 17.0621 25.3304 16.933C25.7252 16.6229 26.2142 16.4575 26.7162 16.4642C27.1337 16.4614 27.5428 16.5811 27.8929 16.8085C28.1051 16.9367 28.2858 17.1109 28.4216 17.3183C28.5574 17.5257 28.6449 17.761 28.6775 18.0067C27.962 18.6085 27.3053 19.2768 26.7162 20.0027Z" fill="white"/>
<path id="Path 1311" d="M45.3872 22.7267L46.7302 21.9977V12.5037H45.3872V22.7267Z" fill="white"/>
<path id="Path 1312" d="M54.4303 13.64C54.5383 13.6405 54.6454 13.6193 54.745 13.5776C54.8447 13.5358 54.9349 13.4744 55.0103 13.397C55.0872 13.3274 55.1488 13.2426 55.1911 13.1479C55.2334 13.0532 55.2556 12.9508 55.2562 12.8471C55.2578 12.7418 55.2366 12.6375 55.1942 12.5411C55.1517 12.4448 55.089 12.3587 55.0103 12.2888C54.9339 12.2133 54.8433 12.1537 54.7438 12.1134C54.6442 12.0731 54.5377 12.053 54.4303 12.0542C54.3282 12.0541 54.2271 12.0748 54.1333 12.1152C54.0395 12.1555 53.9549 12.2146 53.8847 12.2888C53.8093 12.361 53.7492 12.4476 53.7082 12.5436C53.6672 12.6396 53.646 12.7429 53.646 12.8473C53.646 12.9517 53.6672 13.055 53.7082 13.151C53.7492 13.247 53.8093 13.3337 53.8847 13.4058C53.9547 13.4803 54.0392 13.5395 54.1331 13.5798C54.227 13.62 54.3281 13.6405 54.4303 13.64Z" fill="white"/>
<path id="Path 1313" d="M57.0484 19.8025C57.0484 20.3992 56.7331 20.6977 56.0975 20.6977H51.129C50.9986 20.7096 50.8672 20.695 50.7427 20.6546C50.6181 20.6143 50.5031 20.5492 50.4044 20.4631C50.233 20.2477 50.1521 19.9742 50.1786 19.7002V16.814L48.8356 17.6664V19.6417C48.801 20.2548 49.0006 20.8582 49.394 21.3298C49.6355 21.5651 49.9242 21.7465 50.241 21.8619C50.5578 21.9773 50.8956 22.0241 51.2318 21.9992H55.9942C56.6247 22.0399 57.2466 21.8353 57.7297 21.4282C57.9507 21.2088 58.1222 20.9446 58.2325 20.6534C58.3428 20.3622 58.3894 20.0508 58.3692 19.7401V15.2493H57.0474L57.0484 19.8025Z" fill="white"/>
<path id="Path 1314" d="M52.4051 13.6434C52.5113 13.6441 52.6164 13.6225 52.7137 13.5802C52.8111 13.5378 52.8985 13.4756 52.9703 13.3975C53.0462 13.323 53.1064 13.2341 53.1473 13.136C53.1883 13.038 53.2093 12.9327 53.2089 12.8264C53.21 12.7219 53.1893 12.6183 53.1483 12.5222C53.1072 12.4261 53.0466 12.3396 52.9703 12.2681C52.8967 12.1925 52.8084 12.1327 52.7109 12.0924C52.6134 12.0521 52.5087 12.032 52.4031 12.0335C52.2958 12.0324 52.1892 12.0525 52.0896 12.0928C51.9901 12.133 51.8995 12.1926 51.8232 12.2681C51.7447 12.3383 51.6822 12.4244 51.6398 12.5207C51.5973 12.617 51.576 12.7212 51.5772 12.8264C51.5768 12.9334 51.5984 13.0393 51.6407 13.1375C51.6831 13.2358 51.7452 13.3243 51.8232 13.3975C51.8985 13.4757 51.9889 13.5378 52.0889 13.58C52.189 13.6223 52.2965 13.6439 52.4051 13.6434Z" fill="white"/>
<path id="Path 1315" d="M65.4954 13.6434C65.6015 13.644 65.7065 13.6224 65.8038 13.5801C65.901 13.5377 65.9884 13.4755 66.0602 13.3975C66.136 13.323 66.1962 13.2341 66.2372 13.136C66.2782 13.038 66.2991 12.9327 66.2988 12.8264C66.2998 12.7219 66.2792 12.6183 66.2381 12.5222C66.197 12.4261 66.1364 12.3396 66.0602 12.2681C65.9866 12.1925 65.8983 12.1327 65.8008 12.0924C65.7032 12.0521 65.5985 12.032 65.493 12.0335C65.3856 12.0324 65.2791 12.0525 65.1795 12.0928C65.0799 12.133 64.9894 12.1926 64.913 12.2681C64.8346 12.3383 64.772 12.4244 64.7296 12.5207C64.6872 12.617 64.6659 12.7212 64.667 12.8264C64.6666 12.9334 64.6883 13.0393 64.7306 13.1375C64.7729 13.2358 64.835 13.3243 64.913 13.3975C64.9884 13.4757 65.0789 13.5379 65.179 13.5801C65.2791 13.6224 65.3868 13.6439 65.4954 13.6434Z" fill="white"/>
<path id="Path 1316" d="M79.0879 22.7267L80.4309 21.9977V12.5037H79.0879V22.7267Z" fill="white"/>
<path id="Path 1317" d="M95.4814 19.7002C95.4955 19.8383 95.4817 19.9778 95.4407 20.1104C95.3997 20.243 95.3324 20.3659 95.2428 20.472C95.008 20.6437 94.7181 20.7227 94.4287 20.6938H94.045V17.4617C94.0614 17.1496 94.0109 16.8375 93.897 16.5464C93.783 16.2552 93.6083 15.9918 93.3843 15.7737C92.8852 15.3467 92.2407 15.1285 91.5848 15.1642C91.0239 15.1432 90.4696 15.2919 89.9944 15.5907C89.6985 15.7988 89.4624 16.081 89.3097 16.409C89.1571 16.737 89.0933 17.0994 89.1247 17.4598V20.6913H86.8304V15.2493H84.2084C83.6075 15.2188 83.017 15.415 82.554 15.7992C82.3192 16.0228 82.1363 16.2953 82.0184 16.5974C81.9005 16.8995 81.8504 17.2238 81.8717 17.5473V19.7002C81.8523 20.0044 81.8957 20.3094 81.9991 20.5961C82.1025 20.8829 82.2638 21.1453 82.4729 21.3672C82.7286 21.5919 83.0266 21.7635 83.3494 21.8718C83.6722 21.9802 84.0134 22.0231 84.353 21.9982H85.4913V22.403C85.4913 23.7163 84.566 24.3769 82.7242 24.3769H82.5196L83.405 25.5574C84.3125 25.5587 85.1962 25.2672 85.9247 24.7261C86.5303 24.1851 86.8328 23.3277 86.8328 22.164V21.9977H89.1478C89.2428 22.474 89.5158 22.8962 89.9113 23.1782C90.3971 23.5304 90.9872 23.709 91.5868 23.6853C92.1638 23.714 92.7352 23.5603 93.22 23.2461C93.4258 23.101 93.5997 22.9153 93.7309 22.7004C93.8621 22.4856 93.9479 22.2461 93.983 21.9967H94.4646C95.0784 22.0364 95.684 21.8396 96.1573 21.4468C96.3776 21.2358 96.549 20.9791 96.6595 20.6948C96.77 20.4105 96.8168 20.1054 96.7968 19.8011V12.5037H95.475V19.7002H95.4814ZM85.4874 20.6977H84.4543C84.1099 20.7338 83.7628 20.6623 83.4606 20.4931C83.365 20.3864 83.2935 20.2604 83.2511 20.1235C83.2086 19.9867 83.1962 19.8423 83.2147 19.7002V17.5473C83.19 17.2749 83.2675 17.003 83.4321 16.7844C83.5315 16.6967 83.648 16.6306 83.7742 16.5902C83.9005 16.5498 84.0337 16.5361 84.1656 16.5498H85.4874V20.6977ZM92.7399 21.4055C92.7399 22.0705 92.3562 22.403 91.5844 22.403C90.8125 22.403 90.4288 22.0705 90.4288 21.4055V17.4406C90.4288 16.7756 90.8125 16.4431 91.5844 16.4431C92.3562 16.4431 92.7399 16.7756 92.7399 17.4406V21.4055Z" fill="white"/>
<path id="Path 1318" d="M98.2661 12.5037V22.7267L99.6091 21.9977V12.5037H98.2661Z" fill="white"/>
<path id="Path 1319" d="M77.0454 15.8592C76.8488 15.6442 76.6088 15.4734 76.3413 15.358C76.0737 15.2426 75.7847 15.1852 75.4934 15.1898C75.2203 15.1924 74.949 15.234 74.6876 15.3133L71.5452 16.4091V15.2498H70.247V20.6982H67.9531V15.2498H65.2883C64.7113 15.2252 64.1453 15.4134 63.6979 15.7786C63.4562 16.0027 63.2676 16.278 63.1459 16.5844C63.0242 16.8907 62.9724 17.2204 62.9945 17.5493V20.6997H61.9029C61.4213 20.6997 61.1783 20.4228 61.1783 19.8635V12.5042H59.8353V19.9221C59.8287 20.1956 59.8776 20.4677 59.979 20.7218C60.0804 20.976 60.2322 21.2071 60.4252 21.401C60.6182 21.595 60.8485 21.7479 61.1022 21.8505C61.3559 21.9532 61.6278 22.0034 61.9014 21.9982H67.2634L67.9029 21.1458V21.9982H70.2179V23.2613L71.5398 22.5727V21.9982H75.3006C75.6275 22.0197 75.9552 21.9711 76.2618 21.8557C76.5685 21.7402 76.8469 21.5606 77.0784 21.3288C77.4421 20.9221 77.6346 20.3906 77.6156 19.8453V17.2448C77.6198 16.9872 77.5715 16.7315 77.4734 16.4932C77.3754 16.255 77.2297 16.0392 77.0454 15.8592ZM66.6067 20.6982H64.334V17.5478C64.334 16.8828 64.6493 16.5503 65.2849 16.5503H66.6067V20.6982ZM76.2977 19.8183C76.2977 20.4021 75.9824 20.6923 75.3468 20.6923H71.5437V18.4597C71.5208 18.2532 71.5689 18.0451 71.68 17.8695C71.862 17.7091 72.0777 17.5914 72.3111 17.5252L74.8524 16.63C75.0694 16.5421 75.3006 16.4945 75.5347 16.4893C75.6401 16.4847 75.7452 16.5042 75.842 16.5463C75.9387 16.5884 76.0246 16.652 76.0931 16.7323C76.2374 16.9181 76.31 17.1496 76.2977 17.3845V19.8183Z" fill="white"/>
</g>
<g id="SASO">
<path id="Path 1303" d="M120.378 7.47591C118.62 9.47549 117.019 11.6077 115.59 13.8535C115.103 14.608 114.647 15.3753 114.208 16.147C113.761 16.9099 113.323 17.6905 112.908 18.4834C111.677 20.847 110.629 23.3012 109.773 25.8245C108.595 29.2905 107.768 32.8664 107.305 36.498L121.423 28.364C122.222 26.1691 123.196 24.042 124.336 22.0032H124.344V21.9948C125.54 19.994 126.894 18.0923 128.394 16.3079V0.00445557C125.478 2.21981 122.793 4.7229 120.378 7.47591Z" fill="white"/>
<path id="XMLID_25_" d="M129.903 16.3152C131.408 18.0979 132.765 19.9998 133.962 22.0022L133.966 22.0105H133.971C135.109 24.0502 136.083 26.1772 136.883 28.3714L151.001 36.5054C150.541 32.8734 149.714 29.2973 148.533 25.8319C147.681 23.3071 146.633 20.8526 145.399 18.4907C144.981 17.6936 144.547 16.9148 144.098 16.1544C143.659 15.3826 143.203 14.6153 142.717 13.8608C141.286 11.616 139.685 9.48394 137.929 7.48326C135.513 4.72408 132.824 2.21684 129.903 0V16.3152Z" fill="white"/>
<path id="XMLID_24_" d="M122.22 29.6379C124.52 30.0412 126.848 30.2607 129.183 30.2946H129.196C131.53 30.2588 133.857 30.0336 136.154 29.6212L150.28 37.7513C146.904 39.1746 143.394 40.2558 139.802 40.9784C137.19 41.5049 134.543 41.8298 131.882 41.9503C130.986 41.9931 130.095 42.0059 129.204 41.9995C128.322 42.0079 127.422 41.9995 126.526 41.9612C123.867 41.8492 121.219 41.5368 118.606 41.0266C115.008 40.316 111.49 39.2462 108.105 37.8334L122.22 29.6379Z" fill="white"/>
<path id="XMLID_22_" d="M120.191 38.7439C119.483 38.6581 118.833 38.3096 118.37 37.7675L119.04 37.0297C119.381 37.375 119.815 37.6141 120.289 37.7183C120.848 37.8078 121.253 37.5949 121.322 37.1773C121.349 37.027 121.315 36.8726 121.228 36.7469C120.933 36.3293 119.932 36.0224 119.433 35.3229C119.311 35.1593 119.224 34.9723 119.177 34.7735C119.13 34.5748 119.124 34.3686 119.16 34.1675C119.331 33.14 120.273 32.6073 121.423 32.8031C122.085 32.8875 122.691 33.2177 123.12 33.7283L122.438 34.4169C122.14 34.106 121.758 33.8883 121.338 33.7903C120.835 33.7052 120.434 33.8887 120.374 34.2507C120.36 34.3145 120.361 34.3808 120.377 34.4443C120.392 34.5078 120.422 34.5669 120.464 34.6171C120.69 34.9324 121.824 35.3888 122.319 36.0794C122.445 36.249 122.533 36.4438 122.577 36.6506C122.622 36.8574 122.62 37.0713 122.574 37.2776C122.39 38.3455 121.444 38.9529 120.191 38.7439Z" fill="#066058"/>
<path id="XMLID_19_" d="M127.402 39.3493L127.049 38.1197L124.968 37.9873L124.469 39.1639L123.232 39.0916L125.681 33.4361L126.91 33.5128L128.663 39.426L127.402 39.3493ZM126.213 34.7833L125.333 37.0612L126.791 37.1507L126.213 34.7833Z" fill="#066058"/>
<path id="XMLID_17_" d="M131.404 39.4516C130.693 39.5079 129.987 39.2949 129.426 38.855L129.933 38.0026C130.339 38.2716 130.814 38.4181 131.301 38.4246C131.864 38.4035 132.218 38.1049 132.201 37.6829C132.193 37.5316 132.129 37.3887 132.022 37.282C131.647 36.9323 130.606 36.83 129.976 36.2491C129.823 36.1129 129.7 35.947 129.614 35.7615C129.528 35.5759 129.482 35.3748 129.477 35.1704C129.434 34.1346 130.252 33.4223 131.417 33.38C132.08 33.3306 132.738 33.5296 133.263 33.9383L132.739 34.7523C132.381 34.508 131.961 34.3714 131.528 34.3588C131.016 34.3761 130.658 34.6358 130.679 34.9983C130.677 35.0635 130.69 35.1283 130.716 35.1879C130.743 35.2475 130.783 35.3004 130.832 35.3426C131.122 35.6067 132.321 35.8241 132.939 36.4001C133.099 36.5393 133.226 36.7118 133.313 36.9055C133.399 37.0993 133.442 37.3095 133.438 37.5215C133.481 38.6164 132.679 39.4005 131.404 39.4516Z" fill="#066058"/>
<path id="XMLID_14_" d="M137.562 38.9101C135.9 39.1615 134.57 38.0961 134.301 36.284C134.036 34.5192 134.989 33.1592 136.65 32.9074C138.347 32.6516 139.63 33.7219 139.886 35.4395C140.162 37.2958 139.19 38.6627 137.562 38.9101ZM136.751 33.9049C135.834 34.0456 135.361 34.9836 135.54 36.1729C135.719 37.375 136.521 38.0272 137.425 37.8865C138.61 37.7075 138.793 36.5349 138.655 35.6141C138.486 34.4848 137.715 33.7642 136.751 33.9049Z" fill="#066058"/>
</g>
</g>
</g>
</svg>
