<svg id="notiIconGreen" xmlns="http://www.w3.org/2000/svg" width="18" height="18" viewBox="0 0 18 18">
  <g id="clipboard-text">
    <path id="Vector" d="M5.812,1.125H.563A.567.567,0,0,1,0,.563.567.567,0,0,1,.563,0h5.25a.567.567,0,0,1,.563.563A.567.567,0,0,1,5.812,1.125Z" transform="translate(5.438 8.587)" fill="#007066"/>
    <path id="Vector-2" data-name="Vector" d="M3.848,1.125H.563A.567.567,0,0,1,0,.563.567.567,0,0,1,.563,0H3.848A.567.567,0,0,1,4.41.563.567.567,0,0,1,3.848,1.125Z" transform="translate(5.438 11.587)" fill="#007066"/>
    <path id="Vector-3" data-name="Vector" d="M5.062,4.125h-3c-.72,0-2.062,0-2.062-2.062S1.342,0,2.063,0h3c.72,0,2.063,0,2.063,2.063C7.125,2.783,7.125,4.125,5.062,4.125Zm-3-3c-.743,0-.937,0-.937.938S1.32,3,2.063,3h3C6,3,6,2.8,6,2.063c0-.937-.2-.937-.937-.937Z" transform="translate(5.438 0.938)" fill="#007066"/>
    <path id="Vector-4" data-name="Vector" d="M9.562,14.611h-4.5C.848,14.611,0,12.676,0,9.548v-4.5C0,1.628,1.237.166,4.283.008a.567.567,0,0,1,.592.532.556.556,0,0,1-.533.585c-2.13.12-3.217.758-3.217,3.923v4.5c0,2.775.547,3.937,3.937,3.937h4.5c3.39,0,3.937-1.162,3.937-3.937v-4.5c0-3.165-1.088-3.8-3.217-3.923A.567.567,0,0,1,9.75.533.567.567,0,0,1,10.343,0c3.045.165,4.282,1.627,4.282,5.04v4.5C14.625,12.676,13.777,14.611,9.562,14.611Z" transform="translate(1.688 2.452)" fill="#007066"/>
    <path id="Vector-5" data-name="Vector" d="M0,0H18V18H0Z" fill="none" opacity="0"/>
  </g>
</svg>
