<svg width="71" height="71" viewBox="0 0 71 71" fill="none" xmlns="http://www.w3.org/2000/svg">
<g id="Icon" clip-path="url(#clip0_294_463)">
<path id="Vector" d="M69.9898 18.6401L69.9868 18.6372L65.404 17.9831C64.7605 17.8918 64.3113 17.2952 64.4041 16.65C64.4483 16.3407 64.6132 16.0608 64.8635 15.8737L68.5672 13.0955C69.0885 12.7051 69.1931 11.9657 68.8028 11.4457L64.5617 5.78913C64.1714 5.26914 63.4321 5.16308 62.9123 5.55344L59.2101 8.33163C58.6917 8.72494 57.9525 8.6233 57.5593 8.10478C57.3678 7.85289 57.2869 7.53471 57.3325 7.22242L57.9878 2.63826C58.0806 1.99453 57.6329 1.39647 56.9894 1.30367L49.9958 0.304931C49.3523 0.212128 48.7544 0.659938 48.6616 1.30367L48.0063 5.88783C47.915 6.53155 47.3186 6.98084 46.6736 6.88803C46.3643 6.84384 46.0845 6.67886 45.8975 6.42844L43.1201 2.72369C42.7299 2.2037 41.9906 2.09764 41.4708 2.488L37.9306 5.1454C36.3284 4.97453 34.7144 4.97453 33.1121 5.1454C22.6226 6.34448 14.3979 14.7115 13.3759 25.2232C13.3435 25.5561 13.3317 25.8876 13.3155 26.219H12.9621C12.4025 26.219 11.921 26.6138 11.8105 27.1618L10.9961 31.0344L7.73573 28.7851C7.26744 28.4625 6.63568 28.5199 6.23365 28.9221L2.69933 32.4574C2.29731 32.8595 2.23987 33.49 2.56238 33.9585L4.80078 37.2139L0.927758 38.0285C0.384357 38.1478 0 38.6281 0 39.1819V43.8957C0 44.4525 0.390247 44.9342 0.935121 45.0491L4.80814 45.8637L2.56974 49.1192C2.24724 49.5876 2.30467 50.2181 2.7067 50.6202L6.24101 54.1556C6.64304 54.5577 7.2748 54.6152 7.7431 54.2926L10.9976 52.0476L11.812 55.9218C11.9239 56.4698 12.4055 56.8631 12.9636 56.8645H17.676C18.2327 56.8645 18.7142 56.4742 18.8291 55.9291L19.6434 52.055L22.898 54.294C23.3663 54.6166 23.9965 54.5592 24.3986 54.157L26.2276 52.3216V55.6802C26.2335 57.3565 27.1303 58.9032 28.5838 59.7385V66.2862C28.5838 68.8891 30.6941 71 33.2962 71H38.0086C40.6108 71 42.7211 68.8891 42.7211 66.2862V59.7385C44.1745 58.9032 45.0714 57.3565 45.0773 55.6802V51.0165C45.1097 49.0544 46.1361 47.2425 47.8016 46.2055C48.7795 45.5706 49.7057 44.862 50.5746 44.0843L49.0033 42.3284C48.2272 43.0251 47.3967 43.66 46.5204 44.2271C44.1804 45.6958 42.749 48.253 42.7196 51.0165V55.6802C42.7196 56.9824 41.6652 58.0371 40.3634 58.0371H30.9385C29.6367 58.0371 28.5823 56.9824 28.5823 55.6802V50.9178C28.5558 48.2074 27.145 45.6987 24.8448 44.2669C15.5068 38.3983 12.6941 26.0687 18.5611 16.7281C22.2014 10.9331 28.5543 7.40508 35.3977 7.38151C35.38 7.42275 35.3653 7.46695 35.352 7.50967C35.3078 7.81901 35.3888 8.13277 35.5773 8.38319L38.3547 12.0865C38.6478 12.465 38.6757 12.9865 38.4254 13.3945C38.1839 13.8055 37.7185 14.0294 37.2473 13.9617L32.6644 13.3062C32.0209 13.2134 31.423 13.6612 31.3317 14.3049L30.3318 21.3034C30.239 21.9471 30.6867 22.5452 31.3302 22.638L35.9131 23.2935C36.5566 23.3848 37.0043 23.9814 36.913 24.6266C36.8688 24.936 36.7039 25.2158 36.4535 25.4029L32.7513 28.1811C32.23 28.5715 32.1255 29.3095 32.5157 29.8309L36.7569 35.4875C37.1471 36.0089 37.8864 36.1135 38.4062 35.7232L42.1099 32.945C42.6312 32.5546 43.369 32.6622 43.7593 33.1836C43.9463 33.4326 44.0258 33.7463 43.9816 34.0542L43.3278 38.6384C43.235 39.2821 43.6827 39.8801 44.3262 39.973L51.3242 40.9732C51.3787 40.9805 51.4346 40.9835 51.4906 40.9835C52.0767 40.9835 52.5744 40.5533 52.6584 39.973L53.3122 35.3888C53.4035 34.7451 53.9999 34.2973 54.645 34.3886C54.9542 34.4328 55.234 34.5978 55.421 34.8482L58.1984 38.5515C58.5887 39.0729 59.3279 39.1775 59.8478 38.7871L65.5027 34.5447C66.024 34.1544 66.1285 33.4164 65.7383 32.8949L62.9609 29.1916C62.6693 28.8116 62.6413 28.2931 62.8902 27.8836C63.1258 27.4667 63.5956 27.2413 64.0683 27.3179L68.6512 27.9719C69.2947 28.0647 69.8926 27.6169 69.9854 26.9732L70.9838 19.9732C71.0766 19.3295 70.6289 18.7314 69.9854 18.6386L69.9898 18.6401ZM30.9415 60.394H40.3663V62.7509H30.9415V60.394ZM30.9415 65.1078H40.3663V66.2862C40.3663 67.5884 39.3119 68.6431 38.0101 68.6431H33.2977C31.9959 68.6431 30.9415 67.5884 30.9415 66.2862V65.1078ZM21.5623 44.7854C22.2058 45.3113 22.8773 45.8018 23.5754 46.2526C24.6887 46.9567 25.5266 48.0203 25.9492 49.268L23.4222 51.7913L20.9747 50.1032C19.9026 49.3652 18.4359 49.6348 17.6981 50.7071C17.5214 50.9635 17.3962 51.2536 17.3329 51.5586L16.7158 54.5017H13.9149L13.2979 51.5645C13.0298 50.2903 11.7796 49.4757 10.5072 49.7438C10.2024 49.8086 9.91228 49.9323 9.65605 50.1091L7.20853 51.7913L5.06144 49.6495L6.7476 47.2027C7.48686 46.1318 7.21737 44.6632 6.14677 43.9237C5.88905 43.7469 5.60042 43.6217 5.29411 43.5569L2.35768 42.9382V40.1379L5.29411 39.5193C6.56647 39.2497 7.38083 37.9976 7.10987 36.7249C7.04507 36.4229 6.92284 36.1356 6.74907 35.8808L5.06144 33.4267L7.20853 31.2848L9.65752 32.973C10.7296 33.711 12.1963 33.4399 12.9341 32.3675C13.1108 32.1112 13.2345 31.821 13.2993 31.5161L13.5055 30.5351C13.694 31.8932 14.0062 33.2308 14.4392 34.5315C10.5632 34.994 7.79464 38.5117 8.25705 42.3888C8.71945 46.2659 12.2361 49.0352 16.1135 48.5727C18.4477 48.2943 20.4902 46.8742 21.5637 44.784L21.5623 44.7854ZM19.7333 43.1253C18.8541 45.5721 16.1577 46.8404 13.7131 45.9609C11.2686 45.0815 9.99917 42.3844 10.8783 39.9391C11.5513 38.0683 13.3273 36.8221 15.3154 36.825H15.3596C16.4434 39.1613 17.9219 41.2928 19.7333 43.1253ZM67.8162 25.4692L64.3997 24.9816C62.4676 24.7062 60.6768 26.0481 60.4015 27.9822C60.2689 28.9103 60.5104 29.853 61.073 30.6028L63.1435 33.3633L59.3736 36.1916L57.3031 33.4311C56.1323 31.8697 53.9175 31.5515 52.355 32.724C51.6054 33.2867 51.1092 34.1234 50.9766 35.0515L50.4995 38.4734L45.8357 37.8061L46.3231 34.3886C46.6 32.4559 45.2584 30.6647 43.3248 30.3878C42.3971 30.2552 41.4531 30.4968 40.7035 31.0595L37.9438 33.1306L35.1164 29.3596L37.8761 27.2884C39.4386 26.1174 39.7552 23.9019 38.583 22.339C38.0204 21.5892 37.184 21.0927 36.2562 20.9602L32.8397 20.4726L33.5068 15.8074L36.9233 16.295C38.8554 16.5719 40.6461 15.2285 40.923 13.2958C41.0555 12.3663 40.814 11.4236 40.2514 10.6738L38.175 7.91034L41.945 5.08206L44.0155 7.84258C45.1862 9.40402 47.4011 9.7222 48.9635 8.54965C49.7131 7.98694 50.2094 7.15024 50.3419 6.22221L50.8294 2.80471L55.4932 3.47054L55.0057 6.88803C54.7304 8.82069 56.0719 10.6119 58.0055 10.8874C58.9333 11.02 59.8757 10.7784 60.6253 10.2157L63.385 8.14455L66.2125 11.9156L63.4528 13.9867C61.8903 15.1578 61.5737 17.3747 62.7459 18.9362C63.3084 19.686 64.1449 20.1824 65.0727 20.315L68.4892 20.8026L67.8191 25.4663L67.8162 25.4692Z" fill="url(#paint0_linear_294_463)"/>
<path id="Vector_2" d="M50.6585 11.21C45.4528 11.21 41.2337 15.4303 41.2337 20.6376C41.2337 25.8448 45.4528 30.0652 50.6585 30.0652C55.8643 30.0652 60.0834 25.8448 60.0834 20.6376C60.0775 15.4333 55.8614 11.2159 50.6585 11.21ZM50.6585 27.7083C46.7546 27.7083 43.5899 24.5427 43.5899 20.6376C43.5899 16.7325 46.7546 13.5669 50.6585 13.5669C54.5625 13.5669 57.7272 16.7325 57.7272 20.6376C57.7228 24.5412 54.561 27.7038 50.6585 27.7083Z" fill="url(#paint1_linear_294_463)"/>
<path id="Vector_3" d="M36.832 52.1448H34.4758V55.6802H36.832V52.1448Z" fill="url(#paint2_linear_294_463)"/>
<path id="Vector_4" d="M30.5012 40.571C23.2293 37.7295 19.6361 29.5275 22.4768 22.2535C23.5783 19.4341 25.5531 17.0433 28.114 15.4318L26.8549 13.4373C19.1472 18.2939 16.8351 28.4816 21.6919 36.1901C23.5724 39.176 26.3601 41.4799 29.647 42.7644C32.5555 43.8795 34.4758 46.6724 34.4773 49.7879H36.8335C36.8379 45.7002 34.3182 42.0338 30.5026 40.571H30.5012Z" fill="url(#paint3_linear_294_463)"/>
<path id="Vector_5" d="M66.2846 43.8957H58.0379V46.2526H66.2846V43.8957Z" fill="url(#paint4_linear_294_463)"/>
<path id="Vector_6" d="M57.6149 50.0613L56.1067 51.872L63.1757 57.7634L64.6839 55.9526L57.6149 50.0613Z" fill="url(#paint5_linear_294_463)"/>
<path id="Vector_7" d="M53.3255 53.3233H50.9693V61.5724H53.3255V53.3233Z" fill="url(#paint6_linear_294_463)"/>
<path id="Vector_8" d="M10.6241 18.0068L1.20041 20.3623L1.77127 22.6475L11.195 20.2919L10.6241 18.0068Z" fill="url(#paint7_linear_294_463)"/>
<path id="Vector_9" d="M4.52936 6.40722L3.16061 8.32385L11.4061 14.2157L12.7748 12.2991L4.52936 6.40722Z" fill="url(#paint8_linear_294_463)"/>
<path id="Vector_10" d="M15.5356 0.000391844L13.2528 0.584137L15.6619 10.0106L17.9447 9.42681L15.5356 0.000391844Z" fill="url(#paint9_linear_294_463)"/>
</g>
<defs>
<linearGradient id="paint0_linear_294_463" x1="35.498" y1="0.292755" x2="35.498" y2="71" gradientUnits="userSpaceOnUse">
<stop stop-color="#00B594"/>
<stop offset="1" stop-color="#254DB5"/>
</linearGradient>
<linearGradient id="paint1_linear_294_463" x1="50.6585" y1="11.21" x2="50.6585" y2="30.0652" gradientUnits="userSpaceOnUse">
<stop stop-color="#00B594"/>
<stop offset="1" stop-color="#254DB5"/>
</linearGradient>
<linearGradient id="paint2_linear_294_463" x1="35.6539" y1="52.1448" x2="35.6539" y2="55.6802" gradientUnits="userSpaceOnUse">
<stop stop-color="#00B594"/>
<stop offset="1" stop-color="#254DB5"/>
</linearGradient>
<linearGradient id="paint3_linear_294_463" x1="27.992" y1="13.4373" x2="27.992" y2="49.7879" gradientUnits="userSpaceOnUse">
<stop stop-color="#00B594"/>
<stop offset="1" stop-color="#254DB5"/>
</linearGradient>
<linearGradient id="paint4_linear_294_463" x1="62.1613" y1="43.8957" x2="62.1613" y2="46.2526" gradientUnits="userSpaceOnUse">
<stop stop-color="#00B594"/>
<stop offset="1" stop-color="#254DB5"/>
</linearGradient>
<linearGradient id="paint5_linear_294_463" x1="56.8608" y1="50.9667" x2="63.9315" y2="56.856" gradientUnits="userSpaceOnUse">
<stop stop-color="#00B594"/>
<stop offset="1" stop-color="#254DB5"/>
</linearGradient>
<linearGradient id="paint6_linear_294_463" x1="52.1474" y1="53.3233" x2="52.1474" y2="61.5724" gradientUnits="userSpaceOnUse">
<stop stop-color="#00B594"/>
<stop offset="1" stop-color="#254DB5"/>
</linearGradient>
<linearGradient id="paint7_linear_294_463" x1="5.91227" y1="19.1845" x2="6.48344" y2="21.4696" gradientUnits="userSpaceOnUse">
<stop stop-color="#00B594"/>
<stop offset="1" stop-color="#254DB5"/>
</linearGradient>
<linearGradient id="paint8_linear_294_463" x1="3.84498" y1="7.36554" x2="12.0921" y2="13.2551" gradientUnits="userSpaceOnUse">
<stop stop-color="#00B594"/>
<stop offset="1" stop-color="#254DB5"/>
</linearGradient>
<linearGradient id="paint9_linear_294_463" x1="14.3942" y1="0.292264" x2="16.8046" y2="9.71834" gradientUnits="userSpaceOnUse">
<stop stop-color="#00B594"/>
<stop offset="1" stop-color="#254DB5"/>
</linearGradient>
<clipPath id="clip0_294_463">
<rect width="71" height="71" fill="white"/>
</clipPath>
</defs>
</svg>
