<svg width="70" height="72" viewBox="0 0 70 72" fill="none" xmlns="http://www.w3.org/2000/svg">
<g id="Icon" clip-path="url(#clip0_294_524)">
<path id="Vector" d="M67.7067 49.9948C69.8217 47.8916 70.5282 44.9479 69.5984 42.1189C69.4729 41.7356 69.1547 41.4439 68.7606 41.351C68.365 41.2566 67.9505 41.3742 67.6629 41.6587L63.4416 45.8565L61.4156 45.3166L60.8727 43.3018L65.0939 39.104C65.3815 38.8181 65.4983 38.4058 65.4034 38.0125C65.3085 37.6206 65.0166 37.3041 64.6312 37.1793C61.7864 36.2547 58.8262 36.9572 56.7112 39.0605C55.5479 40.2174 54.8108 41.7139 54.551 43.2902C50.753 39.7325 46.0996 37.2591 41.0682 36.082C45.4092 33.9903 48.6452 29.942 49.5561 25.0126H49.775C51.5616 25.0126 53.0169 23.5669 53.0169 21.7888C53.0169 20.2836 51.9747 19.0164 50.5705 18.6637C50.5705 18.6274 50.5705 18.5896 50.5705 18.5533C50.5705 11.7849 46.3886 5.8075 40.083 3.43135C39.9881 2.87542 39.756 2.36448 39.3911 1.92322C38.2511 0.538461 36.0383 0.114616 34.3831 0.00284867C34.3305 -5.43758e-05 34.2765 -5.43758e-05 34.224 0.00284867C32.5688 0.114616 30.3559 0.538461 29.2145 1.92322C28.8496 2.36593 28.6175 2.87542 28.5226 3.43135C22.217 5.8075 18.0351 11.7834 18.0351 18.5533C18.0351 18.5896 18.0351 18.6259 18.0351 18.6637C16.6309 19.0164 15.5888 20.2836 15.5888 21.7888C15.5888 23.5655 17.0426 25.0126 18.8306 25.0126H19.0496C19.9604 29.9377 23.1935 33.986 27.5301 36.0776C24.6006 36.7613 21.7908 37.8891 19.1868 39.4364L19.0846 39.1708C18.9109 38.7223 18.4774 38.4262 17.9942 38.4262H13.9832C13.5 38.4262 13.0665 38.7223 12.8928 39.1708L12.163 41.0578C11.1529 41.3452 10.1808 41.7458 9.26121 42.2538L7.40163 41.4323C6.95936 41.2378 6.44411 41.3336 6.10255 41.6718L3.26647 44.4921C2.92491 44.8317 2.82858 45.3456 3.02563 45.784L3.85178 47.6332C3.34091 48.5477 2.93805 49.5144 2.64904 50.5188L0.751508 51.2446C0.300479 51.4173 0.00271225 51.8484 0.00271225 52.3289V56.3177C0.00271225 56.7981 0.300479 57.2292 0.751508 57.402L2.64904 58.1277C2.93805 59.1322 3.34091 60.0989 3.85178 61.0148L3.02563 62.864C2.83004 63.3024 2.92491 63.8162 3.26647 64.1559L6.10255 66.9762C6.44411 67.3159 6.96082 67.4117 7.40163 67.2157L9.26121 66.3942C10.1808 66.9022 11.1529 67.3028 12.163 67.5902L12.8928 69.4772C13.0665 69.9257 13.5 70.2218 13.9832 70.2218H17.9942C18.4774 70.2218 18.9109 69.9257 19.0846 69.4772L19.8144 67.5902C20.8245 67.3028 21.7966 66.9022 22.7162 66.3942L24.5758 67.2157C25.0166 67.4102 25.5333 67.3159 25.8748 66.9762L28.7109 64.1559C29.0525 63.8162 29.1488 63.3024 28.9518 62.864L28.9226 62.8002H34.7203C34.4765 64.063 34.5495 65.3912 34.9713 66.6714C35.0969 67.0546 35.4151 67.3464 35.8092 67.4392C36.2047 67.5336 36.6193 67.416 36.9068 67.1315L41.1281 62.9337L43.1541 63.4737L43.6971 65.4884L39.4758 69.6862C39.1882 69.9722 39.0715 70.3844 39.1663 70.7778C39.2612 71.1711 39.5531 71.4861 39.9385 71.6109C40.7413 71.8722 41.5616 71.9985 42.3746 71.9985C44.4006 71.9985 46.3726 71.2074 47.8585 69.7298C49.7108 67.8878 50.4815 65.2895 49.9969 62.8002H62.5104C62.8417 62.8002 63.157 62.6608 63.3789 62.4155C63.6007 62.1702 63.7073 61.8436 63.6708 61.5156C63.319 58.2496 62.4316 55.1129 61.0318 52.1649C63.4343 52.5161 65.9551 51.7323 67.7038 49.9948H67.7067ZM28.6847 5.87427L29.5385 12.4163C29.6217 13.0521 30.2056 13.5006 30.8464 13.4178C31.4857 13.3351 31.9367 12.753 31.8535 12.1173L30.8216 4.21227C30.7632 3.76956 30.896 3.54312 31.0186 3.39506C31.4755 2.84058 32.7001 2.44286 34.3014 2.32384C35.904 2.44286 37.1287 2.84058 37.5841 3.39506C37.7067 3.54312 37.8395 3.76956 37.7811 4.21227L36.7492 12.1173C36.666 12.753 37.117 13.3366 37.7563 13.4178C37.8074 13.4237 37.8585 13.428 37.9081 13.428C38.4861 13.428 38.9883 13.0013 39.0642 12.4163L39.9181 5.87427C44.9436 8.06752 48.2322 12.9984 48.2322 18.5533C48.2322 18.5577 48.2322 18.5606 48.2322 18.565H43.2971V11.1999C43.2971 10.5583 42.7746 10.0387 42.1294 10.0387C41.4842 10.0387 40.9617 10.5583 40.9617 11.1999V18.565H27.6381V11.1999C27.6381 10.5583 27.1155 10.0387 26.4704 10.0387C25.8252 10.0387 25.3027 10.5583 25.3027 11.1999V18.565H20.3676C20.3676 18.565 20.3676 18.5577 20.3676 18.5533C20.3676 12.9984 23.6562 8.06752 28.6803 5.87427H28.6847ZM17.9256 21.7888C17.9256 21.2924 18.3314 20.8874 18.8321 20.8874H49.7765C50.2757 20.8874 50.6829 21.2909 50.6829 21.7888C50.6829 22.2867 50.2771 22.6902 49.7765 22.6902H18.8321C18.3329 22.6902 17.9256 22.2867 17.9256 21.7888ZM21.4332 25.0126H47.1739C45.869 30.961 40.5515 35.2996 34.3028 35.2996C28.0541 35.2996 22.7366 30.9595 21.4317 25.0126H21.4332ZM24.7918 64.7728L23.119 64.034C22.7673 63.8787 22.3615 63.9062 22.0331 64.1066C20.9909 64.7452 19.8597 65.2112 18.6701 65.4928C18.2949 65.5813 17.9884 65.8484 17.8512 66.2055L17.1944 67.9037H14.786L14.1291 66.2055C13.9905 65.8484 13.6839 65.5813 13.3103 65.4928C12.1221 65.2112 10.9909 64.7452 9.94871 64.1066C9.62029 63.9048 9.21451 63.8787 8.86273 64.034L7.18852 64.7728L5.48512 63.0803L6.22808 61.4169C6.38426 61.0671 6.35653 60.6621 6.1551 60.3369C5.51286 59.3005 5.04431 58.1756 4.76114 56.9926C4.6721 56.6196 4.40353 56.3148 4.04446 56.1783L2.33668 55.5251V53.1301L4.04446 52.4769C4.40353 52.339 4.6721 52.0342 4.76114 51.6626C5.04431 50.4811 5.51286 49.3562 6.1551 48.3198C6.35653 47.9932 6.38426 47.5896 6.22808 47.2398L5.48512 45.5749L7.18706 43.881L8.86127 44.6198C9.21305 44.7751 9.61883 44.749 9.94725 44.5472C10.9894 43.9086 12.1207 43.4426 13.3088 43.161C13.6839 43.0725 13.9905 42.8054 14.1277 42.4483L14.7845 40.7501H17.1929L17.8497 42.4483C17.9884 42.8054 18.2949 43.0725 18.6686 43.161C19.8567 43.4426 20.988 43.9086 22.0302 44.5472C22.3586 44.749 22.7644 44.7751 23.1161 44.6198L24.7903 43.881L26.4923 45.5735L25.7493 47.2369C25.5931 47.5867 25.6209 47.9917 25.8223 48.3169C26.4645 49.3547 26.9331 50.4796 27.2163 51.6612C27.3053 52.0342 27.5739 52.339 27.9329 52.4755L29.6407 53.1287V55.5237L27.9329 56.1769C27.5739 56.3148 27.3053 56.6196 27.2163 56.9912C26.9331 58.1727 26.4645 59.2976 25.8223 60.334C25.6209 60.6606 25.5931 61.0642 25.7493 61.414L26.4923 63.0789L24.7903 64.7713L24.7918 64.7728ZM36.8659 58.7969C36.3536 59.3064 35.9245 59.8739 35.58 60.4792H28.4102C28.7883 59.7258 29.0977 58.9406 29.3298 58.1306L31.2273 57.4034C31.6784 57.2307 31.9761 56.7996 31.9761 56.3191V52.3303C31.9761 51.8499 31.6784 51.4188 31.2273 51.246L29.3298 50.5203C29.0408 49.5158 28.6379 48.5491 28.1271 47.6332L28.9532 45.784C29.1488 45.3456 29.0539 44.8317 28.7124 44.4921L25.8763 41.6718C25.5347 41.3321 25.018 41.2378 24.5772 41.4323L22.7176 42.2538C22.0375 41.8779 21.3281 41.5615 20.5953 41.3045C24.7465 38.8907 29.4524 37.6206 34.3043 37.6206C42.1163 37.6206 49.5196 40.9489 54.6896 46.7666L44.5568 56.8431C41.8433 56.0491 38.8978 56.7763 36.8659 58.7954V58.7969ZM47.4002 62.2167C48.2307 64.2401 47.7636 66.5451 46.2106 68.0895C45.2779 69.0171 44.0722 69.557 42.8111 69.6586L45.8281 66.6583C46.123 66.3651 46.2383 65.9369 46.1303 65.5363L45.2384 62.2268C45.1304 61.8262 44.8151 61.5127 44.4123 61.4053L41.0843 60.5184C40.9851 60.4923 40.8829 60.4792 40.7822 60.4792C40.4771 60.4792 40.1779 60.5982 39.956 60.8188L36.9389 63.8191C37.0411 62.565 37.5841 61.3661 38.5168 60.4385C40.0699 58.8941 42.3878 58.4296 44.4225 59.2556C44.8575 59.4326 45.3567 59.3325 45.6895 59.0015L56.917 47.835C57.2498 47.504 57.3505 47.0076 57.1725 46.575C56.3551 44.5835 56.8324 42.2234 58.3621 40.7022C59.3138 39.7558 60.5107 39.2143 61.7733 39.1214L58.7445 42.1334C58.4497 42.4266 58.3343 42.8548 58.4424 43.2554L59.3342 46.5649C59.4422 46.9655 59.7575 47.279 60.1604 47.3864L63.4883 48.2733C63.8912 48.3807 64.3218 48.2661 64.6166 47.9729L67.6454 44.9609C67.552 46.2165 67.0075 47.4068 66.0558 48.3531C64.5261 49.8743 62.1528 50.3504 60.1501 49.5361C59.7152 49.3591 59.216 49.4592 58.8832 49.7902L47.6542 60.9567C47.3214 61.2877 47.2206 61.7841 47.3987 62.2167H47.4002ZM51.4375 60.4792L58.8846 53.0735C60.01 55.4235 60.7807 57.9042 61.1836 60.4792H51.4375ZM15.9887 46.2078C11.4872 46.2078 7.82493 49.8497 7.82493 54.3262C7.82493 58.8027 11.4872 62.4446 15.9887 62.4446C20.4902 62.4446 24.1525 58.8027 24.1525 54.3262C24.1525 49.8497 20.4902 46.2078 15.9887 46.2078ZM15.9887 60.1221C12.7746 60.1221 10.1604 57.5224 10.1604 54.3262C10.1604 51.1299 12.7746 48.5302 15.9887 48.5302C19.2028 48.5302 21.817 51.1299 21.817 54.3262C21.817 57.5224 19.2028 60.1221 15.9887 60.1221Z" fill="url(#paint0_linear_294_524)"/>
</g>
<defs>
<linearGradient id="paint0_linear_294_524" x1="35.0014" y1="0.000671387" x2="35.0014" y2="71.9985" gradientUnits="userSpaceOnUse">
<stop stop-color="#00B594"/>
<stop offset="1" stop-color="#254DB5"/>
</linearGradient>
<clipPath id="clip0_294_524">
<rect width="70" height="72" fill="white"/>
</clipPath>
</defs>
</svg>
