<svg width="73" height="73" viewBox="0 0 73 73" fill="none" xmlns="http://www.w3.org/2000/svg">
<g id="Icon" clip-path="url(#clip0_294_436)">
<g id="layer2">
<path id="ic-stamp" d="M19.7996 0C17.606 0 15.7953 1.81429 15.7953 4.01257V18.2557C15.7981 18.9766 16.3846 19.559 17.1035 19.5547C17.8181 19.5518 18.396 18.9723 18.3989 18.2557V4.01257C18.3989 3.21177 19.0025 2.60653 19.8011 2.60653H68.9997C69.7983 2.60653 70.4018 3.21177 70.4018 4.01257V57.3622H61.4009C59.2086 57.3622 57.3993 59.1651 57.3993 61.3648V70.3906H43.1C42.3768 70.3878 41.7903 70.9773 41.7946 71.7024C41.7974 72.4219 42.3811 73.0043 43.1 73.0014H60.0001C60.3446 73.0014 60.6763 72.8672 60.9211 72.6246L72.6183 60.8852C72.8617 60.6425 72.9984 60.3142 73.0012 59.9716V4.01257C73.0012 1.81429 71.1933 0 68.9997 0H19.7996ZM50.8995 6.52489C44.2701 6.52489 38.865 11.9349 38.865 18.5826C38.865 25.2302 44.2701 30.6489 50.8995 30.6489C57.5289 30.6489 62.934 25.2317 62.934 18.5826C62.934 11.9335 57.5289 6.52489 50.8995 6.52489ZM50.8995 9.12143C56.1238 9.12143 60.3318 13.3438 60.3318 18.5826C60.3318 23.8214 56.1238 28.0409 50.8995 28.0409C45.6751 28.0409 41.4672 23.8214 41.4672 18.5826C41.4672 13.3438 45.6751 9.12143 50.8995 9.12143ZM55.2669 14.7399L50.4966 20.4968L47.6282 17.5505C47.1257 17.0395 46.3072 17.0324 45.7947 17.5334C45.2851 18.0345 45.2723 18.8538 45.7662 19.3691L49.6439 23.3531C50.182 23.907 51.0803 23.8713 51.5742 23.2761L57.2741 16.4143C57.7339 15.859 57.657 15.0354 57.1018 14.5757C56.4997 14.0618 55.6583 14.2617 55.2683 14.7385L55.2669 14.7399ZM19.5477 22.391C14.6977 22.391 10.6535 26.1238 10.6535 30.803C10.6535 34.1932 11.7211 37.0924 12.7147 40.4912C13.6286 43.6173 14.5169 47.2159 14.655 52.1463H13.1945C10.9795 52.1463 9.29969 54.1062 9.29969 56.3402V57.6206H4.72162C2.05108 57.6206 -0.00164795 59.9987 -0.00164795 62.7409V66.5493C-0.00164795 67.2702 0.584846 67.8526 1.30373 67.8497H2.49522V70.5533C2.49522 71.9308 3.68102 72.9971 5.00917 72.9971H34.0862C35.4143 72.9971 36.603 71.9294 36.603 70.5533V67.8497H37.7916C38.5062 67.8469 39.0856 67.2659 39.087 66.5493V62.7409C39.087 59.9987 37.0372 57.6206 34.3666 57.6206H30.096V56.3402C30.096 54.1062 28.4163 52.1463 26.2013 52.1463H24.4517C24.5884 47.2159 25.4696 43.6173 26.382 40.4912C27.3728 37.0924 28.4362 34.1932 28.4362 30.803C28.4362 26.1238 24.3991 22.391 19.5491 22.391H19.5477ZM19.5477 24.9976C23.0851 24.9976 25.8439 27.6327 25.8439 30.803C25.8439 33.6308 24.903 36.2745 23.8866 39.7603C22.967 42.915 22.1855 47.0603 22.0147 52.1463H17.0807C16.9099 47.0589 16.1326 42.915 15.2088 39.7603C14.1895 36.2745 13.2514 33.6294 13.2514 30.803C13.2514 27.6341 16.0074 24.9976 19.5463 24.9976H19.5477ZM40.4978 35.1639C39.7618 35.1639 39.1653 35.762 39.1653 36.5C39.1653 37.238 39.7618 37.8361 40.4978 37.8361C41.2337 37.8361 41.8302 37.238 41.8302 36.5C41.8302 35.762 41.2337 35.1639 40.4978 35.1639ZM45.7008 35.1996C44.9819 35.1953 44.3954 35.7777 44.3925 36.4986C44.3897 37.2237 44.9776 37.8118 45.7008 37.8075H63.8935C64.6166 37.8118 65.2045 37.2237 65.2017 36.4986C65.1988 35.7777 64.6123 35.1953 63.8935 35.1996H45.7008ZM32.6982 41.6817C31.9623 41.6817 31.3658 42.2798 31.3658 43.0178C31.3658 43.7557 31.9623 44.3539 32.6982 44.3539C33.4342 44.3539 34.0307 43.7557 34.0307 43.0178C34.0307 42.2798 33.4342 41.6817 32.6982 41.6817ZM37.8984 41.7116C37.1795 41.7145 36.5987 42.3026 36.603 43.0235C36.6058 43.74 37.1838 44.3196 37.8984 44.3224H63.8935C64.6123 44.3267 65.1988 43.7443 65.2017 43.0235C65.206 42.2969 64.618 41.7074 63.8935 41.7116H37.8984ZM40.4978 48.1994C39.7618 48.1994 39.1653 48.7975 39.1653 49.5355C39.1653 50.2735 39.7618 50.8716 40.4978 50.8716C41.2337 50.8716 41.8302 50.2735 41.8302 49.5355C41.8302 48.7975 41.2337 48.1994 40.4978 48.1994ZM45.7008 48.228C44.9776 48.2237 44.3897 48.8118 44.3925 49.5369C44.3954 50.2578 44.9819 50.8402 45.7008 50.8359H63.8935C64.6123 50.8402 65.1988 50.2578 65.2017 49.5369C65.2045 48.8118 64.6166 48.2237 63.8935 48.228H45.7008ZM13.1959 54.7529H26.2013C26.8675 54.7529 27.4967 55.3652 27.4967 56.3388V57.6192H19.7043C18.9868 57.6163 18.4017 58.1973 18.3989 58.9182C18.396 59.6419 18.9825 60.23 19.7043 60.2271H34.3666C35.4855 60.2271 36.4863 61.2578 36.4863 62.7395V65.2404H2.60199V62.7395C2.60199 61.2563 3.60273 60.2271 4.72162 60.2271H14.4998C15.2173 60.2243 15.7981 59.639 15.7953 58.9182C15.7924 58.2016 15.2145 57.622 14.4998 57.6192H11.9005V56.3388C11.9005 55.3652 12.5297 54.7529 13.1959 54.7529ZM61.3994 59.9673H69.8652L59.9987 69.8482V61.362C59.9987 60.5612 60.6023 59.9673 61.4009 59.9673H61.3994ZM5.09601 67.8497H34.0008V70.3878H5.09601V67.8497Z" fill="url(#paint0_linear_294_436)"/>
</g>
</g>
<defs>
<linearGradient id="paint0_linear_294_436" x1="36.4998" y1="0" x2="36.4998" y2="73.0014" gradientUnits="userSpaceOnUse">
<stop stop-color="#00B594"/>
<stop offset="1" stop-color="#254DB5"/>
</linearGradient>
<clipPath id="clip0_294_436">
<rect width="73" height="73" fill="white"/>
</clipPath>
</defs>
</svg>
