<svg width="25" height="25" viewBox="0 0 25 25" fill="none" xmlns="http://www.w3.org/2000/svg">
<g id="Icon" opacity="0.7">
<path id="Vector" d="M20.1143 2.03027H4.11426C3.00969 2.03027 2.11426 2.9257 2.11426 4.03027V8.03027C2.11426 9.13484 3.00969 10.0303 4.11426 10.0303H20.1143C21.2188 10.0303 22.1143 9.13484 22.1143 8.03027V4.03027C22.1143 2.9257 21.2188 2.03027 20.1143 2.03027Z" stroke="#6C788D" stroke-width="2" stroke-linecap="round" stroke-linejoin="round"/>
<path id="Vector_2" d="M20.1143 14.0303H4.11426C3.00969 14.0303 2.11426 14.9257 2.11426 16.0303V20.0303C2.11426 21.1348 3.00969 22.0303 4.11426 22.0303H20.1143C21.2188 22.0303 22.1143 21.1348 22.1143 20.0303V16.0303C22.1143 14.9257 21.2188 14.0303 20.1143 14.0303Z" stroke="#6C788D" stroke-width="2" stroke-linecap="round" stroke-linejoin="round"/>
<path id="Vector_3" d="M6.11426 6.03027H6.12426" stroke="#6C788D" stroke-width="2" stroke-linecap="round" stroke-linejoin="round"/>
<path id="Vector_4" d="M6.11426 18.0303H6.12426" stroke="#6C788D" stroke-width="2" stroke-linecap="round" stroke-linejoin="round"/>
</g>
</svg>
