<svg width="43" height="42" viewBox="0 0 43 42" fill="none" xmlns="http://www.w3.org/2000/svg">
<g id="SASO">
<g id="XMLID_26_">
<path id="Path 1303" d="M12.8085 7.36548C11.0864 9.3351 9.51798 11.4353 8.11726 13.6474C7.64101 14.3907 7.194 15.1469 6.76725 15.909C6.3405 16.6712 5.89801 17.4288 5.49226 18.2098C4.28687 20.538 3.26037 22.9554 2.42175 25.4409C1.26541 28.8555 0.454068 32.3785 0 35.9565L13.8323 27.9445C14.6137 25.7826 15.5667 23.6874 16.6822 21.6791H16.6905V21.6708C17.8624 19.6999 19.1897 17.8265 20.6595 16.0688V0.00476074C17.8025 2.18735 15.1713 4.65334 12.8055 7.36548" fill="#464646"/>
</g>
<path id="XMLID_25_" d="M22.1415 16.0701C23.6151 17.8262 24.9445 19.6997 26.1165 21.6721L26.121 21.6804H26.1255C27.2393 23.6895 28.1923 25.7846 28.9755 27.9457L42.8122 35.9593C42.3611 32.3813 41.5507 28.8583 40.3935 25.4444C39.5585 22.9575 38.5319 20.5398 37.323 18.2133C36.9135 17.4283 36.4885 16.6614 36.048 15.9126C35.6175 15.1527 35.1705 14.3965 34.698 13.651C33.2959 11.4398 31.7276 9.33969 30.0068 7.36902C27.6395 4.65183 25.0043 2.18286 22.1415 0V16.0701Z" fill="#464646"/>
<path id="XMLID_24_" d="M14.613 29.1904C16.8673 29.5877 19.1495 29.804 21.438 29.8372H21.4508C23.7374 29.8018 26.0174 29.58 28.2683 29.1738L42.1058 37.1813C38.7974 38.5835 35.3574 39.6485 31.8375 40.3604C29.2797 40.8788 26.6861 41.1989 24.0795 41.3178C23.202 41.36 22.329 41.372 21.4545 41.3637C20.5898 41.372 19.7085 41.3637 18.8295 41.326C16.2242 41.2159 13.6308 40.9085 11.0715 40.4063C7.54578 39.7064 4.09877 38.6527 0.782257 37.2612L14.613 29.1904Z" fill="#464646"/>
<g id="XMLID_13_">
<path id="XMLID_22_" d="M12.6255 38.1613C11.932 38.0769 11.2954 37.7335 10.842 37.1994L11.4975 36.4727C11.8318 36.8128 12.2569 37.0484 12.7215 37.1511C13.269 37.2393 13.6658 37.029 13.7325 36.6182C13.7581 36.47 13.725 36.3176 13.6403 36.1937C13.3523 35.7821 12.3705 35.4798 11.8815 34.7915C11.7618 34.6303 11.6763 34.4461 11.6302 34.2503C11.5842 34.0545 11.5786 33.8513 11.6138 33.6532C11.6612 33.4128 11.7581 33.185 11.8982 32.9844C12.0384 32.7839 12.2186 32.6149 12.4275 32.4884C12.6363 32.362 12.8692 32.2808 13.1111 32.25C13.353 32.2192 13.5986 32.2396 13.8323 32.3098C14.4808 32.3928 15.0744 32.7182 15.495 33.2212L14.8268 33.8997C14.5346 33.5934 14.1601 33.3789 13.749 33.2823C13.2562 33.1986 12.8633 33.3788 12.8048 33.7346C12.7909 33.7976 12.7917 33.8628 12.8069 33.9254C12.8221 33.988 12.8514 34.0463 12.8925 34.0957C13.1175 34.4063 14.2252 34.8556 14.7097 35.5364C14.8335 35.7033 14.9199 35.8952 14.9631 36.0988C15.0064 36.3024 15.0054 36.513 14.9603 36.7162C14.9131 36.9715 14.8133 37.214 14.6672 37.4282C14.5211 37.6423 14.3319 37.8233 14.1119 37.9595C13.8919 38.0957 13.646 38.184 13.39 38.2187C13.134 38.2535 12.8735 38.2339 12.6255 38.1613Z" fill="#464646"/>
<path id="XMLID_19_" d="M19.689 38.7576L19.3425 37.5439L17.304 37.4135L16.815 38.5722L15.6038 38.5005L18.0038 32.9325L19.2038 33.0079L20.9205 38.8322L19.689 38.7576ZM18.5235 34.26L17.6633 36.502L19.0882 36.5902L18.5235 34.26Z" fill="#464646"/>
<path id="XMLID_17_" d="M23.6115 38.8586C22.9148 38.9139 22.2228 38.7041 21.6727 38.2706L22.17 37.4308C22.5681 37.6957 23.0336 37.8399 23.511 37.8462C24.0623 37.8251 24.411 37.5311 24.3923 37.1157C24.3848 36.9667 24.3222 36.8258 24.2167 36.7207C23.8492 36.3762 22.83 36.2759 22.2113 35.7045C22.0618 35.5704 21.9413 35.407 21.8572 35.2243C21.7731 35.0416 21.7272 34.8435 21.7223 34.6423C21.7209 34.3977 21.7704 34.1555 21.8674 33.9312C21.9644 33.7068 22.1069 33.5053 22.2857 33.3394C22.4645 33.1735 22.6757 33.0469 22.9059 32.9676C23.1362 32.8883 23.3803 32.8582 23.6227 32.879C24.2728 32.8303 24.9177 33.0265 25.4318 33.4293L24.918 34.2314C24.5674 33.9913 24.1556 33.8573 23.7315 33.8455C23.2305 33.862 22.8795 34.1184 22.9005 34.4757C22.8984 34.5401 22.9108 34.6041 22.9368 34.6629C22.9628 34.7218 23.0016 34.774 23.0505 34.8157C23.3347 35.0758 24.5085 35.2899 25.1145 35.8568C25.2712 35.9939 25.3961 36.1638 25.4806 36.3546C25.5651 36.5454 25.607 36.7524 25.6035 36.9612C25.6104 37.2213 25.5629 37.4799 25.4638 37.7203C25.3647 37.9607 25.2164 38.1775 25.0285 38.3564C24.8406 38.5354 24.6173 38.6726 24.3732 38.7592C24.129 38.8457 23.8695 38.8796 23.6115 38.8586Z" fill="#464646"/>
<path id="XMLID_14_" d="M29.6468 38.3256C28.0178 38.5737 26.7143 37.5235 26.451 35.7391C26.3685 35.3657 26.3633 34.9793 26.4357 34.6038C26.5081 34.2283 26.6566 33.8718 26.8718 33.5564C27.0871 33.241 27.3646 32.9735 27.6871 32.7705C28.0097 32.5675 28.3702 32.4333 28.7465 32.3763C29.1228 32.3193 29.5067 32.3407 29.8744 32.4392C30.2421 32.5376 30.5858 32.7111 30.8839 32.9487C31.1821 33.1863 31.4285 33.483 31.6078 33.8204C31.787 34.1578 31.8954 34.5286 31.926 34.9099C32.1923 36.7342 31.2398 38.0821 29.6468 38.3256ZM28.8533 33.3961C27.9533 33.5348 27.4913 34.4583 27.6668 35.6298C27.8423 36.8141 28.6275 37.4564 29.5133 37.3177C30.6743 37.1413 30.8542 35.9864 30.7207 35.0795C30.5467 33.9668 29.7968 33.2567 28.8495 33.3954L28.8533 33.3961Z" fill="#464646"/>
</g>
</g>
</svg>
