<svg width="152" height="107" viewBox="0 0 152 107" fill="none" xmlns="http://www.w3.org/2000/svg">
<g id="Shapes">
<path id="Path 1343" d="M146.66 69.2532C146.471 70.8634 146.071 72.4417 145.47 73.9477L145.254 74.4812L144.738 74.2265C141.713 72.6885 139.002 70.5993 136.743 68.0662L136.4 67.6577L136.804 67.3088C136.918 67.2125 139.664 64.929 146.082 63.3336L146.698 63.1813L146.744 63.8143C146.894 65.6256 146.866 67.4473 146.66 69.2532Z" fill="#D6EEF3"/>
<path id="Path 1343_2" d="M117.088 97.541C118.419 100.074 120.077 102.422 122.019 104.523L122.713 105.266L123.402 104.519C127.407 100.077 130.547 94.9245 132.659 89.3282L132.966 88.439L132.079 88.1282C131.831 88.0419 125.866 86.0122 114.294 87.4354L113.184 87.5716L113.508 88.6443C114.408 91.7195 115.607 94.6992 117.088 97.541Z" fill="#EAF7F9"/>
<g id="shape" opacity="0.06">
<path id="Path 1337" d="M1.45807 65.192C1.99769 67.769 2.87161 70.2645 4.05792 72.615L4.48102 73.45L5.28107 72.966C9.93673 70.0632 14.007 66.3135 17.2811 61.911L17.7811 61.202L17.0721 60.697C16.8721 60.557 12.1159 57.246 1.53693 55.556L0.521057 55.394L0.542053 56.429C0.562859 59.3728 0.869649 62.3075 1.45807 65.192Z" stroke="#464646"/>
<path id="Path 1344" d="M31.238 33.543C31.7349 31.6928 31.9879 29.7857 31.991 27.87V27.189L31.3159 27.237C27.3458 27.5726 23.4745 28.6528 19.9041 30.421L19.3499 30.714L19.6431 31.274C19.7251 31.43 21.722 35.156 28.022 39.765L28.6221 40.208L28.95 39.532C29.9068 37.6154 30.6732 35.6094 31.238 33.543Z" stroke="#464646"/>
<path id="Path 1345" d="M41.477 47.76C42.4858 47.7798 43.4929 47.6665 44.4721 47.423L44.821 47.335L44.7079 46.992C44.0296 44.9859 42.9824 43.1243 41.6201 41.503L41.3979 41.255L41.1491 41.478C39.6941 43.0358 38.5819 44.8816 37.8849 46.896L37.735 47.265L38.122 47.349C39.224 47.5963 40.3478 47.734 41.477 47.76Z" stroke="#464646"/>
<path id="Path 1346" d="M29.4921 11.908C29.9659 10.986 30.3163 10.0055 30.5341 8.99199L30.61 8.631L30.2469 8.58C28.1079 8.30837 25.9368 8.44168 23.847 8.97299L23.5209 9.067L23.6129 9.396C24.3826 11.4363 25.5715 13.2926 27.1029 14.845L27.3739 15.145L27.618 14.819C28.3362 13.9122 28.9639 12.9372 29.4921 11.908Z" stroke="#464646"/>
</g>
<g id="shape_2">
<path id="Union 14" d="M8.36401 72.615C7.17714 70.2647 6.30304 67.7692 5.76401 65.192C5.17204 62.3076 4.86224 59.3724 4.83901 56.428L4.82001 55.394L5.83401 55.555C16.414 57.245 21.173 60.555 21.369 60.697L22.079 61.202L21.584 61.91C18.3096 66.3122 14.2394 70.0619 9.58401 72.965L8.78401 73.448L8.36401 72.615ZM47.284 50.677C47.565 48.0779 48.3869 45.5663 49.697 43.304L49.932 42.969L50.264 43.203C52.336 44.7617 54.0975 46.6951 55.457 48.903L55.684 49.281L55.292 49.481C54.1895 50.0424 53.0182 50.457 51.808 50.714C50.4532 50.9958 49.0738 51.1429 47.69 51.153L47.204 51.161L47.284 50.677ZM38.073 36.877C31.773 32.268 29.773 28.543 29.694 28.386L29.401 27.825L29.955 27.533C33.5255 25.7651 37.3969 24.6853 41.367 24.35L42.042 24.302V24.985C42.0391 26.9003 41.7863 28.8071 41.29 30.657C40.7259 32.7232 39.9606 34.7291 39.005 36.646L38.678 37.322L38.073 36.877ZM34.42 9.40299C31.9104 8.47197 29.6246 7.02363 27.711 5.15199L27.44 4.83699L27.755 4.56099C29.8102 2.8742 32.164 1.58856 34.694 0.770993L35.126 0.636993L35.226 1.07899C35.5078 2.32496 35.6241 3.60263 35.572 4.87899C35.5139 6.30507 35.3169 7.7221 34.984 9.10999L34.884 9.60099L34.42 9.40299Z" stroke="#C1E6EE"/>
</g>
</g>
</svg>
