<svg width="57" height="116" viewBox="0 0 57 116" fill="none" xmlns="http://www.w3.org/2000/svg">
<path d="M28.9565 3.93898C30.1837 4.08336 31.3866 4.38832 32.5344 4.84603L32.941 5.01073L32.7469 5.40388C31.5747 7.70939 29.9824 9.77582 28.0518 11.497L27.7405 11.7587L27.4746 11.4508C27.4012 11.3642 25.6608 9.27125 24.4449 4.37983L24.3288 3.90988L24.8112 3.8752C26.1918 3.7609 27.5802 3.78226 28.9565 3.93898Z" fill="#D6EEF3"/>
<g opacity="0.06">
<path d="M49.8615 114.603C51.8256 114.192 53.7274 113.526 55.5189 112.622L56.1553 112.3L55.7864 111.69C53.5741 108.142 50.7162 105.039 47.3609 102.544L46.8206 102.163L46.4357 102.703C46.329 102.856 43.8055 106.481 42.5175 114.543L42.394 115.318L43.1829 115.302C45.4264 115.286 47.6632 115.052 49.8615 114.603Z" stroke="#464646"/>
<path d="M25.7406 91.9071C24.3305 91.5284 22.877 91.3355 21.417 91.3332L20.8979 91.3332L20.9345 91.8477C21.1903 94.8735 22.0135 97.824 23.3612 100.545L23.5845 100.968L24.0113 100.744C24.1302 100.682 26.9699 99.1596 30.4826 94.3582L30.8203 93.9008L30.305 93.6509C28.8443 92.9217 27.3155 92.3375 25.7406 91.9071Z" stroke="#464646"/>
<path d="M36.5759 84.1034C36.591 83.3346 36.5046 82.567 36.319 81.8207L36.252 81.5548L35.9906 81.641C34.4616 82.158 33.0428 82.9561 31.8072 83.9944L31.6182 84.1637L31.7881 84.3533C32.9754 85.4623 34.3821 86.3099 35.9174 86.8411L36.1986 86.9553L36.2626 86.6604C36.4512 85.8205 36.5561 84.964 36.5759 84.1034Z" stroke="#464646"/>
<path d="M9.25159 93.2377C8.54887 92.8765 7.80164 92.6095 7.02918 92.4435L6.75406 92.3857L6.71519 92.6624C6.50817 94.2927 6.60977 95.9473 7.0147 97.54L7.08635 97.7886L7.33709 97.7184C8.89208 97.1318 10.3068 96.2257 11.49 95.0586L11.7186 94.852L11.4702 94.666C10.779 94.1186 10.036 93.6402 9.25159 93.2377Z" stroke="#464646"/>
</g>
<path d="M55.5185 109.34C53.7272 110.245 51.8253 110.911 49.8611 111.322C47.6628 111.773 45.4258 112.009 43.1817 112.027L42.3937 112.041L42.5164 111.268C43.8044 103.205 46.3271 99.578 46.4353 99.4286L46.8202 98.8875L47.3598 99.2647C50.7149 101.76 53.5727 104.862 55.7852 108.41L56.1533 109.02L55.5185 109.34ZM38.7986 79.6777C36.8177 79.4636 34.9036 78.8371 33.1794 77.8387L32.9241 77.6596L33.1024 77.4065C34.2904 75.8274 35.7639 74.4849 37.4466 73.4488L37.7347 73.2757L37.8871 73.5745C38.315 74.4148 38.6309 75.3075 38.8268 76.2298C39.0416 77.2624 39.1537 78.3137 39.1614 79.3683L39.1675 79.7387L38.7986 79.6777ZM28.2811 86.6978C24.7684 91.4993 21.9294 93.0236 21.8098 93.0838L21.3822 93.3071L21.1597 92.8849C19.8123 90.1636 18.9893 87.2131 18.7338 84.1873L18.6972 83.6729L19.2177 83.6729C20.6775 83.6751 22.1307 83.8678 23.5406 84.246C25.1153 84.6759 26.6441 85.2592 28.105 85.9875L28.6203 86.2367L28.2811 86.6978ZM7.34205 89.4819C6.63248 91.3946 5.52865 93.1367 4.1022 94.5951L3.86212 94.8016L3.65177 94.5616C2.3662 92.9952 1.38636 91.2013 0.763259 89.2731L0.661132 88.9438L0.997998 88.8676C1.9476 88.6529 2.92136 88.5642 3.89413 88.6039C4.98101 88.6482 6.06098 88.7983 7.11875 89.0521L7.49296 89.1283L7.34205 89.4819Z" stroke="#C1E6EE"/>
</svg>
