<svg width="17" height="18" viewBox="0 0 17 18" fill="none" xmlns="http://www.w3.org/2000/svg">
<g id="Trash">
<path id="Vector" d="M2.125 4.5H3.54167H14.875" stroke="#008E7D" stroke-width="2" stroke-linecap="round" stroke-linejoin="round"/>
<path id="Vector_2" d="M13.4584 4.5V15C13.4584 15.3978 13.3092 15.7794 13.0435 16.0607C12.7778 16.342 12.4175 16.5 12.0417 16.5H4.95841C4.58269 16.5 4.22236 16.342 3.95668 16.0607C3.691 15.7794 3.54175 15.3978 3.54175 15V4.5M5.66675 4.5V3C5.66675 2.60218 5.816 2.22064 6.08168 1.93934C6.34736 1.65804 6.70769 1.5 7.08341 1.5H9.91675C10.2925 1.5 10.6528 1.65804 10.9185 1.93934C11.1842 2.22064 11.3334 2.60218 11.3334 3V4.5" stroke="#008E7D" stroke-width="2" stroke-linecap="round" stroke-linejoin="round"/>
<path id="Vector_3" d="M7.08325 8.25V12.75" stroke="#008E7D" stroke-width="2" stroke-linecap="round" stroke-linejoin="round"/>
<path id="Vector_4" d="M9.91675 8.25V12.75" stroke="#008E7D" stroke-width="2" stroke-linecap="round" stroke-linejoin="round"/>
</g>
</svg>
