<svg width="12" height="14" viewBox="0 0 12 14" fill="none" xmlns="http://www.w3.org/2000/svg">
<path id="Vector" d="M4.28571 10.3896H7.71429C8.18571 10.3896 8.57143 10.0346 8.57143 9.60067V5.65584H9.93429C10.6971 5.65584 11.0829 4.80376 10.5429 4.30671L6.60857 0.685362C6.27429 0.377666 5.73429 0.377666 5.4 0.685362L1.46571 4.30671C0.925714 4.80376 1.30286 5.65584 2.06571 5.65584H3.42857V9.60067C3.42857 10.0346 3.81429 10.3896 4.28571 10.3896ZM0.857143 11.9676H11.1429C11.6143 11.9676 12 12.3226 12 12.7565C12 13.1905 11.6143 13.5455 11.1429 13.5455H0.857143C0.385714 13.5455 0 13.1905 0 12.7565C0 12.3226 0.385714 11.9676 0.857143 11.9676Z" fill="#6C788D"/>
</svg>
