<svg width="12" height="15" viewBox="0 0 12 15" fill="none" xmlns="http://www.w3.org/2000/svg">
<path id="Vector" d="M4.28571 10.9206H7.71429C8.18571 10.9206 8.57143 10.5656 8.57143 10.1317V6.18685H9.93429C10.6971 6.18685 11.0829 5.33477 10.5429 4.83772L6.60857 1.21637C6.27429 0.908672 5.73429 0.908672 5.4 1.21637L1.46571 4.83772C0.925714 5.33477 1.30286 6.18685 2.06571 6.18685H3.42857V10.1317C3.42857 10.5656 3.81429 10.9206 4.28571 10.9206ZM0.857143 12.4986H11.1429C11.6143 12.4986 12 12.8536 12 13.2875C12 13.7215 11.6143 14.0765 11.1429 14.0765H0.857143C0.385714 14.0765 0 13.7215 0 13.2875C0 12.8536 0.385714 12.4986 0.857143 12.4986Z" fill="#6C788D"/>
</svg>
